#N canvas 72 26 1084 669 10;
#X obj 126 93 metro 250;
#X obj 185 122 + 1;
#X floatatom 152 178 5 0 0 0 - - -;
#X obj 126 336 mtof;
#X obj 126 422 dac~;
#X floatatom 161 359 5 0 0 0 - - -;
#X obj 126 68 tgl 15 0 empty empty empty 17 7 0 10 -262144 -1 -1 0
1;
#X msg 173 46 125;
#X msg 207 46 250;
#X msg 242 46 500;
#X msg 275 46 1000;
#X obj 126 200 hradio 20 1 0 8 empty empty empty 0 -8 0 10 -204786
-1 -1 5;
#X obj 126 151 mod 8;
#X msg 57 279 60;
#X msg 92 279 62;
#X msg 130 280 64;
#X msg 167 280 65;
#X msg 204 280 67;
#X msg 247 279 69;
#X msg 291 279 70;
#X msg 335 279 72;
#X msg 40 89 \; pd dsp \$1;
#X floatatom 69 167 5 0 0 0 - - -;
#X obj 126 122 i, f 4;
#X obj 126 232 select 0 1 2 3 4 5 6 7;
#X obj 126 383 osc~;
#X connect 0 0 23 0;
#X connect 1 0 23 1;
#X connect 3 0 5 0;
#X connect 3 0 25 0;
#X connect 6 0 0 0;
#X connect 6 0 21 0;
#X connect 7 0 0 1;
#X connect 8 0 0 1;
#X connect 9 0 0 1;
#X connect 10 0 0 1;
#X connect 11 0 24 0;
#X connect 12 0 2 0;
#X connect 12 0 11 0;
#X connect 13 0 3 0;
#X connect 14 0 3 0;
#X connect 15 0 3 0;
#X connect 16 0 3 0;
#X connect 17 0 3 0;
#X connect 18 0 3 0;
#X connect 19 0 3 0;
#X connect 20 0 3 0;
#X connect 23 0 1 0;
#X connect 23 0 12 0;
#X connect 23 0 22 0;
#X connect 24 0 13 0;
#X connect 24 1 14 0;
#X connect 24 2 15 0;
#X connect 24 3 16 0;
#X connect 24 4 17 0;
#X connect 24 5 18 0;
#X connect 24 6 19 0;
#X connect 24 7 20 0;
#X connect 25 0 4 0;
#X connect 25 0 4 1;
