#N canvas 183 23 1097 751 10;
#X obj 126 123 metro 250;
#X obj 126 152 f, f 4;
#X obj 185 152 + 1;
#X floatatom 152 208 5 0 0 0 - - -;
#X obj 126 285 int;
#X obj 126 334 mtof;
#X obj 126 381 phasor~;
#X obj 126 418 dac~;
#X floatatom 84 273 5 0 0 0 - - -;
#X floatatom 161 357 5 0 0 0 - - -;
#X floatatom 85 326 5 0 0 0 - - -;
#X obj 126 181 mod 16;
#X obj 126 98 tgl 15 0 empty empty empty 17 7 0 10 -262144 -1 -1 0
1;
#X obj 126 258 tabread myTable;
#X msg 43 124 \; pd dsp \$1;
#X msg 173 76 125;
#X msg 207 76 250;
#X msg 242 76 500;
#X msg 275 76 1000;
#X obj 124 232 hradio 15 1 0 16 noteSequence empty empty 0 -8 0 10
-204786 -1 -1 9;
#X obj 420 461 tabwrite myTable;
#X floatatom 419 431 5 0 1 0 - - -;
#X obj 436 292 vsl 15 128 40 60 0 0 empty empty empty 0 -9 0 10 -262144
-1 -1 0 1;
#N canvas 0 23 925 503 (subpatch) 0;
#X array myTable 16 float 3;
#A 0 64 63 64 63 64 59 62 60 45 52 57 60 64 69 52 56;
#X coords 0 70 16 38 256 128 1 0 0;
#X restore 465 293 graph;
#X obj 465 430 hradio 16 1 0 16 empty noteSequence empty 0 -8 0 10
-262144 -1 -1 9;
#X text 411 248 B. Writing to a table with slider and radio box aligned
with table;
#X msg 415 53 \; myTable 0 64 63 64 63 64 59 62 60 45 52 57 60 64 69
52 56 \;;
#X obj 126 312 + 12;
#X msg 167 293 0;
#X msg 197 293 12;
#X msg 227 293 -12;
#X msg 415 103 \; myTable 0 50 62 57 55 67 57 66 57 50 62 57 55 67
57 66 57 \;;
#X text 411 24 try these melodies:;
#X msg 415 154 \; myTable 0 50 50 57 57 59 59 57 57 55 55 54 54 52
52 50 50 \;;
#X text 137 508 by adding or subtracting 12 we can change the MIDI
note by an octave;
#X connect 0 0 1 0;
#X connect 1 0 2 0;
#X connect 1 0 11 0;
#X connect 2 0 1 1;
#X connect 4 0 27 0;
#X connect 5 0 6 0;
#X connect 5 0 9 0;
#X connect 6 0 7 0;
#X connect 6 0 7 1;
#X connect 11 0 3 0;
#X connect 11 0 19 0;
#X connect 12 0 0 0;
#X connect 12 0 14 0;
#X connect 13 0 8 0;
#X connect 13 0 4 0;
#X connect 15 0 0 1;
#X connect 16 0 0 1;
#X connect 17 0 0 1;
#X connect 18 0 0 1;
#X connect 19 0 13 0;
#X connect 21 0 20 0;
#X connect 22 0 21 0;
#X connect 24 0 20 1;
#X connect 27 0 10 0;
#X connect 27 0 5 0;
#X connect 28 0 27 1;
#X connect 29 0 27 1;
#X connect 30 0 27 1;
