#N canvas 183 23 1097 751 10;
#X obj 96 93 metro 250;
#X obj 96 122 f, f 4;
#X obj 155 122 + 1;
#X floatatom 122 178 5 0 0 0 - - -;
#X obj 96 255 int;
#X obj 96 304 mtof;
#X obj 96 548 dac~;
#X floatatom 54 243 5 0 0 0 - - -;
#X floatatom 55 324 5 0 0 0 - - -;
#X floatatom 55 296 5 0 0 0 - - -;
#X obj 96 151 mod 16;
#X obj 96 68 tgl 15 0 empty empty empty 17 7 0 10 -262144 -1 -1 0 1
;
#X obj 96 228 tabread myTable;
#X msg 23 93 \; pd dsp \$1;
#X msg 143 46 125;
#X msg 177 46 250;
#X msg 212 46 500;
#X msg 245 46 1000;
#X obj 94 202 hradio 15 1 0 16 noteSequence empty empty 0 -8 0 10 -204786
-1 -1 10;
#X obj 500 461 tabwrite myTable;
#X floatatom 499 431 5 0 1 0 - - -;
#X obj 516 292 vsl 15 128 40 60 0 0 empty empty empty 0 -9 0 10 -262144
-1 -1 0 1;
#N canvas 0 23 925 503 (subpatch) 0;
#X array myTable 16 float 3;
#A 0 50 62 57 55 67 57 66 57 50 62 57 55 67 57 66 57;
#X coords 0 70 16 38 256 128 1 0 0;
#X restore 545 293 graph;
#X obj 545 430 hradio 16 1 0 16 empty noteSequence empty 0 -8 0 10
-262144 -1 -1 10;
#X text 491 248 B. Writing to a table with slider and radio box aligned
with table;
#X msg 495 53 \; myTable 0 64 63 64 63 64 59 62 60 45 52 57 60 64 69
52 56 \;;
#X obj 96 282 + 12;
#X msg 137 263 0;
#X msg 167 263 12;
#X msg 197 263 -12;
#X msg 495 103 \; myTable 0 50 62 57 55 67 57 66 57 50 62 57 55 67
57 66 57 \;;
#X text 491 24 try these melodies:;
#X msg 495 154 \; myTable 0 50 50 57 57 59 59 57 57 55 55 54 54 52
52 50 50 \;;
#X obj 96 509 *~;
#X obj 96 481 osc~;
#X obj 250 235 r beat;
#X obj 42 159 s beat;
#N canvas 262 23 851 592 envelope 0;
#X obj 224 29 inlet;
#X obj 224 55 bng 15 250 50 0 empty empty empty 17 7 0 10 -262144 -1
-1;
#X obj 307 61 vsl 15 128 0 400 0 0 empty empty empty 0 -9 0 10 -262144
-1 -1 1300 1;
#X obj 343 62 vsl 15 128 0 800 0 0 empty empty empty 0 -9 0 10 -262144
-1 -1 1600 1;
#X obj 426 61 vsl 15 128 0 1000 0 0 empty empty empty 0 -9 0 10 -262144
-1 -1 2200 1;
#X text 307 40 A;
#X text 344 40 D;
#X text 425 39 R;
#X obj 192 238 pack f f f f;
#X obj 224 77 t b f;
#X text 475 266 \$1: Trigger \$2: Attack \$3: Decay \$4: Velocity (sustain)
for now 0.8;
#X obj 303 414 outlet~;
#X floatatom 343 199 5 0 0 0 - - -;
#X floatatom 306 200 5 0 0 0 - - -;
#X obj 306 368 vline~;
#X msg 310 308 1 \$2 \, \$4 \$3 \$2;
#X msg 421 307 0 \$2;
#X obj 383 62 vsl 15 128 0 1 0 0 empty empty empty 0 -9 0 10 -262144
-1 -1 5400 1;
#X text 383 40 S;
#X floatatom 383 199 5 0 0 0 - - -;
#X floatatom 425 199 5 0 0 0 - - -;
#X connect 0 0 1 0;
#X connect 1 0 9 0;
#X connect 2 0 13 0;
#X connect 3 0 12 0;
#X connect 4 0 20 0;
#X connect 8 0 15 0;
#X connect 9 0 8 0;
#X connect 12 0 8 2;
#X connect 13 0 8 1;
#X connect 14 0 11 0;
#X connect 15 0 14 0;
#X connect 16 0 14 0;
#X connect 17 0 19 0;
#X connect 20 0 8 3;
#X coords 0 -1 1 1 180 250 1 290 10;
#X restore 250 263 pd envelope;
#X connect 0 0 1 0;
#X connect 0 0 36 0;
#X connect 1 0 2 0;
#X connect 1 0 10 0;
#X connect 2 0 1 1;
#X connect 4 0 26 0;
#X connect 5 0 8 0;
#X connect 5 0 34 0;
#X connect 10 0 3 0;
#X connect 10 0 18 0;
#X connect 11 0 0 0;
#X connect 11 0 13 0;
#X connect 12 0 7 0;
#X connect 12 0 4 0;
#X connect 14 0 0 1;
#X connect 15 0 0 1;
#X connect 16 0 0 1;
#X connect 17 0 0 1;
#X connect 18 0 12 0;
#X connect 20 0 19 0;
#X connect 21 0 20 0;
#X connect 23 0 19 1;
#X connect 26 0 9 0;
#X connect 26 0 5 0;
#X connect 27 0 26 1;
#X connect 28 0 26 1;
#X connect 29 0 26 1;
#X connect 33 0 6 0;
#X connect 33 0 6 1;
#X connect 34 0 33 0;
#X connect 35 0 37 0;
#X connect 37 0 33 1;
