#N canvas 38 95 1164 638 10;
#X obj 389 527 dac~;
#X obj 182 193 receive~;
#X obj 382 192 receive~;
#X obj 583 194 receive~;
#N canvas 0 23 1280 751 effects 0;
#X obj 100 101 cnv 15 150 100 empty empty Switcher 20 12 0 14 -233017
-66577 0;
#X floatatom 275 190 5 0 0 0 - - -;
#X obj 122 130 vradio 15 1 0 4 empty empty empty 0 -8 0 10 -262144
-1 -1 3;
#X text 144 130 Bypass;
#X text 144 145 Delay;
#X text 143 161 Chorus;
#X text 144 177 Tremolo;
#X floatatom 381 117 5 0 0 0 - - -;
#X obj 275 148 loadbang;
#X msg 194 470 set audio;
#X msg 267 470 set none;
#X msg 348 471 set audio;
#X msg 420 471 set none;
#X msg 504 471 set audio;
#X msg 580 471 set none;
#X obj 194 598 send delayswitch;
#X obj 348 598 send chorusswitch;
#X obj 504 599 send tremoloswitch;
#X obj 275 237 sel 0 1 2 3;
#X msg 47 470 set audio;
#X msg 119 470 set none;
#X obj 47 598 send bypassswitch;
#X obj 378 38 bng 15 250 50 0 empty empty empty 17 7 0 10 -262144 -1
-1;
#X obj 497 38 bng 15 250 50 0 empty empty empty 17 7 0 10 -262144 -1
-1;
#X obj 378 10 r button1;
#X obj 425 88 int;
#X msg 496 57 -1;
#X obj 470 87 + 1;
#X msg 422 53 1;
#X obj 468 110 mod 4;
#X obj 497 10 r button2;
#X connect 1 0 18 0;
#X connect 2 0 1 0;
#X connect 7 0 2 0;
#X connect 8 0 1 0;
#X connect 9 0 15 0;
#X connect 10 0 16 0;
#X connect 10 0 21 0;
#X connect 11 0 16 0;
#X connect 12 0 17 0;
#X connect 12 0 15 0;
#X connect 13 0 17 0;
#X connect 14 0 16 0;
#X connect 14 0 21 0;
#X connect 18 0 19 0;
#X connect 18 0 20 0;
#X connect 18 1 9 0;
#X connect 18 1 10 0;
#X connect 18 2 11 0;
#X connect 18 2 12 0;
#X connect 18 3 13 0;
#X connect 18 3 14 0;
#X connect 19 0 21 0;
#X connect 20 0 15 0;
#X connect 20 0 17 0;
#X connect 20 0 16 0;
#X connect 22 0 25 0;
#X connect 22 0 28 0;
#X connect 23 0 26 0;
#X connect 23 0 25 0;
#X connect 24 0 22 0;
#X connect 25 0 27 0;
#X connect 25 0 7 0;
#X connect 26 0 27 1;
#X connect 27 0 29 0;
#X connect 28 0 27 1;
#X connect 29 0 25 1;
#X connect 30 0 23 0;
#X coords 0 -1 1 1 150 100 1 100 100;
#X restore 178 37 pd effects switch;
#X obj 182 170 r delayswitch;
#X obj 382 169 r chorusswitch;
#X obj 583 171 r tremoloswitch;
#X obj 187 511 receive~;
#X obj 187 487 r bypassswitch;
#X obj 181 247 sik/simpledelay;
#X obj 384 247 sik/chorus;
#X obj 586 247 sik/tremolo;
#X obj 814 32 cnv 15 300 500 empty empty routing 20 12 0 14 -204800
-66577 0;
#X obj 863 315 r button1;
#X obj 863 338 bng 15 250 50 0 empty empty empty 17 7 0 10 -262144
-1 -1;
#X obj 969 314 r button2;
#X obj 863 402 r button3;
#X obj 969 402 r button4;
#X obj 969 337 bng 15 250 50 0 empty empty empty 17 7 0 10 -262144
-1 -1;
#X obj 863 426 bng 15 250 50 0 empty empty empty 17 7 0 10 -262144
-1 -1;
#X obj 969 426 bng 15 250 50 0 empty empty empty 17 7 0 10 -262144
-1 -1;
#X obj 863 449 s sampleUp;
#X obj 969 449 s sampleDown;
#X obj 863 67 sik/routing;
#X obj 864 145 r pot1;
#X obj 864 198 s feedback;
#X obj 948 198 s time;
#X obj 948 145 r pot2;
#X obj 864 173 * 0.9;
#X obj 948 173 * 1000;
#X obj 1016 198 s mix;
#X obj 1016 145 r pot3;
#X obj 1016 173 * 1;
#X obj 863 361 s nowwhere;
#X obj 969 360 s nowwhere;
#X obj 34 37 cnv 15 120 400 empty empty Input 20 12 0 14 -261234 -66577
0;
#X obj 49 78 adc~;
#X obj 48 328 send~ audio;
#X obj 48 166 *~;
#X obj 83 167 line~;
#X obj 86 235 vu 30 80 empty empty -1 -8 1 8 -66577 -1 0 0;
#X obj 85 211 - 100;
#X obj 85 189 env~;
#X obj 84 145 \$1 50;
#X obj 84 79 vsl 30 60 0 1 0 0 empty empty empty 0 -9 0 10 -262144
-1 -1 0 1;
#X connect 1 0 10 0;
#X connect 1 0 10 1;
#X connect 2 0 11 0;
#X connect 2 0 11 1;
#X connect 3 0 12 0;
#X connect 3 0 12 1;
#X connect 5 0 1 0;
#X connect 6 0 2 0;
#X connect 7 0 3 0;
#X connect 8 0 0 0;
#X connect 8 0 0 1;
#X connect 9 0 8 0;
#X connect 10 0 0 0;
#X connect 10 1 0 1;
#X connect 11 0 0 0;
#X connect 11 1 0 1;
#X connect 12 0 0 0;
#X connect 12 1 0 1;
#X connect 14 0 15 0;
#X connect 15 0 34 0;
#X connect 16 0 19 0;
#X connect 17 0 20 0;
#X connect 18 0 21 0;
#X connect 19 0 35 0;
#X connect 20 0 22 0;
#X connect 21 0 23 0;
#X connect 25 0 29 0;
#X connect 28 0 30 0;
#X connect 29 0 26 0;
#X connect 30 0 27 0;
#X connect 32 0 33 0;
#X connect 33 0 31 0;
#X connect 37 0 39 0;
#X connect 37 1 39 0;
#X connect 39 0 38 0;
#X connect 39 0 43 0;
#X connect 40 0 39 1;
#X connect 42 0 41 0;
#X connect 43 0 42 0;
#X connect 44 0 40 0;
#X connect 45 0 44 0;
