#N canvas 4 23 1263 751 10;
#X msg 123 293 60;
#X msg 158 293 62;
#X msg 196 294 64;
#X msg 233 294 65;
#X msg 270 294 67;
#X msg 313 293 69;
#X msg 357 293 70;
#X msg 401 293 72;
#X obj 71 112 bng 15 250 50 0 empty empty empty 17 7 0 10 -262144 -1
-1;
#X obj 123 67 tgl 15 0 empty empty empty 17 7 0 10 -262144 -1 -1 0
1;
#X floatatom 123 173 5 0 0 0 - - -;
#X obj 123 205 % 8;
#X floatatom 52 222 5 0 0 0 - - -;
#X obj 123 236 sel 0 1 2 3 4 5 6 7;
#X obj 123 391 mtof;
#X floatatom 74 408 5 0 0 0 - - -;
#X obj 138 732 dac~, f 6;
#X obj 235 49 r tempo;
#N canvas 175 367 651 397 sawwave 0;
#X floatatom 83 54 5 0 0 0 - - -;
#X obj 83 84 phasor~;
#X obj 83 116 *~ 2;
#X obj 83 137 -~ 1;
#X obj 83 21 r Freq;
#X obj 83 194 outlet~;
#X obj 18 67 inlet;
#X obj 83 163 *~ 1;
#X connect 0 0 1 0;
#X connect 1 0 2 0;
#X connect 2 0 3 0;
#X connect 3 0 7 0;
#X connect 4 0 0 0;
#X connect 6 0 1 0;
#X connect 7 0 5 0;
#X restore 299 447 pd sawwave;
#N canvas 139 181 528 574 squarewave 0;
#X floatatom 73 84 5 0 0 0 - - -;
#X obj 73 155 phasor~;
#X obj 140 156 phasor~;
#X obj 129 117 * -1;
#X msg 147 79 0;
#X msg 194 78 0.5;
#X obj 181 48 bng 15 250 50 0 empty empty empty 17 7 0 10 -262144 -1
-1;
#X obj 108 214 +~;
#X obj 108 250 -~ 1;
#X obj 108 280 *~ 1.98;
#X obj 73 51 r Freq;
#X obj 205 32 r load;
#X obj 108 360 outlet~;
#X obj 26 109 inlet;
#X obj 109 314 *~ 1;
#X connect 0 0 1 0;
#X connect 0 0 3 0;
#X connect 1 0 7 0;
#X connect 2 0 7 1;
#X connect 3 0 2 0;
#X connect 4 0 1 1;
#X connect 5 0 2 1;
#X connect 6 0 4 0;
#X connect 6 0 5 0;
#X connect 7 0 8 0;
#X connect 8 0 9 0;
#X connect 9 0 14 0;
#X connect 10 0 0 0;
#X connect 11 0 6 0;
#X connect 13 0 1 0;
#X connect 13 0 2 0;
#X connect 14 0 12 0;
#X restore 123 447 pd squarewave;
#N canvas 338 302 450 300 sinewave 0;
#X obj 83 79 osc~;
#X floatatom 83 48 5 0 0 0 - - -;
#X obj 83 14 r Freq;
#X obj 82 156 outlet~;
#X obj 21 62 inlet~;
#X obj 83 113 *~ 1;
#X obj 17 97;
#X connect 0 0 5 0;
#X connect 1 0 0 0;
#X connect 2 0 1 0;
#X connect 4 0 0 0;
#X connect 5 0 3 0;
#X connect 6 0 5 1;
#X coords 0 300 1 299 10 5 0;
#X restore 218 447 pd sinewave;
#X obj 124 482 send~ square;
#X obj 218 483 send~ sine;
#X obj 300 483 send~ saw;
#X obj 137 647 receive~;
#X msg 137 609 set square;
#X msg 227 609 set sine;
#X msg 310 609 set saw;
#X obj 137 559 sel 0 1 2;
#X obj 137 539 hradio 15 1 0 3 empty empty empty 0 -8 0 10 -262144
-1 -1 1;
#X obj 123 95 metro 500, f 11;
#X obj 137 694 *~;
#X obj 64 18 r startstop;
#X msg 65 50 bang;
#X obj 123 358 makenote 64 250;
#X obj 123 148 counter;
#X msg 224 110 0;
#X msg 275 109 1;
#X obj 322 69 r forward;
#X obj 397 70 r backward;
#X obj 12 436 r wave;
#X obj 12 472 i;
#X obj 46 472 + 1;
#X obj 12 499 % 3;
#X floatatom 12 525 5 0 0 0 - - -;
#X obj 22 592 loadbang;
#X floatatom 251 73 5 0 0 0 - - -;
#X obj 814 32 cnv 15 300 500 empty empty routing 20 12 0 14 -204800
-66577 0;
#X obj 863 315 r button1;
#X obj 863 338 bng 15 250 50 0 empty empty empty 17 7 0 10 -262144
-1 -1;
#X obj 969 314 r button2;
#X obj 863 402 r button3;
#X obj 969 402 r button4;
#X obj 969 337 bng 15 250 50 0 empty empty empty 17 7 0 10 -262144
-1 -1;
#X obj 863 426 bng 15 250 50 0 empty empty empty 17 7 0 10 -262144
-1 -1;
#X obj 969 426 bng 15 250 50 0 empty empty empty 17 7 0 10 -262144
-1 -1;
#X obj 863 67 sik/routing;
#X obj 864 145 r pot1;
#X obj 948 145 r pot2;
#X obj 1016 145 r pot3;
#X obj 1016 173 * 1;
#X obj 863 361 s forward;
#X obj 969 360 s backward;
#X obj 863 449 s wave;
#X obj 969 449 s startstop;
#N canvas 4 23 1253 751 envelope 0;
#X obj 358 40 inlet;
#X obj 359 437 outlet~;
#X msg 358 90 bang;
#X obj 116 135 hsl 128 15 1 500 0 0 empty attack Attack -2 -8 0 10
-262144 -1 -1 12200 1;
#X obj 553 203 delay;
#X obj 358 198 pack;
#X msg 400 150 1 \$1;
#X obj 471 263 pack;
#X obj 115 175 hsl 128 15 1 500 0 0 empty decay Decay -2 -8 0 10 -262144
-1 -1 6700 1;
#X msg 471 190 0 \$1;
#X obj 585 150 float;
#X obj 358 320 line~;
#X obj 113 58 loadbang;
#X connect 0 0 2 0;
#X connect 2 0 4 0;
#X connect 2 0 5 0;
#X connect 3 0 6 0;
#X connect 3 0 10 0;
#X connect 4 0 7 0;
#X connect 5 0 11 0;
#X connect 6 0 5 0;
#X connect 7 0 11 0;
#X connect 8 0 9 0;
#X connect 9 0 7 0;
#X connect 10 0 4 1;
#X connect 11 0 1 0;
#X connect 12 0 3 0;
#X coords 0 -1 1 1 160 100 1 100 100;
#X restore 558 303 pd envelope;
#X obj 864 173 * 500;
#X obj 948 173 * 500;
#X obj 1016 198 s volume;
#X obj 219 662 vsl 30 60 0 1 0 0 empty volume empty 0 -9 0 10 -228856
-1 -1 1967 1;
#X obj 864 198 s attack;
#X obj 948 198 s decay;
#X connect 0 0 34 0;
#X connect 1 0 34 0;
#X connect 2 0 34 0;
#X connect 3 0 34 0;
#X connect 4 0 34 0;
#X connect 5 0 34 0;
#X connect 6 0 34 0;
#X connect 7 0 34 0;
#X connect 9 0 30 0;
#X connect 10 0 11 0;
#X connect 11 0 12 0;
#X connect 11 0 13 0;
#X connect 13 0 0 0;
#X connect 13 1 4 0;
#X connect 13 2 1 0;
#X connect 13 3 2 0;
#X connect 13 4 7 0;
#X connect 13 5 5 0;
#X connect 13 6 6 0;
#X connect 13 7 3 0;
#X connect 13 8 4 0;
#X connect 14 0 15 0;
#X connect 14 0 19 0;
#X connect 14 0 20 0;
#X connect 14 0 18 0;
#X connect 17 0 30 1;
#X connect 17 0 46 0;
#X connect 18 0 23 0;
#X connect 19 0 21 0;
#X connect 20 0 22 0;
#X connect 24 0 31 0;
#X connect 25 0 24 0;
#X connect 26 0 24 0;
#X connect 27 0 24 0;
#X connect 28 0 25 0;
#X connect 28 1 26 0;
#X connect 28 2 27 0;
#X connect 29 0 28 0;
#X connect 30 0 8 0;
#X connect 30 0 35 0;
#X connect 31 0 16 0;
#X connect 31 0 16 1;
#X connect 32 0 33 0;
#X connect 33 0 9 0;
#X connect 34 0 14 0;
#X connect 35 0 10 0;
#X connect 36 0 35 1;
#X connect 37 0 35 1;
#X connect 38 0 36 0;
#X connect 39 0 37 0;
#X connect 40 0 41 0;
#X connect 41 0 42 0;
#X connect 41 0 43 0;
#X connect 42 0 41 1;
#X connect 43 0 44 0;
#X connect 44 0 29 0;
#X connect 45 0 26 0;
#X connect 48 0 49 0;
#X connect 49 0 61 0;
#X connect 50 0 53 0;
#X connect 51 0 54 0;
#X connect 52 0 55 0;
#X connect 53 0 62 0;
#X connect 54 0 63 0;
#X connect 55 0 64 0;
#X connect 57 0 66 0;
#X connect 58 0 67 0;
#X connect 59 0 60 0;
#X connect 60 0 68 0;
#X connect 66 0 70 0;
#X connect 67 0 71 0;
#X connect 69 0 31 1;
