#N canvas 183 23 1097 751 10;
#X obj 126 123 metro 250;
#X obj 126 152 f, f 4;
#X obj 185 152 + 1;
#X floatatom 152 208 5 0 0 0 - - -;
#X obj 126 305 int;
#X obj 126 334 mtof;
#X obj 126 381 phasor~;
#X obj 126 418 dac~;
#X floatatom 184 287 5 0 0 0 - - -;
#X floatatom 161 357 5 0 0 0 - - -;
#X floatatom 70 331 5 0 0 0 - - -;
#X obj 126 181 mod 16;
#X obj 126 98 tgl 15 0 empty empty empty 17 7 0 10 -262144 -1 -1 0
1;
#X obj 126 258 tabread myTable;
#X msg 223 114 \; pd dsp \$1;
#X msg 173 76 125;
#X msg 207 76 250;
#X msg 242 76 500;
#X msg 275 76 1000;
#X obj 124 232 hradio 15 1 0 16 empty empty empty 0 -8 0 10 -204786
-1 -1 8;
#X obj 420 461 tabwrite myTable;
#X floatatom 419 431 5 0 1 0 - - -;
#X obj 436 292 vsl 15 128 -1 1 0 0 empty empty empty 0 -9 0 10 -262144
-1 -1 0 1;
#N canvas 0 23 450 278 (subpatch) 0;
#X array myTable 16 float 3;
#A 0 47.5 50 48.9062 48.9062 52.3438 50.7812 50.7812 55.4688 54.375
55.625 50.625 47.9688 43.4375 40.1562 43.4375 45.7812;
#X coords 0 60 16 40 256 128 1 0 0;
#X restore 465 293 graph;
#X obj 465 430 hradio 16 1 0 16 empty empty empty 0 -8 0 10 -262144
-1 -1 5;
#X text 411 248 B. Writing to a table with slider and radio box aligned
with table;
#X connect 0 0 1 0;
#X connect 1 0 2 0;
#X connect 1 0 11 0;
#X connect 2 0 1 1;
#X connect 4 0 5 0;
#X connect 4 0 10 0;
#X connect 5 0 6 0;
#X connect 5 0 9 0;
#X connect 6 0 7 0;
#X connect 6 0 7 1;
#X connect 11 0 3 0;
#X connect 11 0 19 0;
#X connect 12 0 0 0;
#X connect 12 0 14 0;
#X connect 13 0 8 0;
#X connect 13 0 4 0;
#X connect 15 0 0 1;
#X connect 16 0 0 1;
#X connect 17 0 0 1;
#X connect 18 0 0 1;
#X connect 19 0 13 0;
#X connect 21 0 20 0;
#X connect 22 0 21 0;
#X connect 24 0 20 1;
