#N canvas 183 23 1097 751 10;
#X obj 126 123 metro 250;
#X obj 126 152 f, f 4;
#X obj 185 152 + 1;
#X floatatom 152 208 5 0 0 0 - - -;
#X obj 126 345 int;
#X obj 126 374 mtof;
#X obj 126 421 phasor~;
#X obj 126 460 dac~;
#X floatatom 184 287 5 0 0 0 - - -;
#X floatatom 161 397 5 0 0 0 - - -;
#X floatatom 70 371 5 0 0 0 - - -;
#X obj 126 98 tgl 15 0 empty empty empty 17 7 0 10 -262144 -1 -1 0
1;
#X obj 476 193 tabwrite myTable;
#X floatatom 475 172 5 0 1 0 - - -;
#X obj 433 81 vsl 15 128 40 50 0 0 empty empty empty 0 -9 0 10 -262144
-1 -1 4300 1;
#X obj 126 258 tabread myTable;
#X msg 223 114 \; pd dsp \$1;
#X msg 173 76 125;
#X msg 207 76 250;
#X msg 242 76 500;
#X msg 275 76 1000;
#X obj 126 230 hradio 20 1 0 8 empty empty empty 0 -8 0 10 -204786
-1 -1 2;
#X floatatom 568 171 5 0 0 0 - - -;
#N canvas 0 23 450 278 (subpatch) 0;
#X array myTable 8 float 2;
#X coords 0 50 8 40 256 128 1 0 0;
#X restore 430 259 graph;
#X text 411 61 A. Writing to a table with slider and number box;
#X obj 126 181 mod 8;
#X text 419 458 Challenge: Make a simple 8 note melody;
#X text 419 486 Try sequence 40 \, 40 \, 42 \, 40 \, 43 \, 40 \, 46
\, 43;
#X connect 0 0 1 0;
#X connect 1 0 2 0;
#X connect 1 0 25 0;
#X connect 2 0 1 1;
#X connect 4 0 5 0;
#X connect 4 0 10 0;
#X connect 5 0 6 0;
#X connect 5 0 9 0;
#X connect 6 0 7 0;
#X connect 6 0 7 1;
#X connect 11 0 0 0;
#X connect 11 0 16 0;
#X connect 13 0 12 0;
#X connect 14 0 13 0;
#X connect 15 0 8 0;
#X connect 15 0 4 0;
#X connect 17 0 0 1;
#X connect 18 0 0 1;
#X connect 19 0 0 1;
#X connect 20 0 0 1;
#X connect 21 0 15 0;
#X connect 22 0 12 1;
#X connect 25 0 3 0;
#X connect 25 0 21 0;
