#N canvas 183 23 1097 751 10;
#X obj 126 123 metro 250;
#X obj 126 152 f, f 4;
#X obj 185 152 + 1;
#X floatatom 152 208 5 0 0 0 - - -;
#X obj 126 285 int;
#X obj 126 334 mtof;
#X obj 126 478 dac~;
#X floatatom 84 273 5 0 0 0 - - -;
#X floatatom 85 354 5 0 0 0 - - -;
#X floatatom 85 326 5 0 0 0 - - -;
#X obj 126 181 mod 16;
#X obj 126 98 tgl 15 0 empty empty empty 17 7 0 10 -262144 -1 -1 0
1;
#X obj 126 258 tabread myTable;
#X msg 53 123 \; pd dsp \$1;
#X obj 124 232 hradio 15 1 0 16 noteSequence empty empty 0 -8 0 10
-204786 -1 -1 11;
#X obj 420 461 tabwrite myTable;
#X floatatom 419 431 5 0 1 0 - - -;
#X obj 436 292 vsl 15 128 40 60 0 0 empty empty empty 0 -9 0 10 -262144
-1 -1 0 1;
#N canvas 0 23 925 503 (subpatch) 0;
#X array myTable 16 float 3;
#A 0 64 63 64 63 64 59 62 60 45 52 57 60 64 69 52 56;
#X coords 0 70 16 38 256 128 1 0 0;
#X restore 465 293 graph;
#X obj 465 430 hradio 16 1 0 16 empty noteSequence empty 0 -8 0 10
-262144 -1 -1 11;
#X text 411 248 B. Writing to a table with slider and radio box aligned
with table;
#X msg 415 53 \; myTable 0 64 63 64 63 64 59 62 60 45 52 57 60 64 69
52 56 \;;
#X obj 126 312 + 12;
#X msg 167 293 0;
#X msg 197 293 12;
#X msg 227 293 -12;
#X msg 415 103 \; myTable 0 50 62 57 55 67 57 66 57 50 62 57 55 67
57 66 57 \;;
#X text 411 24 try these melodies:;
#X msg 415 154 \; myTable 0 50 50 57 57 59 59 57 57 55 55 54 54 52
52 50 50 \;;
#X obj 126 439 *~;
#X obj 126 411 osc~;
#X obj 185 371 / 127;
#X obj 185 414 line~;
#X floatatom 185 351 5 0 0 0 - - -;
#X obj 275 375 / 127;
#X floatatom 275 353 5 0 0 0 - - -;
#X obj 185 392 pack 1 50;
#X obj 276 396 pack 0 100;
#X obj 285 312 r beat;
#X obj 72 189 s beat;
#X obj 322 350 bng 15 250 50 0 empty empty empty 17 7 0 10 -262144
-1 -1;
#N canvas 0 23 422 395 bpm 0;
#X obj 113 26 inlet;
#X text 155 27 bpm;
#X obj 201 27 inlet;
#X floatatom 113 87 5 0 0 0 - - -;
#X obj 113 159 /;
#X msg 113 133 60000;
#X text 243 28 note value;
#X obj 113 109 t b f;
#X obj 113 185 int;
#X obj 192 305 outlet;
#X floatatom 71 199 5 0 0 0 - - -;
#X obj 144 229 *;
#X msg 193 178 1;
#X msg 203 198 1.5;
#X msg 189 157 0.5;
#X msg 179 137 0.25;
#X text 228 178 quarter;
#X text 235 198 dotted quarter;
#X floatatom 120 277 5 0 0 0 - - -;
#X text 222 157 8th;
#X text 218 137 16th;
#X obj 201 72 t b f;
#X obj 228 97 select 0 1 2 3;
#X connect 0 0 3 0;
#X connect 2 0 21 0;
#X connect 3 0 7 0;
#X connect 4 0 8 0;
#X connect 5 0 4 0;
#X connect 7 0 5 0;
#X connect 7 1 4 1;
#X connect 8 0 10 0;
#X connect 8 0 11 0;
#X connect 11 0 9 0;
#X connect 11 0 18 0;
#X connect 12 0 11 1;
#X connect 13 0 11 1;
#X connect 14 0 11 1;
#X connect 15 0 11 1;
#X connect 21 0 3 0;
#X connect 21 1 22 0;
#X connect 22 0 15 0;
#X connect 22 1 14 0;
#X connect 22 2 12 0;
#X connect 22 3 13 0;
#X restore 188 92 pd bpm;
#X obj 186 15 vsl 15 64 0 180 0 0 empty empty Tempo 0 -9 0 10 -204800
-1 -1 4200 1;
#X obj 227 19 vradio 15 1 0 4 empty empty Note_Divisions 0 -8 0 10
-204800 -1 -1 1;
#X floatatom 188 449 5 0 0 0 - - -;
#X obj 243 438 snapshot~;
#X connect 0 0 1 0;
#X connect 0 0 39 0;
#X connect 1 0 2 0;
#X connect 1 0 10 0;
#X connect 2 0 1 1;
#X connect 4 0 22 0;
#X connect 5 0 8 0;
#X connect 5 0 30 0;
#X connect 10 0 3 0;
#X connect 10 0 14 0;
#X connect 11 0 0 0;
#X connect 11 0 13 0;
#X connect 12 0 7 0;
#X connect 12 0 4 0;
#X connect 14 0 12 0;
#X connect 16 0 15 0;
#X connect 17 0 16 0;
#X connect 19 0 15 1;
#X connect 22 0 9 0;
#X connect 22 0 5 0;
#X connect 23 0 22 1;
#X connect 24 0 22 1;
#X connect 25 0 22 1;
#X connect 29 0 6 0;
#X connect 29 0 6 1;
#X connect 30 0 29 0;
#X connect 31 0 36 0;
#X connect 32 0 45 0;
#X connect 33 0 31 0;
#X connect 34 0 37 0;
#X connect 35 0 34 0;
#X connect 36 0 32 0;
#X connect 38 0 35 0;
#X connect 38 0 33 0;
#X connect 38 0 40 0;
#X connect 41 0 0 1;
#X connect 42 0 41 0;
#X connect 43 0 41 1;
#X connect 45 0 44 0;
