#N canvas 0 23 1280 751 10;
#N canvas 46 91 450 278 (subpatch) 0;
#X array pitches 12 float 2;
#X coords 0 90 12 40 240 200 1 0 0;
#X restore 199 80 graph;
#X obj 596 298 +~;
#X obj 591 171 osc~ 220;
#X obj 594 360 dac~;
#X obj 728 -153 loadbang;
#X msg 593 -109 1;
#X obj 771 215 line~;
#X obj 769 295 *~ 0.3;
#X obj 594 323 *~ 0.2;
#X msg 869 225 0.3;
#X obj 593 -51 metro 300;
#X msg 679 113 440;
#X msg 738 142 220;
#X obj 762 342 delwrite~ del 1000;
#X obj 771 142 * 600;
#X obj 857 -111 hsl 240 15 0 1 0 0 empty pot5 Arp_Speed -2 -8 0 10
-204800 -1 -1 1900 1;
#X obj 856 -64 hsl 240 15 0 1 0 0 empty pot6 Pitch_Spread -2 -8 0 10
-261682 -1 -1 1200 1;
#X obj 859 -25 hsl 240 15 0 1 0 0 empty pot7 Delay_Time -2 -8 0 10
-204786 -1 -1 10400 1;
#X obj 856 48 hsl 240 15 0 1 0 0 empty pot8 Regeneration -2 -8 0 10
-262130 -1 -1 0 1;
#X obj 771 259 vd~ del;
#X obj 771 165 + 20;
#X obj 593 140 * 150;
#X obj 644 -74 * 1000;
#X msg 771 191 \$1 20;
#X obj 677 151 t b b;
#X obj 635 228 line~;
#X obj 597 259 *~;
#X obj 1032 -225 tgl 15 0 empty empty empty 17 7 0 10 -262144 -1 -1
1 1;
#X msg 1033 -204 \; pd dsp \$1;
#N canvas 179 320 1078 750 routing_buttons 0;
#X obj 135 42 r buttons;
#X obj 135 70 unpack;
#X obj 138 98 route 1 2 3 4;
#X obj 35 126 s button1;
#X obj 106 126 s button2;
#X obj 178 126 s button3;
#X obj 249 126 s button4;
#X obj 367 37 r button1;
#X obj 367 60 bng 15 250 50 0 empty empty empty 17 7 0 10 -262144 -1
-1;
#X obj 493 38 r button2;
#X obj 367 124 r button3;
#X obj 493 126 r button4;
#X obj 493 61 bng 15 250 50 0 empty empty empty 17 7 0 10 -262144 -1
-1;
#X obj 367 148 bng 15 250 50 0 empty empty empty 17 7 0 10 -262144
-1 -1;
#X obj 493 150 bng 15 250 50 0 empty empty empty 17 7 0 10 -262144
-1 -1;
#X obj 367 84 s btn1;
#X obj 493 83 s btn2;
#X obj 367 171 s btn3;
#X obj 495 173 s btn4;
#X connect 0 0 1 0;
#X connect 1 0 2 0;
#X connect 2 0 3 0;
#X connect 2 1 4 0;
#X connect 2 2 5 0;
#X connect 2 3 6 0;
#X connect 7 0 8 0;
#X connect 8 0 15 0;
#X connect 9 0 12 0;
#X connect 10 0 13 0;
#X connect 11 0 14 0;
#X connect 12 0 16 0;
#X connect 13 0 17 0;
#X connect 14 0 18 0;
#X restore 856 -232 pd routing_buttons;
#N canvas 542 293 1078 750 routing_delay 0;
#X obj 139 72 hsl 80 15 0 1023 0 0 empty empty empty -2 -8 0 10 -228856
-1 -1 0 1;
#X obj 136 150 nbx 5 14 -1e+37 1e+37 0 0 empty empty empty 0 -8 0 10
-228856 -1 -1 0 256;
#X obj 136 96 nbx 5 14 -1e+37 1e+37 0 0 empty empty empty 0 -8 0 10
-228856 -1 -1 0 256;
#X obj 136 121 mapper, f 12;
#X text 132 49 input pot 1;
#X text 230 49 pot range;
#X text 232 111 new range;
#X obj 137 210 hsl 80 15 0 1023 0 0 empty empty empty -2 -8 0 10 -228856
-1 -1 0 1;
#X obj 134 288 nbx 5 14 -1e+37 1e+37 0 0 empty empty empty 0 -8 0 10
-228856 -1 -1 0 256;
#X obj 134 234 nbx 5 14 -1e+37 1e+37 0 0 empty empty empty 0 -8 0 10
-228856 -1 -1 0 256;
#X obj 134 259 mapper, f 12;
#X text 130 187 input pot 2;
#X obj 45 71 r p1;
#X obj 48 210 r p2;
#X obj 45 100 unpack;
#X obj 48 239 unpack;
#X text 276 71 low, f 5;
#X text 277 94 high, f 5;
#X text 278 132 low, f 5;
#X text 279 155 high, f 5;
#X msg 233 69 0;
#X text 233 190 pot range;
#X text 235 252 new range;
#X text 279 212 low, f 5;
#X text 280 235 high, f 5;
#X text 281 273 low, f 5;
#X text 282 296 high, f 5;
#X msg 236 210 0;
#X msg 237 233 1024;
#X obj 140 362 hsl 80 15 0 1023 0 0 empty empty empty -2 -8 0 10 -228856
-1 -1 0 1;
#X obj 137 440 nbx 5 14 -1e+37 1e+37 0 0 empty empty empty 0 -8 0 10
-228856 -1 -1 0 256;
#X obj 137 386 nbx 5 14 -1e+37 1e+37 0 0 empty empty empty 0 -8 0 10
-228856 -1 -1 0 256;
#X obj 137 411 mapper, f 12;
#X obj 51 391 unpack;
#X text 236 342 pot range;
#X text 238 404 new range;
#X text 282 364 low, f 5;
#X text 283 387 high, f 5;
#X text 284 425 low, f 5;
#X text 285 448 high, f 5;
#X msg 239 362 0;
#X msg 240 385 1024;
#X text 133 339 input pot 3;
#X obj 51 362 r p3;
#X obj 140 500 hsl 80 15 0 1023 0 0 empty empty empty -2 -8 0 10 -228856
-1 -1 0 1;
#X obj 137 578 nbx 5 14 -1e+37 1e+37 0 0 empty empty empty 0 -8 0 10
-228856 -1 -1 0 256;
#X obj 137 524 nbx 5 14 -1e+37 1e+37 0 0 empty empty empty 0 -8 0 10
-228856 -1 -1 0 256;
#X obj 137 549 mapper, f 12;
#X obj 51 529 unpack;
#X text 236 480 pot range;
#X text 238 542 new range;
#X text 282 502 low, f 5;
#X text 283 525 high, f 5;
#X text 284 563 low, f 5;
#X text 285 586 high, f 5;
#X msg 239 500 0;
#X text 133 477 input pot 4;
#X obj 51 500 r p4;
#X msg 233 130 0;
#X msg 239 423 0;
#X obj 351 61 loadbang;
#X obj 344 216 loadbang;
#X obj 339 363 loadbang;
#X obj 339 504 loadbang;
#X obj 53 593 s pot4;
#X obj 567 66 hsl 80 15 0 1023 0 0 empty empty empty -2 -8 0 10 -228856
-1 -1 0 1;
#X obj 564 144 nbx 5 14 -1e+37 1e+37 0 0 empty empty empty 0 -8 0 10
-228856 -1 -1 0 256;
#X obj 564 90 nbx 5 14 -1e+37 1e+37 0 0 empty empty empty 0 -8 0 10
-228856 -1 -1 0 256;
#X obj 564 115 mapper, f 12;
#X text 658 43 pot range;
#X text 660 105 new range;
#X obj 565 204 hsl 80 15 0 1023 0 0 empty empty empty -2 -8 0 10 -228856
-1 -1 0 1;
#X obj 562 282 nbx 5 14 -1e+37 1e+37 0 0 empty empty empty 0 -8 0 10
-228856 -1 -1 0 256;
#X obj 562 228 nbx 5 14 -1e+37 1e+37 0 0 empty empty empty 0 -8 0 10
-228856 -1 -1 0 256;
#X obj 562 253 mapper, f 12;
#X obj 473 94 unpack;
#X obj 476 233 unpack;
#X text 704 65 low, f 5;
#X text 705 88 high, f 5;
#X text 706 126 low, f 5;
#X text 707 149 high, f 5;
#X msg 661 63 0;
#X text 661 184 pot range;
#X text 663 246 new range;
#X text 707 206 low, f 5;
#X text 708 229 high, f 5;
#X text 709 267 low, f 5;
#X text 710 290 high, f 5;
#X msg 664 204 0;
#X obj 568 356 hsl 80 15 0 1023 0 0 empty empty empty -2 -8 0 10 -228856
-1 -1 0 1;
#X obj 565 434 nbx 5 14 -1e+37 1e+37 0 0 empty empty empty 0 -8 0 10
-228856 -1 -1 0 256;
#X obj 565 380 nbx 5 14 -1e+37 1e+37 0 0 empty empty empty 0 -8 0 10
-228856 -1 -1 0 256;
#X obj 565 405 mapper, f 12;
#X obj 479 385 unpack;
#X text 664 336 pot range;
#X text 666 398 new range;
#X text 710 358 low, f 5;
#X text 711 381 high, f 5;
#X text 712 419 low, f 5;
#X text 713 442 high, f 5;
#X msg 667 356 0;
#X obj 568 494 hsl 80 15 0 1023 0 0 empty empty empty -2 -8 0 10 -228856
-1 -1 0 1;
#X obj 565 572 nbx 5 14 -1e+37 1e+37 0 0 empty empty empty 0 -8 0 10
-228856 -1 -1 0 256;
#X obj 565 518 nbx 5 14 -1e+37 1e+37 0 0 empty empty empty 0 -8 0 10
-228856 -1 -1 0 256;
#X obj 565 543 mapper, f 12;
#X obj 479 523 unpack;
#X text 664 474 pot range;
#X text 666 536 new range;
#X text 710 496 low, f 5;
#X text 711 519 high, f 5;
#X text 712 557 low, f 5;
#X text 713 580 high, f 5;
#X msg 667 494 0;
#X msg 661 124 0;
#X msg 667 417 0;
#X obj 778 56 loadbang;
#X obj 772 210 loadbang;
#X obj 767 357 loadbang;
#X obj 767 498 loadbang;
#X text 560 43 input pot 5;
#X text 558 181 input pot 6;
#X text 561 333 input pot 7;
#X obj 481 449 s pot7;
#X text 561 471 input pot 8;
#X obj 481 587 s pot8;
#X obj 473 65 r p5;
#X obj 476 204 r p6;
#X obj 479 356 r p7;
#X obj 479 494 r p8;
#X msg 239 561 0;
#X msg 664 265 0;
#X msg 667 555 0;
#X msg 236 271 0;
#X msg 234 92 1022;
#X msg 240 586 1;
#X msg 668 580 1;
#X msg 240 523 1022;
#X msg 668 517 1022;
#X msg 237 296 1000;
#X msg 240 448 1;
#X msg 662 149 1;
#X obj 473 159 s pot5;
#X msg 665 290 1;
#X obj 481 298 s pot6;
#X msg 669 442 1;
#X msg 668 379 1023;
#X msg 665 227 1023;
#X msg 662 86 1023;
#X obj 47 165 s pot1;
#X obj 53 304 s pot2;
#X obj 54 456 s pot3;
#X msg 235 159 1;
#X connect 0 0 2 0;
#X connect 1 0 148 0;
#X connect 2 0 3 0;
#X connect 3 0 1 0;
#X connect 7 0 9 0;
#X connect 8 0 149 0;
#X connect 9 0 10 0;
#X connect 10 0 8 0;
#X connect 12 0 14 0;
#X connect 13 0 15 0;
#X connect 14 0 0 0;
#X connect 15 0 7 0;
#X connect 20 0 3 1;
#X connect 27 0 10 1;
#X connect 28 0 10 2;
#X connect 29 0 31 0;
#X connect 30 0 150 0;
#X connect 31 0 32 0;
#X connect 32 0 30 0;
#X connect 33 0 29 0;
#X connect 40 0 32 1;
#X connect 41 0 32 2;
#X connect 43 0 33 0;
#X connect 44 0 46 0;
#X connect 45 0 64 0;
#X connect 46 0 47 0;
#X connect 47 0 45 0;
#X connect 48 0 44 0;
#X connect 55 0 47 1;
#X connect 57 0 48 0;
#X connect 58 0 3 3;
#X connect 59 0 32 3;
#X connect 60 0 20 0;
#X connect 60 0 133 0;
#X connect 60 0 58 0;
#X connect 60 0 151 0;
#X connect 61 0 27 0;
#X connect 61 0 28 0;
#X connect 61 0 132 0;
#X connect 61 0 138 0;
#X connect 62 0 40 0;
#X connect 62 0 41 0;
#X connect 62 0 59 0;
#X connect 62 0 139 0;
#X connect 63 0 55 0;
#X connect 63 0 136 0;
#X connect 63 0 129 0;
#X connect 63 0 134 0;
#X connect 65 0 67 0;
#X connect 66 0 141 0;
#X connect 67 0 68 0;
#X connect 68 0 66 0;
#X connect 71 0 73 0;
#X connect 72 0 143 0;
#X connect 73 0 74 0;
#X connect 74 0 72 0;
#X connect 75 0 65 0;
#X connect 76 0 71 0;
#X connect 81 0 68 1;
#X connect 88 0 74 1;
#X connect 89 0 91 0;
#X connect 90 0 122 0;
#X connect 91 0 92 0;
#X connect 92 0 90 0;
#X connect 93 0 89 0;
#X connect 100 0 92 1;
#X connect 101 0 103 0;
#X connect 102 0 124 0;
#X connect 103 0 104 0;
#X connect 104 0 102 0;
#X connect 105 0 101 0;
#X connect 112 0 104 1;
#X connect 113 0 68 3;
#X connect 114 0 92 3;
#X connect 115 0 81 0;
#X connect 115 0 147 0;
#X connect 115 0 113 0;
#X connect 115 0 140 0;
#X connect 116 0 88 0;
#X connect 116 0 146 0;
#X connect 116 0 130 0;
#X connect 116 0 142 0;
#X connect 117 0 100 0;
#X connect 117 0 145 0;
#X connect 117 0 114 0;
#X connect 117 0 144 0;
#X connect 118 0 112 0;
#X connect 118 0 137 0;
#X connect 118 0 131 0;
#X connect 118 0 135 0;
#X connect 125 0 75 0;
#X connect 126 0 76 0;
#X connect 127 0 93 0;
#X connect 128 0 105 0;
#X connect 129 0 47 3;
#X connect 130 0 74 3;
#X connect 131 0 104 3;
#X connect 132 0 10 3;
#X connect 133 0 3 2;
#X connect 134 0 47 4;
#X connect 135 0 104 4;
#X connect 136 0 47 2;
#X connect 137 0 104 2;
#X connect 138 0 10 4;
#X connect 139 0 32 4;
#X connect 140 0 68 4;
#X connect 142 0 74 4;
#X connect 144 0 92 4;
#X connect 145 0 92 2;
#X connect 146 0 74 2;
#X connect 147 0 68 2;
#X connect 151 0 3 4;
#X restore 855 -197 pd routing_delay;
#X obj 1036 -268 r btn1;
#X obj 767 397 hsl 128 30 0 1 0 0 empty pot1 Volume -2 -8 0 10 -232576
-1 -1 10200 1;
#X floatatom 854 8 5 0 0 0 - - -;
#X obj 544 77 tabread pitches;
#X obj 545 100 mtof;
#X obj 620 114 + 1;
#X floatatom 521 172 8 0 0 0 - - -;
#X floatatom 507 101 5 0 0 0 - - -;
#X obj 586 -9 i;
#X obj 631 -9 + 1;
#X obj 586 15 % 12;
#X obj 199 290 hradio 20 1 0 12 empty empty empty 0 -8 0 10 -262144
-1 -1 10;
#X obj 514 30 s beat;
#X obj 147 265 r beat;
#X msg 198 -220 tempo \$1;
#X msg 261 -220 resolution \$1;
#X floatatom 198 -239 5 0 0 2 tempo tempo -;
#X floatatom 261 -238 5 0 0 2 resolution resolution -;
#X obj 224 -171 abl_link~ 1 0 4 140;
#X obj 123 -239 tgl 15 0 empty empty connected 0 -8 0 10 -262144 -1
-1 1 1;
#X msg 123 -219 connect \$1;
#X obj 224 -142 t b f;
#X text 123 -280 Ableton Link data;
#X obj 280 -108 s linktempo;
#X floatatom 662 -41 5 0 0 0 - - -;
#X obj 535 -200 r linktempo;
#X msg 659 183 0 400;
#X obj 717 183 1;
#X msg 153 -31 \; pitches 0 72 81 74 79 76 81 74 79 81 76 72 67 \;
;
#X msg 153 -71 \; pitches 0 60 72 62 69 60 64 62 67 72 69 72 60 \;
;
#X connect 1 0 8 0;
#X connect 2 0 26 0;
#X connect 4 0 5 0;
#X connect 4 0 9 0;
#X connect 4 0 11 0;
#X connect 4 0 12 0;
#X connect 5 0 10 0;
#X connect 5 0 22 0;
#X connect 6 0 19 0;
#X connect 7 0 13 0;
#X connect 8 0 3 0;
#X connect 8 0 3 1;
#X connect 9 0 7 1;
#X connect 10 0 24 0;
#X connect 10 0 39 0;
#X connect 11 0 21 1;
#X connect 12 0 23 0;
#X connect 14 0 20 0;
#X connect 15 0 22 0;
#X connect 16 0 36 0;
#X connect 17 0 14 0;
#X connect 17 0 33 0;
#X connect 18 0 7 1;
#X connect 19 0 1 1;
#X connect 19 0 7 0;
#X connect 20 0 23 0;
#X connect 21 0 2 0;
#X connect 21 0 37 0;
#X connect 22 0 10 1;
#X connect 22 0 55 0;
#X connect 23 0 6 0;
#X connect 24 0 57 0;
#X connect 24 1 58 0;
#X connect 25 0 26 1;
#X connect 26 0 1 0;
#X connect 26 0 13 0;
#X connect 27 0 28 0;
#X connect 31 0 27 0;
#X connect 32 0 8 1;
#X connect 34 0 35 0;
#X connect 34 0 38 0;
#X connect 35 0 21 0;
#X connect 36 0 21 1;
#X connect 39 0 40 0;
#X connect 39 0 41 0;
#X connect 40 0 39 1;
#X connect 41 0 34 0;
#X connect 41 0 43 0;
#X connect 44 0 42 0;
#X connect 45 0 49 0;
#X connect 46 0 49 0;
#X connect 47 0 45 0;
#X connect 48 0 46 0;
#X connect 49 0 52 0;
#X connect 50 0 51 0;
#X connect 51 0 49 0;
#X connect 52 0 54 0;
#X connect 56 0 5 0;
#X connect 57 0 25 0;
#X connect 58 0 25 0;
#X coords 0 751 1 750 200 200 0;
