#N canvas 537 114 1285 961 10;
#X obj 201 139 list fromsymbol;
#N canvas 45 50 450 278 (subpatch) 0;
#X array pitches 12 float 2;
#X coords 0 90 12 40 242 200 1 0 0;
#X restore 199 373 graph;
#X obj 201 277 array set pitches;
#X obj 201 163 unpack 0 0 0 0 0 0 0 0 0 0 0 0 0 0 0 0 0 0;
#X obj 201 208 pack 0 0 0 0 0 0 0 0 0 0 0 0;
#X text 433 185 filtering out the colon;
#X text 352 81 taking a UID number from a phone converting ascii into
numbered list putting numbers into a table;
#X msg 213 231 \; pitches resize 12 \; pitches bounds 0 90 12 40 \;
;
#N canvas 620 203 922 636 tcpcom 0;
#X obj 38 226 s p1;
#X obj 69 226 s p2;
#X obj 99 226 s p3;
#X obj 130 226 s p4;
#X obj 161 226 s p5;
#X obj 191 226 s p6;
#X obj 222 226 s p7;
#X obj 252 226 s p8;
#X obj 266 196 s buttons;
#X floatatom 262 160 5 0 0 0 - - -, f 5;
#X obj 39 131 netreceive 3000 1;
#X text 35 69 Receive messages from Python and route them to the proper
receive objects;
#X obj 348 196 s bluetoothID;
#X obj 39 164 route 0 1 2 3 4 5 6 7 8 9, f 28;
#X connect 10 0 9 0;
#X connect 10 0 13 0;
#X connect 13 0 0 0;
#X connect 13 1 1 0;
#X connect 13 2 2 0;
#X connect 13 3 3 0;
#X connect 13 4 4 0;
#X connect 13 5 5 0;
#X connect 13 6 6 0;
#X connect 13 7 7 0;
#X connect 13 8 8 0;
#X connect 13 9 12 0;
#X restore 353 115 pd tcpcom;
#X obj 203 111 unpack s;
#X obj 596 690 +~;
#X obj 591 563 osc~ 220;
#X obj 594 752 dac~;
#X obj 728 239 loadbang;
#X msg 593 283 1;
#X obj 771 607 line~;
#X obj 769 687 *~ 0.3;
#X obj 594 715 *~ 0.2;
#X msg 869 617 0.3;
#X obj 593 341 metro 300;
#X msg 679 505 440;
#X msg 738 534 220;
#X obj 762 734 delwrite~ del 1000;
#X obj 771 534 * 600;
#X obj 857 281 hsl 240 15 0 1 0 0 empty pot5 Arp_Speed -2 -8 0 10 -204800
-1 -1 11530 1;
#X obj 856 328 hsl 240 15 0 1 0 0 empty pot6 Pitch_Spread -2 -8 0 10
-261682 -1 -1 7796 1;
#X obj 857 377 hsl 240 15 0 1 0 0 empty pot7 Delay_Time -2 -8 0 10
-204786 -1 -1 16525 1;
#X obj 856 440 hsl 240 15 0 1 0 0 empty pot8 Regeneration -2 -8 0 10
-262130 -1 -1 3555 1;
#X obj 771 651 vd~ del;
#X obj 771 557 + 20;
#X obj 593 532 * 150;
#X obj 644 318 * 1000;
#X msg 771 583 \$1 20;
#X msg 659 575 0 300;
#X obj 677 543 t b b;
#X obj 635 620 line~;
#X obj 597 651 *~;
#X obj 717 575 1;
#X obj 614 193 tgl 15 0 empty empty empty 17 7 0 10 -262144 -1 -1 0
1;
#X msg 614 213 \; pd dsp \$1;
#X obj 767 789 hsl 128 30 0 1 0 0 empty pot1 Volume -2 -8 0 10 -232576
-1 -1 7950 1;
#X floatatom 854 400 5 0 0 0 - - -, f 5;
#X obj 201 80 r bluetoothID;
#X obj 544 469 tabread pitches;
#X obj 545 492 mtof;
#X msg 62 79 OO:EE:BD:DB:16:E1;
#X obj 620 506 + 1;
#X floatatom 521 564 8 0 0 0 - - -, f 8;
#X floatatom 507 493 5 0 0 0 - - -, f 5;
#X obj 586 383 i;
#X obj 631 383 + 1;
#X obj 586 407 % 12;
#X obj 117 170 print;
#X obj 200 580 hradio 20 1 0 12 empty empty empty 0 -8 0 10 -262144
-1 -1 2;
#X obj 521 421 s beat;
#X obj 156 558 r beat;
#X obj 617 149 r button1;
#N canvas 528 377 1078 750 routing 0;
#X obj 139 72 hsl 80 15 0 1024 0 0 empty empty empty -2 -8 0 10 -228856
-1 -1 4945 1;
#X obj 136 150 nbx 5 14 -1e+37 1e+37 0 0 empty empty empty 0 -8 0 10
-228856 -1 -1 0.625977 256;
#X obj 136 96 nbx 5 14 -1e+37 1e+37 0 0 empty empty empty 0 -8 0 10
-228856 -1 -1 641 256;
#X text 132 49 input pot 1;
#X text 230 49 pot range;
#X text 232 111 new range;
#X obj 137 210 hsl 80 15 0 360 0 0 empty empty empty -2 -8 0 10 -228856
-1 -1 4696 1;
#X obj 134 288 nbx 5 14 -1e+37 1e+37 0 0 empty empty empty 0 -8 0 10
-228856 -1 -1 0.208984 256;
#X obj 134 234 nbx 5 14 -1e+37 1e+37 0 0 empty empty empty 0 -8 0 10
-228856 -1 -1 214 256;
#X text 130 187 input pot 2;
#X obj 45 71 r p1;
#X obj 48 210 r p2;
#X obj 45 100 unpack;
#X obj 48 239 unpack;
#X text 276 71 low, f 5;
#X text 277 94 high, f 5;
#X text 278 132 low, f 5;
#X text 279 155 high, f 5;
#X msg 233 69 0;
#X text 233 190 pot range;
#X text 235 252 new range;
#X text 279 212 low, f 5;
#X text 280 235 high, f 5;
#X text 281 273 low, f 5;
#X text 282 296 high, f 5;
#X msg 236 210 0;
#X obj 140 362 hsl 80 15 0 360 0 0 empty empty empty -2 -8 0 10 -228856
-1 -1 7900 1;
#X obj 137 440 nbx 5 14 -1e+37 1e+37 0 0 empty empty empty 0 -8 0 10
-228856 -1 -1 0.683594 256;
#X obj 137 386 nbx 5 14 -1e+37 1e+37 0 0 empty empty empty 0 -8 0 10
-228856 -1 -1 700 256;
#X obj 51 391 unpack;
#X text 236 342 pot range;
#X text 238 404 new range;
#X text 282 364 low, f 5;
#X text 283 387 high, f 5;
#X text 284 425 low, f 5;
#X text 285 448 high, f 5;
#X msg 239 362 0;
#X text 133 339 input pot 3;
#X obj 51 362 r p3;
#X obj 140 500 hsl 80 15 0 1023 0 0 empty empty empty -2 -8 0 10 -228856
-1 -1 0 1;
#X obj 137 578 nbx 5 14 -1e+37 1e+37 0 0 empty empty empty 0 -8 0 10
-228856 -1 -1 0 256;
#X obj 137 524 nbx 5 14 -1e+37 1e+37 0 0 empty empty empty 0 -8 0 10
-228856 -1 -1 0 256;
#X obj 51 529 unpack;
#X text 236 480 pot range;
#X text 238 542 new range;
#X text 282 502 low, f 5;
#X text 283 525 high, f 5;
#X text 284 563 low, f 5;
#X text 285 586 high, f 5;
#X msg 239 500 0;
#X text 133 477 input pot 4;
#X obj 51 500 r p4;
#X msg 239 423 0;
#X obj 350 61 loadbang;
#X obj 344 216 loadbang;
#X obj 339 363 loadbang;
#X obj 339 504 loadbang;
#X obj 46 165 s pot1;
#X obj 53 304 s pot2;
#X obj 53 455 s pot3;
#X obj 53 593 s pot4;
#X obj 567 66 hsl 80 15 0 1023 0 0 empty empty empty -2 -8 0 10 -228856
-1 -1 3815 1;
#X obj 564 144 nbx 5 14 -1e+37 1e+37 0 0 empty empty empty 0 -8 0 10
-228856 -1 -1 0.482422 256;
#X obj 564 90 nbx 5 14 -1e+37 1e+37 0 0 empty empty empty 0 -8 0 10
-228856 -1 -1 494 256;
#X text 658 43 pot range;
#X text 660 105 new range;
#X obj 565 204 hsl 80 15 0 1023 0 0 empty empty empty -2 -8 0 10 -228856
-1 -1 2579 1;
#X obj 562 282 nbx 5 14 -1e+37 1e+37 0 0 empty empty empty 0 -8 0 10
-228856 -1 -1 0.326172 256;
#X obj 562 228 nbx 5 14 -1e+37 1e+37 0 0 empty empty empty 0 -8 0 10
-228856 -1 -1 334 256;
#X obj 473 94 unpack;
#X obj 476 233 unpack;
#X text 704 65 low, f 5;
#X text 705 88 high, f 5;
#X text 706 126 low, f 5;
#X text 707 149 high, f 5;
#X msg 661 63 0;
#X msg 662 86 1024;
#X text 661 184 pot range;
#X text 663 246 new range;
#X text 707 206 low, f 5;
#X text 708 229 high, f 5;
#X text 709 267 low, f 5;
#X text 710 290 high, f 5;
#X msg 664 204 0;
#X msg 665 227 1024;
#X obj 568 356 hsl 80 15 0 1023 0 0 empty empty empty -2 -8 0 10 -228856
-1 -1 5467 1;
#X obj 565 434 nbx 5 14 -1e+37 1e+37 0 0 empty empty empty 0 -8 0 10
-228856 -1 -1 0.691406 256;
#X obj 565 380 nbx 5 14 -1e+37 1e+37 0 0 empty empty empty 0 -8 0 10
-228856 -1 -1 708 256;
#X obj 479 385 unpack;
#X text 664 336 pot range;
#X text 666 398 new range;
#X text 710 358 low, f 5;
#X text 711 381 high, f 5;
#X text 712 419 low, f 5;
#X text 713 442 high, f 5;
#X msg 667 356 0;
#X msg 668 379 1024;
#X obj 568 494 hsl 80 15 0 1023 0 0 empty empty empty -2 -8 0 10 -228856
-1 -1 1174 1;
#X obj 565 572 nbx 5 14 -1e+37 1e+37 0 0 empty empty empty 0 -8 0 10
-228856 -1 -1 0.148728 256;
#X obj 565 518 nbx 5 14 -1e+37 1e+37 0 0 empty empty empty 0 -8 0 10
-228856 -1 -1 152 256;
#X obj 479 523 unpack;
#X text 664 474 pot range;
#X text 666 536 new range;
#X text 710 496 low, f 5;
#X text 711 519 high, f 5;
#X text 712 557 low, f 5;
#X text 713 580 high, f 5;
#X msg 667 494 0;
#X msg 661 124 0;
#X msg 667 417 0;
#X obj 778 56 loadbang;
#X obj 772 210 loadbang;
#X obj 767 357 loadbang;
#X obj 767 498 loadbang;
#X text 560 43 input pot 5;
#X obj 474 159 s pot5;
#X text 558 181 input pot 6;
#X obj 481 298 s pot6;
#X text 561 333 input pot 7;
#X obj 481 449 s pot7;
#X text 561 471 input pot 8;
#X obj 481 587 s pot8;
#X obj 473 65 r p5;
#X obj 476 204 r p6;
#X obj 479 356 r p7;
#X obj 479 494 r p8;
#X msg 239 561 0;
#X msg 664 265 0;
#X msg 667 555 0;
#X obj 576 627 r buttons;
#X obj 576 655 unpack;
#X obj 579 683 route 1 2 3 4;
#X obj 476 711 s button1;
#X obj 547 711 s button2;
#X obj 619 711 s button3;
#X obj 690 711 s button4;
#X msg 236 271 0;
#X msg 240 586 1;
#X msg 668 580 1;
#X msg 240 523 1022;
#X msg 668 517 1022;
#X obj 136 121 sik/mapper, f 12;
#X obj 134 259 sik/mapper, f 12;
#X obj 137 411 sik/mapper, f 12;
#X obj 137 549 sik/mapper, f 12;
#X obj 564 115 sik/mapper, f 12;
#X obj 562 253 sik/mapper, f 12;
#X obj 565 405 sik/mapper, f 12;
#X obj 565 543 sik/mapper, f 12;
#X msg 234 92 1024;
#X msg 233 130 0;
#X msg 235 159 1;
#X msg 662 149 1;
#X msg 237 296 1;
#X msg 237 233 1024;
#X msg 240 385 1024;
#X msg 240 448 1;
#X msg 665 290 1;
#X msg 668 442 1;
#X connect 0 0 2 0;
#X connect 1 0 57 0;
#X connect 2 0 141 0;
#X connect 6 0 8 0;
#X connect 7 0 58 0;
#X connect 8 0 142 0;
#X connect 10 0 12 0;
#X connect 11 0 13 0;
#X connect 12 0 0 0;
#X connect 13 0 6 0;
#X connect 18 0 141 1;
#X connect 25 0 142 1;
#X connect 26 0 28 0;
#X connect 27 0 59 0;
#X connect 28 0 143 0;
#X connect 29 0 26 0;
#X connect 36 0 143 1;
#X connect 38 0 29 0;
#X connect 39 0 41 0;
#X connect 40 0 60 0;
#X connect 41 0 144 0;
#X connect 42 0 39 0;
#X connect 49 0 144 1;
#X connect 51 0 42 0;
#X connect 52 0 143 3;
#X connect 53 0 18 0;
#X connect 53 0 149 0;
#X connect 53 0 150 0;
#X connect 53 0 151 0;
#X connect 54 0 25 0;
#X connect 54 0 154 0;
#X connect 54 0 136 0;
#X connect 54 0 153 0;
#X connect 55 0 36 0;
#X connect 55 0 155 0;
#X connect 55 0 52 0;
#X connect 55 0 156 0;
#X connect 56 0 49 0;
#X connect 56 0 139 0;
#X connect 56 0 126 0;
#X connect 56 0 137 0;
#X connect 61 0 63 0;
#X connect 62 0 115 0;
#X connect 63 0 145 0;
#X connect 66 0 68 0;
#X connect 67 0 117 0;
#X connect 68 0 146 0;
#X connect 69 0 61 0;
#X connect 70 0 66 0;
#X connect 75 0 145 1;
#X connect 76 0 145 2;
#X connect 83 0 146 1;
#X connect 84 0 146 2;
#X connect 85 0 87 0;
#X connect 86 0 119 0;
#X connect 87 0 147 0;
#X connect 88 0 85 0;
#X connect 95 0 147 1;
#X connect 96 0 147 2;
#X connect 97 0 99 0;
#X connect 98 0 121 0;
#X connect 99 0 148 0;
#X connect 100 0 97 0;
#X connect 107 0 148 1;
#X connect 108 0 145 3;
#X connect 109 0 147 3;
#X connect 110 0 75 0;
#X connect 110 0 76 0;
#X connect 110 0 108 0;
#X connect 110 0 152 0;
#X connect 111 0 83 0;
#X connect 111 0 84 0;
#X connect 111 0 127 0;
#X connect 111 0 157 0;
#X connect 112 0 95 0;
#X connect 112 0 96 0;
#X connect 112 0 109 0;
#X connect 112 0 158 0;
#X connect 113 0 107 0;
#X connect 113 0 140 0;
#X connect 113 0 128 0;
#X connect 113 0 138 0;
#X connect 122 0 69 0;
#X connect 123 0 70 0;
#X connect 124 0 88 0;
#X connect 125 0 100 0;
#X connect 126 0 144 3;
#X connect 127 0 146 3;
#X connect 128 0 148 3;
#X connect 129 0 130 0;
#X connect 130 0 131 0;
#X connect 131 0 132 0;
#X connect 131 1 133 0;
#X connect 131 2 134 0;
#X connect 131 3 135 0;
#X connect 136 0 142 3;
#X connect 137 0 144 4;
#X connect 138 0 148 4;
#X connect 139 0 144 2;
#X connect 140 0 148 2;
#X connect 141 0 1 0;
#X connect 142 0 7 0;
#X connect 143 0 27 0;
#X connect 144 0 40 0;
#X connect 145 0 62 0;
#X connect 146 0 67 0;
#X connect 147 0 86 0;
#X connect 148 0 98 0;
#X connect 149 0 141 2;
#X connect 150 0 141 3;
#X connect 151 0 141 4;
#X connect 152 0 145 4;
#X connect 153 0 142 4;
#X connect 154 0 142 2;
#X connect 155 0 143 2;
#X connect 156 0 143 4;
#X connect 157 0 146 4;
#X connect 158 0 147 4;
#X restore 745 125 pd routing;
#X obj 694 150 r button2;
#X obj 629 175 bng 15 250 50 0 empty empty empty 17 7 0 10 -262144
-1 -1;
#X obj 694 177 bng 15 250 50 0 empty empty empty 17 7 0 10 -262144
-1 -1;
#X obj 773 178 bng 15 250 50 0 empty empty empty 17 7 0 10 -262144
-1 -1;
#X obj 848 176 bng 15 250 50 0 empty empty empty 17 7 0 10 -262144
-1 -1;
#X obj 773 151 r button3;
#X obj 848 149 r button4;
#X connect 0 0 3 0;
#X connect 0 0 52 0;
#X connect 3 0 4 0;
#X connect 3 1 4 1;
#X connect 3 3 4 2;
#X connect 3 4 4 3;
#X connect 3 6 4 4;
#X connect 3 7 4 5;
#X connect 3 9 4 6;
#X connect 3 10 4 7;
#X connect 3 12 4 8;
#X connect 3 13 4 9;
#X connect 3 15 4 10;
#X connect 3 16 4 11;
#X connect 4 0 2 0;
#X connect 4 0 7 0;
#X connect 9 0 0 0;
#X connect 10 0 17 0;
#X connect 11 0 36 0;
#X connect 13 0 14 0;
#X connect 13 0 18 0;
#X connect 13 0 20 0;
#X connect 13 0 21 0;
#X connect 14 0 19 0;
#X connect 14 0 31 0;
#X connect 15 0 28 0;
#X connect 16 0 22 0;
#X connect 17 0 12 0;
#X connect 17 0 12 1;
#X connect 18 0 16 1;
#X connect 19 0 34 0;
#X connect 19 0 49 0;
#X connect 20 0 30 1;
#X connect 21 0 32 0;
#X connect 23 0 29 0;
#X connect 24 0 31 0;
#X connect 25 0 46 0;
#X connect 26 0 23 0;
#X connect 26 0 41 0;
#X connect 27 0 16 1;
#X connect 28 0 10 1;
#X connect 28 0 16 0;
#X connect 29 0 32 0;
#X connect 30 0 11 0;
#X connect 30 0 47 0;
#X connect 31 0 19 1;
#X connect 32 0 15 0;
#X connect 33 0 35 0;
#X connect 34 0 33 0;
#X connect 34 1 37 0;
#X connect 35 0 36 1;
#X connect 36 0 10 0;
#X connect 36 0 22 0;
#X connect 37 0 35 0;
#X connect 38 0 39 0;
#X connect 38 0 19 0;
#X connect 40 0 17 1;
#X connect 42 0 9 0;
#X connect 43 0 44 0;
#X connect 43 0 48 0;
#X connect 44 0 30 0;
#X connect 45 0 9 0;
#X connect 46 0 30 1;
#X connect 49 0 50 0;
#X connect 49 0 51 0;
#X connect 50 0 49 1;
#X connect 51 0 43 0;
#X connect 51 0 54 0;
#X connect 55 0 53 0;
#X connect 56 0 38 0;
#X connect 56 0 59 0;
#X connect 58 0 60 0;
#X connect 63 0 61 0;
#X connect 64 0 62 0;
#X coords 0 961 1 960 200 200 0;
