#N canvas 171 112 880 648 10;
#X floatatom 49 49 5 0 0 0 - - -, f 5;
#X obj 49 69 phasor~;
#X obj 49 90 -~ 0.99;
#X obj 49 111 clip~ 0 1;
#X obj 49 132 *~ 100;
#X obj 49 215 *~ 0.7;
#X obj 108 233 tgl 15 0 empty empty empty 17 7 0 10 -262144 -1 -1 0
1;
#N canvas 0 22 450 278 (subpatch) 0;
#X array pulse 100 float 5;
#A 0 0 0 0 0 0 0 0 0 0 0 0 0 0 0 0 0 0 0 0 0 0 0 0 0 0 0 0 0 0 0 0
0 0 0 0 0 0 0 0 0 0 0 0 0 0 0 0 0 0 0 0 0 0 0 0 0 0 0 0 0 0 0 0 0 0
0 0 0 0 0 0 0 0 0 0 0 0 0 0 0 0 0 0 0 0 0 0 0 0 0 0 0 0 0 0 0 0 0 0
0;
#X coords 0 1 100 -1 200 140 1;
#X restore 184 28 graph;
#X obj 184 239 tabwrite~ pulse;
#X obj 202 210 metro 200;
#X msg 204 176 bang;
#X msg 244 176 stop;
#N canvas 165 142 914 606 SimpleDelay 0;
#X obj 108 265 hsl 128 15 0 1 0 0 empty empty Dry/Wet -2 -8 0 8 -262144
-1 -1 0 1;
#X obj 108 135 hsl 128 15 0 0.9 0 0 feedbackL empty Left_Feedback -2
-8 0 8 -262144 -1 -1 0 1;
#X obj 108 167 hsl 128 15 0 0.9 0 0 feedbackR empty Right_Feedback
-2 -8 0 8 -262144 -1 -1 0 1;
#X obj 108 200 hsl 128 15 0 1000 0 0 timeL empty Left_Time -2 -8 0
8 -262144 -1 -1 0 1;
#X obj 108 234 hsl 128 15 0 1000 0 0 timeR empty Right_Time -2 -8 0
8 -262144 -1 -1 0 1;
#X floatatom 244 135 5 0 0 0 - feedbackL -, f 5;
#X floatatom 244 167 5 0 0 0 - feedbackR -, f 5;
#X floatatom 245 199 5 0 0 0 - timeL -, f 5;
#X floatatom 245 234 5 0 0 0 - timeR -, f 5;
#X obj 603 354 sig~;
#X floatatom 603 332 5 0 0 0 - - -, f 5;
#X floatatom 779 332 5 0 0 0 - - -, f 5;
#X obj 779 352 sig~;
#X obj 535 245 delwrite~ delayRight 4000;
#X floatatom 759 182 5 0 0.9 0 - - -, f 5;
#X obj 739 229 *~ 0;
#X obj 531 202 *~ 0;
#X floatatom 552 150 5 0 0.9 0 - - -, f 5;
#X obj 603 379 vd~ delayLeft;
#X obj 779 381 vd~ delayRight;
#X floatatom 461 326 5 0 0 0 - - -, f 5;
#X obj 344 333 - 1;
#X obj 342 356 * -1;
#X floatatom 342 380 5 0 0 0 - - -, f 5;
#X obj 315 431 *~;
#X obj 446 445 *~;
#X obj 597 466 *~;
#X obj 360 218 delwrite~ delayLeft 4000;
#X obj 369 523 outlet~ left;
#X obj 466 523 outlet~ right;
#X obj 119 338 loadbang;
#X msg 119 359 1;
#X obj 360 83 inlet~ left;
#X obj 487 81 inlet~ right;
#X obj 383 431 *~;
#X connect 0 0 20 0;
#X connect 0 0 21 0;
#X connect 5 0 17 0;
#X connect 6 0 14 0;
#X connect 7 0 10 0;
#X connect 8 0 11 0;
#X connect 9 0 18 0;
#X connect 10 0 9 0;
#X connect 11 0 12 0;
#X connect 12 0 19 0;
#X connect 14 0 15 1;
#X connect 15 0 13 0;
#X connect 16 0 27 0;
#X connect 17 0 16 1;
#X connect 18 0 16 0;
#X connect 18 0 25 0;
#X connect 19 0 15 0;
#X connect 19 0 26 0;
#X connect 20 0 25 1;
#X connect 20 0 26 1;
#X connect 21 0 22 0;
#X connect 22 0 23 0;
#X connect 23 0 24 1;
#X connect 23 0 34 1;
#X connect 24 0 28 0;
#X connect 25 0 28 0;
#X connect 26 0 29 0;
#X connect 30 0 31 0;
#X connect 31 0 24 1;
#X connect 31 0 34 1;
#X connect 32 0 27 0;
#X connect 32 0 24 0;
#X connect 33 0 13 0;
#X connect 33 0 34 0;
#X connect 34 0 29 0;
#X coords 0 -1 1 1 200 200 1 100 100;
#X restore 395 395 pd SimpleDelay;
#X obj 131 289 *~;
#X obj 129 173 loadbang;
#X msg 49 25 80;
#X obj 108 8 loadbang;
#N canvas 112 112 1015 666 chorus 0;
#X obj 732 152 phasor~;
#X obj 732 185 cos~;
#X obj 732 212 *~ 2;
#X obj 732 233 +~ 2;
#X obj 732 374 *~ 0.8;
#X obj 818 185 +~ o.5;
#X obj 818 227 cos~;
#X obj 818 248 *~ 2;
#X obj 818 269 +~ 2;
#X obj 818 311 *~ 0.8;
#X obj 324 563 outlet~ left;
#X obj 548 564 outlet~ right;
#X obj 107 137 hsl 128 15 0.1 10 0 0 chorusSpeed empty Speed -2 -8
0 10 -262144 -1 -1 0 1;
#X obj 107 176 hsl 128 15 0 3 0 0 chorusDepth empty Depth -2 -8 0 10
-262144 -1 -1 0 1;
#X obj 110 214 hsl 128 15 0 0.9 0 0 chorusFeedback empty Feedback -2
-8 0 10 -262144 -1 -1 0 1;
#X obj 324 34 inlet~ left;
#X obj 548 34 inlet~ right;
#X obj 818 206 wrap~;
#X obj 324 523 *~;
#X obj 548 522 *~;
#X obj 110 257 hsl 128 15 0 1 0 0 empty empty Dry/Wet -2 -8 0 10 -262144
-1 -1 0 1;
#X floatatom 644 414 5 0 0 0 - - -, f 5;
#X obj 107 355 - 1;
#X obj 107 376 * -1;
#X floatatom 107 407 5 0 0 0 - - -, f 5;
#X obj 678 457 *~;
#X obj 733 457 *~;
#X obj 399 50 delwrite~ phaseLeft 100;
#X obj 818 290 vd~ phaseLeft;
#X obj 636 50 delwrite~ phaseRight 100;
#X obj 732 344 vd~ phaseRight;
#X floatatom 249 176 5 0 0 0 - chorusDepth -, f 5;
#X obj 539 196 r chorusDepth;
#X obj 886 232 r chorusDepth;
#X floatatom 249 213 5 0 0 0 - chorusFeedback -, f 5;
#X obj 897 358 r chorusFeedback;
#X floatatom 248 138 5 0 0 0 - chorusSpeed -, f 5;
#X obj 732 109 r chorusSpeed;
#X obj 391 392 loadbang;
#X msg 391 421 1;
#X msg 665 171 0;
#X obj 582 155 loadbang;
#X obj 892 120 loadbang;
#X msg 892 189 0;
#X msg 845 136 0.1;
#X obj 940 399 loadbang;
#X msg 905 415 0;
#X connect 0 0 1 0;
#X connect 0 0 5 0;
#X connect 1 0 2 0;
#X connect 2 0 3 0;
#X connect 3 0 30 0;
#X connect 4 0 29 0;
#X connect 5 0 17 0;
#X connect 6 0 7 0;
#X connect 7 0 8 0;
#X connect 8 0 28 0;
#X connect 9 0 27 0;
#X connect 15 0 18 0;
#X connect 15 0 27 0;
#X connect 16 0 19 0;
#X connect 16 0 29 0;
#X connect 17 0 6 0;
#X connect 18 0 10 0;
#X connect 19 0 11 0;
#X connect 20 0 21 0;
#X connect 20 0 22 0;
#X connect 21 0 25 1;
#X connect 21 0 26 1;
#X connect 22 0 23 0;
#X connect 23 0 24 0;
#X connect 24 0 18 1;
#X connect 24 0 19 1;
#X connect 25 0 10 0;
#X connect 26 0 11 0;
#X connect 28 0 9 0;
#X connect 28 0 26 0;
#X connect 30 0 4 0;
#X connect 30 0 25 0;
#X connect 32 0 2 1;
#X connect 32 0 3 1;
#X connect 33 0 7 1;
#X connect 33 0 8 1;
#X connect 35 0 9 1;
#X connect 35 0 4 1;
#X connect 37 0 0 0;
#X connect 38 0 39 0;
#X connect 39 0 18 1;
#X connect 39 0 19 1;
#X connect 40 0 3 1;
#X connect 40 0 2 1;
#X connect 41 0 40 0;
#X connect 42 0 43 0;
#X connect 42 0 44 0;
#X connect 43 0 7 1;
#X connect 43 0 8 1;
#X connect 44 0 0 0;
#X connect 45 0 46 0;
#X connect 46 0 4 1;
#X connect 46 0 9 1;
#X coords 0 -1 1 1 200 200 1 100 100;
#X restore 395 183 pd chorus;
#X obj 478 150 adc~;
#X obj 480 614 dac~;
#X connect 0 0 1 0;
#X connect 1 0 2 0;
#X connect 2 0 3 0;
#X connect 3 0 4 0;
#X connect 4 0 5 0;
#X connect 4 0 8 0;
#X connect 5 0 13 0;
#X connect 6 0 13 1;
#X connect 9 0 8 0;
#X connect 10 0 9 0;
#X connect 11 0 9 0;
#X connect 14 0 9 0;
#X connect 15 0 0 0;
#X connect 16 0 15 0;
#X connect 17 0 12 0;
#X connect 17 1 12 1;
