#N canvas 524 263 1114 786 10;
#X obj 732 152 phasor~;
#X obj 732 185 cos~;
#X obj 732 212 *~ 2;
#X obj 732 233 +~ 2;
#X obj 732 374 *~ 0.8;
#X obj 818 185 +~ o.5;
#X obj 818 227 cos~;
#X obj 818 248 *~ 2;
#X obj 818 269 +~ 2;
#X obj 818 311 *~ 0.8;
#X obj 324 563 outlet~ left;
#X obj 548 564 outlet~ right;
#X obj 107 137 hsl 128 15 0.1 10 0 0 chorusSpeed choruspot1 Speed -2
-8 0 10 -262144 -1 -1 5505 1;
#X obj 107 176 hsl 128 15 0 3 0 0 chorusDepth choruspot5 Depth -2 -8
0 10 -262144 -1 -1 7764 1;
#X obj 110 214 hsl 128 15 0 0.9 0 0 chorusFeedback choruspot2 Feedback
-2 -8 0 10 -262144 -1 -1 6400 1;
#X obj 324 34 inlet~ left;
#X obj 548 34 inlet~ right;
#X obj 818 206 wrap~;
#X obj 324 523 *~;
#X obj 548 522 *~;
#X obj 110 257 hsl 128 15 0 1 0 0 empty choruspot3 Dry/Wet -2 -8 0
10 -262144 -1 -1 6362 1;
#X floatatom 644 414 5 0 0 0 - - -, f 5;
#X obj 107 355 - 1;
#X obj 107 376 * -1;
#X floatatom 107 407 5 0 0 0 - - -, f 5;
#X obj 678 457 *~;
#X obj 733 457 *~;
#X obj 399 50 delwrite~ phaseLeft 100;
#X obj 818 290 vd~ phaseLeft;
#X obj 636 50 delwrite~ phaseRight 100;
#X obj 732 344 vd~ phaseRight;
#X floatatom 249 176 5 0 0 0 - chorusDepth -, f 5;
#X obj 539 196 r chorusDepth;
#X obj 886 232 r chorusDepth;
#X floatatom 249 213 5 0 0 0 - chorusFeedback -, f 5;
#X obj 897 358 r chorusFeedback;
#X floatatom 248 138 5 0 0 0 - chorusSpeed -, f 5;
#X obj 732 109 r chorusSpeed;
#X obj 391 392 loadbang;
#X msg 391 421 1;
#X msg 665 171 0;
#X obj 582 155 loadbang;
#X obj 892 120 loadbang;
#X msg 892 189 0;
#X msg 845 136 0.1;
#X obj 940 399 loadbang;
#X msg 905 415 0;
#X connect 0 0 1 0;
#X connect 0 0 5 0;
#X connect 1 0 2 0;
#X connect 2 0 3 0;
#X connect 3 0 30 0;
#X connect 4 0 29 0;
#X connect 5 0 17 0;
#X connect 6 0 7 0;
#X connect 7 0 8 0;
#X connect 8 0 28 0;
#X connect 9 0 27 0;
#X connect 15 0 18 0;
#X connect 15 0 27 0;
#X connect 16 0 19 0;
#X connect 16 0 29 0;
#X connect 17 0 6 0;
#X connect 18 0 10 0;
#X connect 19 0 11 0;
#X connect 20 0 21 0;
#X connect 20 0 22 0;
#X connect 21 0 25 1;
#X connect 21 0 26 1;
#X connect 22 0 23 0;
#X connect 23 0 24 0;
#X connect 24 0 18 1;
#X connect 24 0 19 1;
#X connect 25 0 10 0;
#X connect 26 0 11 0;
#X connect 28 0 9 0;
#X connect 28 0 26 0;
#X connect 30 0 4 0;
#X connect 30 0 25 0;
#X connect 32 0 2 1;
#X connect 32 0 3 1;
#X connect 33 0 7 1;
#X connect 33 0 8 1;
#X connect 35 0 9 1;
#X connect 35 0 4 1;
#X connect 37 0 0 0;
#X connect 38 0 39 0;
#X connect 39 0 18 1;
#X connect 39 0 19 1;
#X connect 40 0 3 1;
#X connect 40 0 2 1;
#X connect 41 0 40 0;
#X connect 42 0 43 0;
#X connect 42 0 44 0;
#X connect 43 0 7 1;
#X connect 43 0 8 1;
#X connect 44 0 0 0;
#X connect 45 0 46 0;
#X connect 46 0 4 1;
#X connect 46 0 9 1;
