#N canvas 2 119 1090 641 10;
#X obj 108 265 hsl 128 15 0 1 0 0 empty delaypot3 Dry/Wet -2 -8 0 8
-262144 -1 -1 0 1;
#X obj 108 135 hsl 128 15 0 0.9 0 0 feedbackL delaypot1 Left_Feedback
-2 -8 0 8 -262144 -1 -1 0 1;
#X obj 108 167 hsl 128 15 0 0.9 0 0 feedbackR delaypot5 Right_Feedback
-2 -8 0 8 -262144 -1 -1 0 1;
#X obj 108 200 hsl 128 15 0 1000 0 0 timeL delaypot2 Left_Time -2 -8
0 8 -262144 -1 -1 0 1;
#X obj 108 234 hsl 128 15 0 1000 0 0 timeR delaypot6 Right_Time -2
-8 0 8 -262144 -1 -1 0 1;
#X floatatom 244 135 5 0 0 0 - feedbackL -, f 5;
#X floatatom 244 167 5 0 0 0 - feedbackR -, f 5;
#X floatatom 245 199 5 0 0 0 - timeL -, f 5;
#X floatatom 245 234 5 0 0 0 - timeR -, f 5;
#X obj 603 354 sig~;
#X floatatom 603 332 5 0 0 0 - - -, f 5;
#X floatatom 779 332 5 0 0 0 - - -, f 5;
#X obj 779 352 sig~;
#X obj 535 245 delwrite~ delayRight 4000;
#X floatatom 759 182 5 0 0.9 0 - - -, f 5;
#X obj 739 229 *~ 0;
#X obj 531 202 *~ 0;
#X floatatom 552 150 5 0 0.9 0 - - -, f 5;
#X obj 603 379 vd~ delayLeft;
#X obj 779 381 vd~ delayRight;
#X floatatom 461 326 5 0 0 0 - - -, f 5;
#X obj 344 333 - 1;
#X obj 342 356 * -1;
#X floatatom 342 380 5 0 0 0 - - -, f 5;
#X obj 315 431 *~;
#X obj 446 445 *~;
#X obj 597 466 *~;
#X obj 360 218 delwrite~ delayLeft 4000;
#X obj 369 523 outlet~ left;
#X obj 466 523 outlet~ right;
#X obj 119 338 loadbang;
#X msg 119 359 1;
#X obj 360 83 inlet~ left;
#X obj 487 81 inlet~ right;
#X obj 383 431 *~;
#N canvas 545 275 1078 750 routing_delay 0;
#X obj 139 72 hsl 80 15 0 1023 0 0 empty empty empty -2 -8 0 10 -228856
-1 -1 0 1;
#X obj 136 150 nbx 5 14 -1e+37 1e+37 0 0 empty empty empty 0 -8 0 10
-228856 -1 -1 0 256;
#X obj 136 96 nbx 5 14 -1e+37 1e+37 0 0 empty empty empty 0 -8 0 10
-228856 -1 -1 0 256;
#X obj 136 121 mapper, f 12;
#X text 132 49 input pot 1;
#X text 230 49 pot range;
#X text 232 111 new range;
#X obj 137 210 hsl 80 15 0 1023 0 0 empty empty empty -2 -8 0 10 -228856
-1 -1 0 1;
#X obj 134 288 nbx 5 14 -1e+37 1e+37 0 0 empty empty empty 0 -8 0 10
-228856 -1 -1 0 256;
#X obj 134 234 nbx 5 14 -1e+37 1e+37 0 0 empty empty empty 0 -8 0 10
-228856 -1 -1 0 256;
#X obj 134 259 mapper, f 12;
#X text 130 187 input pot 2;
#X obj 45 71 r p1;
#X obj 48 210 r p2;
#X obj 45 100 unpack;
#X obj 48 239 unpack;
#X text 276 71 low, f 5;
#X text 277 94 high, f 5;
#X text 278 132 low, f 5;
#X text 279 155 high, f 5;
#X msg 233 69 0;
#X text 233 190 pot range;
#X text 235 252 new range;
#X text 279 212 low, f 5;
#X text 280 235 high, f 5;
#X text 281 273 low, f 5;
#X text 282 296 high, f 5;
#X msg 236 210 0;
#X msg 237 233 1024;
#X obj 140 362 hsl 80 15 0 1023 0 0 empty empty empty -2 -8 0 10 -228856
-1 -1 0 1;
#X obj 137 440 nbx 5 14 -1e+37 1e+37 0 0 empty empty empty 0 -8 0 10
-228856 -1 -1 0 256;
#X obj 137 386 nbx 5 14 -1e+37 1e+37 0 0 empty empty empty 0 -8 0 10
-228856 -1 -1 0 256;
#X obj 137 411 mapper, f 12;
#X obj 51 391 unpack;
#X text 236 342 pot range;
#X text 238 404 new range;
#X text 282 364 low, f 5;
#X text 283 387 high, f 5;
#X text 284 425 low, f 5;
#X text 285 448 high, f 5;
#X msg 239 362 0;
#X msg 240 385 1024;
#X text 133 339 input pot 3;
#X obj 51 362 r p3;
#X obj 140 500 hsl 80 15 0 1023 0 0 empty empty empty -2 -8 0 10 -228856
-1 -1 0 1;
#X obj 137 578 nbx 5 14 -1e+37 1e+37 0 0 empty empty empty 0 -8 0 10
-228856 -1 -1 0 256;
#X obj 137 524 nbx 5 14 -1e+37 1e+37 0 0 empty empty empty 0 -8 0 10
-228856 -1 -1 0 256;
#X obj 137 549 mapper, f 12;
#X obj 51 529 unpack;
#X text 236 480 pot range;
#X text 238 542 new range;
#X text 282 502 low, f 5;
#X text 283 525 high, f 5;
#X text 284 563 low, f 5;
#X text 285 586 high, f 5;
#X msg 239 500 0;
#X text 133 477 input pot 4;
#X obj 51 500 r p4;
#X msg 233 130 0;
#X msg 239 423 0;
#X obj 351 61 loadbang;
#X obj 344 216 loadbang;
#X obj 339 363 loadbang;
#X obj 339 504 loadbang;
#X obj 53 593 s pot4;
#X obj 567 66 hsl 80 15 0 1023 0 0 empty empty empty -2 -8 0 10 -228856
-1 -1 0 1;
#X obj 564 144 nbx 5 14 -1e+37 1e+37 0 0 empty empty empty 0 -8 0 10
-228856 -1 -1 0 256;
#X obj 564 90 nbx 5 14 -1e+37 1e+37 0 0 empty empty empty 0 -8 0 10
-228856 -1 -1 0 256;
#X obj 564 115 mapper, f 12;
#X text 658 43 pot range;
#X text 660 105 new range;
#X obj 565 204 hsl 80 15 0 1023 0 0 empty empty empty -2 -8 0 10 -228856
-1 -1 0 1;
#X obj 562 282 nbx 5 14 -1e+37 1e+37 0 0 empty empty empty 0 -8 0 10
-228856 -1 -1 0 256;
#X obj 562 228 nbx 5 14 -1e+37 1e+37 0 0 empty empty empty 0 -8 0 10
-228856 -1 -1 0 256;
#X obj 562 253 mapper, f 12;
#X obj 473 94 unpack;
#X obj 476 233 unpack;
#X text 704 65 low, f 5;
#X text 705 88 high, f 5;
#X text 706 126 low, f 5;
#X text 707 149 high, f 5;
#X msg 661 63 0;
#X msg 662 86 1024;
#X text 661 184 pot range;
#X text 663 246 new range;
#X text 707 206 low, f 5;
#X text 708 229 high, f 5;
#X text 709 267 low, f 5;
#X text 710 290 high, f 5;
#X msg 664 204 0;
#X msg 665 227 1024;
#X obj 568 356 hsl 80 15 0 1023 0 0 empty empty empty -2 -8 0 10 -228856
-1 -1 0 1;
#X obj 565 434 nbx 5 14 -1e+37 1e+37 0 0 empty empty empty 0 -8 0 10
-228856 -1 -1 0 256;
#X obj 565 380 nbx 5 14 -1e+37 1e+37 0 0 empty empty empty 0 -8 0 10
-228856 -1 -1 0 256;
#X obj 565 405 mapper, f 12;
#X obj 479 385 unpack;
#X text 664 336 pot range;
#X text 666 398 new range;
#X text 710 358 low, f 5;
#X text 711 381 high, f 5;
#X text 712 419 low, f 5;
#X text 713 442 high, f 5;
#X msg 667 356 0;
#X msg 668 379 1024;
#X obj 568 494 hsl 80 15 0 1023 0 0 empty empty empty -2 -8 0 10 -228856
-1 -1 0 1;
#X obj 565 572 nbx 5 14 -1e+37 1e+37 0 0 empty empty empty 0 -8 0 10
-228856 -1 -1 0 256;
#X obj 565 518 nbx 5 14 -1e+37 1e+37 0 0 empty empty empty 0 -8 0 10
-228856 -1 -1 0 256;
#X obj 565 543 mapper, f 12;
#X obj 479 523 unpack;
#X text 664 474 pot range;
#X text 666 536 new range;
#X text 710 496 low, f 5;
#X text 711 519 high, f 5;
#X text 712 557 low, f 5;
#X text 713 580 high, f 5;
#X msg 667 494 0;
#X msg 661 124 0;
#X msg 667 417 0;
#X obj 778 56 loadbang;
#X obj 772 210 loadbang;
#X obj 767 357 loadbang;
#X obj 767 498 loadbang;
#X text 560 43 input pot 5;
#X text 558 181 input pot 6;
#X text 561 333 input pot 7;
#X obj 481 449 s pot7;
#X text 561 471 input pot 8;
#X obj 481 587 s pot8;
#X obj 473 65 r p5;
#X obj 476 204 r p6;
#X obj 479 356 r p7;
#X obj 479 494 r p8;
#X msg 239 561 0;
#X msg 664 265 0;
#X msg 668 442 127;
#X msg 667 555 0;
#X msg 236 271 0;
#X msg 234 92 1022;
#X msg 240 586 1;
#X msg 668 580 1;
#X msg 240 523 1022;
#X msg 668 517 1022;
#X msg 235 159 0.9;
#X msg 662 149 0.9;
#X obj 47 165 s delaypot1;
#X obj 474 159 s delaypot5;
#X msg 237 296 1000;
#X msg 665 290 1000;
#X obj 53 304 s delaypot2;
#X obj 481 298 s delaypot6;
#X msg 240 448 1;
#X obj 53 455 s delaypot3;
#X connect 0 0 2 0;
#X connect 1 0 144 0;
#X connect 2 0 3 0;
#X connect 3 0 1 0;
#X connect 7 0 9 0;
#X connect 8 0 148 0;
#X connect 9 0 10 0;
#X connect 10 0 8 0;
#X connect 12 0 14 0;
#X connect 13 0 15 0;
#X connect 14 0 0 0;
#X connect 15 0 7 0;
#X connect 20 0 3 1;
#X connect 27 0 10 1;
#X connect 28 0 10 2;
#X connect 29 0 31 0;
#X connect 30 0 151 0;
#X connect 31 0 32 0;
#X connect 32 0 30 0;
#X connect 33 0 29 0;
#X connect 40 0 32 1;
#X connect 41 0 32 2;
#X connect 43 0 33 0;
#X connect 44 0 46 0;
#X connect 45 0 64 0;
#X connect 46 0 47 0;
#X connect 47 0 45 0;
#X connect 48 0 44 0;
#X connect 55 0 47 1;
#X connect 57 0 48 0;
#X connect 58 0 3 3;
#X connect 59 0 32 3;
#X connect 60 0 20 0;
#X connect 60 0 137 0;
#X connect 60 0 58 0;
#X connect 60 0 142 0;
#X connect 61 0 27 0;
#X connect 61 0 28 0;
#X connect 61 0 136 0;
#X connect 61 0 146 0;
#X connect 62 0 40 0;
#X connect 62 0 41 0;
#X connect 62 0 59 0;
#X connect 62 0 150 0;
#X connect 63 0 55 0;
#X connect 63 0 140 0;
#X connect 63 0 132 0;
#X connect 63 0 138 0;
#X connect 65 0 67 0;
#X connect 66 0 145 0;
#X connect 67 0 68 0;
#X connect 68 0 66 0;
#X connect 71 0 73 0;
#X connect 72 0 149 0;
#X connect 73 0 74 0;
#X connect 74 0 72 0;
#X connect 75 0 65 0;
#X connect 76 0 71 0;
#X connect 81 0 68 1;
#X connect 82 0 68 2;
#X connect 89 0 74 1;
#X connect 90 0 74 2;
#X connect 91 0 93 0;
#X connect 92 0 125 0;
#X connect 93 0 94 0;
#X connect 94 0 92 0;
#X connect 95 0 91 0;
#X connect 102 0 94 1;
#X connect 103 0 94 2;
#X connect 104 0 106 0;
#X connect 105 0 127 0;
#X connect 106 0 107 0;
#X connect 107 0 105 0;
#X connect 108 0 104 0;
#X connect 115 0 107 1;
#X connect 116 0 68 3;
#X connect 117 0 94 3;
#X connect 118 0 81 0;
#X connect 118 0 82 0;
#X connect 118 0 116 0;
#X connect 118 0 143 0;
#X connect 119 0 89 0;
#X connect 119 0 90 0;
#X connect 119 0 133 0;
#X connect 119 0 147 0;
#X connect 120 0 102 0;
#X connect 120 0 103 0;
#X connect 120 0 117 0;
#X connect 120 0 134 0;
#X connect 121 0 115 0;
#X connect 121 0 141 0;
#X connect 121 0 135 0;
#X connect 121 0 139 0;
#X connect 128 0 75 0;
#X connect 129 0 76 0;
#X connect 130 0 95 0;
#X connect 131 0 108 0;
#X connect 132 0 47 3;
#X connect 133 0 74 3;
#X connect 134 0 94 4;
#X connect 135 0 107 3;
#X connect 136 0 10 3;
#X connect 137 0 3 2;
#X connect 138 0 47 4;
#X connect 139 0 107 4;
#X connect 140 0 47 2;
#X connect 141 0 107 2;
#X connect 142 0 3 4;
#X connect 143 0 68 4;
#X connect 146 0 10 4;
#X connect 147 0 74 4;
#X connect 150 0 32 4;
#X restore 734 37 pd routing_delay;
#X connect 0 0 20 0;
#X connect 0 0 21 0;
#X connect 5 0 17 0;
#X connect 6 0 14 0;
#X connect 7 0 10 0;
#X connect 8 0 11 0;
#X connect 9 0 18 0;
#X connect 10 0 9 0;
#X connect 11 0 12 0;
#X connect 12 0 19 0;
#X connect 14 0 15 1;
#X connect 15 0 13 0;
#X connect 16 0 27 0;
#X connect 17 0 16 1;
#X connect 18 0 16 0;
#X connect 18 0 25 0;
#X connect 19 0 15 0;
#X connect 19 0 26 0;
#X connect 20 0 25 1;
#X connect 20 0 26 1;
#X connect 21 0 22 0;
#X connect 22 0 23 0;
#X connect 23 0 24 1;
#X connect 23 0 34 1;
#X connect 24 0 28 0;
#X connect 25 0 28 0;
#X connect 26 0 29 0;
#X connect 30 0 31 0;
#X connect 31 0 24 1;
#X connect 31 0 34 1;
#X connect 32 0 27 0;
#X connect 32 0 24 0;
#X connect 33 0 13 0;
#X connect 33 0 34 0;
#X connect 34 0 29 0;
#X coords 0 -1 1 1 200 200 1 100 100;
