#N canvas 393 139 362 257 10;
#X msg 41 149 print;
#X msg 100 136 control #1 \$1;
#X obj 99 39 inlet;
#X floatatom 99 116 5 0 0 0 - - -;
#X obj 99 89 / 100;
#X obj 91 166 plugin~ decimator;
#X text 99 22 bit depth;
#X obj 206 38 inlet;
#X floatatom 206 115 5 0 0 0 - - -;
#X obj 206 88 / 100;
#X text 206 21 sample rate;
#X msg 207 135 control #2 \$1;
#X obj 99 67 clip 1 24;
#X obj 206 66 clip 44.1 44100;
#X obj 203 200 outlet~;
#X obj 38 39 inlet~;
#X connect 0 0 5 0;
#X connect 1 0 5 0;
#X connect 2 0 12 0;
#X connect 3 0 1 0;
#X connect 4 0 3 0;
#X connect 5 1 14 0;
#X connect 7 0 13 0;
#X connect 8 0 11 0;
#X connect 9 0 8 0;
#X connect 11 0 5 0;
#X connect 12 0 4 0;
#X connect 13 0 9 0;
#X connect 15 0 5 1;
