#N canvas 733 98 547 651 12;
#X obj 41 133 phasor~;
#X obj 54 165 delwrite~ buff 100;
#X floatatom 41 85 5 0 0 0 - - -, f 5;
#X obj 238 200 + 1.451;
#X obj 238 230 sig~;
#X obj 238 292 vd~ buff;
#X obj 114 268 delread~ buff;
#X msg 114 241 1.451;
#X obj 220 330 +~;
#X obj 221 386 *~;
#X obj 258 364 tgl 15 0 empty empty empty 0 -6 0 8 -262144 -1 -1 1
1;
#X obj 42 380 *~;
#X obj 79 358 tgl 15 0 empty empty empty 0 -6 0 8 -262144 -1 -1 1 1
;
#X obj 42 513 *~;
#X floatatom 114 490 5 0 0 0 - - -, f 5;
#X obj 43 551 dac~;
#X text 44 38 3.4.2.9. octave doubler;
#X text 94 86 frequency;
#X text 237 134 half of a period (in ms);
#X text 104 356 original;
#X text 283 362 octave displacement;
#X text 325 588 www.pd-tutorial.com;
#X text 332 556 Johannes Kreidler;
#X obj 237 173 expr 500/$f1;
#X connect 0 0 1 0;
#X connect 0 0 11 0;
#X connect 2 0 0 0;
#X connect 2 0 23 0;
#X connect 3 0 4 0;
#X connect 4 0 5 0;
#X connect 5 0 8 1;
#X connect 6 0 8 0;
#X connect 7 0 6 0;
#X connect 8 0 9 0;
#X connect 9 0 13 0;
#X connect 10 0 9 1;
#X connect 11 0 13 0;
#X connect 12 0 11 1;
#X connect 13 0 15 0;
#X connect 13 0 15 1;
#X connect 14 0 13 1;
#X connect 23 0 3 0;
