#N canvas 77 23 1099 754 10;
#N canvas 0 22 450 278 (subpatch) 0;
#X array channelL 196394 float 2;
#X coords 0 1 196394 -1 200 140 1;
#X restore 239 19 graph;
#N canvas 0 22 450 278 (subpatch) 0;
#X array channelR 196394 float 2;
#X coords 0 1 196394 -1 200 140 1 0 0;
#X restore 239 174 graph;
#X obj 18 551 *~;
#X obj 62 553 *~;
#X obj 103 551 vsl 40 60 0 1 0 0 empty empty empty 0 -9 0 10 -262144
-1 -1 3700 1;
#X obj 12 26 bng 15 250 50 0 empty empty empty 17 7 0 10 -262144 -1
-1;
#X obj 12 47 openpanel;
#X msg 12 70 read -resize \$1 channelL channelR;
#X msg 353 569 \; pd dsp \$1;
#X obj 353 545 tgl 15 0 empty empty empty 17 7 0 10 -262144 -1 -1 1
1;
#X obj 12 96 soundfiler;
#X floatatom 31 119 12 0 0 0 - - -, f 12;
#X obj 13 176 expr 44100 / $f1;
#X obj 32 146 s sampleSize;
#X floatatom 26 207 10 0 0 0 - - -, f 10;
#X obj 14 344 phasor~;
#X obj 15 427 *~;
#X obj 60 413 r sampleSize;
#X obj 17 500 tabread4~ channelL;
#X obj 37 471 tabread4~ channelR;
#X obj 257 396 tgl 15 0 empty empty empty 17 7 0 10 -262144 -1 -1 1
1;
#X obj 257 419 metro 50;
#X obj 257 443 snapshot~;
#X floatatom 257 467 10 0 0 0 - - -, f 10;
#X obj 258 493 /;
#X obj 337 473 r sampleSize;
#X floatatom 272 523 10 0 0 0 - - -, f 10;
#X obj 242 317 hsl 195 15 0 1 0 0 empty empty empty -2 -8 0 10 -262144
-1 -1 9988 1;
#X obj 95 256 hsl 128 15 -1 1 0 0 empty empty empty -2 -8 0 10 -262144
-1 -1 7776 1;
#X floatatom 92 277 5 0 0 0 - - -, f 5;
#X msg 90 305 0;
#X msg 125 305 0.5;
#X msg 28 278 0;
#X text 25 248 pauses audio;
#X obj 726 400 dac~;
#X obj 509 66 receive~;
#X obj 719 65 receive~;
#X obj 920 67 receive~;
#X obj 509 43 r delayswitch;
#X obj 719 42 r chorusswitch;
#X obj 920 44 r tremoloswitch;
#X obj 509 384 receive~;
#X obj 719 120 chorus;
#X obj 509 360 r bypassswitch;
#X obj 508 120 simpledelay;
#X obj 919 120 tremolo;
#X obj 522 445 adc~;
#N canvas 390 377 1211 632 effects 0;
#X floatatom 260 187 5 0 0 0 - - -, f 5;
#X obj 107 127 vradio 15 1 0 4 empty empty empty 0 -8 0 10 -262144
-1 -1 1;
#X text 129 127 Bypass;
#X text 129 142 Delay;
#X text 128 158 Chorus;
#X text 129 174 Tremolo;
#X floatatom 363 113 5 0 0 0 - - -, f 5;
#X msg 363 31 bang;
#X msg 482 31 bang;
#X obj 260 145 loadbang;
#X obj 363 7 r effectforward;
#X obj 363 87 counter 0 3;
#X msg 400 48 0;
#X msg 520 48 1;
#X obj 482 7 r effectbackwards;
#X msg 179 467 set audio;
#X msg 252 467 set none;
#X msg 333 468 set audio;
#X msg 405 468 set none;
#X msg 489 468 set audio;
#X msg 565 468 set none;
#X obj 179 595 send delayswitch;
#X obj 333 595 send chorusswitch;
#X obj 489 596 send tremoloswitch;
#X obj 260 234 sel 0 1 2 3;
#X msg 32 467 set audio;
#X msg 104 467 set none;
#X obj 32 595 send bypassswitch;
#X connect 0 0 24 0;
#X connect 1 0 0 0;
#X connect 6 0 1 0;
#X connect 7 0 12 0;
#X connect 7 0 11 0;
#X connect 8 0 13 0;
#X connect 8 0 11 0;
#X connect 9 0 0 0;
#X connect 10 0 7 0;
#X connect 11 0 6 0;
#X connect 12 0 11 1;
#X connect 13 0 11 1;
#X connect 14 0 8 0;
#X connect 15 0 21 0;
#X connect 16 0 22 0;
#X connect 16 0 27 0;
#X connect 17 0 22 0;
#X connect 18 0 23 0;
#X connect 18 0 21 0;
#X connect 19 0 23 0;
#X connect 20 0 22 0;
#X connect 20 0 27 0;
#X connect 24 0 25 0;
#X connect 24 0 26 0;
#X connect 24 1 15 0;
#X connect 24 1 16 0;
#X connect 24 2 17 0;
#X connect 24 2 18 0;
#X connect 24 3 19 0;
#X connect 24 3 20 0;
#X connect 25 0 27 0;
#X connect 26 0 21 0;
#X connect 26 0 23 0;
#X connect 26 0 22 0;
#X coords 0 -1 1 1 150 100 1 100 100;
#X restore 608 438 pd effects switch;
#X obj 522 491 send~ none;
#X obj 33 626 send~ audio;
#X msg 92 233 0.224549;
#X connect 2 0 49 0;
#X connect 4 0 2 1;
#X connect 4 0 3 1;
#X connect 5 0 6 0;
#X connect 6 0 7 0;
#X connect 7 0 10 0;
#X connect 9 0 8 0;
#X connect 10 0 11 0;
#X connect 10 0 12 0;
#X connect 11 0 13 0;
#X connect 12 0 14 0;
#X connect 12 0 15 0;
#X connect 15 0 16 0;
#X connect 16 0 18 0;
#X connect 16 0 19 0;
#X connect 16 0 22 0;
#X connect 17 0 16 1;
#X connect 18 0 2 0;
#X connect 19 0 3 0;
#X connect 20 0 21 0;
#X connect 21 0 22 0;
#X connect 22 0 23 0;
#X connect 23 0 24 0;
#X connect 24 0 26 0;
#X connect 24 0 27 0;
#X connect 25 0 24 1;
#X connect 28 0 29 0;
#X connect 29 0 15 0;
#X connect 30 0 15 1;
#X connect 31 0 15 1;
#X connect 32 0 15 0;
#X connect 35 0 44 0;
#X connect 35 0 44 1;
#X connect 36 0 42 0;
#X connect 36 0 42 1;
#X connect 37 0 45 0;
#X connect 37 0 45 1;
#X connect 38 0 35 0;
#X connect 39 0 36 0;
#X connect 40 0 37 0;
#X connect 41 0 34 0;
#X connect 41 0 34 1;
#X connect 42 0 34 0;
#X connect 42 1 34 1;
#X connect 43 0 41 0;
#X connect 44 0 34 0;
#X connect 44 1 34 1;
#X connect 45 0 34 0;
#X connect 45 1 34 1;
#X connect 50 0 28 0;
