#N canvas 547 159 563 327 10;
#X obj 20 248 outlet;
#X obj 20 90 inlet;
#X msg 191 154 size \$1;
#X obj 247 174 s \$0-cnv;
#X msg 247 134 vis_size \$1 \$1 \, size \$1;
#X msg 257 154 color \$1 \$1;
#X obj 168 114 t f f f;
#X obj 20 110 bng 15 250 50 0 empty empty empty 17 7 0 10 -262144 -1
-1;
#X obj 20 110 cnv 15 15 15 empty \$0-cnv empty 20 12 0 14 -258699 -262144
0;
#X text 444 89 Inlets;
#X text 444 149 Outlets;
#X text 444 19 Arguments;
#X text 444 39 - Size;
#X text 444 59 - TCL Color;
#X text 444 109 - Bang;
#X text 444 169 - Bang;
#X text 22 10 [but] - Monochrome Bang Button;
#N canvas 0 50 441 422 license 0;
#X text 8 47 All rights reserved.;
#X text 8 227 The names of its contributors may not be used to endorse
or promote products derived from this software without specific prior
written permission.;
#X text 8 87 Redistribution and use in source and binary forms \, with
or without modification \, are permitted provided that the following
conditions are met:;
#X text 8 127 Redistributions of source code must retain the above
copyright notice \, this list of conditions and the following disclaimer.
;
#X text 8 297 THIS SOFTWARE IS PROVIDED BY THE COPYRIGHT HOLDERS AND
CONTRIBUTORS "AS IS" AND ANY EXPRESS OR IMPLIED WARRANTIES \, INCLUDING
\, BUT NOT LIMITED TO \, THE IMPLIED WARRANTIES OF MERCHANTABILITY
AND FITNESS FOR A PARTICULAR PURPOSE ARE DISCLAIMED. IN NO EVENT SHALL
THE COPYRIGHT OWNER OR CONTRIBUTORS BE LIABLE FOR ANY DIRECT \, INDIRECT
\, INCIDENTAL \, SPECIAL \, EXEMPLARY \, OR CONSEQUENTIAL DAMAGES (INCLUDING
\, BUT NOT LIMITED TO \, PROCUREMENT OF SUBSTITUTE GOODS OR SERVICES
;
#X text 8 167 Redistributions in binary form must reproduce the above
copyright notice \, this list of conditions and the following disclaimer
in the documentation and/or other materials provided with the distribution.
;
#X text 8 27 jmmmpais@gmail.com;
#X text 8 7 Copyright 2017 \, João Pais;
#X restore 20 298 pd license;
#X obj 168 224 s \$0-button;
#X obj 168 244 namecanvas \$0-button;
#X msg 168 204 donecanvasdialog 1 -1 2 0 -1 1 1 \$1 \$1 20 110 \, dirty
0;
#X obj 129 94 sel 0;
#X msg 129 114 12;
#X obj 129 34 loadbang;
#X obj 129 54 pack \$1 \$2;
#X obj 129 74 unpack;
#X text 19 278 (C) 2008-2017 João Pais - jmmmpais@gmail.com;
#X connect 1 0 7 0;
#X connect 2 0 7 0;
#X connect 4 0 3 0;
#X connect 5 0 3 0;
#X connect 6 0 20 0;
#X connect 6 1 2 0;
#X connect 6 2 4 0;
#X connect 7 0 0 0;
#X connect 20 0 18 0;
#X connect 21 0 22 0;
#X connect 21 1 6 0;
#X connect 22 0 20 0;
#X connect 23 0 24 0;
#X connect 24 0 25 0;
#X connect 25 0 21 0;
#X connect 25 1 5 0;
#X coords 0 -1 1 1 15 15 2 20 110;
