#N canvas 188 69 521 385 10;
#X text 12 357 Released under the BSD License;
#X text 198 160 Inlets;
#X text 198 220 Outlets;
#X text 198 90 Arguments;
#X obj 82 162 print;
#X text 24 183 Always the same output;
#X obj 142 122 butt 15 13;
#X text 12 307 Done following the concept of [Tot] by J. Kreidler.
;
#X text 12 268 To know which colors to use \, have a look at;
#X obj 319 268 pd-colors;
#X text 198 110 - Size (points);
#X text 21 10 [butt] - Color-changing Toggle Button;
#X text 23 40 [butt] is a color-changing toggle button. It serves only
to have a different graphic presentation.;
#X text 198 130 - TCL Color - between 10 and 19 works better;
#X text 198 180 - Bang \, float (like a toggle);
#X text 198 240 - 0 \, 1 (like a toggle);
#X obj 22 122 tgl 15 0 empty empty empty 17 7 0 10 -262144 -1 -1 0
1;
#N canvas 504 106 494 344 META 0;
#X text 12 95 LICENSE BSD;
#X text 12 75 LIBRARY jmmmp;
#X text 13 115 WEBSITE http://puredata.info/Members/jmmmp;
#X text 12 5 DESCRIPTION Color-changing Toggle Button;
#X text 12 35 KEYWORDS toggle GOP;
#X text 12 165 INLET_0 - bang or float;
#X text 12 185 OUTLET_0 - 0 or 1;
#X text 12 55 AUTHOR João Pais <jmmmpais@gmail.com>;
#X text 12 135 VERSION 0.48;
#X restore 452 356 pd META;
#X text 12 337 (C) 2006-2017 João Pais - jmmmpais@gmail.com;
#X obj 52 122 butt 15 18;
#X obj 112 122 butt 15 15;
#X obj 82 122 butt 15 16;
#X connect 6 0 4 0;
#X connect 16 0 4 0;
#X connect 19 0 4 0;
#X connect 20 0 4 0;
#X connect 21 0 4 0;
