#N struct 1053-color float x float y float farbe;
#N struct 1053-color-display float x float y float farbe;
#N struct 1056-color float x float y float farbe;
#N struct 1056-color-display float x float y float farbe;
#N struct 1050-matrixctrl float x float y float size float color float
state;
#N canvas 249 154 642 442 10;
#X declare -stdlib iemmatrix -stdlib zexy;
#X declare -stdlib iemmatrix -stdlib zexy;
#X obj 98 284 inlet~;
#X text 213 94 Inlets;
#N canvas 0 50 441 415 license 0;
#X text 8 47 All rights reserved.;
#X text 8 227 The names of its contributors may not be used to endorse
or promote products derived from this software without specific prior
written permission.;
#X text 8 87 Redistribution and use in source and binary forms \, with
or without modification \, are permitted provided that the following
conditions are met:;
#X text 8 127 Redistributions of source code must retain the above
copyright notice \, this list of conditions and the following disclaimer.
;
#X text 8 297 THIS SOFTWARE IS PROVIDED BY THE COPYRIGHT HOLDERS AND
CONTRIBUTORS "AS IS" AND ANY EXPRESS OR IMPLIED WARRANTIES \, INCLUDING
\, BUT NOT LIMITED TO \, THE IMPLIED WARRANTIES OF MERCHANTABILITY
AND FITNESS FOR A PARTICULAR PURPOSE ARE DISCLAIMED. IN NO EVENT SHALL
THE COPYRIGHT OWNER OR CONTRIBUTORS BE LIABLE FOR ANY DIRECT \, INDIRECT
\, INCIDENTAL \, SPECIAL \, EXEMPLARY \, OR CONSEQUENTIAL DAMAGES (INCLUDING
\, BUT NOT LIMITED TO \, PROCUREMENT OF SUBSTITUTE GOODS OR SERVICES
;
#X text 8 167 Redistributions in binary form must reproduce the above
copyright notice \, this list of conditions and the following disclaimer
in the documentation and/or other materials provided with the distribution.
;
#X text 8 7 Copyright 2017 \, João Pais;
#X text 8 27 jmmmpais@gmail.com;
#X restore 16 417 pd license;
#X obj 106 44 inlet;
#X obj 16 354 dac~ 1 2 3 4 5 6 7 8 9 10 11 12 13 14 15 16 17 18 19
20 21 22 23 24 25 26 27 28 29 30 31 32;
#X obj 16 264 matrixctrl 32 1;
#X obj 152 214 - 1;
#X msg 152 234 \$1 0 1;
#X obj 106 124 list split 1;
#X obj 146 144 t l;
#X obj 106 84 t a b;
#X msg 138 104 reset;
#X obj 361 284 inlet;
#X text 213 154 - Fade time (ms). Default is 20ms.;
#X obj 106 164 moses 33;
#X obj 201 204 print dacmm~;
#X msg 201 184 ERROR: chanel \$1 over the limit of 32 channels.;
#X text 213 44 Arguments;
#X text 213 64 - list with channel(s). If not present \, there won't
be any output until the channels are set.;
#X text 12 14 [dacc~] - dynamic dac~ outlet up to 32 channels;
#N canvas 439 302 442 182 init 0;
#X obj 15 104 list \$1 \$2 \$3 \$4 \$5 \$6 \$7 \$8 \$9 \$10 \$11 \$12
\$13 \$14 \$15 \$16 \$17 \$18 \$19 \$20 \$21 \$22 \$23 \$24 \$25 \$26
\$27 \$28 \$29 \$30 \$31 \$32;
#X obj 15 64 expr \$1 != 0;
#X obj 15 84 sel 1;
#X text 12 14 Checks if initiation values are present. If yes \, list
is sent.;
#X obj 15 150 outlet;
#X obj 15 44 loadbang;
#X connect 0 0 4 0;
#X connect 1 0 2 0;
#X connect 2 0 0 0;
#X connect 5 0 1 0;
#X restore 116 64 pd init;
#X obj 106 194 moses 1;
#X text 213 114 - Audio signal;
#X text 213 134 - Output channel(s) - integer or list of integers (max
32);
#X text 12 397 (C) 2016-2017 João Pais - jmmmpais@gmail.com;
#X obj 386 232 iemmatrix;
#X obj 16 314 mtx_mul~ 32 1 20 ----------------------------------------------------------
;
#X obj 386 212 declare -stdlib iemmatrix -stdlib zexy;
#X connect 0 0 26 1;
#X connect 3 0 10 0;
#X connect 5 0 26 0;
#X connect 6 0 7 0;
#X connect 7 0 5 0;
#X connect 8 0 14 0;
#X connect 8 1 9 0;
#X connect 9 0 8 0;
#X connect 10 0 8 0;
#X connect 10 1 11 0;
#X connect 11 0 5 0;
#X connect 12 0 26 2;
#X connect 14 0 21 0;
#X connect 14 1 16 0;
#X connect 16 0 15 0;
#X connect 20 0 10 0;
#X connect 21 1 6 0;
#X connect 26 0 4 0;
#X connect 26 1 4 1;
#X connect 26 2 4 2;
#X connect 26 3 4 3;
#X connect 26 4 4 4;
#X connect 26 5 4 5;
#X connect 26 6 4 6;
#X connect 26 7 4 7;
#X connect 26 8 4 8;
#X connect 26 9 4 9;
#X connect 26 10 4 10;
#X connect 26 11 4 11;
#X connect 26 12 4 12;
#X connect 26 13 4 13;
#X connect 26 14 4 14;
#X connect 26 15 4 15;
#X connect 26 16 4 16;
#X connect 26 17 4 17;
#X connect 26 18 4 18;
#X connect 26 19 4 19;
#X connect 26 20 4 20;
#X connect 26 21 4 21;
#X connect 26 22 4 22;
#X connect 26 23 4 23;
#X connect 26 24 4 24;
#X connect 26 25 4 25;
#X connect 26 26 4 26;
#X connect 26 27 4 27;
#X connect 26 28 4 28;
#X connect 26 29 4 29;
#X connect 26 30 4 30;
#X connect 26 31 4 31;
#X coords 0 0 1 1 143 17 0;
