#N canvas 730 89 533 385 10;
#X floatatom 67 277 8 0 0 0 - - -, f 8;
#X floatatom 67 73 5 0 0 0 - - -, f 5;
#X text 77 306 creation:;
#X floatatom 96 131 5 0 0 0 - - -, f 5;
#X floatatom 125 152 5 0 0 0 - - -, f 5;
#X floatatom 155 173 5 0 0 0 - - -, f 5;
#X floatatom 184 194 5 0 0 0 - - -, f 5;
#X text 124 71 input value;
#X text 146 278 scaled output value;
#X text 151 130 in low;
#X text 177 151 in high;
#X text 211 172 out low;
#X text 240 194 out high;
#X text 97 104 creation arguments can be changed dynamically:;
#X text 93 323 scale <in low> <in high> <out low> <out high>;
#X text 63 26 jmmmp unfinished object (but it works);
#X text 330 57 explain list input;
#X obj 67 249 expr_scale 0 9 100 255;
#X text 332 80 missing logarithmic factor;
#X connect 1 0 17 0;
#X connect 3 0 17 1;
#X connect 4 0 17 2;
#X connect 5 0 17 3;
#X connect 6 0 17 4;
#X connect 17 0 0 0;
