#N canvas 290 96 558 467 10;
#X declare -stdlib iemlib;
#X obj 19 282 *~;
#X obj 48 262 line~;
#X msg 48 242 \$1 20;
#X obj 198 57 inlet Lautstaerke;
#X obj 19 47 inlet~ Signal;
#X obj 19 392 outlet~;
#X obj 48 222 dbtorms;
#X obj 128 242 outlet;
#X obj 29 362 - 100;
#X obj 29 302 env~ 8820;
#X obj 191 77 inlet mute;
#X obj 191 122 bang;
#X obj 191 142 tgl 15 0 empty empty empty 0 -6 0 8 -262144 -1 -1 1
1;
#X obj 48 202 *;
#X obj 191 160 t b f;
#X obj 216 180 expr if ($f1 == 0 \, 22 \, 20);
#X msg 216 200 color \$1;
#X obj 221 122 init 1;
#N canvas 0 0 426 446 license 0;
#X text 8 47 All rights reserved.;
#X text 8 227 The names of its contributors may not be used to endorse
or promote products derived from this software without specific prior
written permission.;
#X text 8 87 Redistribution and use in source and binary forms \, with
or without modification \, are permitted provided that the following
conditions are met:;
#X text 8 127 Redistributions of source code must retain the above
copyright notice \, this list of conditions and the following disclaimer.
;
#X text 8 297 THIS SOFTWARE IS PROVIDED BY THE COPYRIGHT HOLDERS AND
CONTRIBUTORS "AS IS" AND ANY EXPRESS OR IMPLIED WARRANTIES \, INCLUDING
\, BUT NOT LIMITED TO \, THE IMPLIED WARRANTIES OF MERCHANTABILITY
AND FITNESS FOR A PARTICULAR PURPOSE ARE DISCLAIMED. IN NO EVENT SHALL
THE COPYRIGHT OWNER OR CONTRIBUTORS BE LIABLE FOR ANY DIRECT \, INDIRECT
\, INCIDENTAL \, SPECIAL \, EXEMPLARY \, OR CONSEQUENTIAL DAMAGES (INCLUDING
\, BUT NOT LIMITED TO \, PROCUREMENT OF SUBSTITUTE GOODS OR SERVICES
;
#X text 8 167 Redistributions in binary form must reproduce the above
copyright notice \, this list of conditions and the following disclaimer
in the documentation and/or other materials provided with the distribution.
;
#X text 8 27 jmmmpais@gmail.com;
#X text 8 7 Copyright 2006 \, João Pais;
#X restore 15 436 pd license;
#X text 390 105 Inlets;
#X text 390 215 Outlets;
#X text 390 275 - Signal level (0-1);
#X text 390 185 - Level (0-127);
#X text 390 165 - Mute / Unmute (bang);
#X obj 109 282 *~;
#X obj 109 47 inlet~ Signal;
#X obj 109 392 outlet~;
#X obj 119 362 - 100;
#X obj 119 302 env~ 8820;
#X text 11 8 [met~] - Level meter with amplitude control \, stereo
;
#X text 390 125 - Signal L;
#X text 390 145 - Signal R;
#X text 390 235 - Amplified signal L;
#X text 390 255 - Amplified signal R;
#X obj 321 57 init \$1;
#X obj 321 77 moses 1;
#X text 390 75 - Level (0-127);
#X text 390 55 Arguments;
#X obj 31 109 cnv 15 128 42 empty empty empty 20 12 0 14 -233017 -66577
0;
#X obj 36 138 hsl 119 10 0 127 0 0 empty empty empty -2 -8 0 10 -191407
-1 -33289 2880 0;
#X obj 36 112 hsl 119 10 -100 12 0 0 empty empty empty -2 -8 0 10 -195568
-1 -262144 267 1;
#X obj 128 140 cnv 1 2 6 empty empty empty 20 12 0 14 -262144 -262144
0;
#X obj 123 114 cnv 1 2 6 empty empty empty 20 12 0 14 -262144 -262144
0;
#X obj 36 124 hsl 119 10 -100 12 0 0 empty empty empty -2 -8 0 10 -195568
-1 -262144 267 1;
#X text 12 418 (C) 2006-2016 João Pais - jmmmpais@gmail.com;
#X obj 29 322 change;
#X obj 119 322 change;
#X obj 169 392 declare -stdlib iemlib;
#X obj 119 342 iemlib/dbtofad;
#X obj 29 342 iemlib/dbtofad;
#X connect 0 0 5 0;
#X connect 0 0 9 0;
#X connect 1 0 0 1;
#X connect 1 0 24 1;
#X connect 2 0 1 0;
#X connect 3 0 39 0;
#X connect 4 0 0 0;
#X connect 6 0 2 0;
#X connect 6 0 7 0;
#X connect 8 0 40 0;
#X connect 9 0 45 0;
#X connect 10 0 11 0;
#X connect 11 0 12 0;
#X connect 12 0 14 0;
#X connect 13 0 6 0;
#X connect 14 0 13 0;
#X connect 14 1 13 1;
#X connect 14 1 15 0;
#X connect 15 0 16 0;
#X connect 16 0 43 0;
#X connect 16 0 40 0;
#X connect 17 0 12 0;
#X connect 24 0 26 0;
#X connect 24 0 28 0;
#X connect 25 0 24 0;
#X connect 27 0 43 0;
#X connect 28 0 46 0;
#X connect 34 0 35 0;
#X connect 35 1 39 0;
#X connect 39 0 13 0;
#X connect 45 0 49 0;
#X connect 46 0 48 0;
#X connect 48 0 27 0;
#X connect 49 0 8 0;
#X coords 0 -1 1 1 130 44 2 30 108;
