#N canvas 193 106 409 426 10;
#X text 111 236 <- 0dB;
#X text 12 397 Released under the BSD License;
#X text 250 145 Inlets;
#X text 250 255 Outlets;
#N canvas 0 0 396 219 signal 0;
#X obj 47 75 random 7;
#X obj 47 54 metrum 400 1;
#X obj 47 115 sig~;
#X obj 214 112 line;
#X obj 214 132 outlet;
#X obj 214 72 t b b;
#X obj 214 52 loadbang;
#X msg 214 92 0 \, 100 6000;
#X obj 254 112 del 9000;
#X obj 47 135 outlet~;
#X obj 47 95 / 4;
#X connect 0 0 10 0;
#X connect 1 0 0 0;
#X connect 2 0 9 0;
#X connect 3 0 4 0;
#X connect 5 0 7 0;
#X connect 5 1 8 0;
#X connect 6 0 5 0;
#X connect 7 0 3 0;
#X connect 8 0 5 0;
#X connect 10 0 2 0;
#X restore 16 105 pd signal;
#X obj 16 256 outlet~;
#X floatatom 139 256 8 0 0 0 - - -;
#X obj 98 127 bng 13 250 50 0 empty empty empty 0 -6 0 8 -262144 -1
-1;
#X text 116 124 <- Mute / Unmute;
#X text 131 276 Signal level;
#X text 250 315 - Signal level (0-1);
#X text 250 225 - Level (0-127);
#X text 250 205 - Mute / Unmute (bang);
#X msg 139 173 0;
#X msg 167 173 127;
#X text 136 153 Control level;
#X obj 77 256 outlet~;
#X text 250 165 - Left signal;
#X text 250 185 - Right signal;
#X text 250 275 - Amplified left signal;
#X text 250 295 - Amplified right signal;
#X text 11 38 Controls the amplitude of a stereo signal with values
between 0 and 127 Lighter as met~.;
#X obj 16 85 dsp01;
#X text 12 347 Related objects: [mat~] [met~] [dacm~];
#X text 250 95 Arguments;
#X text 250 115 - Level (0-127);
#N canvas 504 106 494 344 META 0;
#X text 12 55 AUTHOR João Pais <jmmmpais@gmail.com>;
#X text 12 95 LICENSE BSD;
#X text 12 75 LIBRARY jmmmp;
#X text 13 115 WEBSITE http://puredata.info/Members/jmmmp;
#X text 12 5 DESCRIPTION Level meter with amplitude control \, stereo
;
#X text 12 135 VERSION 2012;
#X text 14 36 KEYWORDS level meter;
#X text 14 165 INLET_0 - Left signal;
#X text 14 185 INLET_1 - Right signal;
#X text 14 205 INLET_2 - Mute / Unmute (bang);
#X text 14 245 OUTLET_0 - Amplified left signal;
#X text 14 265 OUTLET_1 - Amplified right signal;
#X text 14 285 OUTLET_2 - Signal level (0-1);
#X text 14 225 INLET_3 - Level (0-127);
#X restore 342 396 pd META;
#X obj 16 194 maat-~;
#X text 11 8 [maat~] - Stereo Level meter with amplitude control \,
horizontal;
#X text 12 377 (C) 2006-2016 João Pais - jmmmpais@gmail.com;
#X connect 4 0 27 0;
#X connect 4 0 27 1;
#X connect 4 1 27 3;
#X connect 7 0 27 2;
#X connect 13 0 27 3;
#X connect 14 0 27 3;
#X connect 27 0 5 0;
#X connect 27 1 16 0;
#X connect 27 2 6 0;
#X coords 0 0 1 1 31 130 0;
