#N struct 1379-rgb-sel float x float y float p1x float p1y float p2x
float p2y float p3x float p3y float p4x float p4y float p5x float p5y
float p0x float p0y float p0x. float p0y.;
#N canvas 186 367 554 298 10;
#X text 12 267 Released under the BSD License;
#X text 308 80 Inlets;
#X text 307 130 Outlets;
#X text 307 100 - Bang;
#X text 307 150 - number with current color;
#X obj 13 91 swatch;
#X obj 158 200 hsl 128 15 0 127 0 0 empty \$0-slider Label -2 -8 0
10 -258049 -1 -1 3600 1;
#X obj 13 220 s \$0-slider;
#X floatatom 23 180 10 0 0 0 - - -, f 10;
#X text 22 11 [swatch] - Pick a color using the hue-saturation chart
;
#X text 21 31 To choose a color \, grab the circle and move it around.
In case the circle disappears \, clicking in the swatch will make it
appear again.;
#N canvas 504 106 494 344 META 0;
#X text 12 95 LICENSE BSD;
#X text 12 75 LIBRARY jmmmp;
#X text 13 115 WEBSITE http://puredata.info/Members/jmmmp;
#X text 13 6 DESCRIPTION Pick a color using the hue-saturation chart
;
#X text 12 36 KEYWORDS color GUI data structures;
#X text 14 165 INLET_0 - bang;
#X text 14 185 OUTLET_0 - "color \$1 \$2 \$3" command;
#X text 14 205 OUTLET_1 - number with current color;
#X text 12 135 VERSION 0.48;
#X text 12 55 AUTHOR João Pais <jmmmpais@gmail.com>;
#X restore 482 266 pd META;
#X text 11 247 (C) 2010-2017 João Pais - jmmmpais@gmail.com;
#X msg 13 200 color \$1 22 22;
#X text 307 170 (use in "color \$1 \$2 \$3" command);
#X connect 5 0 13 0;
#X connect 5 0 8 0;
#X connect 13 0 7 0;
