#N canvas 288 23 730 751 10;
#X obj 355 62 cnv 15 300 320 empty empty empty 20 12 0 14 -233017 -66577
0;
#X obj 103 533 +~;
#X obj 100 234 +;
#X obj 143 234 f;
#X msg 100 210 1;
#X obj 127 287 sel 1;
#X msg 143 210 0;
#X obj 98 406 osc~ 220;
#X obj 101 595 dac~;
#X obj 235 82 loadbang;
#X msg 100 126 1;
#X obj 278 450 line~;
#X obj 276 530 *~ 0.3;
#X obj 101 558 *~ 0.2;
#X msg 376 460 0.3;
#X obj 100 184 metro 300;
#X obj 127 349 * 440;
#X msg 235 358 440;
#X msg 244 293 220;
#X obj 269 577 delwrite~ del 1000;
#X obj 283 300 * 600;
#X obj 379 92 hsl 128 15 0 1 0 0 empty empty Arp_Speed -2 -8 0 10 -204800
-1 -1 0 1;
#X obj 378 163 hsl 240 15 0 1 0 0 empty empty Pitch_Spread -2 -8 0
10 -261682 -1 -1 0 1;
#X obj 378 238 hsl 128 15 0 1 0 0 empty empty Delay_Time -2 -8 0 10
-204786 -1 -1 0 1;
#X obj 378 302 hsl 128 15 0 1 0 0 empty empty Regeneration -2 -8 0
10 -262130 -1 -1 0 1;
#X obj 278 494 vd~ del;
#X obj 289 323 + 20;
#X obj 127 263 > 4;
#X obj 100 375 * 150;
#X obj 151 161 * 1000;
#X msg 280 353 \$1 20;
#X msg 166 418 0 300;
#X obj 184 386 t b b;
#X obj 142 463 line~;
#X obj 104 494 *~;
#X obj 224 418 1;
#X obj 460 521 tgl 15 0 empty empty empty 17 7 0 10 -262144 -1 -1 0
1;
#X msg 460 541 \; pd dsp \$1;
#X obj 377 112 r pot5;
#X obj 375 184 r pot6;
#X obj 375 259 r pot7;
#X obj 375 325 r pot8;
#X obj 463 477 r button1;
#X connect 1 0 13 0;
#X connect 2 0 3 0;
#X connect 2 0 27 0;
#X connect 2 0 28 0;
#X connect 3 0 2 1;
#X connect 4 0 2 0;
#X connect 5 0 6 0;
#X connect 6 0 3 0;
#X connect 7 0 34 0;
#X connect 9 0 10 0;
#X connect 9 0 14 0;
#X connect 9 0 17 0;
#X connect 9 0 18 0;
#X connect 10 0 15 0;
#X connect 10 0 29 0;
#X connect 11 0 25 0;
#X connect 12 0 19 0;
#X connect 13 0 8 0;
#X connect 13 0 8 1;
#X connect 14 0 12 1;
#X connect 15 0 4 0;
#X connect 15 0 32 0;
#X connect 16 0 28 1;
#X connect 17 0 28 1;
#X connect 18 0 30 0;
#X connect 20 0 26 0;
#X connect 21 0 29 0;
#X connect 22 0 16 0;
#X connect 23 0 20 0;
#X connect 24 0 12 1;
#X connect 25 0 1 1;
#X connect 25 0 12 0;
#X connect 26 0 30 0;
#X connect 27 0 5 0;
#X connect 28 0 7 0;
#X connect 29 0 15 1;
#X connect 30 0 11 0;
#X connect 31 0 33 0;
#X connect 32 0 31 0;
#X connect 32 1 35 0;
#X connect 33 0 34 1;
#X connect 34 0 1 0;
#X connect 34 0 19 0;
#X connect 35 0 33 0;
#X connect 36 0 37 0;
#X connect 38 0 29 0;
#X connect 39 0 16 0;
#X connect 40 0 20 0;
#X connect 41 0 12 1;
#X connect 42 0 36 0;
