#N canvas 77 23 1099 751 10;
#N canvas 0 22 450 278 (subpatch) 0;
#X array channelL 604800 float 2;
#X coords 0 1 604800 -1 200 140 1;
#X restore 239 19 graph;
#N canvas 0 22 450 278 (subpatch) 0;
#X array channelR 604800 float 2;
#X coords 0 1 604800 -1 200 140 1 0 0;
#X restore 239 174 graph;
#X obj 18 551 *~;
#X obj 62 553 *~;
#X obj 103 551 vsl 40 60 0 1 0 0 empty empty empty 0 -9 0 10 -262144
-1 -1 3800 1;
#X obj 12 26 bng 15 250 50 0 empty empty empty 17 7 0 10 -262144 -1
-1;
#X obj 12 47 openpanel;
#X msg 12 70 read -resize \$1 channelL channelR;
#X msg 353 569 \; pd dsp \$1;
#X obj 353 545 tgl 15 0 empty empty empty 17 7 0 10 -262144 -1 -1 0
1;
#X obj 12 96 soundfiler;
#X floatatom 31 119 12 0 0 0 - - -;
#X obj 13 176 expr 44100 / $f1;
#X obj 32 146 s sampleSize;
#X floatatom 26 207 10 0 0 0 - - -;
#X obj 14 344 phasor~;
#X obj 15 427 *~;
#X obj 60 413 r sampleSize;
#X obj 17 500 tabread4~ channelL;
#X obj 37 471 tabread4~ channelR;
#X obj 257 396 tgl 15 0 empty empty empty 17 7 0 10 -262144 -1 -1 1
1;
#X obj 257 419 metro 50;
#X obj 257 443 snapshot~;
#X floatatom 257 467 10 0 0 0 - - -;
#X obj 258 493 /;
#X obj 337 473 r sampleSize;
#X floatatom 272 523 10 0 0 0 - - -;
#X obj 242 317 hsl 195 15 0 1 0 0 empty empty empty -2 -8 0 10 -262144
-1 -1 2628 1;
#X obj 95 256 hsl 128 15 -1 1 0 0 empty empty empty -2 -8 0 10 -262144
-1 -1 7776 1;
#X floatatom 92 277 5 0 0 0 - - -;
#X msg 90 305 0;
#X msg 125 305 0.5;
#X msg 28 278 0;
#X text 25 248 pauses audio;
#X obj 676 590 dac~;
#X obj 459 256 receive~;
#X obj 669 255 receive~;
#X obj 870 257 receive~;
#X obj 459 233 r delayswitch;
#X obj 669 232 r chorusswitch;
#X obj 870 234 r tremoloswitch;
#X obj 459 574 receive~;
#X obj 459 550 r bypassswitch;
#X obj 33 626 send~ audio;
#X msg 92 233 0.224549;
#X obj 458 310 sik/simpledelay;
#X obj 669 310 sik/chorus;
#X obj 869 310 sik/tremolo;
#N canvas 177 43 713 671 switcher 0;
#X obj 100 101 cnv 15 150 100 empty empty Switcher 20 12 0 14 -233017
-66577 0;
#X floatatom 275 190 5 0 0 0 - - -;
#X obj 122 130 vradio 15 1 0 4 empty empty empty 0 -8 0 10 -262144
-1 -1 1;
#X text 144 130 Bypass;
#X text 144 145 Delay;
#X text 143 161 Chorus;
#X text 144 177 Tremolo;
#X floatatom 381 117 5 0 0 0 - - -;
#X obj 275 148 loadbang;
#X msg 194 470 set audio;
#X msg 267 470 set none;
#X msg 348 471 set audio;
#X msg 420 471 set none;
#X msg 504 471 set audio;
#X msg 580 471 set none;
#X obj 194 598 send delayswitch;
#X obj 348 598 send chorusswitch;
#X obj 504 599 send tremoloswitch;
#X obj 275 237 sel 0 1 2 3;
#X msg 47 470 set audio;
#X msg 119 470 set none;
#X obj 47 598 send bypassswitch;
#X obj 378 38 bng 15 250 50 0 empty empty empty 17 7 0 10 -262144 -1
-1;
#X obj 497 38 bng 15 250 50 0 empty empty empty 17 7 0 10 -262144 -1
-1;
#X obj 378 10 r button1;
#X obj 425 88 int;
#X msg 496 57 -1;
#X obj 470 87 + 1;
#X msg 422 53 1;
#X obj 468 110 mod 4;
#X obj 497 10 r button2;
#X connect 1 0 18 0;
#X connect 2 0 1 0;
#X connect 7 0 2 0;
#X connect 8 0 1 0;
#X connect 9 0 15 0;
#X connect 10 0 16 0;
#X connect 10 0 21 0;
#X connect 11 0 16 0;
#X connect 12 0 17 0;
#X connect 12 0 15 0;
#X connect 13 0 17 0;
#X connect 14 0 16 0;
#X connect 14 0 21 0;
#X connect 18 0 19 0;
#X connect 18 0 20 0;
#X connect 18 1 9 0;
#X connect 18 1 10 0;
#X connect 18 2 11 0;
#X connect 18 2 12 0;
#X connect 18 3 13 0;
#X connect 18 3 14 0;
#X connect 19 0 21 0;
#X connect 20 0 15 0;
#X connect 20 0 17 0;
#X connect 20 0 16 0;
#X connect 22 0 25 0;
#X connect 22 0 28 0;
#X connect 23 0 26 0;
#X connect 23 0 25 0;
#X connect 24 0 22 0;
#X connect 25 0 27 0;
#X connect 25 0 7 0;
#X connect 26 0 27 1;
#X connect 27 0 29 0;
#X connect 28 0 27 1;
#X connect 29 0 25 1;
#X connect 30 0 23 0;
#X coords 0 -1 1 1 150 100 1 100 100;
#X restore 668 79 pd switcher;
#X connect 2 0 43 0;
#X connect 4 0 2 1;
#X connect 4 0 3 1;
#X connect 5 0 6 0;
#X connect 6 0 7 0;
#X connect 7 0 10 0;
#X connect 9 0 8 0;
#X connect 10 0 11 0;
#X connect 10 0 12 0;
#X connect 11 0 13 0;
#X connect 12 0 14 0;
#X connect 12 0 15 0;
#X connect 15 0 16 0;
#X connect 16 0 18 0;
#X connect 16 0 19 0;
#X connect 16 0 22 0;
#X connect 17 0 16 1;
#X connect 18 0 2 0;
#X connect 19 0 3 0;
#X connect 20 0 21 0;
#X connect 21 0 22 0;
#X connect 22 0 23 0;
#X connect 23 0 24 0;
#X connect 24 0 26 0;
#X connect 24 0 27 0;
#X connect 25 0 24 1;
#X connect 28 0 29 0;
#X connect 29 0 15 0;
#X connect 30 0 15 1;
#X connect 31 0 15 1;
#X connect 32 0 15 0;
#X connect 35 0 45 0;
#X connect 35 0 45 1;
#X connect 36 0 46 0;
#X connect 36 0 46 1;
#X connect 37 0 47 0;
#X connect 37 0 47 1;
#X connect 38 0 35 0;
#X connect 39 0 36 0;
#X connect 40 0 37 0;
#X connect 41 0 34 0;
#X connect 41 0 34 1;
#X connect 42 0 41 0;
#X connect 44 0 28 0;
#X connect 45 0 34 0;
#X connect 45 1 34 1;
#X connect 46 0 34 0;
#X connect 46 1 34 1;
#X connect 47 0 34 0;
#X connect 47 1 34 1;
