#N canvas 1224 130 722 854 10;
#X obj 13 17 tgl 15 0 empty empty empty 17 7 0 10 -262144 -1 -1 0 1
;
#X obj 13 37 metro 250;
#X obj 13 74 float;
#X obj 59 75 + 1, f 4;
#X floatatom 11 95 5 0 0 0 - - -;
#X obj 11 137 mod 8;
#X floatatom 11 180 5 0 0 0 - - -;
#X obj 11 199 hradio 15 1 0 8 empty empty empty 0 -8 0 10 -262144 -1
-1 2;
#X obj 11 338 mtof;
#X floatatom 11 363 5 0 0 0 - - -;
#X obj 11 528 dac~;
#X obj 11 503 *~;
#X obj 43 506 vsl 15 128 0 1 0 0 empty empty empty 0 -9 0 10 -262144
-1 -1 0 1;
#X obj 11 231 tabread notetable;
#X obj 11 393 int;
#X floatatom 11 416 5 0 0 0 - - -;
#X obj 11 297 + 12;
#X msg 73 285 12;
#X msg 103 283 -12;
#X obj 191 264 vsl 15 128 50 70 0 0 empty empty empty 0 -9 0 10 -262144
-1 -1 0 1;
#X obj 210 378 hradio 15 1 0 16 empty empty empty 0 -8 0 10 -262144
-1 -1 0;
#X obj 189 461 tabwrite notetable;
#X floatatom 189 400 5 0 0 0 - - -;
#X obj 210 122 mod 16;
#N canvas 693 519 450 300 bpm 1;
#X obj 111 20 inlet;
#X obj 227 23 inlet;
#X text 156 24 bpm;
#X text 272 18 note value;
#X obj 227 48 t b f;
#X obj 254 71 select 0 1 2 3;
#X floatatom 111 62 5 0 0 0 - - -;
#X obj 111 89 t b f;
#X msg 254 92 0.25;
#X msg 274 115 0.5;
#X msg 294 135 1;
#X msg 314 157 1.5;
#X floatatom 184 257 5 0 0 0 - - -;
#X obj 239 255 outlet;
#X msg 111 113 60000;
#X obj 111 138 /;
#X obj 111 215 int;
#X obj 239 229 * 1;
#X connect 0 0 6 0;
#X connect 1 0 4 0;
#X connect 4 0 6 0;
#X connect 4 1 5 0;
#X connect 5 0 8 0;
#X connect 5 1 9 0;
#X connect 5 2 10 0;
#X connect 5 3 11 0;
#X connect 6 0 7 0;
#X connect 7 0 14 0;
#X connect 7 1 15 1;
#X connect 8 0 17 1;
#X connect 9 0 17 1;
#X connect 10 0 17 1;
#X connect 11 0 17 1;
#X connect 14 0 15 0;
#X connect 15 0 16 0;
#X connect 16 0 17 0;
#X connect 17 0 13 0;
#X connect 17 0 12 0;
#X restore 265 10 pd bpm;
#X obj 388 11 hsl 128 15 0 180 0 0 empty empty empty -2 -8 0 10 -262144
-1 -1 1100 1;
#X obj 379 30 hradio 15 1 0 4 empty empty empty 0 -8 0 10 -262144 -1
-1 1;
#X msg 104 262 48;
#N canvas 0 50 450 250 (subpatch) 0;
#X array notetable 16 float 3;
#A 0 36 38 40 43 45 48 50 52 55 57 60 62 64 67 69 72;
#X coords 0 70 16 50 240 140 1 0 0;
#X restore 210 222 graph;
#X msg 74 263 24;
#X floatatom 313 11 5 0 0 0 - - -;
#X obj 352 10 int;
#X msg 163 72 \; notetable 0 36 38 40 43 45 48 50 52 55 57 60 62 64
67 69 72 \;;
#X msg 190 481 \; notetable 0 36 38 40 43 45 48 50 52 55 57 60 62 64
67 69 72 \;;
#X obj 47 522 1;
#X msg 477 174 \; pd dsp \$1 \;;
#X obj 477 120 tgl 50 0 empty empty empty 19 19 0 30 -262144 -1 -1
1 1;
#X obj 11 483 osc~;
#X obj 169 560 tgl 15 0 empty empty empty 17 7 0 10 -262144 -1 -1 1
1;
#X msg 128 595 connect \$1;
#X msg 214 595 tempo \$1;
#X floatatom 215 560 5 0 0 0 - - -;
#X floatatom 275 560 5 0 0 0 - - -;
#X msg 279 594 resolution \$1;
#X obj 214 697 t b f;
#X obj 291 733 s linktempo;
#X msg 81 57 1, f 17;
#X obj 82 37 r linktempo;
#X floatatom 315 671 5 0 0 0 - - -;
#X obj 204 637 abl_link~ 1 0 4 80;
#X connect 0 0 1 0;
#X connect 1 0 2 0;
#X connect 2 0 4 0;
#X connect 2 0 3 0;
#X connect 3 0 2 1;
#X connect 4 0 5 0;
#X connect 4 0 23 0;
#X connect 5 0 6 0;
#X connect 5 0 7 0;
#X connect 7 0 13 0;
#X connect 8 0 9 0;
#X connect 9 0 14 0;
#X connect 11 0 10 0;
#X connect 11 0 10 1;
#X connect 12 0 11 1;
#X connect 13 0 16 0;
#X connect 14 0 15 0;
#X connect 15 0 37 0;
#X connect 16 0 8 0;
#X connect 17 0 16 1;
#X connect 18 0 16 1;
#X connect 19 0 22 0;
#X connect 20 0 21 1;
#X connect 22 0 21 0;
#X connect 24 0 1 1;
#X connect 25 0 31 0;
#X connect 26 0 24 1;
#X connect 27 0 16 1;
#X connect 29 0 16 1;
#X connect 30 0 24 0;
#X connect 31 0 30 0;
#X connect 36 0 35 0;
#X connect 37 0 11 0;
#X connect 38 0 39 0;
#X connect 39 0 49 0;
#X connect 40 0 49 0;
#X connect 41 0 40 0;
#X connect 42 0 43 0;
#X connect 43 0 49 0;
#X connect 44 0 45 0;
#X connect 46 0 1 0;
#X connect 47 0 46 0;
#X connect 49 0 44 0;
#X connect 49 3 48 0;
