#N canvas 698 136 1057 884 10;
#X obj 20 232 osc~, f 7;
#X floatatom 20 201 5 0 0 0 - - -;
#N canvas 110 136 895 652 (subpatch) 0;
#X array waveform 100 float 5;
#A 0 -0.766216 -0.766216 -0.766216 -0.766216 -0.766216 -0.766216 -0.766216
-0.766216 -0.766216 -0.766216 -0.766216 -0.766216 -0.766216 -0.766216
-0.766216 -0.766216 -0.766216 -0.766216 -0.766216 -0.766216 -0.766216
-0.766216 -0.766216 -0.766216 -0.766216 -0.766216 -0.766216 -0.766216
-0.766216 -0.766216 -0.766216 -0.766216 -0.766216 -0.766216 -0.766216
-0.766216 -0.766216 -0.766216 -0.766216 -0.766216 -0.766216 -0.766216
-0.766216 -0.766216 -0.766216 -0.766216 -0.766216 -0.766216 -0.766216
-0.766216 -0.766216 -0.766216 -0.766216 -0.766216 -0.766216 -0.766216
-0.766216 -0.766216 -0.766216 -0.766216 -0.766216 -0.766216 -0.766216
-0.766216 -0.766216 -0.766216 -0.766216 -0.766216 -0.766216 -0.766216
-0.766216 -0.766216 -0.766216 -0.766216 -0.766216 -0.766216 -0.766216
-0.766216 -0.766216 -0.766216 -0.766216 -0.766216 -0.766216 -0.766216
-0.766216 -0.766216 -0.766216 -0.766216 -0.766216 -0.766216 -0.766216
-0.766216 -0.766216 -0.766216 -0.766216 -0.766216 -0.766216 -0.766216
-0.766216 -0.766216;
#X coords 0 1 100 -1 200 140 1;
#X restore 286 74 graph;
#X msg 287 264 bang;
#X obj 20 171 mtof;
#X floatatom 20 140 5 0 0 0 - - -;
#X obj 20 81 + 0.499999;
#X floatatom 19 47 5 0 0 0 - - -;
#X obj 20 111 int;
#X obj 22 18 hsl 128 15 0 127 0 0 empty sendFreq empty -2 -8 0 10 -262144
-1 -1 2485 1;
#X obj 287 345 tabwrite~ waveform;
#X obj 83 833 dac~;
#X obj 287 303 metro 100;
#X msg 342 264 stop;
#X msg 395 264 1;
#X msg 442 264 0;
#X obj 124 459 samphold~;
#X obj 360 429 phasor~;
#X msg 397 396 2500;
#X msg 439 396 5000;
#X msg 482 396 20000;
#X msg 534 396 44000;
#X obj 285 232 r arraystart;
#X obj 392 226 r arraystop;
#X obj 535 339 r sampleUp;
#X obj 491 318 r sampleDown;
#X obj 459 373 bng 15 250 50 0 empty empty empty 17 7 0 10 -262144
-1 -1;
#X obj 585 382 bng 15 250 50 0 empty empty empty 17 7 0 10 -262144
-1 -1;
#X msg 496 277 \; pd dsp \$1;
#X obj 496 257 tgl 15 0 empty empty empty 17 7 0 10 -262144 -1 -1 0
1;
#X obj 791 -1 cnv 15 300 500 empty empty routing 20 12 0 14 -204800
-66577 0;
#X obj 840 282 r button1;
#X obj 840 305 bng 15 250 50 0 empty empty empty 17 7 0 10 -262144
-1 -1;
#X obj 946 281 r button2;
#X obj 840 369 r button3;
#X obj 946 369 r button4;
#X obj 946 304 bng 15 250 50 0 empty empty empty 17 7 0 10 -262144
-1 -1;
#X obj 840 393 bng 15 250 50 0 empty empty empty 17 7 0 10 -262144
-1 -1;
#X obj 946 393 bng 15 250 50 0 empty empty empty 17 7 0 10 -262144
-1 -1;
#X obj 840 328 s arraystart;
#X obj 946 327 s arraystop;
#X obj 840 416 s sampleUp;
#X obj 946 416 s sampleDown;
#X obj 840 54 sik/routing;
#X obj 842 92 r pot1;
#X obj 842 120 * 127;
#X obj 842 145 s sendFreq;
#X floatatom 484 649 5 0 0 0 - - -;
#X obj 484 619 mtof;
#X floatatom 484 588 5 0 0 0 - - -;
#X obj 484 529 + 0.499999;
#X floatatom 483 495 5 0 0 0 - - -;
#X obj 484 559 int;
#X obj 467 465 hsl 128 15 0 127 0 0 empty sendFreq2 empty -2 -8 0 10
-262144 -1 -1 161 1;
#X obj 949 114 * 127;
#X obj 949 86 r pot2;
#X obj 949 139 s sendFreq2;
#X obj 293 506 osc~;
#X obj 287 538 *~;
#X obj 271 565 +~;
#X floatatom 348 537 5 0 0 0 - - -;
#X obj 247 687 noise~;
#X obj 246 783 *~;
#X obj 306 717 mtof;
#X obj 302 749 phasor~;
#X obj 361 778 hsl 128 15 0 1 0 0 empty empty empty -2 -8 0 10 -262144
-1 -1 0 1;
#X obj 386 737 hsl 128 15 0 1 0 0 empty empty empty -2 -8 0 10 -262144
-1 -1 3400 1;
#X obj 175 490 vsl 15 128 0 1 0 0 empty empty empty 0 -9 0 10 -262144
-1 -1 0 1;
#X obj 140 561 *~;
#X obj 361 710 hsl 128 15 0 127 0 0 empty sendFreq2 empty -2 -8 0 10
-262144 -1 -1 161 1;
#X obj 285 780 *~ 0.1;
#X obj 550 728 mtof;
#X obj 545 761 phasor~;
#X obj 605 721 hsl 128 15 0 127 0 0 empty sendFreq empty -2 -8 0 10
-262144 -1 -1 2485 1;
#X connect 0 0 16 0;
#X connect 1 0 0 0;
#X connect 3 0 12 0;
#X connect 4 0 1 0;
#X connect 5 0 4 0;
#X connect 6 0 8 0;
#X connect 7 0 6 0;
#X connect 8 0 5 0;
#X connect 9 0 7 0;
#X connect 12 0 10 0;
#X connect 13 0 12 0;
#X connect 14 0 12 0;
#X connect 15 0 12 0;
#X connect 16 0 10 0;
#X connect 16 0 68 0;
#X connect 18 0 17 0;
#X connect 19 0 17 0;
#X connect 20 0 17 0;
#X connect 21 0 17 0;
#X connect 22 0 3 0;
#X connect 22 0 29 0;
#X connect 23 0 13 0;
#X connect 23 0 29 0;
#X connect 24 0 21 0;
#X connect 24 0 27 0;
#X connect 25 0 26 0;
#X connect 25 0 18 0;
#X connect 29 0 28 0;
#X connect 31 0 32 0;
#X connect 32 0 39 0;
#X connect 33 0 36 0;
#X connect 34 0 37 0;
#X connect 35 0 38 0;
#X connect 36 0 40 0;
#X connect 37 0 41 0;
#X connect 38 0 42 0;
#X connect 44 0 45 0;
#X connect 45 0 46 0;
#X connect 47 0 57 0;
#X connect 48 0 47 0;
#X connect 49 0 48 0;
#X connect 50 0 52 0;
#X connect 51 0 50 0;
#X connect 52 0 49 0;
#X connect 53 0 51 0;
#X connect 54 0 56 0;
#X connect 55 0 54 0;
#X connect 57 0 58 0;
#X connect 58 0 59 1;
#X connect 59 0 16 1;
#X connect 60 0 58 1;
#X connect 61 0 62 0;
#X connect 62 0 11 0;
#X connect 62 0 11 1;
#X connect 63 0 64 0;
#X connect 64 0 70 0;
#X connect 66 0 70 1;
#X connect 67 0 68 1;
#X connect 68 0 11 0;
#X connect 68 0 11 1;
#X connect 69 0 63 0;
#X connect 70 0 62 1;
#X connect 71 0 72 0;
#X connect 72 0 70 0;
#X connect 73 0 71 0;
