#N canvas 845 119 978 773 10;
#N canvas 0 22 450 278 (subpatch) 0;
#X array channelL 1.12455e+07 float 2;
#X coords 0 1 1.12455e+07 -1 200 140 1;
#X restore 374 41 graph;
#N canvas 0 22 450 278 (subpatch) 0;
#X array channelR 1.12455e+07 float 2;
#X coords 0 1 1.12455e+07 -1 200 140 1 0 0;
#X restore 374 201 graph;
#X obj 29 563 dac~ 1 2;
#X obj 28 531 *~;
#X obj 72 533 *~;
#X obj 144 456 vsl 40 60 0 1 0 0 empty empty empty 0 -9 0 10 -262144
-1 -1 4000 1;
#X obj 12 26 bng 15 250 50 0 empty empty empty 17 7 0 10 -262144 -1
-1;
#X obj 12 47 openpanel;
#X msg 12 70 read -resize \$1 channelL channelR;
#X msg 353 569 \; pd dsp \$1;
#X obj 353 544 tgl 15 0 empty empty empty 17 7 0 10 -262144 -1 -1 1
1;
#X obj 12 96 soundfiler;
#X floatatom 31 119 20 0 0 0 - - -;
#X obj 13 176 expr 44100 / $f1;
#X obj 32 146 s sampleSize;
#X floatatom 37 207 5 0 0 0 - - -;
#X obj 13 289 phasor~;
#X obj 14 332 *~;
#X obj 59 318 r sampleSize;
#X obj 17 400 tabread4~ channelL;
#X obj 37 371 tabread4~ channelR;
#X obj 205 353 tgl 15 0 empty empty empty 17 7 0 10 -262144 -1 -1 1
1;
#X obj 205 373 metro 50;
#X obj 205 399 snapshot~;
#X floatatom 204 419 15 0 0 0 - - -;
#X obj 204 439 /;
#X floatatom 206 468 10 0 0 0 - - -;
#X obj 270 444 r sampleSize;
#X obj 375 343 hsl 200 15 0 1 0 0 empty empty empty -2 -8 0 10 -262144
-1 -1 15774 1;
#X msg 190 154;
#X obj 194 184 hsl 250 15 -2 2 0 0 empty empty empty -2 -8 0 10 -262144
-1 -1 12500 1;
#X floatatom 189 202 5 0 0 0 - - -;
#X msg 23 248 0;
#X msg 111 273 0.35;
#X msg 73 264 0.07;
#X msg 423 370 2500;
#X msg 460 370 5000;
#X msg 498 370 20000;
#X msg 539 371 44000;
#X obj 431 413 phasor~;
#X obj 259 531 samphold~;
#X connect 3 0 2 0;
#X connect 4 0 2 1;
#X connect 5 0 3 1;
#X connect 5 0 4 1;
#X connect 6 0 7 0;
#X connect 7 0 8 0;
#X connect 8 0 11 0;
#X connect 10 0 9 0;
#X connect 11 0 12 0;
#X connect 11 0 13 0;
#X connect 12 0 14 0;
#X connect 13 0 15 0;
#X connect 13 0 16 0;
#X connect 16 0 17 0;
#X connect 17 0 19 0;
#X connect 17 0 20 0;
#X connect 17 0 23 0;
#X connect 18 0 17 1;
#X connect 20 0 40 0;
#X connect 21 0 22 0;
#X connect 22 0 23 0;
#X connect 23 0 24 0;
#X connect 24 0 25 0;
#X connect 25 0 26 0;
#X connect 25 0 28 0;
#X connect 27 0 25 1;
#X connect 29 0 30 0;
#X connect 30 0 31 0;
#X connect 31 0 16 0;
#X connect 32 0 16 0;
#X connect 33 0 16 1;
#X connect 34 0 16 1;
#X connect 35 0 39 0;
#X connect 36 0 39 0;
#X connect 37 0 39 0;
#X connect 38 0 39 0;
#X connect 39 0 40 1;
#X connect 40 0 3 0;
#X connect 40 0 4 0;
