#N canvas 146 181 450 620 10;
#N canvas 0 22 450 278 (subpatch) 0;
#X array channelL 1.12455e+07 float 2;
#X coords 0 1 1.12455e+07 -1 200 140 1;
#X restore 232 19 graph;
#N canvas 0 22 450 278 (subpatch) 0;
#X array channelR 1.12455e+07 float 2;
#X coords 0 1 1.12455e+07 -1 200 140 1 0 0;
#X restore 231 189 graph;
#X obj 29 563 dac~ 1 2;
#X obj 28 531 *~;
#X obj 72 533 *~;
#X obj 140 457 vsl 40 60 0 8 0 0 empty empty empty 0 -9 0 10 -262144
-1 -1 5900 1;
#X obj 12 26 bng 15 250 50 0 empty empty empty 17 7 0 10 -262144 -1
-1;
#X obj 12 47 openpanel;
#X msg 12 70 read -resize \$1 channelL channelR;
#X msg 353 569 \; pd dsp \$1;
#X obj 353 544 tgl 15 0 empty empty empty 17 7 0 10 -262144 -1 -1 1
1;
#X obj 12 96 soundfiler;
#X floatatom 31 119 12 0 0 0 - - -;
#X obj 13 176 expr 44100 / $f1;
#X obj 32 146 s sampleSize;
#X floatatom 37 207 5 0 0 0 - - -;
#X obj 14 234 phasor~;
#X obj 15 277 *~;
#X obj 60 263 r sampleSize;
#X obj 27 404 tabread4~ channelL;
#X obj 71 369 tabread4~ channelR;
#X obj 203 426 bp~, f 9;
#X obj 276 429 bp~, f 9;
#X floatatom 230 382 5 0 0 0 - - -;
#X floatatom 294 381 5 0 0 0 - - -;
#X obj 357 356 vsl 15 128 0 6000 0 0 empty empty empty 0 -9 0 10 -262144
-1 -1 2400 1;
#X obj 384 361 vsl 15 128 0 25 0 0 empty empty empty 0 -9 0 10 -262144
-1 -1 10500 1;
#X connect 3 0 2 0;
#X connect 4 0 2 1;
#X connect 5 0 3 1;
#X connect 5 0 4 1;
#X connect 6 0 7 0;
#X connect 7 0 8 0;
#X connect 8 0 11 0;
#X connect 10 0 9 0;
#X connect 11 0 12 0;
#X connect 11 0 13 0;
#X connect 12 0 14 0;
#X connect 13 0 15 0;
#X connect 13 0 16 0;
#X connect 16 0 17 0;
#X connect 17 0 19 0;
#X connect 17 0 20 0;
#X connect 18 0 17 1;
#X connect 19 0 21 0;
#X connect 20 0 22 0;
#X connect 21 0 3 0;
#X connect 22 0 4 0;
#X connect 23 0 21 1;
#X connect 23 0 22 1;
#X connect 24 0 21 2;
#X connect 24 0 22 2;
#X connect 25 0 23 0;
#X connect 26 0 24 0;
