#N canvas 545 182 1314 865 10;
#X declare -lib hid;
#X obj 128 110 hid;
#X msg 130 50 print;
#X msg 195 51 open \$1;
#X obj 195 30 hradio 15 1 1 15 \$0-device-number empty choose_a_device
0 -6 1 9 -225271 -1 -1 4;
#X obj 68 65 tgl 25 0 empty empty start 1 12 1 9 -225271 -1 -1 1 1
;
#X msg 101 25 refresh;
#X floatatom 255 50 5 0 0 0 - - -;
#X obj 78 183 route abs key;
#X obj 74 228 route abs_x abs_y;
#X floatatom 77 267 8 0 0 0 - - -;
#X floatatom 144 267 8 0 0 0 - - -;
#X obj 75 299 s abs_x_pos;
#X obj 151 298 s abs_y_pos;
#N canvas 890 204 846 713 mapping_abs 0;
#X obj 48 33 r abs_x_pos;
#X obj 48 65 unpack;
#X obj 51 97 hsl 128 15 -33000 33000 0 0 empty empty empty -2 -8 0
10 -262144 -1 -1 6375 1;
#X obj 48 127 nbx 7 14 -1e+37 1e+37 0 0 empty empty empty 0 -8 0 10
-262144 -1 -1 128 256;
#X obj 48 188 nbx 5 14 -1e+37 1e+37 0 0 empty empty empty 0 -8 0 10
-262144 -1 -1 0.00387883 256;
#X obj 48 217 s x_pos_new;
#X obj 288 65 unpack;
#X obj 291 97 hsl 128 15 33000 -33000 0 0 empty empty empty -2 -8 0
10 -262144 -1 -1 6375 1;
#X obj 288 127 nbx 7 14 -1e+37 1e+37 0 0 empty empty empty 0 -8 0 10
-262144 -1 -1 -129 256;
#X obj 288 188 nbx 5 14 -1e+37 1e+37 0 0 empty empty empty 0 -8 0 10
-262144 -1 -1 5022.04 256;
#X obj 288 33 r abs_y_pos;
#X obj 288 217 s y_pos_new;
#X msg 229 65 -33000;
#X msg 229 92 33000;
#X obj 421 33 loadbang;
#X obj 210 33 loadbang;
#X msg 468 65 33000;
#X msg 467 92 -33000;
#X obj 48 156 sik/mapper;
#X obj 288 156 sik/mapper;
#X msg 229 159 1;
#X msg 230 126 -1;
#X obj 371 253 unpack;
#X obj 374 285 hsl 128 15 -33000 33000 0 0 empty empty empty -2 -8
0 10 -262144 -1 -1 6350 1;
#X obj 371 315 nbx 7 14 -1e+37 1e+37 0 0 empty empty empty 0 -8 0 10
-262144 -1 -1 0 256;
#X obj 371 376 nbx 5 14 -1e+37 1e+37 0 0 empty empty empty 0 -8 0 10
-262144 -1 -1 44000 256;
#X obj 611 253 unpack;
#X obj 614 285 hsl 128 15 33000 -33000 0 0 empty empty empty -2 -8
0 10 -262144 -1 -1 6350 1;
#X obj 611 315 nbx 7 14 -1e+37 1e+37 0 0 empty empty empty 0 -8 0 10
-262144 -1 -1 0 256;
#X obj 611 376 nbx 5 14 -1e+37 1e+37 0 0 empty empty empty 0 -8 0 10
-262144 -1 -1 44000 256;
#X obj 744 221 loadbang;
#X obj 533 221 loadbang;
#X obj 371 344 sik/mapper;
#X obj 611 344 sik/mapper;
#X obj 371 221 r abs_z;
#X obj 611 221 r abs_rz;
#X obj 611 405 s rtrigger;
#X obj 371 405 s ltrigger;
#X msg 552 253 0;
#X msg 552 280 255;
#X msg 791 253 0;
#X msg 790 280 255;
#X msg 553 314 44000;
#X msg 552 347 1000;
#X msg 792 310 44000;
#X msg 791 332 1000;
#X obj 39 478 unpack;
#X obj 42 510 hsl 128 15 -33000 33000 0 0 empty empty empty -2 -8 0
10 -262144 -1 -1 6375 1;
#X obj 39 540 nbx 7 14 -1e+37 1e+37 0 0 empty empty empty 0 -8 0 10
-262144 -1 -1 128 256;
#X obj 39 601 nbx 5 14 -1e+37 1e+37 0 0 empty empty empty 0 -8 0 10
-262144 -1 -1 0.00387883 256;
#X obj 279 478 unpack;
#X obj 282 510 hsl 128 15 33000 -33000 0 0 empty empty empty -2 -8
0 10 -262144 -1 -1 6375 1;
#X obj 279 540 nbx 7 14 -1e+37 1e+37 0 0 empty empty empty 0 -8 0 10
-262144 -1 -1 -129 256;
#X obj 279 601 nbx 5 14 -1e+37 1e+37 0 0 empty empty empty 0 -8 0 10
-262144 -1 -1 50197.9 256;
#X msg 220 478 -33000;
#X msg 220 505 33000;
#X obj 412 446 loadbang;
#X obj 201 446 loadbang;
#X msg 459 478 33000;
#X msg 458 505 -33000;
#X obj 39 569 sik/mapper;
#X obj 279 569 sik/mapper;
#X msg 220 572 1;
#X msg 221 539 -1;
#X obj 39 446 r abs_rx_pos;
#X obj 279 446 r abs_ry_pos;
#X obj 39 630 s rx_pos_new;
#X obj 280 630 s ry_pos_new;
#X msg 468 144 10000;
#X msg 468 123 5;
#X msg 460 535 5;
#X msg 459 557 100000;
#X connect 0 0 1 0;
#X connect 1 0 2 0;
#X connect 2 0 3 0;
#X connect 3 0 18 0;
#X connect 4 0 5 0;
#X connect 6 0 7 0;
#X connect 7 0 8 0;
#X connect 8 0 19 0;
#X connect 9 0 11 0;
#X connect 10 0 6 0;
#X connect 12 0 18 1;
#X connect 13 0 18 2;
#X connect 14 0 16 0;
#X connect 14 0 17 0;
#X connect 14 0 69 0;
#X connect 14 0 68 0;
#X connect 15 0 12 0;
#X connect 15 0 13 0;
#X connect 15 0 21 0;
#X connect 15 0 20 0;
#X connect 16 0 19 1;
#X connect 17 0 19 2;
#X connect 18 0 4 0;
#X connect 19 0 9 0;
#X connect 20 0 18 4;
#X connect 21 0 18 3;
#X connect 22 0 23 0;
#X connect 23 0 24 0;
#X connect 24 0 32 0;
#X connect 25 0 37 0;
#X connect 26 0 27 0;
#X connect 27 0 28 0;
#X connect 28 0 33 0;
#X connect 29 0 36 0;
#X connect 30 0 40 0;
#X connect 30 0 41 0;
#X connect 30 0 44 0;
#X connect 30 0 45 0;
#X connect 31 0 38 0;
#X connect 31 0 39 0;
#X connect 31 0 42 0;
#X connect 31 0 43 0;
#X connect 32 0 25 0;
#X connect 33 0 29 0;
#X connect 34 0 22 0;
#X connect 35 0 26 0;
#X connect 38 0 32 1;
#X connect 39 0 32 2;
#X connect 40 0 33 1;
#X connect 41 0 33 2;
#X connect 42 0 32 3;
#X connect 43 0 32 4;
#X connect 44 0 33 3;
#X connect 45 0 33 4;
#X connect 46 0 47 0;
#X connect 47 0 48 0;
#X connect 48 0 60 0;
#X connect 49 0 66 0;
#X connect 50 0 51 0;
#X connect 51 0 52 0;
#X connect 52 0 61 0;
#X connect 53 0 67 0;
#X connect 54 0 60 1;
#X connect 55 0 60 2;
#X connect 56 0 58 0;
#X connect 56 0 59 0;
#X connect 56 0 70 0;
#X connect 56 0 71 0;
#X connect 57 0 54 0;
#X connect 57 0 55 0;
#X connect 57 0 63 0;
#X connect 57 0 62 0;
#X connect 58 0 61 1;
#X connect 59 0 61 2;
#X connect 60 0 49 0;
#X connect 61 0 53 0;
#X connect 62 0 60 4;
#X connect 63 0 60 3;
#X connect 64 0 46 0;
#X connect 65 0 50 0;
#X connect 68 0 19 4;
#X connect 69 0 19 3;
#X connect 70 0 61 3;
#X connect 71 0 61 4;
#X restore 77 538 pd mapping_abs;
#X obj 71 334 r x_pos_new;
#X floatatom 71 361 5 0 0 0 - - -;
#X floatatom 151 361 5 0 0 0 - - -;
#X obj 151 333 r y_pos_new;
#X obj 158 148 print;
#X floatatom 378 147 5 0 0 0 - - -;
#X floatatom 420 148 5 0 0 0 - - -;
#X floatatom 464 148 5 0 0 0 - - -;
#X floatatom 506 146 5 0 0 0 - - -;
#X obj 63 419 ctlout 1;
#X msg 94 393 21;
#X obj 152 417 ctlout 1;
#X msg 179 392 22;
#X obj 63 393 i;
#X obj 153 392 i;
#X obj 492 57 declare -lib hid;
#X floatatom 565 149 5 0 0 0 - - -;
#N canvas 21 168 698 865 audiofile-playhead.pd 0;
#N canvas 0 22 450 278 (subpatch) 0;
#X array channelL 90624 float 2;
#X coords 0 1 90624 -1 200 140 1;
#X restore 374 41 graph;
#N canvas 0 22 450 278 (subpatch) 0;
#X array channelR 90624 float 2;
#X coords 0 1 90624 -1 200 140 1 0 0;
#X restore 374 201 graph;
#X obj 28 531 *~;
#X obj 72 533 *~;
#X obj 39 456 vsl 40 60 0 1 0 0 empty empty empty 0 -9 0 10 -262144
-1 -1 5900 1;
#X obj 12 26 bng 15 250 50 0 empty empty empty 17 7 0 10 -262144 -1
-1;
#X obj 12 47 openpanel;
#X obj 12 96 soundfiler;
#X floatatom 31 119 20 0 0 0 - - -;
#X obj 13 176 expr 44100 / $f1;
#X obj 32 146 s sampleSize;
#X floatatom 37 207 5 0 0 0 - - -;
#X obj 13 289 phasor~;
#X obj 14 332 *~;
#X obj 59 318 r sampleSize;
#X obj 17 400 tabread4~ channelL;
#X obj 37 371 tabread4~ channelR;
#X obj 205 353 tgl 15 0 empty empty empty 17 7 0 10 -262144 -1 -1 1
1;
#X obj 205 373 metro 50;
#X obj 205 399 snapshot~;
#X floatatom 204 419 15 0 0 0 - - -;
#X obj 204 439 /;
#X floatatom 206 468 10 0 0 0 - - -;
#X obj 270 444 r sampleSize;
#X obj 375 343 hsl 200 15 0 1 0 0 empty empty empty -2 -8 0 10 -262144
-1 -1 15262 1;
#X obj 193 178 hsl 100 15 -1 1 0 0 empty empty empty -2 -8 0 10 -262144
-1 -1 4969 1;
#X floatatom 189 202 5 0 0 0 - - -;
#X msg 23 248 0;
#X msg 111 273 0.35;
#X msg 399 465 2500;
#X msg 436 465 5000;
#X msg 474 465 20000;
#X msg 515 466 44000;
#X obj 409 528 phasor~;
#X obj 259 531 samphold~;
#X obj 235 154 r x_pos_new;
#X msg 190 154 0.486;
#X obj 187 124 r btnA;
#X obj 15 559 outlet~;
#X obj 72 561 outlet~;
#X obj 170 235 r btnB;
#X msg 73 264 0.07;
#X obj 312 649 hsl 128 15 1000 44000 0 0 empty empty empty -2 -8 0
10 -262144 -1 -1 12700 1;
#X obj 319 598 r ltrigger;
#X floatatom 343 623 5 0 0 0 - - -;
#X obj 136 10 loadbang;
#X obj 97 457 tgl 15 0 empty empty empty 17 7 0 10 -262144 -1 -1 1
1;
#X msg 13 69 read -resize 1sonar.wav channelL channelR;
#X obj 213 42 r btnLB;
#X obj 192 628 r y_pos_new;
#X floatatom 213 659 10 0 0 0 - - -;
#X floatatom 217 723 5 0 0 0 - - -;
#X obj 176 658 int;
#X obj 145 687 lop~, f 8;
#X obj 477 719 delread~;
#X connect 2 0 38 0;
#X connect 3 0 39 0;
#X connect 4 0 2 1;
#X connect 4 0 3 1;
#X connect 5 0 6 0;
#X connect 6 0 47 0;
#X connect 7 0 8 0;
#X connect 7 0 9 0;
#X connect 8 0 10 0;
#X connect 9 0 11 0;
#X connect 9 0 12 0;
#X connect 12 0 13 0;
#X connect 13 0 15 0;
#X connect 13 0 16 0;
#X connect 13 0 19 0;
#X connect 14 0 13 1;
#X connect 16 0 34 0;
#X connect 17 0 18 0;
#X connect 18 0 19 0;
#X connect 19 0 20 0;
#X connect 20 0 21 0;
#X connect 21 0 22 0;
#X connect 21 0 24 0;
#X connect 23 0 21 1;
#X connect 25 0 26 0;
#X connect 26 0 12 0;
#X connect 27 0 12 0;
#X connect 28 0 12 1;
#X connect 29 0 33 0;
#X connect 30 0 33 0;
#X connect 31 0 33 0;
#X connect 32 0 33 0;
#X connect 33 0 34 1;
#X connect 34 0 53 0;
#X connect 34 0 54 0;
#X connect 35 0 25 0;
#X connect 36 0 25 0;
#X connect 37 0 36 0;
#X connect 40 0 41 0;
#X connect 41 0 12 1;
#X connect 42 0 33 0;
#X connect 43 0 42 0;
#X connect 43 0 44 0;
#X connect 45 0 46 0;
#X connect 45 0 47 0;
#X connect 45 0 17 0;
#X connect 46 0 4 0;
#X connect 47 0 7 0;
#X connect 49 0 50 0;
#X connect 49 0 52 0;
#X connect 52 0 53 1;
#X connect 53 0 2 0;
#X connect 53 0 3 0;
#X connect 54 0 3 0;
#X restore 295 459 pd audiofile-playhead.pd;
#X floatatom 254 268 8 0 0 0 - - -;
#X floatatom 327 268 8 0 0 0 - - -;
#X obj 251 229 route abs_rx abs_ry;
#X obj 252 300 s abs_rx_pos;
#X obj 334 299 s abs_ry_pos;
#X obj 372 189 s btnA;
#X obj 334 557 dac~ 1 2;
#X obj 433 194 s btnB;
#X obj 510 193 s btnX;
#X obj 569 201 s btnY;
#X floatatom 367 379 8 0 0 0 - - -;
#X floatatom 440 379 8 0 0 0 - - -;
#X obj 364 340 route abs_z abs_rz;
#X obj 366 411 s abs_z;
#X obj 447 410 s abs_rz;
#N canvas 752 236 703 731 sample2 0;
#N canvas 0 22 450 278 (subpatch) 0;
#X array sound2L 1.32458e+06 float 2;
#X coords 0 1 1.32458e+06 -1 200 140 1 0 0;
#X restore 374 41 graph;
#N canvas 0 22 450 278 (subpatch) 0;
#X array sound2R 1.32458e+06 float 2;
#X coords 0 1 1.32458e+06 -1 200 140 1 0 0;
#X restore 374 201 graph;
#X obj 28 531 *~;
#X obj 72 533 *~;
#X obj 39 456 vsl 40 60 0 1 0 0 empty empty empty 0 -9 0 10 -262144
-1 -1 5900 1;
#X obj 12 26 bng 15 250 50 0 empty empty empty 17 7 0 10 -262144 -1
-1;
#X obj 12 47 openpanel;
#X obj 12 96 soundfiler;
#X floatatom 31 119 20 0 0 0 - - -;
#X obj 13 176 expr 44100 / $f1;
#X floatatom 37 207 5 0 0 0 - - -;
#X obj 13 289 phasor~;
#X obj 14 332 *~;
#X obj 205 353 tgl 15 0 empty empty empty 17 7 0 10 -262144 -1 -1 1
1;
#X obj 205 373 metro 50;
#X obj 205 399 snapshot~;
#X floatatom 204 419 15 0 0 0 - - -;
#X obj 204 439 /;
#X floatatom 206 468 10 0 0 0 - - -;
#X obj 375 343 hsl 200 15 0 1 0 0 empty empty empty -2 -8 0 10 -262144
-1 -1 7086 1;
#X obj 196 180 hsl 100 15 -0.1 0.1 0 0 empty empty empty -2 -8 0 10
-262144 -1 -1 5142 1;
#X floatatom 170 216 5 0 0 0 - - -;
#X msg 23 248 0;
#X msg 111 273 0.35;
#X msg 399 465 2500;
#X msg 436 465 5000;
#X msg 474 465 20000;
#X msg 515 466 44000;
#X obj 409 528 phasor~;
#X obj 259 531 samphold~;
#X obj 15 559 outlet~;
#X obj 72 561 outlet~;
#X msg 73 264 0.07;
#X obj 310 635 hsl 128 15 1000 44000 0 0 empty empty empty -2 -8 0
10 -262144 -1 -1 12700 1;
#X floatatom 341 609 5 0 0 0 - - -;
#X obj 187 124 r btnX;
#X obj 170 235 r btnY;
#X obj 275 140 r rx_pos_new;
#X obj 37 371 tabread4~ sound2R;
#X obj 16 400 tabread4~ sound2L;
#X obj 317 585 r rtrigger;
#X obj 136 28 loadbang;
#X obj 103 465 tgl 15 0 empty empty empty 17 7 0 10 -262144 -1 -1 1
1;
#X msg 12 70 read -resize madis2.wav sound2L sound2R;
#X obj 210 27 r btnRB;
#X obj 32 146 s sample2Size;
#X obj 59 318 r sample2Size;
#X obj 149 659 bp~, f 8;
#X obj 192 628 r ry_pos_new;
#X floatatom 203 659 10 0 0 0 - - -;
#X obj 170 199 * 0.1;
#X obj 270 444 r sample2Size;
#X msg 190 154 0.33;
#X connect 2 0 30 0;
#X connect 3 0 31 0;
#X connect 4 0 2 1;
#X connect 4 0 3 1;
#X connect 5 0 6 0;
#X connect 6 0 43 0;
#X connect 7 0 8 0;
#X connect 7 0 9 0;
#X connect 8 0 45 0;
#X connect 9 0 10 0;
#X connect 9 0 11 0;
#X connect 11 0 12 0;
#X connect 12 0 15 0;
#X connect 12 0 38 0;
#X connect 12 0 39 0;
#X connect 13 0 14 0;
#X connect 14 0 15 0;
#X connect 15 0 16 0;
#X connect 16 0 17 0;
#X connect 17 0 18 0;
#X connect 17 0 19 0;
#X connect 20 0 50 0;
#X connect 21 0 11 0;
#X connect 22 0 11 0;
#X connect 23 0 11 1;
#X connect 24 0 28 0;
#X connect 25 0 28 0;
#X connect 26 0 28 0;
#X connect 27 0 28 0;
#X connect 28 0 29 1;
#X connect 29 0 47 0;
#X connect 32 0 11 1;
#X connect 33 0 28 0;
#X connect 35 0 52 0;
#X connect 36 0 22 0;
#X connect 37 0 20 0;
#X connect 39 0 29 0;
#X connect 40 0 33 0;
#X connect 40 0 34 0;
#X connect 41 0 43 0;
#X connect 41 0 42 0;
#X connect 41 0 13 0;
#X connect 42 0 4 0;
#X connect 43 0 7 0;
#X connect 46 0 12 1;
#X connect 47 0 3 0;
#X connect 47 0 2 0;
#X connect 48 0 47 1;
#X connect 48 0 49 0;
#X connect 50 0 21 0;
#X connect 51 0 17 1;
#X connect 52 0 20 0;
#X restore 328 487 pd sample2;
#X obj 25 41 loadbang;
#X obj 378 110 route btn_0 btn_1 btn_2 btn_3 btn_4 btn_6 btn_7;
#X floatatom 603 144 5 0 0 0 - - -;
#X floatatom 649 144 5 0 0 0 - - -;
#X obj 618 221 s btnLB;
#X obj 653 196 s btnRB;
#X connect 0 0 7 0;
#X connect 0 0 18 0;
#X connect 1 0 0 0;
#X connect 2 0 0 0;
#X connect 3 0 2 0;
#X connect 3 0 6 0;
#X connect 4 0 0 0;
#X connect 5 0 0 0;
#X connect 7 0 8 0;
#X connect 7 0 34 0;
#X connect 7 0 44 0;
#X connect 7 1 49 0;
#X connect 8 0 9 0;
#X connect 8 1 10 0;
#X connect 9 0 11 0;
#X connect 10 0 12 0;
#X connect 14 0 15 0;
#X connect 15 0 27 0;
#X connect 16 0 28 0;
#X connect 17 0 16 0;
#X connect 19 0 37 0;
#X connect 20 0 39 0;
#X connect 22 0 40 0;
#X connect 24 0 23 1;
#X connect 26 0 25 1;
#X connect 27 0 23 0;
#X connect 28 0 25 0;
#X connect 30 0 41 0;
#X connect 31 0 38 0;
#X connect 31 1 38 1;
#X connect 32 0 35 0;
#X connect 33 0 36 0;
#X connect 34 0 32 0;
#X connect 34 1 33 0;
#X connect 42 0 45 0;
#X connect 43 0 46 0;
#X connect 44 0 42 0;
#X connect 44 1 43 0;
#X connect 47 0 38 0;
#X connect 47 1 38 1;
#X connect 48 0 4 0;
#X connect 49 0 19 0;
#X connect 49 1 20 0;
#X connect 49 2 21 0;
#X connect 49 3 22 0;
#X connect 49 4 30 0;
#X connect 49 5 50 0;
#X connect 49 6 51 0;
#X connect 50 0 52 0;
#X connect 51 0 53 0;
