#N canvas 1087 98 549 566 10;
#X obj 157 29 tgl 15 0 empty empty empty 17 7 0 10 -262144 -1 -1 1
1;
#X obj 157 49 metro 250;
#X obj 150 74 float;
#X obj 224 95 + 1, f 4;
#X floatatom 148 95 5 0 0 0 - - -;
#X obj 157 136 mod 8;
#X floatatom 227 128 5 0 0 0 - - -;
#X msg 231 15 125;
#X msg 260 14 250;
#X msg 288 14 500;
#X msg 318 15 1000;
#X obj 227 147 hradio 15 1 0 8 empty empty empty 0 -8 0 10 -262144
-1 -1 5;
#X obj 226 180 select 0 1 2 3 4 5 6 7, f 25;
#X msg 196 248 60;
#X msg 226 248 62;
#X msg 255 248 64;
#X msg 283 248 65;
#X msg 311 248 67;
#X msg 341 248 69;
#X msg 370 248 70;
#X msg 399 248 72, f 4;
#X floatatom 252 286 5 0 0 0 - - -;
#X obj 252 306 mtof;
#X floatatom 253 381 5 0 0 0 - - -;
#X obj 254 401 phasor~;
#X obj 264 483 dac~;
#X obj 268 454 *~;
#X obj 401 313 vsl 15 128 0 1 0 0 empty empty empty 0 -9 0 10 -262144
-1 -1 10500 1;
#X obj 252 358 *;
#X msg 294 311 1;
#X msg 327 320 0.4;
#X msg 294 292 2;
#X msg 327 339 0.1;
#X msg 327 359 0.3;
#X msg 327 379 0.7;
#X msg 329 400 0.05;
#X msg 329 419 0.5;
#X connect 0 0 1 0;
#X connect 1 0 2 0;
#X connect 2 0 4 0;
#X connect 2 0 3 0;
#X connect 3 0 2 1;
#X connect 4 0 5 0;
#X connect 5 0 6 0;
#X connect 5 0 11 0;
#X connect 7 0 1 1;
#X connect 8 0 1 1;
#X connect 9 0 1 1;
#X connect 10 0 1 1;
#X connect 11 0 12 0;
#X connect 12 0 17 0;
#X connect 12 1 14 0;
#X connect 12 2 20 0;
#X connect 12 3 13 0;
#X connect 12 4 15 0;
#X connect 12 5 18 0;
#X connect 12 6 16 0;
#X connect 12 7 19 0;
#X connect 13 0 21 0;
#X connect 14 0 21 0;
#X connect 15 0 21 0;
#X connect 16 0 21 0;
#X connect 17 0 21 0;
#X connect 18 0 21 0;
#X connect 19 0 21 0;
#X connect 20 0 21 0;
#X connect 21 0 22 0;
#X connect 22 0 28 0;
#X connect 23 0 24 0;
#X connect 24 0 26 0;
#X connect 26 0 25 0;
#X connect 26 0 25 1;
#X connect 27 0 26 1;
#X connect 28 0 23 0;
#X connect 29 0 28 1;
#X connect 30 0 28 1;
#X connect 31 0 28 1;
#X connect 32 0 28 1;
#X connect 33 0 28 1;
#X connect 34 0 28 1;
#X connect 35 0 28 1;
#X connect 36 0 28 1;
