#N canvas 912 109 722 566 10;
#X obj 157 29 tgl 15 0 empty empty empty 17 7 0 10 -262144 -1 -1 1
1;
#X obj 157 49 metro 250;
#X obj 150 74 float;
#X obj 224 95 + 1, f 4;
#X floatatom 148 95 5 0 0 0 - - -;
#X obj 157 136 mod 8;
#X floatatom 227 128 5 0 0 0 - - -;
#X msg 231 15 125;
#X msg 260 14 250;
#X msg 288 14 500;
#X msg 318 15 1000;
#X obj 227 147 hradio 15 1 0 8 empty empty empty 0 -8 0 10 -262144
-1 -1 3;
#X obj 227 295 mtof;
#X floatatom 288 366 5 0 0 0 - - -;
#X obj 178 480 phasor~;
#X obj 255 535 dac~;
#X obj 248 508 *~;
#X obj 473 421 vsl 15 128 0 1 0 0 empty empty empty 0 -9 0 10 -262144
-1 -1 0 1;
#N canvas 0 50 450 250 (subpatch) 0;
#X array notetable 8 float 3;
#A 0 78.3784 55.6757 77.8378 53.7839 78.3784 52.1623 77.8378 53.2432
;
#X coords 0 80 8 50 199 111 1 0 0;
#X restore 374 42 graph;
#X obj 227 179 tabread notetable;
#X obj 279 438 int;
#X floatatom 279 461 5 0 0 0 - - -;
#X obj 346 490 noise~;
#X obj 287 343 + 12;
#X msg 339 333 0;
#X msg 342 354 12;
#X msg 343 378 -12;
#X connect 0 0 1 0;
#X connect 1 0 2 0;
#X connect 2 0 4 0;
#X connect 2 0 3 0;
#X connect 3 0 2 1;
#X connect 4 0 5 0;
#X connect 5 0 6 0;
#X connect 5 0 11 0;
#X connect 7 0 1 1;
#X connect 8 0 1 1;
#X connect 9 0 1 1;
#X connect 10 0 1 1;
#X connect 11 0 19 0;
#X connect 12 0 20 0;
#X connect 12 0 23 0;
#X connect 14 0 16 0;
#X connect 16 0 15 0;
#X connect 16 0 15 1;
#X connect 17 0 16 1;
#X connect 19 0 12 0;
#X connect 20 0 21 0;
#X connect 21 0 14 0;
#X connect 21 0 22 0;
#X connect 23 0 13 0;
#X connect 24 0 23 1;
#X connect 25 0 23 1;
#X connect 26 0 23 1;
