#N canvas 283 73 1214 633 10;
#X obj 369 590 dac~;
#X obj 142 56 adc~;
#X obj 142 80 send~ audio;
#X obj 68 242 receive~;
#X obj 268 241 receive~;
#X obj 469 243 receive~;
#N canvas 318 389 681 632 effects 0;
#X floatatom 260 187 5 0 0 0 - - -, f 5;
#X obj 107 127 vradio 15 1 0 4 empty empty empty 0 -8 0 10 -262144
-1 -1 2;
#X text 129 127 Bypass;
#X text 129 142 Delay;
#X text 128 158 Chorus;
#X text 129 174 Tremolo;
#X floatatom 363 113 5 0 0 0 - - -, f 5;
#X msg 363 31 bang;
#X msg 482 31 bang;
#X obj 260 145 loadbang;
#X obj 363 7 r effectforward;
#X obj 363 87 counter 0 3;
#X msg 400 48 0;
#X msg 520 48 1;
#X obj 482 7 r effectbackwards;
#X msg 179 467 set audio;
#X msg 252 467 set none;
#X msg 333 468 set audio;
#X msg 405 468 set none;
#X msg 489 468 set audio;
#X msg 565 468 set none;
#X obj 179 595 send delayswitch;
#X obj 333 595 send chorusswitch;
#X obj 489 596 send tremoloswitch;
#X obj 260 234 sel 0 1 2 3;
#X msg 32 467 set audio;
#X msg 104 467 set none;
#X obj 32 595 send bypassswitch;
#X connect 0 0 24 0;
#X connect 1 0 0 0;
#X connect 6 0 1 0;
#X connect 7 0 12 0;
#X connect 7 0 11 0;
#X connect 8 0 13 0;
#X connect 8 0 11 0;
#X connect 9 0 0 0;
#X connect 10 0 7 0;
#X connect 11 0 6 0;
#X connect 12 0 11 1;
#X connect 13 0 11 1;
#X connect 14 0 8 0;
#X connect 15 0 21 0;
#X connect 16 0 22 0;
#X connect 16 0 27 0;
#X connect 17 0 22 0;
#X connect 18 0 23 0;
#X connect 18 0 21 0;
#X connect 19 0 23 0;
#X connect 20 0 22 0;
#X connect 20 0 27 0;
#X connect 24 0 25 0;
#X connect 24 0 26 0;
#X connect 24 1 15 0;
#X connect 24 1 16 0;
#X connect 24 2 17 0;
#X connect 24 2 18 0;
#X connect 24 3 19 0;
#X connect 24 3 20 0;
#X connect 25 0 27 0;
#X connect 26 0 21 0;
#X connect 26 0 23 0;
#X connect 26 0 22 0;
#X coords 0 -1 1 1 150 100 1 100 100;
#X restore 228 49 pd effects switch;
#X obj 68 219 r delayswitch;
#X obj 268 218 r chorusswitch;
#X obj 469 220 r tremoloswitch;
#X obj 73 560 receive~;
#X obj 142 102 send~ none;
#N canvas 592 294 680 532 tcpcom 0;
#X text 77 65 Receive messages from Python and route them to the proper
receive objects;
#X obj 79 196 s p1;
#X obj 116 196 s p2;
#X obj 153 196 s p3;
#X obj 191 196 s p4;
#X obj 81 135 route 0 1 2 3 4 5 6 7 8, f 28;
#X obj 271 199 s p5;
#X obj 309 199 s p6;
#X obj 347 198 s p7;
#X obj 384 198 s p8;
#X obj 433 198 s buttons;
#X floatatom 402 125 5 0 0 0 - - -, f 5;
#X obj 80 102 netreceive 3000 1;
#X connect 5 0 1 0;
#X connect 5 1 2 0;
#X connect 5 2 3 0;
#X connect 5 3 4 0;
#X connect 5 4 6 0;
#X connect 5 5 7 0;
#X connect 5 6 8 0;
#X connect 5 7 9 0;
#X connect 5 8 10 0;
#X connect 12 0 5 0;
#X connect 12 0 11 0;
#X restore 656 37 pd tcpcom;
#N canvas 175 344 1078 750 routing_buttons 0;
#X obj 135 42 r buttons;
#X obj 135 70 unpack;
#X obj 138 98 route 1 2 3 4;
#X obj 35 126 s button1;
#X obj 106 126 s button2;
#X obj 178 126 s button3;
#X obj 249 126 s button4;
#X obj 367 37 r button1;
#X obj 367 60 bng 15 250 50 0 empty empty empty 17 7 0 10 -262144 -1
-1;
#X obj 493 38 r button2;
#X obj 367 124 r button3;
#X obj 493 126 r button4;
#X obj 493 61 bng 15 250 50 0 empty empty empty 17 7 0 10 -262144 -1
-1;
#X obj 367 148 bng 15 250 50 0 empty empty empty 17 7 0 10 -262144
-1 -1;
#X obj 493 150 bng 15 250 50 0 empty empty empty 17 7 0 10 -262144
-1 -1;
#X obj 367 171 s recBtn;
#X obj 367 84 s effectforward;
#X obj 493 83 s effectbackwards;
#X obj 493 173 s bypass;
#X connect 0 0 1 0;
#X connect 1 0 2 0;
#X connect 2 0 3 0;
#X connect 2 1 4 0;
#X connect 2 2 5 0;
#X connect 2 3 6 0;
#X connect 7 0 8 0;
#X connect 8 0 16 0;
#X connect 9 0 12 0;
#X connect 10 0 13 0;
#X connect 11 0 14 0;
#X connect 12 0 17 0;
#X connect 13 0 15 0;
#X connect 14 0 18 0;
#X restore 733 37 pd routing_buttons;
#X obj 268 296 chorus;
#X obj 73 536 r bypassswitch;
#X obj 67 296 simpledelay;
#X obj 468 296 tremolo;
#X obj 532 378 vsl 8 128 0 1 0 0 empty pot8 empty 0 -9 0 10 -262144
-1 -1 6362 1;
#X obj 397 552 *~;
#X obj 356 550 *~;
#X connect 1 0 2 0;
#X connect 1 1 2 0;
#X connect 3 0 16 0;
#X connect 3 0 16 1;
#X connect 4 0 14 0;
#X connect 4 0 14 1;
#X connect 5 0 17 0;
#X connect 5 0 17 1;
#X connect 7 0 3 0;
#X connect 8 0 4 0;
#X connect 9 0 5 0;
#X connect 10 0 19 0;
#X connect 10 0 20 0;
#X connect 14 0 20 0;
#X connect 14 1 19 0;
#X connect 15 0 10 0;
#X connect 16 0 20 0;
#X connect 16 1 19 0;
#X connect 17 0 20 0;
#X connect 17 1 19 0;
#X connect 18 0 19 1;
#X connect 18 0 20 1;
#X connect 19 0 0 1;
#X connect 20 0 0 0;
