#N canvas 686 59 651 308 10;
#X obj 121 16 r \$2-\$1info;
#X obj 275 179 pack s f;
#X msg 275 205 \; pd-info_huelle clear \; pd-info_huelle obj 0 0 info/\$1info
\$2 \;;
#X obj 51 205 pack s f;
#X obj 121 111 spigot;
#X obj 171 111 spigot;
#X obj 204 84 expr 1-$f1;
#X obj 275 127 symbol \$1;
#X obj 51 127 symbol \$1;
#X obj 204 16 r \$2-infosizeCtl;
#X obj 320 153 lbf \$2;
#X obj 96 179 lbf \$2;
#X msg 51 153 symbol \$1infoBig;
#X msg 51 231 \; pd-info_huelle clear \; pd-info_huelle obj 0 0 info/\$1
\$2 \;;
#X obj 50 78 s \$2-infoInUse;
#X obj 50 52 symbol \$1;
#X connect 0 0 4 0;
#X connect 0 0 5 0;
#X connect 0 0 15 0;
#X connect 1 0 2 0;
#X connect 3 0 13 0;
#X connect 4 0 8 0;
#X connect 5 0 7 0;
#X connect 6 0 5 1;
#X connect 7 0 1 0;
#X connect 8 0 12 0;
#X connect 9 0 4 1;
#X connect 9 0 6 0;
#X connect 10 0 1 1;
#X connect 11 0 3 1;
#X connect 12 0 3 0;
#X connect 15 0 14 0;
