#N canvas 595 269 638 401 10;
#X msg 268 236 0;
#X obj 268 262 spigot;
#X obj 229 159 keyname;
#X obj 268 185 t b;
#X obj 268 210 del 100;
#X obj 396 288 s \$2-\$1-keyCheck;
#X obj 268 288 s \$2-\$1-changeKeyIn;
#N canvas 0 0 450 300 saveset_reverse 0;
#X obj 270 167 del 1000;
#X obj 270 193 f;
#X obj 270 141 t b f;
#N canvas 479 63 450 300 writetxt 0;
#X msg 9 142 clear;
#X obj -40 220 textfile;
#X obj -40 29 inlet;
#X obj -96 168 symbol \$1;
#X obj -40 84 t b f b;
#X msg -31 116 add2 \$1;
#X msg -98 195 write settings/\$1keyreverse.txt;
#X connect 0 0 1 0;
#X connect 2 0 4 0;
#X connect 3 0 6 0;
#X connect 4 0 3 0;
#X connect 4 1 5 0;
#X connect 4 2 0 0;
#X connect 5 0 1 0;
#X connect 6 0 1 0;
#X restore 270 219 pd writetxt;
#X obj 32 174 unpack f;
#X obj 32 148 readtxt settings/\$1keyreverse.txt;
#X obj 32 200 s \$2-\$1keyreverseCtlIn;
#X obj 270 117 r \$2-\$1keyreverseCtl;
#X obj 32 96 loadbang;
#X obj 32 122 del 100;
#X connect 0 0 1 0;
#X connect 1 0 3 0;
#X connect 2 0 0 0;
#X connect 2 1 1 1;
#X connect 4 0 6 0;
#X connect 5 0 4 0;
#X connect 7 0 2 0;
#X connect 8 0 9 0;
#X connect 9 0 5 0;
#X restore 101 185 pd saveset_reverse;
#X obj 101 133 t b;
#X obj 101 159 s \$2-\$1-changeKeyIn;
#X obj 396 246 noguitgl;
#X obj 396 220 r \$2-\$1-changeKeyIn;
#X obj 100 101 hradio 18 1 0 4 empty empty empty 0 -8 0 10 -262144
-1 -1 0;
#X obj 169 100 cnv 15 204 20 empty \$2-\$1-keyctlBg empty 20 12 0 14
-128992 -262144 0;
#X obj 170 101 cnv 15 202 18 empty empty empty 20 12 0 14 -262144 -66577
0;
#X obj 100 100 cnv 20 68 20 empty \$2-\$1KeyNameCanvasIn \$1 2 10 0
10 -262144 -1 0;
#X obj 172 101 cnv 18 18 18 empty \$2-\$1-keyCanvas key:r 2 9 0 10
-262144 -128992 0;
#X obj 263 101 cnv 18 18 18 empty \$2-\$1-keyValueCanvas :0 2 9 0 10
-262144 -128992 0;
#N canvas 636 0 450 300 midireverse 0;
#X obj 100 100 tgl 18 0 \$2-\$1keyreverseCtl \$2-\$1keyreverseCtlIn
empty 17 7 0 10 -262144 -1 -1 0 1;
#X obj 100 100 cnv 18 18 18 \$2-\$1keyreverseCanvas \$2-\$1keyreverseCanvasIn
> 4 9 0 13 -262144 -1 0;
#X obj 247 31 sel 0 1;
#X obj 457 36 loadbang;
#X msg 190 103 symbol >;
#X msg 199 139 symbol <;
#X obj 227 180 pack s s f;
#X obj 317 122 f \$2;
#X obj 255 122 symbol \$1;
#X obj 286 71 t b b;
#X obj 242 70 t b b;
#X obj 151 21 loadbang;
#X msg 151 48 0;
#X obj 249 2 r \$2-\$1keyreverseCtl;
#X msg 229 218 \; \$3-\$2keyreverseCanvasIn label \$1;
#X connect 2 0 10 0;
#X connect 2 1 9 0;
#X connect 4 0 6 0;
#X connect 5 0 6 0;
#X connect 6 0 14 0;
#X connect 7 0 6 2;
#X connect 8 0 6 1;
#X connect 9 0 5 0;
#X connect 9 1 7 0;
#X connect 9 1 8 0;
#X connect 10 0 4 0;
#X connect 10 1 7 0;
#X connect 10 1 8 0;
#X connect 11 0 12 0;
#X connect 12 0 2 0;
#X connect 13 0 2 0;
#X coords 0 -1 1 1 18 18 2 100 100;
#X restore 299 101 pd midireverse;
#N canvas 810 108 600 394 midiclear 0;
#X obj 100 100 bng 18 250 50 0 \$2-\$1keyclearCtl \$2-\$1keyclearCtlIn
empty 17 7 0 10 -262144 -1 -1;
#X obj 93 207 symbol \$1;
#X obj 122 233 f \$2;
#X obj 161 196 del 250;
#X obj 65 259 pack f s f;
#X obj 65 180 t f b b b;
#X msg 161 222 22;
#X msg 65 154 10;
#X obj 65 128 r \$2-\$1keyclearCtl;
#X msg 65 285 \; \$3-\$2keyclearCanvasIn color 0 \$1;
#X obj 322 93 sel 0 1;
#X obj 341 171 metro 250;
#X msg 349 147 stop;
#X obj 331 294 pack f s f;
#X obj 341 197 noguitgl;
#X obj 341 223 sel 0 1;
#X msg 331 249 10;
#X msg 360 249 22;
#X obj 322 119 t b b;
#X msg 304 181 1;
#X obj 409 249 symbol \$1;
#X obj 436 223 f \$2;
#X obj 409 171 loadbang;
#X obj 409 197 t b b;
#X msg 331 320 \; \$3-\$2keyclearCanvasIn color 0 \$1;
#X msg 471 181 bang;
#X obj 322 67 r \$2-clearAllKeyCtl;
#X obj 118 100 bng 18 250 50 0 \$2-\$1keyclearCtl \$2-\$1keyclearCtlIn
empty 17 7 0 10 -262144 -1 -1;
#X obj 100 100 cnv 15 36 18 \$2-\$1keyclearCanvas \$2-\$1keyclearCanvasIn
clear 2 9 0 10 -262144 -1 0;
#X connect 1 0 4 1;
#X connect 2 0 4 2;
#X connect 3 0 6 0;
#X connect 4 0 9 0;
#X connect 5 0 4 0;
#X connect 5 1 1 0;
#X connect 5 2 2 0;
#X connect 5 3 3 0;
#X connect 6 0 4 0;
#X connect 7 0 5 0;
#X connect 8 0 7 0;
#X connect 10 0 18 0;
#X connect 10 1 11 0;
#X connect 11 0 14 0;
#X connect 12 0 11 0;
#X connect 13 0 24 0;
#X connect 14 0 15 0;
#X connect 15 0 16 0;
#X connect 15 1 17 0;
#X connect 16 0 13 0;
#X connect 17 0 13 0;
#X connect 18 0 19 0;
#X connect 18 1 12 0;
#X connect 19 0 14 0;
#X connect 20 0 13 1;
#X connect 21 0 13 2;
#X connect 22 0 23 0;
#X connect 23 0 20 0;
#X connect 23 1 21 0;
#X connect 25 0 23 0;
#X connect 26 0 10 0;
#X coords 0 -1 1 1 36 18 2 100 100;
#X restore 336 101 pd midiclear;
#X connect 0 0 1 0;
#X connect 1 0 6 0;
#X connect 2 1 3 0;
#X connect 3 0 4 0;
#X connect 4 0 0 0;
#X connect 8 0 9 0;
#X connect 10 0 5 0;
#X connect 10 0 1 1;
#X connect 11 0 10 0;
#X connect 12 0 8 0;
#X coords 0 -1 1 1 273 20 2 100 100;
