#N canvas 15 24 715 590 10;
#X obj 319 449 spigot;
#X obj 355 145 sel 0;
#X obj 70 227 spigot;
#N canvas 549 365 386 379 generate_txt 0;
#X obj 28 98 t b b;
#X obj 38 72 r \$2-\$1keyclearCtl;
#X obj 28 202 s \$0-keyRead;
#X obj 28 46 r \$2-rewriteAllKeyCtl;
#N canvas 383 291 450 300 writetxt 0;
#X msg 9 142 clear;
#X obj -40 220 textfile;
#X obj -40 29 inlet;
#X obj -96 168 symbol \$1;
#X obj -40 84 t b b b;
#X msg -98 195 write key/\$1.txt;
#X msg -21 115 add2 nix -1;
#X connect 0 0 1 0;
#X connect 2 0 4 0;
#X connect 3 0 5 0;
#X connect 4 0 3 0;
#X connect 4 1 6 0;
#X connect 4 2 0 0;
#X connect 5 0 1 0;
#X connect 6 0 1 0;
#X restore 55 124 pd writetxt;
#X obj 28 150 readtxt key/\$1.txt;
#X obj 28 176 unpack s f;
#X obj 118 202 s \$0-keyFloatRead;
#X connect 0 0 5 0;
#X connect 0 1 4 0;
#X connect 1 0 0 0;
#X connect 3 0 0 0;
#X connect 5 0 6 0;
#X connect 6 0 2 0;
#X connect 6 1 7 0;
#X restore 499 2 pd generate_txt;
#X obj 201 86 t f f;
#X obj 201 109 sel 1;
#X msg 529 366 symbol nix;
#X obj 529 340 loadbang;
#N canvas 65 0 1005 729 color 0;
#X obj 546 132 r \$0-changeKey;
#X obj 93 115 inlet;
#X obj 93 142 t b;
#X obj 92 168 del 250;
#X obj 108 223 ts \$1;
#X obj 217 252 lbf \$2;
#X msg 157 211 22;
#X obj 82 279 pack f s f;
#X msg 82 305 \; \$3-\$2-keyCanvas color 0 \$1 \; \$3-\$2-keyValueCanvas
color 0 \$1 \; \$3-\$2-keyctlBg color \$1 0;
#X obj 565 242 noguitgl;
#X obj 565 268 sel 0 1;
#X msg 584 294 22;
#X obj 489 354 pack f s f;
#X obj 517 318 symbol \$1;
#X obj 579 338 f \$2;
#X obj 504 252 loadbang;
#X obj 546 158 sel 0 1;
#X msg 531 200 stop;
#X obj 565 216 metro 250;
#X msg 511 226 0;
#X obj 556 414 pack f s f;
#X obj 492 174 t b b b;
#X msg 460 216 22;
#X msg 343 425 \; \$3-\$2-keyCanvas color 0 \$1 \; \$3-\$2-keyValueCanvas
color 0 \$1;
#X msg 556 440 \; \$3-\$2KeyNameCanvasIn color 0 \$1;
#X msg 71 207 11;
#X msg 555 294 11;
#X connect 0 0 16 0;
#X connect 1 0 2 0;
#X connect 2 0 3 0;
#X connect 2 0 6 0;
#X connect 3 0 25 0;
#X connect 4 0 7 1;
#X connect 5 0 7 2;
#X connect 6 0 7 0;
#X connect 7 0 8 0;
#X connect 9 0 10 0;
#X connect 10 0 26 0;
#X connect 10 1 11 0;
#X connect 11 0 12 0;
#X connect 12 0 23 0;
#X connect 12 0 20 0;
#X connect 13 0 12 1;
#X connect 13 0 20 1;
#X connect 14 0 12 2;
#X connect 14 0 20 2;
#X connect 15 0 13 0;
#X connect 15 0 14 0;
#X connect 16 0 21 0;
#X connect 16 1 18 0;
#X connect 17 0 18 0;
#X connect 18 0 9 0;
#X connect 19 0 9 0;
#X connect 20 0 24 0;
#X connect 21 0 22 0;
#X connect 21 1 19 0;
#X connect 21 2 17 0;
#X connect 22 0 20 0;
#X connect 25 0 7 0;
#X connect 26 0 12 0;
#X restore 193 416 pd color;
#X obj 133 249 loadbang;
#X obj 352 423 r \$2-\$1-keyCheck;
#X obj 154 444 s \$2-\$1_ctl;
#X obj 472 314 r \$0-keyRead;
#X obj 472 465 pack s s f;
#X obj 544 434 lbf \$2;
#X obj 500 434 ts \$1;
#X obj 319 475 s \$0-keySymbol;
#X obj 154 470 ts \$1;
#X obj 126 501 pack f s f;
#X obj 198 470 lbf \$2;
#X obj 546 160 s \$0-changeKey;
#X obj 355 118 r \$0-changeKey;
#X obj 355 2 loadbang;
#X obj 355 28 pipe 100;
#X obj 355 54 s \$2-\$1-keyLatebang;
#X obj 211 161 r \$2-\$1-keyLatebang;
#X obj 201 61 r \$2-keyInUse;
#N canvas 4 23 450 300 receives_if_hidden 0;
#X obj 91 98 r \$2-\$1-keyValueCanvas;
#X obj 85 70 r \$2-\$1-keyCanvas;
#X obj 98 169 r \$2-\$1-changeKeyIn;
#X obj 90 129 r \$2-\$1-keyctlBg;
#X restore 499 28 pd receives_if_hidden;
#X obj 201 265 s \$0-keyRead;
#X obj 374 239 symbol;
#X obj 407 213 r \$0-keySymbol;
#X msg 472 418 symbol;
#X msg 472 492 \; \$3-\$2-keyCanvas label key\$1;
#X msg 126 527 \; \$3-\$2-keyValueCanvas label :\$1;
#N canvas 629 278 450 300 writetxt 0;
#X msg 36 157 clear;
#X obj -40 220 textfile;
#X obj -40 29 inlet;
#X obj -96 168 symbol \$1;
#X msg -98 195 write key/\$1.txt;
#X msg -39 132 add2 \$1 \$2;
#X obj 26 31 inlet;
#X obj -26 109 pack s f;
#X obj -40 84 t b s b;
#X connect 0 0 1 0;
#X connect 2 0 8 0;
#X connect 3 0 4 0;
#X connect 4 0 1 0;
#X connect 5 0 1 0;
#X connect 6 0 7 1;
#X connect 7 0 5 0;
#X connect 8 0 3 0;
#X connect 8 1 7 0;
#X connect 8 2 0 0;
#X restore 374 313 pd writetxt;
#X obj 201 187 readtxt key/\$1.txt;
#X obj 70 249 sel 0 1;
#X obj 126 400 change;
#X msg 70 328 0;
#X msg 126 302 127;
#X obj 70 302 del 100;
#X msg 201 135 bang;
#X msg 319 397 symbol :\$1;
#X obj 280 372 keyname;
#X obj 496 160 spigot;
#X obj 529 127 r \$2-\$1-keyCheck;
#X obj 469 110 key;
#X obj 469 134 sel 0;
#X obj 481 187 f;
#X obj 355 171 t b b b;
#X obj 374 265 pack s f;
#X obj 374 291 unpack s f;
#X obj 201 213 unpack s f;
#X obj 258 239 s \$0-keyFloatRead;
#X obj 164 2 r \$0-keyFloatRead;
#X obj 137 49 keyup;
#X obj 43 86 key;
#X msg 106 175 0;
#X msg 70 175 1;
#X msg 43 384 set 0;
#X msg 136 374 set 127;
#X obj 472 392 sel symbol;
#X obj 137 101 t b b;
#X obj 43 149 t b b;
#X obj 43 112 sel 0;
#X obj 137 75 sel 0;
#X connect 0 0 13 0;
#X connect 0 0 16 0;
#X connect 1 0 49 0;
#X connect 2 0 36 0;
#X connect 4 0 5 0;
#X connect 4 1 2 1;
#X connect 5 0 41 0;
#X connect 5 0 59 0;
#X connect 6 0 61 1;
#X connect 7 0 6 0;
#X connect 9 0 38 0;
#X connect 10 0 0 1;
#X connect 12 0 61 0;
#X connect 13 0 32 0;
#X connect 14 0 13 2;
#X connect 15 0 13 1;
#X connect 17 0 18 1;
#X connect 18 0 33 0;
#X connect 19 0 18 2;
#X connect 21 0 1 0;
#X connect 22 0 23 0;
#X connect 23 0 24 0;
#X connect 25 0 35 0;
#X connect 26 0 4 0;
#X connect 29 0 50 0;
#X connect 30 0 29 1;
#X connect 31 0 13 0;
#X connect 35 0 52 0;
#X connect 36 0 40 0;
#X connect 36 1 39 0;
#X connect 37 0 11 0;
#X connect 37 0 18 0;
#X connect 37 0 8 0;
#X connect 38 0 37 0;
#X connect 39 0 37 0;
#X connect 40 0 38 0;
#X connect 41 0 35 0;
#X connect 42 0 0 0;
#X connect 43 1 42 0;
#X connect 44 0 48 1;
#X connect 45 0 44 1;
#X connect 45 0 20 0;
#X connect 46 0 47 0;
#X connect 47 1 44 0;
#X connect 48 0 50 1;
#X connect 49 0 35 0;
#X connect 49 1 29 0;
#X connect 49 2 48 0;
#X connect 50 0 51 0;
#X connect 51 0 34 0;
#X connect 51 1 34 1;
#X connect 52 0 28 0;
#X connect 52 1 53 0;
#X connect 54 0 64 1;
#X connect 54 0 65 1;
#X connect 55 0 65 0;
#X connect 56 0 64 0;
#X connect 57 0 2 0;
#X connect 58 0 2 0;
#X connect 59 0 37 0;
#X connect 60 0 37 0;
#X connect 61 0 31 0;
#X connect 61 1 13 0;
#X connect 62 0 60 0;
#X connect 62 1 57 0;
#X connect 63 0 59 0;
#X connect 63 1 58 0;
#X connect 64 0 63 0;
#X connect 65 0 62 0;
#X coords 0 0 1 1 160 17 0;
