#N canvas 126 103 1595 867 10;
#X declare -lib hid;
#X obj 1306 56 cnv 15 300 500 empty empty routing 20 12 0 14 -204800
-66577 0;
#X obj 1355 339 r button1;
#X obj 1354 361 bng 15 250 50 0 empty empty empty 17 7 0 10 -262144
-1 -1;
#X obj 1461 338 r button2;
#X obj 1355 426 r button3;
#X obj 1461 426 r button4;
#X obj 1461 361 bng 15 250 50 0 empty empty empty 17 7 0 10 -262144
-1 -1;
#X obj 1355 450 bng 15 250 50 0 empty empty empty 17 7 0 10 -262144
-1 -1;
#X obj 1461 450 bng 15 250 50 0 empty empty empty 17 7 0 10 -262144
-1 -1;
#X obj 1355 111 sik/routing;
#X obj 1357 149 r pot1;
#N canvas 49 95 822 750 sampler1 0;
#X obj 300 30 cnv 15 300 300 empty empty empty 20 12 0 14 -233017 -66577
0;
#N canvas 149 242 450 278 (subpatch) 0;
#X array sample1 107330 float 2;
#X coords 0 1 107330 -1 200 140 1 0 0;
#X restore 312 47 graph;
#X obj 31 549 *~;
#X obj 471 257 vsl 40 60 0 1 0 0 empty sample1volume Volume 0 -9 0
10 -262144 -1 -1 5900 1;
#X obj 25 94 soundfiler;
#X floatatom 44 117 12 0 0 0 - - -;
#X obj 26 174 expr 44100 / $f1;
#X floatatom 39 205 10 0 0 0 - - -;
#X obj 27 342 phasor~;
#X obj 28 425 *~;
#X obj 270 394 tgl 15 0 empty empty empty 17 7 0 10 -262144 -1 -1 0
1;
#X obj 270 417 metro 50;
#X obj 270 441 snapshot~;
#X floatatom 270 465 10 0 0 0 - - -;
#X obj 271 491 /;
#X floatatom 285 521 10 0 0 0 - - -;
#X obj 315 192 hsl 195 15 0 1 0 0 empty empty empty -2 -8 0 10 -262144
-1 -1 0 1;
#X obj 315 213 hsl 195 15 -1 1 0 0 empty samplerSpeed empty -2 -8 0
10 -262144 -1 -1 8776 1;
#X floatatom 105 275 5 0 0 0 - - -;
#X msg 103 333 0;
#X msg 138 333 0.5;
#X msg 41 276 0;
#X text 38 246 pauses audio;
#X obj 30 498 tabread4~ sample1;
#X obj 31 614 outlet~;
#X obj 312 265 bng 50 250 50 0 empty sampler1Start Start 0 -7 0 10
-262144 -1 -1;
#X obj 382 265 bng 50 250 50 0 empty sampler1Stop Stop 0 -7 0 10 -262144
-1 -1;
#X obj 45 144 s sample1Size;
#X obj 73 411 r sample1Size;
#X obj 350 471 r sample1Size;
#X msg 105 231 0.0729167;
#X floatatom 178 186 5 0 0 0 - - -;
#X obj 177 165 r sampler1Speed;
#X obj 26 31 inlet;
#X msg 25 68 read -resize audio/funky_drummer.wav sample1;
#X connect 2 0 24 0;
#X connect 3 0 2 1;
#X connect 4 0 5 0;
#X connect 4 0 6 0;
#X connect 5 0 27 0;
#X connect 6 0 7 0;
#X connect 6 0 8 0;
#X connect 8 0 9 0;
#X connect 9 0 12 0;
#X connect 9 0 23 0;
#X connect 10 0 11 0;
#X connect 11 0 12 0;
#X connect 12 0 13 0;
#X connect 13 0 14 0;
#X connect 14 0 15 0;
#X connect 14 0 16 0;
#X connect 17 0 18 0;
#X connect 18 0 8 0;
#X connect 19 0 8 1;
#X connect 20 0 8 1;
#X connect 21 0 8 0;
#X connect 23 0 2 0;
#X connect 25 0 19 0;
#X connect 25 0 30 0;
#X connect 26 0 21 0;
#X connect 28 0 9 1;
#X connect 29 0 14 1;
#X connect 30 0 17 0;
#X connect 32 0 31 0;
#X connect 33 0 34 0;
#X connect 34 0 4 0;
#X coords 0 -1 1 1 240 300 1 300 30;
#X restore 16 55 pd sampler1;
#X obj 1357 202 s sample1volume;
#X obj 463 444 dac~;
#X msg 1506 135 \; pd dsp \$1;
#X obj 1507 110 tgl 15 0 empty empty empty 17 7 0 10 -262144 -1 -1
0 1;
#N canvas 586 102 623 660 sampler2 0;
#X obj 240 30 cnv 15 300 300 empty empty empty 20 12 0 14 -233017 -66577
0;
#N canvas 0 23 450 278 (subpatch) 0;
#X array sample2 604800 float 2;
#X coords 0 1 604800 -1 200 140 1 0 0;
#X restore 252 47 graph;
#X obj 31 549 *~;
#X obj 411 257 vsl 40 60 0 1 0 0 empty sample2volume Volume 0 -9 0
10 -262144 -1 -1 4189 1;
#X obj 25 24 bng 15 250 50 0 empty empty empty 17 7 0 10 -262144 -1
-1;
#X obj 25 45 openpanel;
#X obj 25 94 soundfiler;
#X floatatom 44 117 12 0 0 0 - - -;
#X obj 26 174 expr 44100 / $f1;
#X floatatom 39 205 10 0 0 0 - - -;
#X obj 27 342 phasor~;
#X obj 28 425 *~;
#X obj 270 394 tgl 15 0 empty empty empty 17 7 0 10 -262144 -1 -1 0
1;
#X obj 270 417 metro 50;
#X obj 270 441 snapshot~;
#X floatatom 270 465 10 0 0 0 - - -;
#X obj 271 491 /;
#X floatatom 285 521 10 0 0 0 - - -;
#X obj 255 192 hsl 195 15 0 1 0 0 empty empty empty -2 -8 0 10 -262144
-1 -1 0 1;
#X obj 255 215 hsl 195 15 -1 1 0 0 empty samplerSpeed empty -2 -8 0
10 -262144 -1 -1 8776 1;
#X floatatom 105 275 5 0 0 0 - - -;
#X msg 103 333 0;
#X msg 138 333 0.5;
#X msg 41 276 0;
#X text 38 246 pauses audio;
#X msg 105 231 0.410882;
#X obj 31 614 outlet~;
#X obj 252 265 bng 50 250 50 0 empty sampler2Start Start 0 -7 0 10
-262144 -1 -1;
#X obj 322 265 bng 50 250 50 0 empty sampler2Stop Stop 0 -7 0 10 -262144
-1 -1;
#X msg 25 68 read -resize \$1 sample2;
#X obj 30 498 tabread4~ sample2;
#X obj 45 144 s sample2Size;
#X obj 73 411 r sample2Size;
#X obj 350 471 r sample2Size;
#X connect 2 0 26 0;
#X connect 3 0 2 1;
#X connect 4 0 5 0;
#X connect 5 0 29 0;
#X connect 6 0 7 0;
#X connect 6 0 8 0;
#X connect 7 0 31 0;
#X connect 8 0 9 0;
#X connect 8 0 10 0;
#X connect 10 0 11 0;
#X connect 11 0 14 0;
#X connect 11 0 30 0;
#X connect 12 0 13 0;
#X connect 13 0 14 0;
#X connect 14 0 15 0;
#X connect 15 0 16 0;
#X connect 16 0 17 0;
#X connect 16 0 18 0;
#X connect 19 0 20 0;
#X connect 20 0 10 0;
#X connect 21 0 10 1;
#X connect 22 0 10 1;
#X connect 23 0 10 0;
#X connect 25 0 19 0;
#X connect 27 0 21 0;
#X connect 27 0 25 0;
#X connect 28 0 23 0;
#X connect 29 0 6 0;
#X connect 30 0 2 0;
#X connect 32 0 11 1;
#X connect 33 0 16 1;
#X coords 0 -1 1 1 260 300 1 240 30;
#X restore 327 56 pd sampler2;
#N canvas 78 142 591 671 sampler3 0;
#X obj 240 30 cnv 15 300 300 empty empty empty 20 12 0 14 -233017 -66577
0;
#N canvas 0 23 450 278 (subpatch) 0;
#X array sample3 196394 float 2;
#X coords 0 1 196394 -1 200 140 1 0 0;
#X restore 252 47 graph;
#X obj 31 549 *~;
#X obj 411 257 vsl 40 60 0 1 0 0 empty sample3volume empty 0 -9 0 10
-262144 -1 -1 0 1;
#X obj 25 24 bng 15 250 50 0 empty empty empty 17 7 0 10 -262144 -1
-1;
#X obj 25 45 openpanel;
#X obj 25 94 soundfiler;
#X floatatom 44 117 12 0 0 0 - - -;
#X obj 26 174 expr 44100 / $f1;
#X floatatom 39 205 10 0 0 0 - - -;
#X obj 27 342 phasor~;
#X obj 28 425 *~;
#X obj 270 394 tgl 15 0 empty empty empty 17 7 0 10 -262144 -1 -1 0
1;
#X obj 270 417 metro 50;
#X obj 270 441 snapshot~;
#X floatatom 270 465 10 0 0 0 - - -;
#X obj 271 491 /;
#X floatatom 285 521 10 0 0 0 - - -;
#X obj 255 192 hsl 195 15 0 1 0 0 empty empty empty -2 -8 0 10 -262144
-1 -1 0 1;
#X obj 254 224 hsl 195 15 -1 1 0 0 empty samplerSpeed empty -2 -8 0
10 -262144 -1 -1 8776 1;
#X floatatom 105 275 5 0 0 0 - - -;
#X msg 103 333 0;
#X msg 138 333 0.5;
#X msg 41 276 0;
#X text 38 246 pauses audio;
#X msg 105 231 0.410882;
#X obj 31 614 outlet~;
#X obj 252 265 bng 50 250 50 0 empty sampler3Start Start 0 -7 0 10
-262144 -1 -1;
#X obj 322 265 bng 50 250 50 0 empty sampler3Stop Stop 0 -7 0 10 -262144
-1 -1;
#X msg 25 68 read -resize \$1 sample3;
#X obj 45 144 s sample3Size;
#X obj 73 411 r sample3Size;
#X obj 30 498 tabread4~ sample3;
#X obj 350 471 r sample3Size;
#X connect 2 0 26 0;
#X connect 3 0 2 1;
#X connect 4 0 5 0;
#X connect 5 0 29 0;
#X connect 6 0 7 0;
#X connect 6 0 8 0;
#X connect 7 0 30 0;
#X connect 8 0 9 0;
#X connect 8 0 10 0;
#X connect 10 0 11 0;
#X connect 11 0 14 0;
#X connect 11 0 32 0;
#X connect 12 0 13 0;
#X connect 13 0 14 0;
#X connect 14 0 15 0;
#X connect 15 0 16 0;
#X connect 16 0 17 0;
#X connect 16 0 18 0;
#X connect 19 0 20 0;
#X connect 20 0 10 0;
#X connect 21 0 10 1;
#X connect 22 0 10 1;
#X connect 23 0 10 0;
#X connect 25 0 19 0;
#X connect 27 0 21 0;
#X connect 27 0 25 0;
#X connect 28 0 23 0;
#X connect 29 0 6 0;
#X connect 31 0 11 1;
#X connect 32 0 2 0;
#X connect 33 0 16 1;
#X coords 0 -1 1 1 260 300 1 240 30;
#X restore 636 57 pd sampler3;
#N canvas 168 102 924 871 sampler4 0;
#X obj 240 30 cnv 15 300 300 empty empty empty 20 12 0 14 -233017 -66577
0;
#N canvas 65 149 809 754 (subpatch) 0;
#X array sample4 490473 float 2;
#X coords 0 1 490473 -1 200 140 1 0 0;
#X restore 252 47 graph;
#X obj 31 549 *~;
#X obj 411 257 vsl 40 60 0 1 0 0 empty sample4volume Volume 0 -9 0
10 -262144 -1 -1 0 1;
#X obj 25 24 bng 15 250 50 0 empty empty empty 17 7 0 10 -262144 -1
-1;
#X obj 25 45 openpanel;
#X obj 25 94 soundfiler;
#X floatatom 44 117 12 0 0 0 - - -;
#X obj 26 174 expr 44100 / $f1;
#X floatatom 39 205 10 0 0 0 - - -;
#X obj 27 342 phasor~;
#X obj 28 425 *~;
#X obj 270 394 tgl 15 0 empty empty empty 17 7 0 10 -262144 -1 -1 0
1;
#X obj 270 417 metro 50;
#X obj 270 441 snapshot~;
#X floatatom 270 465 10 0 0 0 - - -;
#X obj 271 491 /;
#X floatatom 285 521 10 0 0 0 - - -;
#X obj 255 192 hsl 195 15 0 1 0 0 empty empty empty -2 -8 0 10 -262144
-1 -1 0 1;
#X obj 255 215 hsl 195 15 -1 1 0 0 empty samplerSpeed empty -2 -8 0
10 -262144 -1 -1 8776 1;
#X floatatom 105 275 5 0 0 0 - - -;
#X msg 103 333 0;
#X msg 138 333 0.5;
#X msg 41 276 0;
#X text 38 246 pauses audio;
#X msg 105 231 0.410882;
#X obj 31 614 outlet~;
#X obj 252 265 bng 50 250 50 0 empty sampler4Start Start 0 -7 0 10
-262144 -1 -1;
#X obj 322 265 bng 50 250 50 0 empty sampler4Stop Stop 0 -7 0 10 -262144
-1 -1;
#X msg 25 68 read -resize \$1 sample4;
#X obj 45 144 s sample4Size;
#X obj 73 411 r sample4Size;
#X obj 30 498 tabread4~ sample4;
#X obj 350 471 r sample4Size;
#X connect 2 0 26 0;
#X connect 3 0 2 1;
#X connect 4 0 5 0;
#X connect 5 0 29 0;
#X connect 6 0 7 0;
#X connect 6 0 8 0;
#X connect 7 0 30 0;
#X connect 8 0 9 0;
#X connect 8 0 10 0;
#X connect 10 0 11 0;
#X connect 11 0 14 0;
#X connect 11 0 32 0;
#X connect 12 0 13 0;
#X connect 13 0 14 0;
#X connect 14 0 15 0;
#X connect 15 0 16 0;
#X connect 16 0 17 0;
#X connect 16 0 18 0;
#X connect 19 0 20 0;
#X connect 20 0 10 0;
#X connect 21 0 10 1;
#X connect 22 0 10 1;
#X connect 23 0 10 0;
#X connect 25 0 19 0;
#X connect 27 0 21 0;
#X connect 27 0 25 0;
#X connect 28 0 23 0;
#X connect 29 0 6 0;
#X connect 31 0 11 1;
#X connect 32 0 2 0;
#X connect 33 0 16 1;
#X coords 0 -1 1 1 260 300 1 240 30;
#X restore 942 58 pd sampler4;
#X obj 128 560 hid;
#X msg 130 500 print;
#X msg 195 501 open \$1;
#X obj 195 480 hradio 15 1 1 15 \$0-device-number empty choose_a_device
0 -6 1 9 -225271 -1 -1 4;
#X obj 68 515 tgl 25 0 empty empty start 1 12 1 9 -225271 -1 -1 1 1
;
#X msg 101 475 refresh;
#X floatatom 255 500 5 0 0 0 - - -;
#X obj 78 633 route abs key;
#X floatatom 77 717 8 0 0 0 - - -;
#X floatatom 144 717 8 0 0 0 - - -;
#X obj 75 749 s abs_x_pos;
#X obj 151 748 s abs_y_pos;
#N canvas 526 444 846 481 mapping_abs 0;
#X obj 48 33 r abs_x_pos;
#X obj 48 65 unpack;
#X obj 51 97 hsl 128 15 -33000 33000 0 0 empty empty empty -2 -8 0
10 -262144 -1 -1 5745 1;
#X obj 48 127 nbx 7 14 -1e+37 1e+37 0 0 empty empty empty 0 -8 0 10
-262144 -1 -1 -3142 256;
#X obj 48 188 nbx 5 14 -1e+37 1e+37 0 0 empty empty empty 0 -8 0 10
-262144 -1 -1 -0.0952121 256;
#X obj 48 217 s x_pos_new;
#X obj 288 65 unpack;
#X obj 291 97 hsl 128 15 33000 -33000 0 0 empty empty empty -2 -8 0
10 -262144 -1 -1 6393 1;
#X obj 288 127 nbx 7 14 -1e+37 1e+37 0 0 empty empty empty 0 -8 0 10
-262144 -1 -1 -223 256;
#X msg 469 122 0;
#X obj 288 188 nbx 5 14 -1e+37 1e+37 0 0 empty empty empty 0 -8 0 10
-262144 -1 -1 0.503379 256;
#X obj 288 33 r abs_y_pos;
#X obj 288 217 s y_pos_new;
#X msg 229 65 -33000;
#X msg 229 92 33000;
#X obj 421 33 loadbang;
#X obj 210 33 loadbang;
#X msg 468 65 33000;
#X msg 467 92 -33000;
#X obj 48 156 sik/mapper;
#X obj 288 156 sik/mapper;
#X msg 229 127 -1;
#X msg 229 159 1;
#X msg 468 144 1;
#X connect 0 0 1 0;
#X connect 1 0 2 0;
#X connect 2 0 3 0;
#X connect 3 0 19 0;
#X connect 4 0 5 0;
#X connect 6 0 7 0;
#X connect 7 0 8 0;
#X connect 8 0 20 0;
#X connect 9 0 20 3;
#X connect 10 0 12 0;
#X connect 11 0 6 0;
#X connect 13 0 19 1;
#X connect 14 0 19 2;
#X connect 15 0 17 0;
#X connect 15 0 18 0;
#X connect 15 0 9 0;
#X connect 15 0 23 0;
#X connect 16 0 13 0;
#X connect 16 0 14 0;
#X connect 16 0 21 0;
#X connect 16 0 22 0;
#X connect 17 0 20 1;
#X connect 18 0 20 2;
#X connect 19 0 4 0;
#X connect 20 0 10 0;
#X connect 21 0 19 3;
#X connect 22 0 19 4;
#X connect 23 0 20 4;
#X restore 77 987 pd mapping_abs;
#X obj 71 784 r x_pos_new;
#X floatatom 71 811 5 0 0 0 - - -;
#X floatatom 151 811 5 0 0 0 - - -;
#X obj 151 783 r y_pos_new;
#X obj 158 598 print;
#X floatatom 438 683 5 0 0 0 - - -;
#X floatatom 480 684 5 0 0 0 - - -;
#X floatatom 524 684 5 0 0 0 - - -;
#X floatatom 565 683 5 0 0 0 - - -;
#X obj 153 842 i;
#X obj 492 507 declare -lib hid;
#X text 359 946 add a synth here buttons control note triggers maybe
different octaves;
#X floatatom 625 685 5 0 0 0 - - -;
#X obj 1357 177 * 1;
#X obj 1357 261 * 1;
#X obj 1359 233 r pot2;
#X obj 1355 286 s sample2volume;
#X obj 154 863 send;
#X obj 63 842 f;
#X obj 1355 385 s sampler1Stop;
#X obj 1461 385 s sampler2Stop;
#X obj 1355 473 s sampler3Stop;
#X obj 1461 473 s sampler4Stop;
#X obj 533 779 s sampler3Start;
#X obj 83 16 loadbang;
#X obj 58 917 send samplerSpeed;
#X obj 630 733 s sampler1Start;
#X obj 588 750 s sampler2Start;
#X obj 476 750 s sampler3Start;
#X obj 440 723 s sampler4Start;
#X floatatom 227 716 8 0 0 0 - - -;
#X obj 74 678 route abs_x abs_y abs_hat0x abs_hat0y;
#X floatatom 290 716 8 0 0 0 - - -;
#X obj 240 820 s sampler1Stop;
#X obj 240 845 s sampler2Stop;
#X obj 247 750 route -1 1;
#X obj 341 758 route -1 1;
#X obj 342 797 s sampler3Stop;
#X obj 341 819 s sampler4Stop;
#X obj 438 646 route btn_0 btn_1 btn_2 btn_3 btn_4 btn_12;
#X floatatom 767 688 5 0 0 0 - - -;
#X obj 774 736 s dsponoff;
#X obj 1496 27 r dsponoff;
#X connect 1 0 2 0;
#X connect 2 0 51 0;
#X connect 3 0 6 0;
#X connect 4 0 7 0;
#X connect 5 0 8 0;
#X connect 6 0 52 0;
#X connect 7 0 53 0;
#X connect 8 0 54 0;
#X connect 10 0 45 0;
#X connect 11 0 13 0;
#X connect 11 0 13 1;
#X connect 15 0 14 0;
#X connect 16 0 13 0;
#X connect 16 0 13 1;
#X connect 17 0 13 0;
#X connect 17 0 13 1;
#X connect 18 0 13 0;
#X connect 18 0 13 1;
#X connect 19 0 26 0;
#X connect 19 0 36 0;
#X connect 20 0 19 0;
#X connect 21 0 19 0;
#X connect 22 0 21 0;
#X connect 22 0 25 0;
#X connect 23 0 19 0;
#X connect 24 0 19 0;
#X connect 26 0 63 0;
#X connect 26 1 71 0;
#X connect 27 0 29 0;
#X connect 28 0 30 0;
#X connect 32 0 33 0;
#X connect 33 0 50 0;
#X connect 34 0 41 0;
#X connect 35 0 34 0;
#X connect 37 0 61 0;
#X connect 38 0 60 0;
#X connect 39 0 55 0;
#X connect 40 0 59 0;
#X connect 41 0 49 0;
#X connect 44 0 58 0;
#X connect 45 0 12 0;
#X connect 46 0 48 0;
#X connect 47 0 46 0;
#X connect 50 0 57 0;
#X connect 56 0 11 0;
#X connect 56 0 23 0;
#X connect 62 0 67 0;
#X connect 63 0 27 0;
#X connect 63 1 28 0;
#X connect 63 2 62 0;
#X connect 63 3 64 0;
#X connect 64 0 68 0;
#X connect 67 0 65 0;
#X connect 67 1 66 0;
#X connect 68 0 69 0;
#X connect 68 1 70 0;
#X connect 71 0 37 0;
#X connect 71 1 38 0;
#X connect 71 2 39 0;
#X connect 71 3 40 0;
#X connect 71 4 44 0;
#X connect 71 5 72 0;
#X connect 72 0 73 0;
#X connect 74 0 15 0;
