#N canvas 366 197 948 719 10;
#X obj 114 285 osc~, f 7;
#X floatatom 114 254 5 0 0 0 - - -;
#N canvas 110 136 895 652 (subpatch) 0;
#X array waveform 100 float 5;
#A 0 -0.930415 -0.968938 -0.992257 -0.999994 -0.992018 -0.968475 -0.929734
-0.876403 -0.809298 -0.729488 -0.638231 -0.536957 -0.427254 -0.310834
-0.189539 -0.0652696 0.0600254 0.184379 0.305835 0.42249 0.532516 0.634187
0.725888 0.806194 0.873849 0.927792 0.967167 0.991343 0.999962 0.992891
0.970239 0.932341 0.879803 0.81346 0.734351 0.643716 0.54296 0.433685
0.317605 0.196539 0.0723859 -0.0529038 -0.177362 -0.299037 -0.416021
-0.526466 -0.628646 -0.720959 -0.80196 -0.870371 -0.925103 -0.965316
-0.990381 -0.999905 -0.993719 -0.971927 -0.934883 -0.883168 -0.817593
-0.739162 -0.649134 -0.548919 -0.440089 -0.324347 -0.203509 -0.0794796
0.0457974 0.170358 0.292241 0.409534 0.5204 0.623101 0.716021 0.797686
0.866833 0.922376 0.963446 0.989381 0.999775 0.994481 0.973582 0.937405
0.88649 0.821663 0.743943 0.654548 0.554873 0.44648 0.331081 0.210487
0.0865886 -0.0386715 -0.163323 -0.28541 -0.403019 -0.514305 -0.617505
-0.711013 -0.793363 -0.863264;
#X coords 0 1 100 -1 200 140 1;
#X restore 286 74 graph;
#X msg 287 264 bang;
#X obj 114 224 mtof;
#X floatatom 114 193 5 0 0 0 - - -;
#X obj 114 134 + 0.499999;
#X floatatom 114 99 5 0 0 0 - - -;
#X obj 114 164 int;
#X obj 97 70 hsl 128 15 0 127 0 0 empty sendFreq empty -2 -8 0 10 -262144
-1 -1 8100 1;
#X obj 287 345 tabwrite~ waveform;
#X obj 120 502 dac~;
#X obj 287 303 metro 100;
#X msg 342 264 stop;
#X msg 395 264 1;
#X msg 442 264 0;
#X obj 262 457 samphold~;
#X obj 360 429 phasor~;
#X msg 397 396 2500;
#X msg 452 396 5000;
#X msg 504 396 20000;
#X msg 556 396 44000;
#X obj 116 367 adc~;
#N canvas 595 246 680 532 tcpcom 0;
#X text 77 65 Receive messages from Python and route them to the proper
receive objects;
#X obj 79 196 s p1;
#X obj 116 196 s p2;
#X obj 153 196 s p3;
#X obj 191 196 s p4;
#X obj 81 135 route 0 1 2 3 4 5 6 7 8, f 28;
#X obj 271 199 s p5;
#X obj 309 199 s p6;
#X obj 347 198 s p7;
#X obj 384 198 s p8;
#X obj 433 198 s buttons;
#X floatatom 402 125 5 0 0 0 - - -;
#X obj 80 102 netreceive 3000 1;
#X connect 5 0 1 0;
#X connect 5 1 2 0;
#X connect 5 2 3 0;
#X connect 5 3 4 0;
#X connect 5 4 6 0;
#X connect 5 5 7 0;
#X connect 5 6 8 0;
#X connect 5 7 9 0;
#X connect 5 8 10 0;
#X connect 12 0 5 0;
#X connect 12 0 11 0;
#X restore 683 27 pd tcpcom;
#N canvas 601 112 1078 750 routing 0;
#X obj 139 72 hsl 80 15 0 1023 0 0 empty empty empty -2 -8 0 10 -228856
-1 -1 0 1;
#X obj 136 150 nbx 5 14 -1e+37 1e+37 0 0 empty empty empty 0 -8 0 10
-228856 -1 -1 0 256;
#X obj 136 96 nbx 5 14 -1e+37 1e+37 0 0 empty empty empty 0 -8 0 10
-228856 -1 -1 0 256;
#X text 132 49 input pot 1;
#X text 230 49 pot range;
#X text 232 111 new range;
#X obj 137 210 hsl 80 15 0 1023 0 0 empty empty empty -2 -8 0 10 -228856
-1 -1 0 1;
#X obj 134 288 nbx 5 14 -1e+37 1e+37 0 0 empty empty empty 0 -8 0 10
-228856 -1 -1 0 256;
#X obj 134 234 nbx 5 14 -1e+37 1e+37 0 0 empty empty empty 0 -8 0 10
-228856 -1 -1 0 256;
#X obj 134 259 mapper, f 12;
#X text 130 187 input pot 2;
#X obj 45 71 r p1;
#X obj 48 210 r p2;
#X obj 45 100 unpack;
#X obj 48 239 unpack;
#X text 276 71 low, f 5;
#X text 277 94 high, f 5;
#X text 278 132 low, f 5;
#X text 279 155 high, f 5;
#X msg 233 69 0;
#X text 233 190 pot range;
#X text 235 252 new range;
#X text 279 212 low, f 5;
#X text 280 235 high, f 5;
#X text 281 273 low, f 5;
#X text 282 296 high, f 5;
#X msg 236 210 0;
#X msg 237 233 1024;
#X obj 140 362 hsl 80 15 0 1023 0 0 empty empty empty -2 -8 0 10 -228856
-1 -1 0 1;
#X obj 137 440 nbx 5 14 -1e+37 1e+37 0 0 empty empty empty 0 -8 0 10
-228856 -1 -1 0 256;
#X obj 137 386 nbx 5 14 -1e+37 1e+37 0 0 empty empty empty 0 -8 0 10
-228856 -1 -1 0 256;
#X obj 137 411 mapper, f 12;
#X obj 51 391 unpack;
#X text 236 342 pot range;
#X text 238 404 new range;
#X text 282 364 low, f 5;
#X text 283 387 high, f 5;
#X text 284 425 low, f 5;
#X text 285 448 high, f 5;
#X msg 239 362 0;
#X msg 240 385 1024;
#X text 133 339 input pot 3;
#X obj 51 362 r p3;
#X obj 140 500 hsl 80 15 0 1023 0 0 empty empty empty -2 -8 0 10 -228856
-1 -1 0 1;
#X obj 137 578 nbx 5 14 -1e+37 1e+37 0 0 empty empty empty 0 -8 0 10
-228856 -1 -1 0 256;
#X obj 137 524 nbx 5 14 -1e+37 1e+37 0 0 empty empty empty 0 -8 0 10
-228856 -1 -1 0 256;
#X obj 137 549 mapper, f 12;
#X obj 51 529 unpack;
#X text 236 480 pot range;
#X text 238 542 new range;
#X text 282 502 low, f 5;
#X text 283 525 high, f 5;
#X text 284 563 low, f 5;
#X text 285 586 high, f 5;
#X msg 239 500 0;
#X text 133 477 input pot 4;
#X obj 51 500 r p4;
#X msg 233 130 0;
#X msg 239 423 0;
#X obj 351 61 loadbang;
#X obj 344 216 loadbang;
#X obj 339 363 loadbang;
#X obj 339 504 loadbang;
#X obj 46 165 s pot1;
#X obj 53 304 s pot2;
#X obj 53 455 s pot3;
#X obj 53 593 s pot4;
#X obj 567 66 hsl 80 15 0 1023 0 0 empty empty empty -2 -8 0 10 -228856
-1 -1 0 1;
#X obj 564 144 nbx 5 14 -1e+37 1e+37 0 0 empty empty empty 0 -8 0 10
-228856 -1 -1 0 256;
#X obj 564 90 nbx 5 14 -1e+37 1e+37 0 0 empty empty empty 0 -8 0 10
-228856 -1 -1 0 256;
#X obj 564 115 mapper, f 12;
#X text 658 43 pot range;
#X text 660 105 new range;
#X obj 565 204 hsl 80 15 0 1023 0 0 empty empty empty -2 -8 0 10 -228856
-1 -1 0 1;
#X obj 562 282 nbx 5 14 -1e+37 1e+37 0 0 empty empty empty 0 -8 0 10
-228856 -1 -1 0 256;
#X obj 562 228 nbx 5 14 -1e+37 1e+37 0 0 empty empty empty 0 -8 0 10
-228856 -1 -1 0 256;
#X obj 562 253 mapper, f 12;
#X obj 473 94 unpack;
#X obj 476 233 unpack;
#X text 704 65 low, f 5;
#X text 705 88 high, f 5;
#X text 706 126 low, f 5;
#X text 707 149 high, f 5;
#X msg 661 63 0;
#X msg 662 86 1024;
#X text 661 184 pot range;
#X text 663 246 new range;
#X text 707 206 low, f 5;
#X text 708 229 high, f 5;
#X text 709 267 low, f 5;
#X text 710 290 high, f 5;
#X msg 664 204 0;
#X msg 665 227 1024;
#X obj 568 356 hsl 80 15 0 1023 0 0 empty empty empty -2 -8 0 10 -228856
-1 -1 0 1;
#X obj 565 434 nbx 5 14 -1e+37 1e+37 0 0 empty empty empty 0 -8 0 10
-228856 -1 -1 0 256;
#X obj 565 380 nbx 5 14 -1e+37 1e+37 0 0 empty empty empty 0 -8 0 10
-228856 -1 -1 0 256;
#X obj 565 405 mapper, f 12;
#X obj 479 385 unpack;
#X text 664 336 pot range;
#X text 666 398 new range;
#X text 710 358 low, f 5;
#X text 711 381 high, f 5;
#X text 712 419 low, f 5;
#X text 713 442 high, f 5;
#X msg 667 356 0;
#X msg 668 379 1024;
#X obj 568 494 hsl 80 15 0 1023 0 0 empty empty empty -2 -8 0 10 -228856
-1 -1 0 1;
#X obj 565 572 nbx 5 14 -1e+37 1e+37 0 0 empty empty empty 0 -8 0 10
-228856 -1 -1 0 256;
#X obj 565 518 nbx 5 14 -1e+37 1e+37 0 0 empty empty empty 0 -8 0 10
-228856 -1 -1 0 256;
#X obj 565 543 mapper, f 12;
#X obj 479 523 unpack;
#X text 664 474 pot range;
#X text 666 536 new range;
#X text 710 496 low, f 5;
#X text 711 519 high, f 5;
#X text 712 557 low, f 5;
#X text 713 580 high, f 5;
#X msg 667 494 0;
#X msg 661 124 0;
#X msg 667 417 0;
#X obj 778 56 loadbang;
#X obj 772 210 loadbang;
#X obj 767 357 loadbang;
#X obj 767 498 loadbang;
#X text 560 43 input pot 5;
#X obj 474 159 s pot5;
#X text 558 181 input pot 6;
#X obj 481 298 s pot6;
#X text 561 333 input pot 7;
#X obj 481 449 s pot7;
#X text 561 471 input pot 8;
#X obj 481 587 s pot8;
#X obj 473 65 r p5;
#X obj 476 204 r p6;
#X obj 479 356 r p7;
#X obj 479 494 r p8;
#X msg 239 561 0;
#X msg 662 149 127;
#X msg 664 265 0;
#X msg 665 290 127;
#X msg 668 442 127;
#X msg 667 555 0;
#X obj 576 627 r buttons;
#X obj 576 655 unpack;
#X obj 579 683 route 1 2 3 4;
#X obj 476 711 s button1;
#X obj 547 711 s button2;
#X obj 619 711 s button3;
#X obj 690 711 s button4;
#X msg 236 271 0;
#X msg 237 296 127;
#X msg 240 448 127;
#X msg 234 92 1022;
#X msg 240 586 1;
#X msg 668 580 1;
#X msg 240 523 1022;
#X msg 668 517 1022;
#X msg 235 159 127;
#X obj 136 121 sonicinteractions/mapper;
#X connect 0 0 2 0;
#X connect 1 0 63 0;
#X connect 2 0 158 0;
#X connect 6 0 8 0;
#X connect 7 0 64 0;
#X connect 8 0 9 0;
#X connect 9 0 7 0;
#X connect 11 0 13 0;
#X connect 12 0 14 0;
#X connect 13 0 0 0;
#X connect 14 0 6 0;
#X connect 19 0 158 1;
#X connect 26 0 9 1;
#X connect 27 0 9 2;
#X connect 28 0 30 0;
#X connect 29 0 65 0;
#X connect 30 0 31 0;
#X connect 31 0 29 0;
#X connect 32 0 28 0;
#X connect 39 0 31 1;
#X connect 40 0 31 2;
#X connect 42 0 32 0;
#X connect 43 0 45 0;
#X connect 44 0 66 0;
#X connect 45 0 46 0;
#X connect 46 0 44 0;
#X connect 47 0 43 0;
#X connect 54 0 46 1;
#X connect 56 0 47 0;
#X connect 57 0 158 3;
#X connect 58 0 31 3;
#X connect 59 0 19 0;
#X connect 59 0 152 0;
#X connect 59 0 57 0;
#X connect 59 0 157 0;
#X connect 60 0 26 0;
#X connect 60 0 27 0;
#X connect 60 0 149 0;
#X connect 60 0 150 0;
#X connect 61 0 39 0;
#X connect 61 0 40 0;
#X connect 61 0 58 0;
#X connect 61 0 151 0;
#X connect 62 0 54 0;
#X connect 62 0 155 0;
#X connect 62 0 136 0;
#X connect 62 0 153 0;
#X connect 67 0 69 0;
#X connect 68 0 125 0;
#X connect 69 0 70 0;
#X connect 70 0 68 0;
#X connect 73 0 75 0;
#X connect 74 0 127 0;
#X connect 75 0 76 0;
#X connect 76 0 74 0;
#X connect 77 0 67 0;
#X connect 78 0 73 0;
#X connect 83 0 70 1;
#X connect 84 0 70 2;
#X connect 91 0 76 1;
#X connect 92 0 76 2;
#X connect 93 0 95 0;
#X connect 94 0 129 0;
#X connect 95 0 96 0;
#X connect 96 0 94 0;
#X connect 97 0 93 0;
#X connect 104 0 96 1;
#X connect 105 0 96 2;
#X connect 106 0 108 0;
#X connect 107 0 131 0;
#X connect 108 0 109 0;
#X connect 109 0 107 0;
#X connect 110 0 106 0;
#X connect 117 0 109 1;
#X connect 118 0 70 3;
#X connect 119 0 96 3;
#X connect 120 0 83 0;
#X connect 120 0 84 0;
#X connect 120 0 118 0;
#X connect 120 0 137 0;
#X connect 121 0 91 0;
#X connect 121 0 92 0;
#X connect 121 0 138 0;
#X connect 121 0 139 0;
#X connect 122 0 104 0;
#X connect 122 0 105 0;
#X connect 122 0 119 0;
#X connect 122 0 140 0;
#X connect 123 0 117 0;
#X connect 123 0 156 0;
#X connect 123 0 141 0;
#X connect 123 0 154 0;
#X connect 132 0 77 0;
#X connect 133 0 78 0;
#X connect 134 0 97 0;
#X connect 135 0 110 0;
#X connect 136 0 46 3;
#X connect 137 0 70 4;
#X connect 138 0 76 3;
#X connect 139 0 76 4;
#X connect 140 0 96 4;
#X connect 141 0 109 3;
#X connect 142 0 143 0;
#X connect 143 0 144 0;
#X connect 144 0 145 0;
#X connect 144 1 146 0;
#X connect 144 2 147 0;
#X connect 144 3 148 0;
#X connect 149 0 9 3;
#X connect 150 0 9 4;
#X connect 151 0 31 4;
#X connect 152 0 158 2;
#X connect 153 0 46 4;
#X connect 154 0 109 4;
#X connect 155 0 46 2;
#X connect 156 0 109 2;
#X connect 157 0 158 4;
#X connect 158 0 1 0;
#X restore 759 28 pd routing;
#X obj 683 92 vsl 15 128 0 127 0 0 sendFreq empty empty 0 -9 0 10 -262144
-1 -1 0 1;
#X obj 683 67 r pot1;
#X obj 737 92 vsl 15 128 0 127 0 0 empty empty empty 0 -9 0 10 -262144
-1 -1 0 1;
#X obj 737 67 r pot2;
#X obj 789 92 vsl 15 128 0 127 0 0 empty empty empty 0 -9 0 10 -262144
-1 -1 0 1;
#X obj 843 92 vsl 15 128 0 1 0 0 empty empty empty 0 -9 0 10 -262144
-1 -1 0 1;
#X obj 789 67 r pot3;
#X obj 843 67 r pot4;
#X obj 685 291 vsl 15 128 0 127 0 0 empty empty empty 0 -9 0 10 -262144
-1 -1 0 1;
#X obj 739 291 vsl 15 128 0 127 0 0 empty empty empty 0 -9 0 10 -262144
-1 -1 0 1;
#X obj 791 291 vsl 15 128 0 127 0 0 empty empty empty 0 -9 0 10 -262144
-1 -1 0 1;
#X obj 845 291 vsl 15 128 0 1 0 0 empty empty empty 0 -9 0 10 -262144
-1 -1 0 1;
#X obj 685 266 r pot5;
#X obj 739 266 r pot6;
#X obj 791 266 r pot7;
#X obj 845 266 r pot8;
#X obj 685 455 r button1;
#X obj 685 478 bng 15 250 50 0 empty empty empty 17 7 0 10 -262144
-1 -1;
#X obj 791 454 r button2;
#X obj 685 542 r button3;
#X obj 791 542 r button4;
#X obj 791 477 bng 15 250 50 0 empty empty empty 17 7 0 10 -262144
-1 -1;
#X obj 685 566 bng 15 250 50 0 empty empty empty 17 7 0 10 -262144
-1 -1;
#X obj 791 566 bng 15 250 50 0 empty empty empty 17 7 0 10 -262144
-1 -1;
#X obj 685 501 s arraystart;
#X obj 285 232 r arraystart;
#X obj 392 226 r arraystop;
#X obj 791 500 s arraystop;
#X obj 685 589 s sampleUp;
#X obj 791 589 s sampleDown;
#X obj 557 339 r sampleUp;
#X obj 504 318 r sampleDown;
#X obj 472 373 bng 15 250 50 0 empty empty empty 17 7 0 10 -262144
-1 -1;
#X obj 607 382 bng 15 250 50 0 empty empty empty 17 7 0 10 -262144
-1 -1;
#X msg 496 277 \; pd dsp \$1;
#X obj 496 257 tgl 15 0 empty empty empty 17 7 0 10 -262144 -1 -1 0
1;
#X connect 0 0 16 0;
#X connect 1 0 0 0;
#X connect 3 0 12 0;
#X connect 4 0 1 0;
#X connect 5 0 4 0;
#X connect 6 0 8 0;
#X connect 7 0 6 0;
#X connect 8 0 5 0;
#X connect 9 0 7 0;
#X connect 12 0 10 0;
#X connect 13 0 12 0;
#X connect 14 0 12 0;
#X connect 15 0 12 0;
#X connect 16 0 10 0;
#X connect 16 0 11 0;
#X connect 16 0 11 1;
#X connect 17 0 16 1;
#X connect 18 0 17 0;
#X connect 19 0 17 0;
#X connect 20 0 17 0;
#X connect 21 0 17 0;
#X connect 26 0 25 0;
#X connect 28 0 27 0;
#X connect 31 0 29 0;
#X connect 32 0 30 0;
#X connect 37 0 33 0;
#X connect 38 0 34 0;
#X connect 39 0 35 0;
#X connect 40 0 36 0;
#X connect 41 0 42 0;
#X connect 42 0 49 0;
#X connect 43 0 46 0;
#X connect 44 0 47 0;
#X connect 45 0 48 0;
#X connect 46 0 52 0;
#X connect 47 0 53 0;
#X connect 48 0 54 0;
#X connect 50 0 3 0;
#X connect 50 0 60 0;
#X connect 51 0 13 0;
#X connect 51 0 60 0;
#X connect 55 0 21 0;
#X connect 55 0 58 0;
#X connect 56 0 20 0;
#X connect 56 0 57 0;
#X connect 60 0 59 0;
