#N canvas 501 64 634 620 10;
#N canvas 0 22 450 278 (subpatch) 0;
#X array channelL 490473 float 2;
#X coords 0 1 490473 -1 200 140 1;
#X restore 379 19 graph;
#N canvas 0 22 450 278 (subpatch) 0;
#X array channelR 490473 float 2;
#X coords 0 1 490473 -1 200 140 1 0 0;
#X restore 379 174 graph;
#X obj 29 563 dac~ 1 2;
#X obj 28 531 *~;
#X obj 72 533 *~;
#X obj 138 447 vsl 40 60 0 1 0 0 empty empty empty 0 -9 0 10 -262144
-1 -1 2600 1;
#X obj 12 26 bng 15 250 50 0 empty empty empty 17 7 0 10 -262144 -1
-1;
#X obj 12 47 openpanel;
#X msg 12 70 read -resize \$1 channelL channelR;
#X msg 353 569 \; pd dsp \$1;
#X obj 353 545 tgl 15 0 empty empty empty 17 7 0 10 -262144 -1 -1 0
1;
#X obj 12 96 soundfiler;
#X floatatom 31 119 12 0 0 0 - - -;
#X obj 13 176 expr 44100 / $f1;
#X obj 32 146 s sampleSize;
#X floatatom 26 207 10 0 0 0 - - -;
#X obj 14 234 phasor~;
#X obj 15 277 *~;
#X obj 60 263 r sampleSize;
#X obj 17 400 tabread4~ channelL;
#X obj 37 371 tabread4~ channelR;
#X obj 157 259 tgl 15 0 empty empty empty 17 7 0 10 -262144 -1 -1 1
1;
#X obj 157 282 metro 50;
#X obj 157 306 snapshot~;
#X floatatom 157 330 10 0 0 0 - - -;
#X obj 158 356 /;
#X obj 377 336 r sampleSize;
#X floatatom 172 386 10 0 0 0 - - -;
#X obj 382 317 hsl 195 15 0 1 0 0 empty empty empty -2 -8 0 10 -262144
-1 -1 2721 1;
#X obj 175 157 hsl 128 15 -1 1 0 0 empty empty empty -2 -8 0 10 -262144
-1 -1 6000 1;
#X floatatom 172 182 5 0 0 0 - - -;
#X msg 172 131 0.0899132;
#X connect 3 0 2 0;
#X connect 4 0 2 1;
#X connect 5 0 3 1;
#X connect 5 0 4 1;
#X connect 6 0 7 0;
#X connect 7 0 8 0;
#X connect 8 0 11 0;
#X connect 10 0 9 0;
#X connect 11 0 12 0;
#X connect 11 0 13 0;
#X connect 12 0 14 0;
#X connect 13 0 15 0;
#X connect 13 0 16 0;
#X connect 16 0 17 0;
#X connect 17 0 19 0;
#X connect 17 0 20 0;
#X connect 17 0 23 0;
#X connect 18 0 17 1;
#X connect 19 0 3 0;
#X connect 20 0 4 0;
#X connect 21 0 22 0;
#X connect 22 0 23 0;
#X connect 23 0 24 0;
#X connect 24 0 25 0;
#X connect 25 0 27 0;
#X connect 25 0 28 0;
#X connect 26 0 25 1;
#X connect 29 0 30 0;
#X connect 30 0 16 0;
#X connect 31 0 29 0;
