#N canvas 559 105 488 430 10;
#X obj 236 244 *~;
#X obj 253 217 tgl 15 0 empty empty empty 0 -6 0 8 -24198 -1 -1 0 1
;
#X obj 236 186 osc~ 500;
#X obj 224 288 dac~;
#X msg 232 142 250;
#X msg 267 143 500;
#X msg 200 142 125;
#X text 75 265 audio (thick cord) -->;
#X text 49 164 messages (thin cord) -->;
#X text 14 70 For audio \, pd has a specific data type. Audio objects
all have a trailing tilde ("~"). Audio coords are thick.;
#X connect 0 0 3 0;
#X connect 0 0 3 1;
#X connect 1 0 0 1;
#X connect 2 0 0 0;
#X connect 4 0 2 0;
#X connect 5 0 2 0;
#X connect 6 0 2 0;
