#N canvas 409 136 1328 807 10;
#X obj 389 527 dac~;
#X obj 182 193 receive~;
#N canvas 450 128 1280 751 effects 0;
#X obj 100 101 cnv 15 150 100 empty empty Switcher 20 12 0 14 -233017
-66577 0;
#X floatatom 275 190 5 0 0 0 - - -;
#X obj 122 130 vradio 15 1 0 4 empty empty empty 0 -8 0 10 -262144
-1 -1 1;
#X text 144 130 Bypass;
#X text 144 145 Delay;
#X text 143 161 Chorus;
#X text 144 177 Tremolo;
#X floatatom 381 117 5 0 0 0 - - -;
#X obj 275 148 loadbang;
#X msg 194 470 set audio;
#X msg 267 470 set none;
#X msg 348 471 set audio;
#X msg 420 471 set none;
#X msg 504 471 set audio;
#X msg 580 471 set none;
#X obj 194 598 send delayswitch;
#X obj 348 598 send chorusswitch;
#X obj 504 599 send tremoloswitch;
#X obj 275 237 sel 0 1 2 3;
#X msg 47 470 set audio;
#X msg 119 470 set none;
#X obj 47 598 send bypassswitch;
#X obj 378 38 bng 15 250 50 0 empty empty empty 17 7 0 10 -262144 -1
-1;
#X obj 497 38 bng 15 250 50 0 empty empty empty 17 7 0 10 -262144 -1
-1;
#X obj 425 88 int;
#X msg 496 57 -1;
#X obj 470 87 + 1;
#X msg 422 53 1;
#X obj 468 110 mod 4;
#X connect 1 0 18 0;
#X connect 2 0 1 0;
#X connect 7 0 2 0;
#X connect 8 0 1 0;
#X connect 9 0 15 0;
#X connect 10 0 16 0;
#X connect 10 0 21 0;
#X connect 11 0 16 0;
#X connect 12 0 17 0;
#X connect 12 0 15 0;
#X connect 13 0 17 0;
#X connect 14 0 16 0;
#X connect 14 0 21 0;
#X connect 18 0 19 0;
#X connect 18 0 20 0;
#X connect 18 1 9 0;
#X connect 18 1 10 0;
#X connect 18 2 11 0;
#X connect 18 2 12 0;
#X connect 18 3 13 0;
#X connect 18 3 14 0;
#X connect 19 0 21 0;
#X connect 20 0 15 0;
#X connect 20 0 17 0;
#X connect 20 0 16 0;
#X connect 22 0 24 0;
#X connect 22 0 27 0;
#X connect 23 0 25 0;
#X connect 23 0 24 0;
#X connect 24 0 26 0;
#X connect 24 0 7 0;
#X connect 25 0 26 1;
#X connect 26 0 28 0;
#X connect 27 0 26 1;
#X connect 28 0 24 1;
#X coords 0 -1 1 1 150 100 1 100 100;
#X restore 178 37 pd effects switch;
#X obj 182 170 r delayswitch;
#X obj 187 511 receive~;
#X obj 187 487 r bypassswitch;
#X obj 177 249 sik/simpledelay;
#X obj 814 32 cnv 15 300 500 empty empty routing 20 12 0 14 -204800
-66577 0;
#X obj 863 315 r button1;
#X obj 863 338 bng 15 250 50 0 empty empty empty 17 7 0 10 -262144
-1 -1;
#X obj 969 314 r button2;
#X obj 863 402 r button3;
#X obj 969 402 r button4;
#X obj 969 337 bng 15 250 50 0 empty empty empty 17 7 0 10 -262144
-1 -1;
#X obj 863 426 bng 15 250 50 0 empty empty empty 17 7 0 10 -262144
-1 -1;
#X obj 969 426 bng 15 250 50 0 empty empty empty 17 7 0 10 -262144
-1 -1;
#X obj 863 67 sik/routing;
#X obj 920 144 r pot2;
#X obj 996 198 s mix;
#X obj 996 145 r pot3;
#X obj 996 173 * 1;
#X obj 34 37 cnv 15 120 400 empty empty Input 20 12 0 14 -261234 -66577
0;
#X obj 49 78 adc~;
#X obj 48 328 send~ audio;
#X obj 48 166 *~;
#X obj 83 167 line~;
#X obj 86 235 vu 30 80 empty empty -1 -8 1 8 -66577 -1 0 0;
#X obj 85 211 - 100;
#X obj 85 189 env~;
#X obj 84 145 \$1 50;
#X obj 86 71 vsl 30 60 0 1 0 0 empty empty empty 0 -9 0 10 -262144
-1 -1 0 1;
#X obj 864 198 s time;
#X obj 864 145 r pot1;
#X obj 864 173 * 1000;
#X msg 912 559 \; pd dsp \$1;
#X obj 909 535 tgl 15 0 empty empty empty 17 7 0 10 -262144 -1 -1 0
1;
#X obj 920 197 s feedback;
#X obj 920 172 * 0.9;
#N canvas 417 134 822 750 sampler1 0;
#X obj 240 30 cnv 15 300 300 empty empty empty 20 12 0 14 -233017 -66577
0;
#N canvas 149 242 450 278 (subpatch) 0;
#X array sample1 652171 float 2;
#X coords 0 1 652171 -1 200 140 1 0 0;
#X restore 252 47 graph;
#X obj 31 549 *~;
#X obj 432 254 vsl 40 60 0 1 0 0 empty sample1volume Volume 0 -9 0
10 -262144 -1 -1 2898 1;
#X obj 25 94 soundfiler;
#X floatatom 44 117 12 0 0 0 - - -;
#X obj 26 174 expr 44100 / $f1;
#X floatatom 39 205 10 0 0 0 - - -;
#X obj 27 342 phasor~;
#X obj 28 425 *~;
#X obj 270 394 tgl 15 0 empty empty empty 17 7 0 10 -262144 -1 -1 1
1;
#X obj 270 417 metro 50;
#X obj 270 441 snapshot~;
#X floatatom 270 465 10 0 0 0 - - -;
#X obj 271 491 /;
#X floatatom 285 521 10 0 0 0 - - -;
#X obj 255 192 hsl 195 15 0 1 0 0 empty empty empty -2 -8 0 10 -262144
-1 -1 3535 1;
#X obj 255 213 hsl 195 15 -1 1 0 0 empty empty empty -2 -8 0 10 -262144
-1 -1 10407 1;
#X floatatom 105 275 5 0 0 0 - - -;
#X msg 103 333 0;
#X msg 138 333 0.5;
#X msg 41 276 0;
#X text 38 246 pauses audio;
#X obj 30 498 tabread4~ sample1;
#X obj 31 614 outlet~;
#X obj 252 265 bng 50 250 50 0 empty sampler1Start Start 0 -7 0 10
-262144 -1 -1;
#X obj 364 265 bng 50 250 50 0 empty sampler1Stop Stop 0 -7 0 10 -262144
-1 -1;
#X obj 45 144 s sample1Size;
#X obj 73 411 r sample1Size;
#X obj 350 471 r sample1Size;
#X obj 29 39 inlet;
#X msg 154 193 0.0729167;
#X msg 25 68 read -resize audio/loop1.wav sample1;
#X obj 308 265 bng 50 250 50 0 empty sampler1Play Play 0 -7 0 10 -262144
-1 -1;
#X connect 2 0 24 0;
#X connect 3 0 2 1;
#X connect 4 0 5 0;
#X connect 4 0 6 0;
#X connect 5 0 27 0;
#X connect 6 0 7 0;
#X connect 6 0 8 0;
#X connect 8 0 9 0;
#X connect 9 0 12 0;
#X connect 9 0 23 0;
#X connect 10 0 11 0;
#X connect 11 0 12 0;
#X connect 12 0 13 0;
#X connect 13 0 14 0;
#X connect 14 0 15 0;
#X connect 14 0 16 0;
#X connect 17 0 18 0;
#X connect 18 0 8 0;
#X connect 19 0 8 1;
#X connect 20 0 8 1;
#X connect 21 0 8 0;
#X connect 23 0 2 0;
#X connect 25 0 31 0;
#X connect 25 0 19 0;
#X connect 26 0 21 0;
#X connect 28 0 9 1;
#X connect 29 0 14 1;
#X connect 30 0 32 0;
#X connect 30 0 10 0;
#X connect 31 0 17 0;
#X connect 32 0 4 0;
#X connect 33 0 18 0;
#X coords 0 -1 1 1 240 300 1 240 30;
#X restore 406 45 pd sampler1;
#X obj 408 7 loadbang;
#X obj 1060 172 * 1;
#X obj 1060 144 r pot4;
#X obj 1060 197 s sample1volume;
#X obj 822 492 s sampler2Start;
#N canvas 37 146 822 750 sampler1 0;
#X obj 240 30 cnv 15 300 300 empty empty empty 20 12 0 14 -233017 -66577
0;
#N canvas 149 242 450 278 (subpatch) 0;
#X array sample2 325662 float 2;
#X coords 0 1 325662 -1 200 140 1 0 0;
#X restore 252 47 graph;
#X obj 31 549 *~;
#X obj 421 257 vsl 40 60 0 1 0 0 empty sample1volume Volume 0 -9 0
10 -262144 -1 -1 2898 1;
#X obj 25 94 soundfiler;
#X floatatom 44 117 12 0 0 0 - - -;
#X obj 26 174 expr 44100 / $f1;
#X floatatom 39 205 10 0 0 0 - - -;
#X obj 27 342 phasor~;
#X obj 28 425 *~;
#X obj 270 394 tgl 15 0 empty empty empty 17 7 0 10 -262144 -1 -1 1
1;
#X obj 270 417 metro 50;
#X obj 270 441 snapshot~;
#X floatatom 270 465 10 0 0 0 - - -;
#X obj 271 491 /;
#X floatatom 285 521 10 0 0 0 - - -;
#X obj 255 192 hsl 195 15 0 1 0 0 empty empty empty -2 -8 0 10 -262144
-1 -1 9295 1;
#X obj 255 213 hsl 195 15 -1 1 0 0 empty empty empty -2 -8 0 10 -262144
-1 -1 10407 1;
#X floatatom 105 275 5 0 0 0 - - -;
#X msg 103 333 0;
#X msg 138 333 0.5;
#X msg 41 276 0;
#X text 38 246 pauses audio;
#X obj 31 614 outlet~;
#X obj 252 265 bng 50 250 50 0 empty sampler2Start Start 0 -7 0 10
-262144 -1 -1;
#X obj 363 265 bng 50 250 50 0 empty sampler2Stop Stop 0 -7 0 10 -262144
-1 -1;
#X obj 29 39 inlet;
#X msg 154 193 0.0729167;
#X msg 25 68 read -resize audio/loop2.wav sample2;
#X obj 45 144 s sample2Size;
#X obj 351 470 r sample2Size;
#X obj 30 498 tabread4~ sample2;
#X obj 74 409 r sample2Size;
#X obj 308 265 bng 50 250 50 0 empty sampler2Play Play 0 -7 0 10 -262144
-1 -1;
#X connect 2 0 23 0;
#X connect 3 0 2 1;
#X connect 4 0 5 0;
#X connect 4 0 6 0;
#X connect 5 0 29 0;
#X connect 6 0 7 0;
#X connect 6 0 8 0;
#X connect 8 0 9 0;
#X connect 9 0 12 0;
#X connect 9 0 31 0;
#X connect 10 0 11 0;
#X connect 11 0 12 0;
#X connect 12 0 13 0;
#X connect 13 0 14 0;
#X connect 14 0 15 0;
#X connect 14 0 16 0;
#X connect 17 0 18 0;
#X connect 18 0 8 0;
#X connect 19 0 8 1;
#X connect 20 0 8 1;
#X connect 21 0 8 0;
#X connect 24 0 19 0;
#X connect 24 0 27 0;
#X connect 25 0 21 0;
#X connect 26 0 10 0;
#X connect 26 0 28 0;
#X connect 27 0 17 0;
#X connect 28 0 4 0;
#X connect 30 0 14 1;
#X connect 31 0 2 0;
#X connect 32 0 9 1;
#X connect 33 0 18 0;
#X coords 0 -1 1 1 240 300 1 240 30;
#X restore 433 403 pd sampler1;
#X obj 435 365 loadbang;
#X obj 1057 430 tgl 15 0 empty empty empty 17 7 0 10 -262144 -1 -1
0 1;
#X obj 997 464 s sampler1Stop;
#X obj 974 491 s sampler2Stop;
#X floatatom 1025 626 5 0 0 0 - - -;
#X obj 1023 568 bng 15 250 50 0 empty empty empty 17 7 0 10 -262144
-1 -1;
#X obj 1057 568 bng 15 250 50 0 empty empty empty 17 7 0 10 -262144
-1 -1;
#X obj 1023 599 int;
#X msg 1076 586 -1;
#X obj 1052 599 + 1;
#X msg 1046 585 1;
#X obj 1075 539 mod 2;
#X obj 1024 539 sel 0 1;
#X floatatom 796 699 5 0 0 0 - - -;
#X obj 793 620 bng 15 250 50 0 empty empty empty 17 7 0 10 -262144
-1 -1;
#X obj 912 620 bng 15 250 50 0 empty empty empty 17 7 0 10 -262144
-1 -1;
#X obj 840 670 int;
#X msg 911 639 -1;
#X obj 885 669 + 1;
#X msg 837 635 1;
#X floatatom 1124 420 5 0 0 0 - - -;
#X obj 1124 350 bng 15 250 50 0 empty empty empty 17 7 0 10 -262144
-1 -1;
#X obj 1151 350 bng 15 250 50 0 empty empty empty 17 7 0 10 -262144
-1 -1;
#X obj 1124 384 int;
#X msg 1190 368 -1;
#X obj 1161 399 + 1;
#X msg 1158 368 1;
#X obj 977 365 s sampler1Start;
#X obj 977 384 s sampler1Play;
#X obj 822 513 s sampler2Play;
#X obj 766 736 sel 0 1 2;
#X obj 882 692 mod 3;
#X obj 1124 449 sel 0 1 2;
#X obj 1172 420 mod 3;
#X connect 1 0 6 0;
#X connect 1 0 6 1;
#X connect 3 0 1 0;
#X connect 4 0 0 0;
#X connect 4 0 0 1;
#X connect 5 0 4 0;
#X connect 6 0 0 0;
#X connect 6 1 0 1;
#X connect 8 0 9 0;
#X connect 9 0 35 0;
#X connect 10 0 13 0;
#X connect 11 0 14 0;
#X connect 12 0 15 0;
#X connect 12 0 50 0;
#X connect 13 0 66 0;
#X connect 14 0 59 0;
#X connect 17 0 37 0;
#X connect 19 0 20 0;
#X connect 20 0 18 0;
#X connect 22 0 24 0;
#X connect 22 1 24 0;
#X connect 24 0 23 0;
#X connect 24 0 28 0;
#X connect 25 0 24 1;
#X connect 27 0 26 0;
#X connect 28 0 27 0;
#X connect 29 0 25 0;
#X connect 30 0 29 0;
#X connect 32 0 33 0;
#X connect 33 0 31 0;
#X connect 35 0 34 0;
#X connect 37 0 36 0;
#X connect 38 0 0 0;
#X connect 38 0 0 1;
#X connect 39 0 38 0;
#X connect 40 0 42 0;
#X connect 41 0 40 0;
#X connect 44 0 0 1;
#X connect 44 0 0 0;
#X connect 45 0 44 0;
#X connect 49 0 57 0;
#X connect 50 0 52 0;
#X connect 50 0 55 0;
#X connect 51 0 53 0;
#X connect 51 0 52 0;
#X connect 52 0 54 0;
#X connect 52 0 49 0;
#X connect 53 0 54 1;
#X connect 54 0 56 0;
#X connect 55 0 54 1;
#X connect 56 0 52 1;
#X connect 57 0 74 0;
#X connect 57 0 73 0;
#X connect 57 1 48 0;
#X connect 57 1 47 0;
#X connect 58 0 75 0;
#X connect 59 0 61 0;
#X connect 59 0 64 0;
#X connect 60 0 62 0;
#X connect 60 0 61 0;
#X connect 61 0 63 0;
#X connect 61 0 58 0;
#X connect 62 0 63 1;
#X connect 63 0 76 0;
#X connect 64 0 63 1;
#X connect 65 0 77 0;
#X connect 66 0 68 0;
#X connect 66 0 71 0;
#X connect 67 0 69 0;
#X connect 67 0 68 0;
#X connect 68 0 70 0;
#X connect 68 0 65 0;
#X connect 69 0 70 1;
#X connect 70 0 78 0;
#X connect 71 0 70 1;
#X connect 75 0 43 0;
#X connect 75 1 74 0;
#X connect 75 2 48 0;
#X connect 76 0 61 1;
#X connect 77 0 72 0;
#X connect 77 1 73 0;
#X connect 77 2 47 0;
#X connect 78 0 68 1;
