#N canvas 0 23 414 386 10;
#X obj 113 26 inlet;
#X text 155 27 bpm;
#X obj 201 27 inlet;
#X floatatom 113 87 5 0 0 0 - - -;
#X obj 113 159 /;
#X msg 113 133 60000;
#X text 243 28 note value;
#X obj 113 109 t b f;
#X obj 113 185 int;
#X obj 192 305 outlet;
#X floatatom 71 199 5 0 0 0 - - -;
#X obj 144 229 *;
#X msg 193 178 1;
#X msg 203 198 1.5;
#X msg 189 157 0.5;
#X msg 179 137 0.25;
#X text 228 178 quarter;
#X text 235 198 dotted quarter;
#X floatatom 120 277 5 0 0 0 - - -;
#X text 222 157 8th;
#X text 218 137 16th;
#X obj 201 72 t b f;
#X obj 228 97 select 0 1 2 3;
#X connect 0 0 3 0;
#X connect 2 0 21 0;
#X connect 3 0 7 0;
#X connect 4 0 8 0;
#X connect 5 0 4 0;
#X connect 7 0 5 0;
#X connect 7 1 4 1;
#X connect 8 0 10 0;
#X connect 8 0 11 0;
#X connect 11 0 9 0;
#X connect 11 0 18 0;
#X connect 12 0 11 1;
#X connect 13 0 11 1;
#X connect 14 0 11 1;
#X connect 15 0 11 1;
#X connect 21 0 3 0;
#X connect 21 1 22 0;
#X connect 22 0 15 0;
#X connect 22 1 14 0;
#X connect 22 2 12 0;
#X connect 22 3 13 0;
