#N canvas 179 156 1114 755 10;
#X obj 100 100 cnv 15 200 200 empty empty Chorus 20 12 0 14 -204800
-66577 0;
#X obj 742 172 phasor~;
#X obj 742 205 cos~;
#X obj 742 232 *~ 2;
#X obj 742 253 +~ 2;
#X obj 742 394 *~ 0.8;
#X obj 828 205 +~ o.5;
#X obj 828 247 cos~;
#X obj 828 268 *~ 2;
#X obj 828 289 +~ 2;
#X obj 828 331 *~ 0.8;
#X obj 334 583 outlet~ left;
#X obj 558 584 outlet~ right;
#X obj 121 152 hsl 128 15 0.1 10 0 0 chorusSpeed pot1 Speed -2 -8 0
10 -262144 -1 -1 0 1;
#X obj 121 191 hsl 128 15 0 3 0 0 chorusDepth pot2 Depth -2 -8 0 10
-262144 -1 -1 0 1;
#X obj 120 227 hsl 128 15 0 0.9 0 0 chorusFeedback pot3 Feedback -2
-8 0 10 -262144 -1 -1 0 1;
#X obj 334 54 inlet~ left;
#X obj 558 54 inlet~ right;
#X obj 828 226 wrap~;
#X obj 334 543 *~;
#X obj 558 542 *~;
#X obj 120 265 hsl 128 15 0 1 0 0 empty pot4 Dry/Wet -2 -8 0 10 -262144
-1 -1 0 1;
#X floatatom 654 434 5 0 0 0 - - -;
#X obj 117 375 - 1;
#X obj 117 396 * -1;
#X floatatom 117 427 5 0 0 0 - - -;
#X obj 688 477 *~;
#X obj 743 477 *~;
#X obj 409 70 delwrite~ phaseLeft 100;
#X obj 828 310 vd~ phaseLeft;
#X obj 646 70 delwrite~ phaseRight 100;
#X obj 742 364 vd~ phaseRight;
#X floatatom 257 191 5 0 0 0 - chorusDepth -;
#X obj 549 216 r chorusDepth;
#X obj 896 252 r chorusDepth;
#X floatatom 257 227 5 0 0 0 - chorusFeedback -;
#X obj 907 378 r chorusFeedback;
#X floatatom 256 152 5 0 0 0 - chorusSpeed -;
#X obj 742 129 r chorusSpeed;
#X obj 401 412 loadbang;
#X msg 401 441 1;
#X msg 675 191 0;
#X obj 592 175 loadbang;
#X obj 902 140 loadbang;
#X msg 902 209 0;
#X msg 855 156 0.1;
#X obj 950 419 loadbang;
#X msg 915 435 0;
#X connect 1 0 2 0;
#X connect 1 0 6 0;
#X connect 2 0 3 0;
#X connect 3 0 4 0;
#X connect 4 0 31 0;
#X connect 5 0 30 0;
#X connect 6 0 18 0;
#X connect 7 0 8 0;
#X connect 8 0 9 0;
#X connect 9 0 29 0;
#X connect 10 0 28 0;
#X connect 16 0 19 0;
#X connect 16 0 28 0;
#X connect 17 0 20 0;
#X connect 17 0 30 0;
#X connect 18 0 7 0;
#X connect 19 0 11 0;
#X connect 20 0 12 0;
#X connect 21 0 22 0;
#X connect 21 0 23 0;
#X connect 22 0 26 1;
#X connect 22 0 27 1;
#X connect 23 0 24 0;
#X connect 24 0 25 0;
#X connect 25 0 19 1;
#X connect 25 0 20 1;
#X connect 26 0 11 0;
#X connect 27 0 12 0;
#X connect 29 0 10 0;
#X connect 29 0 27 0;
#X connect 31 0 5 0;
#X connect 31 0 26 0;
#X connect 33 0 3 1;
#X connect 33 0 4 1;
#X connect 34 0 8 1;
#X connect 34 0 9 1;
#X connect 36 0 10 1;
#X connect 36 0 5 1;
#X connect 38 0 1 0;
#X connect 39 0 40 0;
#X connect 40 0 19 1;
#X connect 40 0 20 1;
#X connect 41 0 4 1;
#X connect 41 0 3 1;
#X connect 42 0 41 0;
#X connect 43 0 44 0;
#X connect 43 0 45 0;
#X connect 44 0 8 1;
#X connect 44 0 9 1;
#X connect 45 0 1 0;
#X connect 46 0 47 0;
#X connect 47 0 5 1;
#X connect 47 0 10 1;
#X coords 0 -1 1 1 200 200 1 100 100;
