#N canvas 37 44 616 435 10;
#X obj 175 67 loadbang;
#X obj 175 100 t b b b b;
#X obj 72 142 inlet init;
#X obj 155 142 inlet initlow;
#X obj 256 142 inlet inithigh;
#X obj 364 142 inlet maplow;
#X obj 458 142 inlet maphigh;
#X obj 72 209 -;
#X obj 87 167 bng 15 250 50 0 empty empty empty 17 7 0 10 -262144 -1
-1;
#X obj 155 170 f \$1;
#X obj 189 207 -;
#X obj 256 170 f \$2;
#X obj 364 169 f \$3;
#X obj 458 169 f \$4;
#X obj 395 214 -;
#X obj 267 278 *;
#X obj 171 235 /;
#X obj 325 325 +;
#X obj 325 361 outlet mapped;
#X connect 0 0 1 0;
#X connect 1 0 9 0;
#X connect 1 1 11 0;
#X connect 1 2 12 0;
#X connect 1 3 13 0;
#X connect 2 0 7 0;
#X connect 2 0 8 0;
#X connect 3 0 9 0;
#X connect 4 0 11 0;
#X connect 5 0 12 0;
#X connect 6 0 13 0;
#X connect 7 0 16 0;
#X connect 8 0 1 0;
#X connect 9 0 7 1;
#X connect 9 0 10 1;
#X connect 10 0 16 1;
#X connect 11 0 10 0;
#X connect 12 0 14 1;
#X connect 12 0 17 1;
#X connect 13 0 14 0;
#X connect 14 0 15 1;
#X connect 15 0 17 0;
#X connect 16 0 15 0;
#X connect 17 0 18 0;
