#N canvas 99 141 1192 682 10;
#X obj 36 16 cnv 15 808 250 empty empty Incoming_Data 20 12 0 14 -228856
-66577 0;
#X text 223 30 Receive messages from Python and route them to the proper
receive objects;
#X obj 58 161 s p1;
#X obj 95 161 s p2;
#X obj 132 161 s p3;
#X obj 170 161 s p4;
#X obj 180 204 s p5;
#X obj 218 204 s p6;
#X obj 256 203 s p7;
#X obj 293 203 s p8;
#X obj 226 67 netreceive 3000 1;
#X obj 226 99 route 0 1 2 3 4 5 6 7 8 9 10 11 12 13 14 15 16;
#X obj 632 161 s buttons;
#X obj 336 161 s p9;
#X obj 374 161 s p10;
#X obj 412 160 s p11;
#X obj 449 160 s p12;
#X obj 555 203 s p13;
#X obj 593 203 s p14;
#X obj 631 202 s p15;
#X obj 668 202 s p16;
#X obj 36 275 cnv 15 400 180 empty empty Potentiometer1 20 12 0 14
-204786 -66577 0;
#X obj 152 328 hsl 80 15 0 1023 0 0 empty empty empty -2 -8 0 10 -228856
-1 -1 4062 1;
#X obj 149 406 nbx 5 14 -1e+37 1e+37 0 0 empty empty empty 0 -8 0 10
-228856 -1 -1 0.514677 256;
#X obj 149 352 nbx 5 14 -1e+37 1e+37 0 0 empty empty empty 0 -8 0 10
-228856 -1 -1 526 256;
#X obj 149 377 mapper, f 12;
#X text 145 305 input pot 1;
#X text 243 305 pot range;
#X text 245 367 new range;
#X obj 58 356 unpack;
#X text 289 327 low, f 5;
#X text 290 350 high, f 5;
#X text 291 388 low, f 5;
#X text 292 411 high, f 5;
#X msg 246 386 0;
#X obj 364 317 loadbang;
#X msg 247 348 1022;
#X obj 60 421 s pot1;
#X msg 246 325 0;
#X msg 248 415 1;
#X obj 36 460 cnv 15 400 180 empty empty Potentiometer2 20 12 0 14
-204786 -66577 0;
#X obj 152 508 hsl 80 15 0 1023 0 0 empty empty empty -2 -8 0 10 -228856
-1 -1 4409 1;
#X obj 149 586 nbx 5 14 -1e+37 1e+37 0 0 empty empty empty 0 -8 0 10
-228856 -1 -1 0.557617 256;
#X obj 149 532 nbx 5 14 -1e+37 1e+37 0 0 empty empty empty 0 -8 0 10
-228856 -1 -1 571 256;
#X obj 149 557 mapper, f 12;
#X text 145 485 input pot 2;
#X obj 63 537 unpack;
#X text 248 488 pot range;
#X text 250 550 new range;
#X text 294 510 low, f 5;
#X text 295 533 high, f 5;
#X text 296 571 low, f 5;
#X text 297 594 high, f 5;
#X msg 252 531 1024;
#X obj 359 514 loadbang;
#X msg 251 569 0;
#X obj 68 602 s pot2;
#X msg 251 508 0;
#X msg 252 594 1;
#X obj 443 275 cnv 15 400 180 empty empty Potentiometer3 20 12 0 14
-204786 -66577 0;
#X obj 559 326 hsl 80 15 10.23 1023 1 0 empty empty empty -2 -8 0 10
-228856 -1 -1 6733 1;
#X obj 556 404 nbx 5 14 -1e+37 1e+37 0 0 empty empty empty 0 -8 0 10
-228856 -1 -1 0.505859 256;
#X obj 556 350 nbx 5 14 -1e+37 1e+37 0 0 empty empty empty 0 -8 0 10
-228856 -1 -1 518 256;
#X obj 556 375 mapper, f 12;
#X obj 470 355 unpack;
#X text 655 306 pot range;
#X text 657 368 new range;
#X text 701 328 low, f 5;
#X text 702 351 high, f 5;
#X text 703 389 low, f 5;
#X text 704 412 high, f 5;
#X msg 659 349 1024;
#X text 552 303 input pot 3;
#X msg 658 387 0;
#X obj 758 327 loadbang;
#X msg 659 412 1;
#X obj 472 419 s pot3;
#X msg 658 326 0;
#X obj 443 461 cnv 15 400 180 empty empty Potentiometer4 20 12 0 14
-204786 -66577 0;
#X obj 559 506 hsl 80 15 0 1023 0 0 empty empty empty -2 -8 0 10 -228856
-1 -1 7900 1;
#X obj 556 608 nbx 5 14 -1e+37 1e+37 0 0 empty empty empty 0 -8 0 10
-228856 -1 -1 1.00098 256;
#X obj 556 530 nbx 5 14 -1e+37 1e+37 0 0 empty empty empty 0 -8 0 10
-228856 -1 -1 1023 256;
#X obj 556 560 mapper, f 12;
#X obj 470 535 unpack;
#X text 655 486 pot range;
#X text 657 553 new range;
#X text 701 508 low, f 5;
#X text 702 531 high, f 5;
#X text 703 574 low, f 5;
#X text 704 616 high, f 5;
#X text 552 483 input pot 4;
#X obj 758 510 loadbang;
#X obj 472 623 s pot4;
#X msg 658 572 0;
#X msg 659 616 1;
#X msg 659 529 1022;
#X msg 658 506 0;
#X obj 851 16 cnv 15 300 625 empty empty Buttons 20 12 0 14 -203904
-66577 0;
#X obj 898 88 r buttons;
#X obj 898 116 unpack;
#X obj 898 141 route 1 2 3 4;
#X obj 898 173 bng 15 250 50 0 empty empty empty 17 7 0 10 -262144
-1 -1;
#X obj 898 197 s button1;
#X obj 898 223 bng 15 250 50 0 empty empty empty 17 7 0 10 -262144
-1 -1;
#X obj 898 247 s button2;
#X obj 898 269 bng 15 250 50 0 empty empty empty 17 7 0 10 -262144
-1 -1;
#X obj 898 293 s button3;
#X obj 898 323 bng 15 250 50 0 empty empty empty 17 7 0 10 -262144
-1 -1;
#X obj 898 347 s button4;
#X obj 58 327 r p5;
#X obj 63 508 r p6;
#X obj 469 326 r p7;
#X obj 470 506 r p8;
#X connect 10 0 11 0;
#X connect 11 0 2 0;
#X connect 11 1 3 0;
#X connect 11 2 4 0;
#X connect 11 3 5 0;
#X connect 11 4 6 0;
#X connect 11 5 7 0;
#X connect 11 6 8 0;
#X connect 11 7 9 0;
#X connect 11 8 13 0;
#X connect 11 9 14 0;
#X connect 11 10 15 0;
#X connect 11 11 16 0;
#X connect 11 12 17 0;
#X connect 11 13 18 0;
#X connect 11 14 19 0;
#X connect 11 15 20 0;
#X connect 11 16 12 0;
#X connect 22 0 24 0;
#X connect 23 0 37 0;
#X connect 24 0 25 0;
#X connect 25 0 23 0;
#X connect 29 0 22 0;
#X connect 34 0 25 3;
#X connect 35 0 38 0;
#X connect 35 0 36 0;
#X connect 35 0 34 0;
#X connect 35 0 39 0;
#X connect 36 0 25 2;
#X connect 38 0 25 1;
#X connect 39 0 25 4;
#X connect 41 0 43 0;
#X connect 42 0 56 0;
#X connect 43 0 44 0;
#X connect 44 0 42 0;
#X connect 46 0 41 0;
#X connect 53 0 44 2;
#X connect 54 0 57 0;
#X connect 54 0 53 0;
#X connect 54 0 55 0;
#X connect 54 0 58 0;
#X connect 55 0 44 3;
#X connect 57 0 44 1;
#X connect 58 0 44 4;
#X connect 60 0 62 0;
#X connect 61 0 76 0;
#X connect 62 0 63 0;
#X connect 63 0 61 0;
#X connect 64 0 60 0;
#X connect 71 0 63 2;
#X connect 73 0 63 3;
#X connect 74 0 77 0;
#X connect 74 0 71 0;
#X connect 74 0 73 0;
#X connect 74 0 75 0;
#X connect 75 0 63 4;
#X connect 77 0 63 1;
#X connect 79 0 81 0;
#X connect 80 0 92 0;
#X connect 81 0 82 0;
#X connect 82 0 80 0;
#X connect 83 0 79 0;
#X connect 91 0 96 0;
#X connect 91 0 95 0;
#X connect 91 0 93 0;
#X connect 91 0 94 0;
#X connect 93 0 82 3;
#X connect 94 0 82 4;
#X connect 95 0 82 2;
#X connect 96 0 82 1;
#X connect 98 0 99 0;
#X connect 99 0 100 0;
#X connect 100 0 101 0;
#X connect 100 1 103 0;
#X connect 100 2 105 0;
#X connect 100 3 107 0;
#X connect 101 0 102 0;
#X connect 103 0 104 0;
#X connect 105 0 106 0;
#X connect 107 0 108 0;
#X connect 109 0 29 0;
#X connect 110 0 46 0;
#X connect 111 0 64 0;
#X connect 112 0 83 0;
