#N canvas 100 113 1046 1013 10;
#X obj 218 356 hsl 80 15 0 1023 0 0 empty empty empty -2 -8 0 10 -228856
-1 -1 23 1;
#X obj 215 434 nbx 5 14 -1e+37 1e+37 0 0 empty empty empty 0 -8 0 10
-228856 -1 -1 0.00293542 256;
#X obj 215 380 nbx 5 14 -1e+37 1e+37 0 0 empty empty empty 0 -8 0 10
-228856 -1 -1 3 256;
#X obj 215 405 mapper, f 12;
#X text 211 333 input pot 1;
#X text 309 333 pot range;
#X text 311 395 new range;
#X obj 216 524 hsl 80 15 0 1023 0 0 empty empty empty -2 -8 0 10 -228856
-1 -1 15 1;
#X obj 213 602 nbx 5 14 -1e+37 1e+37 0 0 empty empty empty 0 -8 0 10
-228856 -1 -1 0.00195312 256;
#X obj 213 548 nbx 5 14 -1e+37 1e+37 0 0 empty empty empty 0 -8 0 10
-228856 -1 -1 2 256;
#X obj 213 573 mapper, f 12;
#X text 209 501 input pot 2;
#X obj 124 355 r p1;
#X obj 127 524 r p2;
#X obj 124 384 unpack;
#X obj 127 553 unpack;
#X text 355 355 low, f 5;
#X text 356 378 high, f 5;
#X text 357 416 low, f 5;
#X text 358 439 high, f 5;
#X text 312 504 pot range;
#X text 314 566 new range;
#X text 358 526 low, f 5;
#X text 359 549 high, f 5;
#X text 360 587 low, f 5;
#X text 361 610 high, f 5;
#X msg 316 547 1024;
#X obj 219 696 hsl 80 15 10.23 1023 1 0 empty empty empty -2 -8 0 10
-228856 -1 -1 0 1;
#X obj 216 774 nbx 5 14 -1e+37 1e+37 0 0 empty empty empty 0 -8 0 10
-228856 -1 -1 0.00195312 256;
#X obj 216 720 nbx 5 14 -1e+37 1e+37 0 0 empty empty empty 0 -8 0 10
-228856 -1 -1 2 256;
#X obj 216 745 mapper, f 12;
#X obj 130 725 unpack;
#X text 315 676 pot range;
#X text 317 738 new range;
#X text 361 698 low, f 5;
#X text 362 721 high, f 5;
#X text 363 759 low, f 5;
#X text 364 782 high, f 5;
#X msg 319 719 1024;
#X text 212 673 input pot 3;
#X obj 130 696 r p3;
#X obj 219 864 hsl 80 15 0 1023 0 0 empty empty empty -2 -8 0 10 -228856
-1 -1 15 1;
#X obj 216 942 nbx 5 14 -1e+37 1e+37 0 0 empty empty empty 0 -8 0 10
-228856 -1 -1 0.00195695 256;
#X obj 216 888 nbx 5 14 -1e+37 1e+37 0 0 empty empty empty 0 -8 0 10
-228856 -1 -1 2 256;
#X obj 216 913 mapper, f 12;
#X obj 130 893 unpack;
#X text 315 844 pot range;
#X text 317 906 new range;
#X text 361 866 low, f 5;
#X text 362 889 high, f 5;
#X text 363 927 low, f 5;
#X text 364 950 high, f 5;
#X text 212 841 input pot 4;
#X obj 130 864 r p4;
#X msg 312 414 0;
#X msg 318 757 0;
#X obj 430 345 loadbang;
#X obj 423 530 loadbang;
#X obj 418 697 loadbang;
#X obj 418 868 loadbang;
#X obj 132 957 s pot4;
#X msg 318 925 0;
#X msg 315 585 0;
#X msg 313 376 1022;
#X msg 319 950 1;
#X msg 319 887 1022;
#X msg 319 782 1;
#X obj 743 518 r buttons;
#X obj 743 546 unpack;
#X obj 746 574 route 1 2 3 4;
#X obj 698 623 bng 15 250 50 0 empty empty empty 17 7 0 10 -262144
-1 -1;
#X obj 698 647 s button1;
#X obj 126 449 s pot1;
#X obj 132 618 s pot2;
#X obj 132 789 s pot3;
#X msg 318 864 0;
#X msg 318 696 0;
#X msg 315 524 0;
#X msg 312 353 0;
#X msg 316 610 1;
#X msg 314 443 1;
#X obj 764 623 bng 15 250 50 0 empty empty empty 17 7 0 10 -262144
-1 -1;
#X obj 764 647 s button2;
#X obj 828 623 bng 15 250 50 0 empty empty empty 17 7 0 10 -262144
-1 -1;
#X obj 828 647 s button3;
#X obj 890 623 bng 15 250 50 0 empty empty empty 17 7 0 10 -262144
-1 -1;
#X obj 890 647 s button4;
#X text 306 50 Receive messages from Python and route them to the proper
receive objects;
#X obj 141 181 s p1;
#X obj 178 181 s p2;
#X obj 215 181 s p3;
#X obj 253 181 s p4;
#X obj 263 224 s p5;
#X obj 301 224 s p6;
#X obj 339 223 s p7;
#X obj 376 223 s p8;
#X obj 309 87 netreceive 3000 1;
#X obj 309 119 route 0 1 2 3 4 5 6 7 8 9 10 11 12 13 14 15 16;
#X obj 715 181 s buttons;
#X obj 419 181 s p9;
#X obj 457 181 s p10;
#X obj 495 180 s p11;
#X obj 532 180 s p12;
#X obj 638 223 s p13;
#X obj 676 223 s p14;
#X obj 714 222 s p15;
#X obj 751 222 s p16;
#X connect 0 0 2 0;
#X connect 1 0 72 0;
#X connect 2 0 3 0;
#X connect 3 0 1 0;
#X connect 7 0 9 0;
#X connect 8 0 73 0;
#X connect 9 0 10 0;
#X connect 10 0 8 0;
#X connect 12 0 14 0;
#X connect 13 0 15 0;
#X connect 14 0 0 0;
#X connect 15 0 7 0;
#X connect 26 0 10 2;
#X connect 27 0 29 0;
#X connect 28 0 74 0;
#X connect 29 0 30 0;
#X connect 30 0 28 0;
#X connect 31 0 27 0;
#X connect 38 0 30 2;
#X connect 40 0 31 0;
#X connect 41 0 43 0;
#X connect 42 0 60 0;
#X connect 43 0 44 0;
#X connect 44 0 42 0;
#X connect 45 0 41 0;
#X connect 53 0 45 0;
#X connect 54 0 3 3;
#X connect 55 0 30 3;
#X connect 56 0 78 0;
#X connect 56 0 63 0;
#X connect 56 0 54 0;
#X connect 56 0 80 0;
#X connect 57 0 77 0;
#X connect 57 0 26 0;
#X connect 57 0 62 0;
#X connect 57 0 79 0;
#X connect 58 0 76 0;
#X connect 58 0 38 0;
#X connect 58 0 55 0;
#X connect 58 0 66 0;
#X connect 59 0 75 0;
#X connect 59 0 65 0;
#X connect 59 0 61 0;
#X connect 59 0 64 0;
#X connect 61 0 44 3;
#X connect 62 0 10 3;
#X connect 63 0 3 2;
#X connect 64 0 44 4;
#X connect 65 0 44 2;
#X connect 66 0 30 4;
#X connect 67 0 68 0;
#X connect 68 0 69 0;
#X connect 69 0 70 0;
#X connect 69 1 81 0;
#X connect 69 2 83 0;
#X connect 69 3 85 0;
#X connect 70 0 71 0;
#X connect 75 0 44 1;
#X connect 76 0 30 1;
#X connect 77 0 10 1;
#X connect 78 0 3 1;
#X connect 79 0 10 4;
#X connect 80 0 3 4;
#X connect 81 0 82 0;
#X connect 83 0 84 0;
#X connect 85 0 86 0;
#X connect 96 0 97 0;
#X connect 97 0 88 0;
#X connect 97 1 89 0;
#X connect 97 2 90 0;
#X connect 97 3 91 0;
#X connect 97 4 92 0;
#X connect 97 5 93 0;
#X connect 97 6 94 0;
#X connect 97 7 95 0;
#X connect 97 8 99 0;
#X connect 97 9 100 0;
#X connect 97 10 101 0;
#X connect 97 11 102 0;
#X connect 97 12 103 0;
#X connect 97 13 104 0;
#X connect 97 14 105 0;
#X connect 97 15 106 0;
#X connect 97 16 98 0;
