#N canvas 553 137 450 300 10;
#X obj 72 46 inlet~;
#X obj 117 47 inlet gain;
#X obj 223 48 inlet r;
#X obj 284 49 inlet p;
#X obj 73 111 *~;
#X obj 117 71 sig~;
#X obj 116 97 lop~ 2;
#X obj 153 141 tabwrite~ \$0-a1;
#X obj 280 175 table \$0-a1 88200;
#X obj 282 95 tabplay~ \$0-a1;
#X obj 281 120 outlet~;
#X connect 0 0 4 0;
#X connect 1 0 5 0;
#X connect 2 0 7 0;
#X connect 3 0 9 0;
#X connect 4 0 7 0;
#X connect 5 0 6 0;
#X connect 6 0 4 1;
#X connect 9 0 10 0;
