#N canvas 588 102 1275 1000 10;
#X obj 100 100 cnv 15 200 200 empty empty Delay 20 12 0 14 -261682
-66577 0;
#X obj 123 273 hsl 128 15 0 1 0 0 empty pot3 Dry/Wet -2 -8 0 8 -262144
-1 -1 0 1;
#X obj 123 143 hsl 128 15 0 0.9 0 0 feedbackL pot1 Left_Feedback -2
-8 0 8 -262144 -1 -1 0 1;
#X obj 123 175 hsl 128 15 0 0.9 0 0 feedbackR pot1 Right_Feedback -2
-8 0 8 -262144 -1 -1 0 1;
#X obj 123 208 hsl 128 15 0 1000 0 0 timeL pot2 Left_Time -2 -8 0 8
-262144 -1 -1 0 1;
#X obj 123 242 hsl 128 15 0 1000 0 0 timeR pot2 Right_Time -2 -8 0
8 -262144 -1 -1 0 1;
#X floatatom 259 143 5 0 0 0 - feedbackL -;
#X floatatom 259 175 5 0 0 0 - feedbackR -;
#X floatatom 260 207 5 0 0 0 - timeL -;
#X floatatom 260 242 5 0 0 0 - timeR -;
#X obj 618 362 sig~;
#X floatatom 618 340 5 0 0 0 - - -;
#X floatatom 794 340 5 0 0 0 - - -;
#X obj 794 360 sig~;
#X obj 550 253 delwrite~ delayRight 4000;
#X floatatom 774 190 5 0 0.9 0 - - -;
#X obj 754 237 *~ 0;
#X obj 546 210 *~ 0;
#X floatatom 567 158 5 0 0.9 0 - - -;
#X obj 618 387 vd~ delayLeft;
#X obj 794 389 vd~ delayRight;
#X floatatom 476 334 5 0 0 0 - - -;
#X obj 359 341 - 1;
#X obj 357 364 * -1;
#X floatatom 357 388 5 0 0 0 - - -;
#X obj 330 439 *~;
#X obj 461 453 *~;
#X obj 612 474 *~;
#X obj 375 226 delwrite~ delayLeft 4000;
#X obj 384 531 outlet~ left;
#X obj 481 531 outlet~ right;
#X obj 134 346 loadbang;
#X msg 134 367 1;
#X obj 375 91 inlet~ left;
#X obj 502 89 inlet~ right;
#X obj 398 439 *~;
#X connect 1 0 21 0;
#X connect 1 0 22 0;
#X connect 6 0 18 0;
#X connect 7 0 15 0;
#X connect 8 0 11 0;
#X connect 9 0 12 0;
#X connect 10 0 19 0;
#X connect 11 0 10 0;
#X connect 12 0 13 0;
#X connect 13 0 20 0;
#X connect 15 0 16 1;
#X connect 16 0 14 0;
#X connect 17 0 28 0;
#X connect 18 0 17 1;
#X connect 19 0 17 0;
#X connect 19 0 26 0;
#X connect 20 0 16 0;
#X connect 20 0 27 0;
#X connect 21 0 26 1;
#X connect 21 0 27 1;
#X connect 22 0 23 0;
#X connect 23 0 24 0;
#X connect 24 0 25 1;
#X connect 24 0 35 1;
#X connect 25 0 29 0;
#X connect 26 0 29 0;
#X connect 27 0 30 0;
#X connect 31 0 32 0;
#X connect 32 0 25 1;
#X connect 32 0 35 1;
#X connect 33 0 28 0;
#X connect 33 0 25 0;
#X connect 34 0 14 0;
#X connect 34 0 35 0;
#X connect 35 0 30 0;
#X coords 0 -1 1 1 200 200 1 100 100;
