#N canvas 351 232 753 467 10;
#N canvas 678 160 450 545 tremolo 0;
#X obj 14 259 inlet~ left;
#X obj 104 259 inlet~ right;
#X obj 34 452 outlet~ left;
#X obj 128 452 outlet~ right;
#X obj 62 394 *~;
#X obj 278 139 osc~;
#X obj 278 160 *~;
#X obj 278 181 clip~ -1 1;
#X obj 278 242 *~;
#X obj 278 263 +~;
#X obj 105 132 hsl 128 15 1 1000 0 0 empty empty Rate -2 -8 0 10 -262144
-1 -1 0 1;
#X obj 105 168 hsl 128 15 1 20 0 0 empty empty Shape -2 -8 0 10 -262144
-1 -1 0 1;
#X obj 106 202 hsl 128 15 0 0.5 0 0 empty pot3 Depth -2 -8 0 10 -262144
-1 -1 0 1;
#X floatatom 335 235 5 0 0 0 - - -;
#X obj 315 262 expr 1-$f1;
#X floatatom 315 283 5 0 0 0 - - -;
#X obj 34 47 loadbang;
#X obj 102 68 * 1000;
#X obj 102 42 r pot1;
#X obj 164 68 * 20;
#X obj 163 42 r pot2;
#X connect 0 0 4 0;
#X connect 1 0 4 0;
#X connect 4 0 2 0;
#X connect 4 0 3 0;
#X connect 5 0 6 0;
#X connect 6 0 7 0;
#X connect 7 0 8 0;
#X connect 8 0 9 0;
#X connect 9 0 4 1;
#X connect 10 0 5 0;
#X connect 11 0 6 1;
#X connect 12 0 8 1;
#X connect 12 0 13 0;
#X connect 12 0 14 0;
#X connect 14 0 15 0;
#X connect 14 0 9 1;
#X connect 16 0 10 0;
#X connect 16 0 11 0;
#X connect 16 0 12 0;
#X connect 17 0 10 0;
#X connect 18 0 17 0;
#X connect 19 0 11 0;
#X connect 20 0 19 0;
#X coords 0 -1 1 1 145 130 1 100 100;
#X restore 138 134 pd tremolo;
#X obj 148 57 inlet~;
#X obj 250 58 inlet~;
#X obj 155 300 outlet~;
#X obj 260 305 outlet~;
#X obj -3 3 cnv 15 100 60 empty empty empty 20 12 0 14 -233017 -66577
0;
#X connect 0 0 3 0;
#X connect 0 1 4 0;
#X connect 1 0 0 0;
#X connect 2 0 0 1;
#X coords 0 -1 1 1 200 200 1 100 100;
