#N canvas 482 201 1004 704 10;
#N canvas 164 709 606 426 stuff 1;
#X text 52 321 creating-order in alfaloop.pd: [pd stuff] / [engine]
/ [pd pd settings] / [pd ctl_huelle] / keys_midi activ/passive / show:keys_midi
/ theme-buttons / [pd info];
#N canvas 593 52 404 253 openControls 0;
#N canvas 274 376 501 398 show_hide 0;
#X obj 80 57 f \$0;
#X obj 80 193 f \$0;
#X obj 80 31 r \$0-showmidi;
#X obj 80 167 r \$0-showkey;
#X obj 353 31 r \$0-switchCtl;
#X obj 353 57 sel 0 1;
#X obj 372 83 s \$0-showmidi;
#X obj 353 109 s \$0-showkey;
#X msg 80 83 \; pd-ctl_huelle clear \; pd-ctl_huelle obj 0 19 midis
\$1 \; pd-ctl_huelle obj 0 0 clearall Midi \$1 \; pd-ctl_huelle loadbang
\; pd-midictltank.pd loadbang \;;
#X msg 80 220 \; pd-ctl_huelle clear \; pd-ctl_huelle obj 0 19 keys
\$1 \; pd-ctl_huelle obj 0 0 clearall Key \$1 \; pd-ctl_huelle loadbang
\; pd-keyctltank.pd loadbang \;;
#X connect 0 0 8 0;
#X connect 1 0 9 0;
#X connect 2 0 0 0;
#X connect 3 0 1 0;
#X connect 4 0 5 0;
#X connect 5 0 7 0;
#X connect 5 1 6 0;
#X restore 45 62 pd show_hide;
#N canvas 0 50 385 228 change_canvas_size(for_redrawing) 0;
#X msg 47 81 10;
#X msg 78 81 1;
#X msg 221 81 1;
#X msg 190 81 10;
#X obj 46 107 pack f \$0;
#X obj 189 105 pack f \$0;
#X msg 47 128 \; \$2-midiIconIn size \$1;
#X msg 190 128 \; \$2-keyIconIn size \$1;
#X connect 0 0 4 0;
#X connect 1 0 4 0;
#X connect 2 0 5 0;
#X connect 3 0 5 0;
#X connect 4 0 6 0;
#X connect 5 0 7 0;
#X restore 44 117 pd change_canvas_size(for_redrawing);
#N canvas 271 124 498 270 control_in_use 0;
#X obj 216 77 sel 0 1;
#X obj 36 77 sel 0 1;
#X obj 36 49 r \$0-keycontrolCtl;
#X obj 215 49 r \$0-midicontrolCtl;
#X obj 55 100 f \$0;
#X obj 35 174 f \$0;
#X obj 235 100 f \$0;
#X obj 215 174 f \$0;
#X msg 235 123 \; \$1-midiIconIn color 22 0 \; \$1-midiInUse 1;
#X msg 55 123 \; \$1-keyIconIn color 22 0 \; \$1-keyInUse 1;
#X msg 36 201 \; \$1-keyIconIn color 10 0 \; \$1-keyInUse 0;
#X msg 216 201 \; \$1-midiIconIn color 10 0 \; \$1-midiInUse 0;
#X connect 0 0 7 0;
#X connect 0 1 6 0;
#X connect 1 0 5 0;
#X connect 1 1 4 0;
#X connect 2 0 1 0;
#X connect 3 0 0 0;
#X connect 4 0 9 0;
#X connect 5 0 10 0;
#X connect 6 0 8 0;
#X connect 7 0 11 0;
#X restore 44 91 pd control_in_use;
#X restore 251 30 pd openControls;
#N canvas 562 50 323 179 ctltanks 0;
#N canvas 188 141 450 300 miditank 0;
#X obj 9 86 midictltank rec \$0;
#X obj 9 114 midictltank over \$0;
#X obj 8 141 midictltank feedback \$0;
#X obj 9 170 midictltank ducking \$0;
#X obj 8 202 midictltank auto-over \$0;
#X restore 52 34 pd miditank;
#N canvas 16 240 450 300 keytank 0;
#X obj 41 30 keyctltank rec \$0;
#X obj 41 56 keyctltank over \$0;
#X obj 41 82 keyctltank feedback+ \$0;
#X obj 41 108 keyctltank feedback- \$0;
#X obj 41 134 keyctltank ducking+ \$0;
#X obj 41 160 keyctltank ducking- \$0;
#X obj 41 186 keyctltank auto-over \$0;
#X restore 51 64 pd keytank;
#X restore 251 56 pd ctltanks;
#N canvas 850 50 536 581 delay 0;
#X msg 52 82 0;
#X obj 42 175 *~;
#X obj 41 518 s~ \$0-fromDelay;
#X obj 42 134 vd~ \$0-del;
#X obj 66 404 delwrite~ \$0-del 20000;
#X obj 42 108 line~;
#X obj 207 438 throw~ \$0-audioDone;
#N canvas 693 117 304 361 recGateListening 0;
#X obj 121 102 r \$0-ducking;
#X obj 65 154 spigot;
#X obj 65 50 r \$0-recState;
#X obj 65 128 f;
#X obj 65 76 t f f;
#X obj 65 276 outlet;
#X obj 65 102 sel 1 0;
#X msg 75 224 1;
#X obj 65 250 pack f 10;
#X obj 120 154 tf cFOffsetBMs 12 \$0;
#X obj 120 208 del;
#X obj 120 180 t b f;
#X connect 0 0 1 0;
#X connect 0 0 3 1;
#X connect 1 0 8 0;
#X connect 2 0 4 0;
#X connect 3 0 1 0;
#X connect 4 0 6 0;
#X connect 4 1 1 1;
#X connect 6 0 3 0;
#X connect 6 1 9 0;
#X connect 7 0 8 0;
#X connect 8 0 5 0;
#X connect 9 0 11 0;
#X connect 10 0 7 0;
#X connect 11 0 10 0;
#X connect 11 1 10 1;
#X restore 232 325 pd recGateListening;
#N canvas 422 162 362 209 recGateRecord 0;
#X obj 42 30 r \$0-ducking;
#X obj 42 82 outlet;
#X obj 42 56 pack f 5;
#X connect 0 0 2 0;
#X connect 2 0 1 0;
#X restore 66 440 pd recGateRecord;
#N canvas 329 333 336 204 first_mute 0;
#X obj 42 160 outlet;
#X msg 42 134 0 10;
#X obj 42 108 tpipe lengthbang cFOffsetBMs 0 \$0;
#X connect 1 0 0 0;
#X connect 2 0 1 0;
#X restore 235 170 pd first_mute;
#X obj 226 412 throw~ \$0-rec2disk;
#X obj 52 56 tbng lengthbang cFOffsetBMs 11 \$0;
#X obj 207 377 *~;
#X obj 41 237 *~;
#N canvas 104 343 406 289 overDucking 0;
#X obj 47 192 outlet;
#N canvas 1008 242 410 442 duck_delay 0;
#X obj 41 56 sel 1 0;
#N canvas 756 226 339 269 out 0;
#X obj 42 30 inlet;
#X obj 42 186 outlet;
#X obj 42 160 pack f f;
#X obj 87 134 r \$0-duckfadeOutCtl;
#X obj 79 108 outlet;
#X obj 42 56 t b b;
#X msg 79 82 0;
#X msg 42 134 1;
#X connect 0 0 5 0;
#X connect 2 0 1 0;
#X connect 3 0 2 1;
#X connect 5 0 7 0;
#X connect 5 1 6 0;
#X connect 6 0 4 0;
#X connect 7 0 2 0;
#X restore 127 139 pd out;
#N canvas 512 177 561 421 in/during 0;
#X obj 249 36 inlet;
#X obj 220 338 outlet;
#X obj 53 256 pack f f;
#X obj 68 166 pipe;
#X obj 68 114 r \$0-ducking;
#X obj 387 192 pipe;
#X obj 387 86 r \$0-ducking;
#X obj 220 272 spigot;
#X obj 270 272 spigot;
#X obj 303 246 expr 1-$f1;
#X msg 303 180 1;
#X msg 268 190 0;
#X obj 268 164 del;
#X msg 298 88 1;
#X obj 298 112 outlet;
#X obj 89 140 r \$0-duckPipePre;
#X obj 283 138 r \$0-duckOffset;
#X obj 98 230 r \$0-duckfadeInCtl;
#X obj 249 62 t b b b;
#X obj 53 230 f;
#X obj 408 164 r \$0-pipePost;
#X msg 220 182 \$1 5;
#X msg 387 216 \$1 5;
#X obj 387 138 spigot;
#X obj 420 112 r \$0-over;
#X obj 303 206 noguitgl;
#X connect 0 0 18 0;
#X connect 2 0 7 0;
#X connect 3 0 19 1;
#X connect 3 0 21 0;
#X connect 4 0 3 0;
#X connect 5 0 22 0;
#X connect 6 0 23 0;
#X connect 7 0 1 0;
#X connect 8 0 1 0;
#X connect 9 0 8 1;
#X connect 10 0 25 0;
#X connect 11 0 25 0;
#X connect 12 0 11 0;
#X connect 13 0 14 0;
#X connect 15 0 3 1;
#X connect 16 0 12 1;
#X connect 17 0 2 1;
#X connect 18 0 19 0;
#X connect 18 0 3 0;
#X connect 18 1 10 0;
#X connect 18 1 12 0;
#X connect 18 2 13 0;
#X connect 19 0 2 0;
#X connect 20 0 5 1;
#X connect 21 0 7 0;
#X connect 22 0 8 0;
#X connect 23 0 5 0;
#X connect 24 0 23 1;
#X connect 25 0 9 0;
#X connect 25 0 7 1;
#X restore 41 139 pd in/during;
#X obj 41 359 outlet;
#X obj 41 221 spigot;
#X obj 127 257 spigot;
#X obj 160 231 expr 1-$f1;
#X obj 41 30 r \$0-duckPipe;
#X obj 160 205 noguitgl;
#X connect 0 0 2 0;
#X connect 0 1 1 0;
#X connect 1 0 5 0;
#X connect 1 1 8 0;
#X connect 2 0 4 0;
#X connect 2 1 8 0;
#X connect 4 0 3 0;
#X connect 5 0 3 0;
#X connect 6 0 5 1;
#X connect 7 0 0 0;
#X connect 8 0 6 0;
#X connect 8 0 4 1;
#X restore 47 59 pd duck_delay;
#X obj 161 59 r \$0-over;
#X obj 161 192 outlet;
#N canvas 596 218 298 293 duck_listening 0;
#N canvas 1065 136 354 302 in 0;
#X obj 42 203 outlet;
#X obj 67 82 r \$0-ducking;
#X obj 42 108 f;
#X obj 42 177 pack f f;
#X obj 138 161 r \$0-duckfadeInCtl;
#X obj 123 187 del;
#X obj 42 134 t b f;
#X msg 123 213 1;
#X obj 42 56 sel 1;
#X obj 42 30 inlet;
#X obj 123 239 outlet;
#X connect 1 0 2 1;
#X connect 2 0 6 0;
#X connect 3 0 0 0;
#X connect 4 0 3 1;
#X connect 4 0 5 1;
#X connect 5 0 7 0;
#X connect 6 0 5 0;
#X connect 6 1 3 0;
#X connect 7 0 10 0;
#X connect 8 0 2 0;
#X connect 9 0 8 0;
#X restore 55 123 pd in;
#N canvas 1209 453 352 237 during 0;
#X obj 42 116 spigot;
#X obj 42 82 spigot;
#X obj 42 142 pack f 5;
#X obj 42 30 r \$0-ducking;
#X obj 119 56 inlet;
#X obj 42 168 outlet;
#X obj 75 56 inlet;
#X connect 0 0 2 0;
#X connect 1 0 0 0;
#X connect 2 0 5 0;
#X connect 3 0 1 0;
#X connect 4 0 0 1;
#X connect 6 0 1 1;
#X restore 104 179 pd during;
#N canvas 735 203 363 392 out 0;
#X obj 43 174 f;
#X obj 68 148 r \$0-feedback;
#X obj 43 200 pack f f;
#X obj 88 174 r \$0-duckfadeOutCtl;
#X obj 43 122 t b b;
#X obj 43 70 inlet;
#X obj 216 164 outlet;
#X obj 43 226 outlet;
#X msg 216 138 0;
#X obj 43 96 sel 0;
#X connect 0 0 2 0;
#X connect 1 0 0 1;
#X connect 2 0 7 0;
#X connect 3 0 2 1;
#X connect 4 0 0 0;
#X connect 4 1 8 0;
#X connect 5 0 9 0;
#X connect 8 0 6 0;
#X connect 9 0 4 0;
#X restore 111 123 pd out;
#X obj 55 195 outlet;
#X obj 116 83 t f f f;
#X obj 116 57 inlet;
#X connect 0 0 3 0;
#X connect 0 1 1 0;
#X connect 1 0 3 0;
#X connect 2 0 3 0;
#X connect 2 1 1 0;
#X connect 4 0 0 0;
#X connect 4 1 2 0;
#X connect 4 2 1 1;
#X connect 5 0 4 0;
#X restore 161 137 pd duck_listening;
#X obj 161 111 spigot;
#X obj 194 85 r \$0-instantDuckCtl;
#N canvas 56 217 411 502 playLoudDuck 0;
#X obj 36 143 inlet;
#X obj 36 413 outlet;
#X obj 36 177 spigot;
#X obj 116 159 spigot;
#X obj 69 89 expr 1-$f1;
#X obj 161 371 r \$0-duckfadeInCtl;
#X obj 116 246 spigot;
#X obj 187 246 spigot;
#X msg 116 345 1;
#X obj 116 397 pack f f;
#X obj 239 169 noguitgl;
#X obj 149 185 expr 1-$f1;
#X obj 69 63 r \$0-playLoudDuckCtl;
#N canvas 521 220 377 505 clearDuckPipe 0;
#X obj 101 196 inlet;
#X obj 68 264 spigot;
#X obj 158 302 spigot;
#X msg 107 328 clear;
#X obj 158 328 outlet;
#X obj 158 238 spigot;
#X msg 155 186 1;
#X msg 191 186 0;
#X obj 191 52 r \$0-ducking;
#X obj 191 110 sel 1;
#X msg 191 136 1;
#X obj 68 84 r \$0-length;
#X obj 68 110 t b b;
#X obj 68 290 t b b b;
#X obj 87 380 outlet;
#X obj 150 94 f;
#X msg 251 159 0;
#X obj 191 162 t b f b;
#X obj 107 354 s \$0-duckClearPipe;
#X msg 282 230 1;
#X obj 282 256 change;
#X obj 282 282 t b;
#X msg 233 230 set 0;
#X connect 0 0 1 1;
#X connect 0 0 2 1;
#X connect 1 0 13 0;
#X connect 2 0 4 0;
#X connect 3 0 18 0;
#X connect 5 0 2 0;
#X connect 6 0 5 1;
#X connect 7 0 5 1;
#X connect 8 0 9 0;
#X connect 8 0 15 1;
#X connect 9 0 10 0;
#X connect 9 1 16 0;
#X connect 10 0 17 0;
#X connect 11 0 12 0;
#X connect 12 0 1 0;
#X connect 12 1 6 0;
#X connect 13 0 15 0;
#X connect 13 1 14 0;
#X connect 13 2 3 0;
#X connect 13 2 22 0;
#X connect 15 0 9 0;
#X connect 16 0 5 0;
#X connect 17 0 7 0;
#X connect 17 1 5 0;
#X connect 17 2 19 0;
#X connect 19 0 20 0;
#X connect 20 0 21 0;
#X connect 21 0 3 0;
#X connect 22 0 20 0;
#X restore 146 88 pd clearDuckPipe;
#X obj 116 371 change;
#X obj 239 329 expr 1-$f1;
#X msg 152 345 set \$1;
#X obj 187 268 loadbang;
#X msg 187 294 0;
#X connect 0 0 2 0;
#X connect 0 0 3 0;
#X connect 2 0 1 0;
#X connect 3 0 6 0;
#X connect 3 0 7 0;
#X connect 4 0 2 1;
#X connect 5 0 9 1;
#X connect 6 0 8 0;
#X connect 7 0 1 0;
#X connect 8 0 14 0;
#X connect 9 0 1 0;
#X connect 10 0 11 0;
#X connect 10 0 7 1;
#X connect 10 0 15 0;
#X connect 11 0 6 1;
#X connect 12 0 4 0;
#X connect 12 0 3 1;
#X connect 12 0 13 0;
#X connect 13 0 8 0;
#X connect 13 1 10 0;
#X connect 14 0 9 0;
#X connect 15 0 16 0;
#X connect 16 0 14 0;
#X connect 17 0 18 0;
#X connect 18 0 16 0;
#X restore 47 166 pd playLoudDuck;
#N canvas 437 232 592 522 playLoudDuckLive 0;
#X obj 62 123 inlet;
#X obj 62 393 outlet;
#X obj 62 157 spigot;
#X obj 142 139 spigot;
#X obj 95 69 expr 1-$f1;
#X obj 187 351 r \$0-duckfadeInCtl;
#X obj 142 226 spigot;
#X obj 213 226 spigot;
#X msg 142 325 1;
#X obj 142 377 pack f f;
#X obj 265 149 noguitgl;
#X obj 175 165 expr 1-$f1;
#X obj 95 43 r \$0-playLoudDuckCtl;
#N canvas 516 137 377 505 clearDuckPipe 0;
#X obj 101 196 inlet;
#X obj 68 264 spigot;
#X obj 158 302 spigot;
#X obj 158 328 outlet;
#X obj 158 238 spigot;
#X msg 155 186 1;
#X obj 191 162 t b f;
#X msg 191 186 0;
#X obj 191 52 r \$0-ducking;
#X obj 191 110 sel 1;
#X msg 191 136 1;
#X obj 68 84 r \$0-length;
#X obj 68 110 t b b;
#X obj 95 328 outlet;
#X obj 150 94 f;
#X obj 68 290 t b b;
#X msg 251 159 0;
#X connect 0 0 1 1;
#X connect 0 0 2 1;
#X connect 1 0 15 0;
#X connect 2 0 3 0;
#X connect 4 0 2 0;
#X connect 5 0 4 1;
#X connect 6 0 7 0;
#X connect 6 1 4 0;
#X connect 7 0 4 1;
#X connect 8 0 9 0;
#X connect 8 0 14 1;
#X connect 9 0 10 0;
#X connect 9 1 16 0;
#X connect 10 0 6 0;
#X connect 11 0 12 0;
#X connect 12 0 1 0;
#X connect 12 1 5 0;
#X connect 14 0 9 0;
#X connect 15 0 14 0;
#X connect 15 1 13 0;
#X connect 16 0 4 0;
#X restore 172 68 pd clearDuckPipe;
#X obj 142 351 change;
#X obj 265 309 expr 1-$f1;
#X msg 179 325 set \$1;
#X obj 213 249 loadbang;
#X msg 213 275 0;
#X connect 0 0 2 0;
#X connect 0 0 3 0;
#X connect 2 0 1 0;
#X connect 3 0 6 0;
#X connect 3 0 7 0;
#X connect 4 0 2 1;
#X connect 5 0 9 1;
#X connect 6 0 8 0;
#X connect 7 0 1 0;
#X connect 8 0 14 0;
#X connect 9 0 1 0;
#X connect 10 0 11 0;
#X connect 10 0 7 1;
#X connect 10 0 15 0;
#X connect 11 0 6 1;
#X connect 12 0 4 0;
#X connect 12 0 3 1;
#X connect 12 0 13 0;
#X connect 13 0 8 0;
#X connect 13 1 10 0;
#X connect 14 0 9 0;
#X connect 15 0 16 0;
#X connect 16 0 14 0;
#X connect 17 0 18 0;
#X connect 18 0 16 0;
#X restore 161 166 pd playLoudDuckLive;
#X obj 77 85 loadbang;
#X msg 77 111 1 10;
#X connect 1 0 7 0;
#X connect 2 0 5 0;
#X connect 4 0 8 0;
#X connect 5 0 4 0;
#X connect 6 0 5 1;
#X connect 7 0 0 0;
#X connect 8 0 3 0;
#X connect 9 0 10 0;
#X connect 10 0 0 0;
#X restore 141 134 pd overDucking;
#N canvas 797 94 347 479 feedback/recDucking 0;
#X obj 121 396 outlet;
#X obj 121 344 spigot;
#X obj 127 169 pipe;
#N canvas 623 220 331 279 wait_for_it 0;
#X obj 132 66 r \$0-cFOffsetBMs;
#X obj 87 183 +;
#X obj 87 235 outlet;
#X obj 87 66 inlet;
#X obj 87 125 unpack f f;
#X obj 87 209 + 12;
#X obj 87 95 2pack;
#X connect 0 0 6 1;
#X connect 1 0 5 0;
#X connect 3 0 6 0;
#X connect 4 0 1 0;
#X connect 4 1 1 1;
#X connect 5 0 2 0;
#X connect 6 0 4 0;
#X restore 148 143 pd wait_for_it;
#X obj 60 30 r \$0-length;
#X msg 127 105 clear;
#X msg 127 193 1;
#N canvas 815 198 398 324 playLoud 0;
#X obj 228 161 r \$0-playLoudCtl;
#X obj 195 106 r \$0-feedback;
#X obj 145 293 outlet;
#X obj 118 20 inlet;
#X obj 145 227 spigot;
#X obj 195 227 spigot;
#X obj 228 187 expr 1-$f1;
#X obj 79 122 sel 1;
#X obj 46 211 spigot;
#X msg 40 156 1;
#X msg 79 156 0;
#X obj 166 182 f;
#X obj 40 96 f;
#X obj 118 46 t b f;
#X obj 40 122 sel 1;
#X obj 55 70 r \$0-feedback;
#X obj 14 20 r \$0-lengthbang;
#X connect 0 0 6 0;
#X connect 0 0 4 1;
#X connect 1 0 5 0;
#X connect 1 0 7 0;
#X connect 1 0 8 0;
#X connect 1 0 11 1;
#X connect 3 0 13 0;
#X connect 4 0 2 0;
#X connect 5 0 2 0;
#X connect 6 0 5 1;
#X connect 7 0 9 0;
#X connect 8 0 4 0;
#X connect 9 0 8 1;
#X connect 10 0 8 1;
#X connect 11 0 5 0;
#X connect 12 0 14 0;
#X connect 13 0 11 0;
#X connect 13 1 4 0;
#X connect 14 0 9 0;
#X connect 14 1 10 0;
#X connect 15 0 12 1;
#X connect 16 0 12 0;
#X restore 27 234 pd playLoud;
#X obj 60 56 t b f b b;
#X msg 111 285 0;
#X obj 127 218 t f f;
#X obj 121 370 pack f 10;
#X connect 1 0 11 0;
#X connect 2 0 6 0;
#X connect 3 0 2 1;
#X connect 4 0 8 0;
#X connect 5 0 2 0;
#X connect 6 0 10 0;
#X connect 7 0 1 0;
#X connect 8 0 2 0;
#X connect 8 1 3 0;
#X connect 8 2 5 0;
#X connect 8 3 9 0;
#X connect 9 0 1 1;
#X connect 10 0 7 0;
#X connect 10 1 1 1;
#X connect 11 0 0 0;
#X restore 245 196 pd feedback/recDucking;
#X obj 61 201 r~ \$0-overOut;
#N canvas 0 50 450 300 inout 0;
#X obj 143 105 inlet~;
#X obj 143 131 outlet~;
#X connect 0 0 1 0;
#X restore 40 362 pd inout;
#X obj 60 300 catch~ \$0-tapeFromTable;
#N canvas 0 50 450 300 liveFromTable 0;
#N canvas 289 103 568 351 fromTableAuto 0;
#X obj 42 246 outlet~;
#X obj 101 175 tabplay~ \$0-micenvelope;
#X obj 101 108 f;
#X obj 263 192 +;
#X obj 116 82 r \$0-autoMicPre;
#X obj 263 244 s \$0-autoMicPre;
#X obj 42 220 *~;
#X obj 101 56 r \$0-lengthbang;
#X obj 285 56 r \$0-threshLatency;
#X obj 263 30 r \$0-overOffset;
#X obj 101 134 * 44.1;
#X obj 308 82 r \$0-offsetMs;
#N canvas 0 50 351 211 pack3 0;
#X obj 77 30 inlet;
#X obj 105 56 inlet;
#X obj 77 139 outlet;
#X obj 45 98 t b;
#X obj 77 114 pack f f f;
#X obj 134 82 inlet;
#X connect 0 0 4 0;
#X connect 1 0 3 0;
#X connect 1 0 4 1;
#X connect 3 0 4 0;
#X connect 4 0 2 0;
#X connect 5 0 4 2;
#X connect 5 0 3 0;
#X restore 263 108 pd pack3;
#X obj 263 134 unpack f f f;
#X obj 263 218 +;
#X obj 420 56 switch~;
#X obj 41 32 inlet~;
#X obj 420 30 r \$0-autorecCtl;
#X obj 152 130 samplerate~;
#X obj 152 107 loadbang;
#X obj 152 151 / 1000;
#X connect 1 0 6 1;
#X connect 2 0 10 0;
#X connect 3 0 14 0;
#X connect 4 0 2 1;
#X connect 6 0 0 0;
#X connect 7 0 2 0;
#X connect 8 0 12 1;
#X connect 9 0 12 0;
#X connect 10 0 1 0;
#X connect 11 0 12 2;
#X connect 12 0 13 0;
#X connect 13 0 3 0;
#X connect 13 1 3 1;
#X connect 13 2 14 1;
#X connect 14 0 5 0;
#X connect 16 0 6 0;
#X connect 17 0 15 0;
#X connect 18 0 20 0;
#X connect 19 0 18 0;
#X connect 20 0 10 1;
#X restore 55 126 pd fromTableAuto;
#N canvas 597 50 455 316 fromTable 0;
#X obj 42 56 outlet~;
#X obj 108 82 switch~;
#X obj 108 56 expr 1-$f1;
#X obj 42 30 inlet~;
#X obj 108 30 r \$0-autorecCtl;
#X connect 2 0 1 0;
#X connect 3 0 0 0;
#X connect 4 0 2 0;
#X restore 165 126 pd fromTable;
#X obj 56 80 catch~ \$0-liveFromTable;
#X obj 165 172 outlet~;
#X connect 0 0 3 0;
#X connect 1 0 3 0;
#X connect 2 0 0 0;
#X connect 2 0 1 0;
#X restore 60 326 pd liveFromTable;
#X obj 41 492 *~;
#X obj 42 30 tpipe length cFOffsetBMs 12 \$0;
#X text 166 498 This is the main-engine...;
#X obj 356 335 r \$0-latencyKill;
#X obj 141 160 line~;
#X obj 66 466 line~;
#X obj 222 351 line~;
#X obj 235 222 sinfade;
#X connect 0 0 5 0;
#X connect 1 0 13 0;
#X connect 3 0 1 0;
#X connect 5 0 3 0;
#X connect 7 0 26 0;
#X connect 8 0 25 0;
#X connect 9 0 27 0;
#X connect 11 0 0 0;
#X connect 12 0 10 0;
#X connect 12 0 6 0;
#X connect 13 0 17 0;
#X connect 14 0 24 0;
#X connect 14 1 26 0;
#X connect 15 0 27 0;
#X connect 16 0 13 0;
#X connect 17 0 12 0;
#X connect 17 0 4 0;
#X connect 17 0 20 0;
#X connect 18 0 17 0;
#X connect 19 0 17 0;
#X connect 20 0 2 0;
#X connect 21 0 5 0;
#X connect 23 0 26 0;
#X connect 24 0 1 1;
#X connect 25 0 20 1;
#X connect 26 0 12 1;
#X connect 27 0 13 1;
#X restore 396 134 pd delay;
#N canvas 614 50 663 306 record_and_play 0;
#X obj 437 63 t b f;
#X obj 437 115 pack f f;
#X obj 437 89 f \$0;
#N canvas 627 155 320 281 maxTableLength 0;
#X obj 40 154 outlet;
#X obj 40 86 * 2;
#X obj 40 60 r \$0-maxLengthSmpl;
#X obj 90 154 s \$0-maxLengthMs;
#X obj 90 128 / 44.1;
#X obj 40 112 + 2000;
#X obj 162 86 samplerate~;
#X obj 162 63 loadbang;
#X obj 162 107 / 1000;
#X connect 1 0 5 0;
#X connect 2 0 1 0;
#X connect 4 0 3 0;
#X connect 5 0 0 0;
#X connect 5 0 4 0;
#X connect 6 0 8 0;
#X connect 7 0 6 0;
#X connect 8 0 4 1;
#X restore 437 37 pd maxTableLength;
#N canvas 830 215 450 300 start/stop_calc 0;
#X obj 43 13 r \$0-recStart;
#X obj 43 65 timer;
#X obj 80 39 r \$0-recStop;
#X obj 190 39 r \$0-off+cFMs;
#X obj 190 65 + 13;
#X obj 43 91 expr if($f1<$f2 \, -1 \, $f1);
#X obj 43 117 sel -1;
#X obj 156 211 s \$0-delColor;
#X obj 175 185 s \$0-length;
#X obj 195 159 s \$0-lengthbang;
#X obj 156 133 t f f b;
#X obj 76 143 r \$0-length;
#X obj 43 169 f 1000;
#X obj 43 195 s \$0-2shortDelColor;
#X connect 0 0 1 0;
#X connect 1 0 5 0;
#X connect 2 0 1 1;
#X connect 3 0 4 0;
#X connect 4 0 5 1;
#X connect 5 0 6 0;
#X connect 6 0 12 0;
#X connect 6 1 10 0;
#X connect 10 0 7 0;
#X connect 10 1 8 0;
#X connect 10 2 9 0;
#X connect 11 0 12 1;
#X connect 12 0 13 0;
#X restore 44 37 pd start/stop_calc;
#X obj 44 109 timemachine tape fromDelay off+cFOffsetASmpl recStart
\$0;
#X msg 437 141 \; \$1-livea resize \$2 \; \$1-liveb resize \$2 \; \$1-liveRec
resize \$2 \; \$1-tapea resize \$2 \; \$1-tapeb resize \$2 \; \$1-tapeRec
resize \$2 \; \$1-micenvelope resize \$2 \; \$1-maxLengthDone \$2;
#X obj 43 186 player tape cFOffsetBMs off+cFOffsetAMs off+cFOffsetASmpl
\$0;
#X obj 43 160 player live cFOffsetBMs off+cFOffsetAMs off+cFOffsetASmpl
\$0;
#X obj 44 83 timemachine live audioIn cFOffsetASmpl recStart \$0;
#X connect 0 0 2 0;
#X connect 0 1 1 1;
#X connect 1 0 6 0;
#X connect 2 0 1 0;
#X connect 3 0 0 0;
#X restore 396 108 pd record_and_play;
#N canvas 607 50 489 381 graphics 0;
#X obj 58 144 cnv 20 128 60 empty \$0-farbtest empty 20 12 0 14 -24198
-262144 0;
#X floatatom 58 56 5 0 0 0 - - -, f 5;
#X msg -153 56 \; \$1-recBg color 0 \; \$1-overBg color 0 \; \$1-recCanvasDark
color 13 \; \$1-recCanvasLight color 14 \; \$1-overCanvasDark color
16 \; \$1-overCanvasLight color 6 \;;
#X obj -153 30 lbf \$0;
#N canvas 772 220 775 401 volumes 0;
#X obj -121 60 expr (1-$f1)*1;
#X obj 235 61 expr (1-$f1)*1;
#X obj -121 86 * 93;
#X obj 235 88 * 93;
#X obj -121 222 expr (1-$f1)*1;
#X obj 235 222 expr (1-$f1)*1;
#X obj 339 212 * 93;
#N canvas 154 124 916 649 feedback_color 0;
#X msg 178 144 0;
#X obj 259 160 change;
#X msg 259 210 \; \$2-feedbackBaseIn color \$1;
#X obj 178 56 sel 0 1;
#X msg 259 134 10;
#N canvas 0 50 298 231 fade2black 0;
#X obj 44 44 inlet;
#X obj 147 162 outlet;
#X msg 147 86 1;
#X obj 44 70 t b b b;
#X msg 113 112 11;
#X msg 100 146 2;
#X obj 63 96 del 50;
#X obj 44 130 del 100;
#X connect 0 0 3 0;
#X connect 2 0 1 0;
#X connect 3 0 7 0;
#X connect 3 1 6 0;
#X connect 3 2 2 0;
#X connect 4 0 1 0;
#X connect 5 0 1 0;
#X connect 6 0 4 0;
#X connect 7 0 5 0;
#X restore 197 82 pd fade2black;
#X msg 479 245 \; \$2-feedbackCanvasBgIn label feedback:\$1;
#X obj 259 186 pack f \$0;
#X obj 327 145 loadbang;
#X obj 58 56 r \$0-playLoudCtl;
#X obj 25 122 spigot;
#X obj 657 329 r \$0-lengthbang;
#X obj 178 274 sel 0 1;
#X obj 25 30 r \$0-feedback;
#X obj -25 122 spigot;
#X obj 58 96 expr $f1-1;
#X obj 25 148 s \$0-normFeedbColor;
#X obj 529 437 spigot;
#X obj 479 437 spigot;
#X obj 562 411 expr $f1-1;
#X msg 562 371 0;
#X msg 512 371 1;
#X obj 512 319 r \$0-feedback;
#X obj 512 345 sel 1;
#X obj 440 66 r \$0-normFeedbColor;
#X obj 178 30 r \$0-normFeedbColor;
#X obj 178 248 r \$0-normFeedbColor;
#X obj -25 174 s \$0-wait4one;
#X obj 479 293 r \$0-wait4one;
#X obj 529 463 s \$0-loudFeedbColor;
#X obj 450 92 r \$0-loudFeedbColor;
#X obj 304 258 r \$0-loudFeedbColor;
#X obj 351 581 s \$0-normFeedbColor;
#X obj 440 118 sel 0 1;
#X obj 446 555 spigot;
#X obj 479 463 t b b;
#X msg 479 529 0;
#X obj 657 355 t b b;
#X msg 516 529 1;
#X obj 684 381 f;
#X obj 709 355 r \$0-feedback;
#X obj 684 405 sel 1;
#X obj 711 513 t b;
#N canvas 0 50 338 402 metro 0;
#X obj 101 30 inlet;
#X obj 56 30 inlet;
#X msg 83 107 stop;
#X obj 40 195 sel 0 1;
#X msg 77 229 10;
#X msg 40 229 0;
#X msg 137 153 1;
#X obj 40 143 metro 200;
#X obj 40 282 change;
#X msg 40 334 \; \$2-feedbackBaseIn color \$1;
#X obj 40 308 pack f \$0;
#X msg 40 107 bang;
#X obj 56 56 t b b;
#X obj 40 169 noguitgl;
#X connect 0 0 11 0;
#X connect 1 0 12 0;
#X connect 2 0 7 0;
#X connect 3 0 5 0;
#X connect 3 1 4 0;
#X connect 4 0 8 0;
#X connect 5 0 8 0;
#X connect 6 0 13 0;
#X connect 7 0 13 0;
#X connect 8 0 10 0;
#X connect 10 0 9 0;
#X connect 11 0 7 0;
#X connect 12 0 6 0;
#X connect 12 1 2 0;
#X connect 13 0 3 0;
#X restore 666 571 pd metro;
#X obj 744 461 r \$0-playLoudCtl;
#X obj 711 487 spigot;
#X msg 327 170 0;
#X obj 479 170 i;
#X obj 479 222 pack f \$0;
#X obj 479 144 * 100;
#X obj 197 300 f \$0;
#X msg 197 326 \; \$1-feedbackCanvasBgIn label feedback:100;
#X obj 479 196 max 0;
#X obj 178 365 f \$0;
#X msg 178 390 \; \$1-feedbackCanvasBgIn label feedback:0;
#X connect 0 0 1 0;
#X connect 1 0 7 0;
#X connect 3 0 0 0;
#X connect 3 1 5 0;
#X connect 4 0 1 0;
#X connect 5 0 1 0;
#X connect 7 0 2 0;
#X connect 8 0 46 0;
#X connect 9 0 15 0;
#X connect 9 0 14 1;
#X connect 10 0 16 0;
#X connect 11 0 37 0;
#X connect 12 0 53 0;
#X connect 12 1 50 0;
#X connect 13 0 10 0;
#X connect 13 0 14 0;
#X connect 14 0 27 0;
#X connect 15 0 10 1;
#X connect 17 0 29 0;
#X connect 18 0 35 0;
#X connect 18 0 32 0;
#X connect 19 0 17 1;
#X connect 20 0 19 0;
#X connect 20 0 18 1;
#X connect 21 0 19 0;
#X connect 21 0 18 1;
#X connect 22 0 23 0;
#X connect 23 0 21 0;
#X connect 24 0 33 0;
#X connect 25 0 3 0;
#X connect 26 0 12 0;
#X connect 28 0 18 0;
#X connect 28 0 17 0;
#X connect 30 0 33 0;
#X connect 31 0 12 0;
#X connect 33 2 4 0;
#X connect 33 2 49 0;
#X connect 34 0 43 0;
#X connect 35 0 36 0;
#X connect 35 1 34 0;
#X connect 36 0 34 1;
#X connect 37 0 20 0;
#X connect 37 1 39 0;
#X connect 38 0 34 1;
#X connect 39 0 41 0;
#X connect 40 0 39 1;
#X connect 41 0 36 0;
#X connect 41 1 45 0;
#X connect 42 0 38 0;
#X connect 42 0 43 1;
#X connect 44 0 45 1;
#X connect 45 0 42 0;
#X connect 46 0 7 0;
#X connect 47 0 52 0;
#X connect 48 0 6 0;
#X connect 49 0 47 0;
#X connect 50 0 51 0;
#X connect 52 0 48 0;
#X connect 53 0 54 0;
#X restore -29 34 pd feedback_color;
#X obj -121 34 r \$0-feedback;
#X obj -121 112 pack f \$0;
#X obj -121 196 r \$0-feedback;
#X obj -121 275 pack f \$0;
#X obj -17 237 pack f \$0;
#X obj 235 35 r \$0-ducking;
#X obj 235 112 pack f \$0;
#X obj 235 196 r \$0-ducking;
#X obj 235 275 pack f \$0;
#X obj 339 238 pack f \$0;
#N canvas 547 63 916 649 ducking_color 0;
#X msg 178 144 0;
#X obj 259 160 change;
#X obj 178 56 sel 0 1;
#X msg 259 134 10;
#N canvas 0 50 298 231 fade2black 0;
#X obj 44 44 inlet;
#X obj 147 162 outlet;
#X msg 147 86 1;
#X obj 44 70 t b b b;
#X msg 113 112 11;
#X msg 100 146 2;
#X obj 63 96 del 50;
#X obj 44 130 del 100;
#X connect 0 0 3 0;
#X connect 2 0 1 0;
#X connect 3 0 7 0;
#X connect 3 1 6 0;
#X connect 3 2 2 0;
#X connect 4 0 1 0;
#X connect 5 0 1 0;
#X connect 6 0 4 0;
#X connect 7 0 5 0;
#X restore 197 82 pd fade2black;
#X obj 259 186 pack f \$0;
#X obj 25 122 spigot;
#X obj 657 329 r \$0-lengthbang;
#X obj 178 274 sel 0 1;
#X obj -25 122 spigot;
#X obj 58 96 expr $f1-1;
#X obj 529 437 spigot;
#X obj 479 437 spigot;
#X obj 562 411 expr $f1-1;
#X msg 562 371 0;
#X msg 512 371 1;
#X obj 512 345 sel 1;
#X obj 440 118 sel 0 1;
#X obj 446 555 spigot;
#X obj 479 463 t b b;
#X msg 479 529 0;
#X obj 657 355 t b b;
#X msg 516 529 1;
#X obj 684 381 f;
#X obj 684 405 sel 1;
#X obj 711 513 t b;
#N canvas 0 50 338 402 metro 0;
#X obj 101 30 inlet;
#X obj 56 30 inlet;
#X msg 83 107 stop;
#X obj 40 195 sel 0 1;
#X msg 77 229 10;
#X msg 40 229 0;
#X msg 137 153 1;
#X obj 40 143 metro 200;
#X obj 40 282 change;
#X obj 40 308 pack f \$0;
#X msg 40 107 bang;
#X obj 56 56 t b b;
#X obj 40 169 noguitgl;
#X msg 40 334 \; \$2-duckingBaseIn color \$1;
#X connect 0 0 10 0;
#X connect 1 0 11 0;
#X connect 2 0 7 0;
#X connect 3 0 5 0;
#X connect 3 1 4 0;
#X connect 4 0 8 0;
#X connect 5 0 8 0;
#X connect 6 0 12 0;
#X connect 7 0 12 0;
#X connect 8 0 9 0;
#X connect 9 0 13 0;
#X connect 10 0 7 0;
#X connect 11 0 6 0;
#X connect 11 1 2 0;
#X connect 12 0 3 0;
#X restore 666 571 pd metro;
#X obj 711 487 spigot;
#X obj 58 56 r \$0-playLoudDuckCtl;
#X obj 178 30 r \$0-normDuckColor;
#X obj 440 66 r \$0-normDuckColor;
#X obj 449 92 r \$0-loudDuckColor;
#X obj 25 30 r \$0-ducking;
#X obj -25 174 s \$0-wait4oneDuck;
#X obj 479 293 r \$0-wait4oneDuck;
#X msg 259 210 \; \$2-duckingBaseIn color \$1;
#X obj 304 258 r \$0-loudDuckColor;
#X msg 479 245 \; \$2-duckingCanvasBgIn label ducking:\$1;
#X obj 512 319 r \$0-ducking;
#X obj 709 355 r \$0-ducking;
#X obj 744 461 r \$0-playLoudDuckCtl;
#X obj 529 463 s \$0-loudDuckColor;
#X obj 178 248 r \$0-normDuckColor;
#X obj 351 581 s \$0-normDuckColor;
#X obj 25 148 s \$0-normDuckColor;
#X obj 327 145 loadbang;
#X msg 327 170 0;
#X obj 197 300 f \$0;
#X obj 178 364 f \$0;
#X obj 479 170 i;
#X obj 479 222 pack f \$0;
#X obj 479 144 * 100;
#X obj 479 196 max 0;
#X msg 197 326 \; \$1-duckingCanvasBgIn label ducking:100;
#X msg 179 391 \; \$1-duckingCanvasBgIn label ducking:0;
#X connect 0 0 1 0;
#X connect 1 0 5 0;
#X connect 2 0 0 0;
#X connect 2 1 4 0;
#X connect 3 0 1 0;
#X connect 4 0 1 0;
#X connect 5 0 35 0;
#X connect 6 0 44 0;
#X connect 7 0 21 0;
#X connect 8 0 48 0;
#X connect 8 1 47 0;
#X connect 9 0 33 0;
#X connect 10 0 6 1;
#X connect 11 0 41 0;
#X connect 12 0 19 0;
#X connect 12 0 43 0;
#X connect 13 0 11 1;
#X connect 14 0 13 0;
#X connect 14 0 12 1;
#X connect 15 0 13 0;
#X connect 15 0 12 1;
#X connect 16 0 15 0;
#X connect 17 2 3 0;
#X connect 17 2 51 0;
#X connect 18 0 26 0;
#X connect 19 0 20 0;
#X connect 19 1 18 0;
#X connect 20 0 18 1;
#X connect 21 0 14 0;
#X connect 21 1 23 0;
#X connect 22 0 18 1;
#X connect 23 0 24 0;
#X connect 24 0 20 0;
#X connect 24 1 27 0;
#X connect 25 0 22 0;
#X connect 25 0 26 1;
#X connect 27 0 25 0;
#X connect 28 0 10 0;
#X connect 28 0 9 1;
#X connect 29 0 2 0;
#X connect 30 0 17 0;
#X connect 31 0 17 0;
#X connect 32 0 6 0;
#X connect 32 0 9 0;
#X connect 34 0 12 0;
#X connect 34 0 11 0;
#X connect 36 0 8 0;
#X connect 38 0 16 0;
#X connect 39 0 23 1;
#X connect 40 0 27 1;
#X connect 42 0 8 0;
#X connect 45 0 46 0;
#X connect 46 0 5 0;
#X connect 47 0 53 0;
#X connect 48 0 54 0;
#X connect 49 0 52 0;
#X connect 50 0 37 0;
#X connect 51 0 49 0;
#X connect 52 0 50 0;
#X restore 321 35 pd ducking_color;
#X obj -17 212 * 93;
#X msg -17 263 \; \$2-feedbackCanvasBgIn vis_size 144 \$1;
#X msg -121 138 \; \$2-feedbackCanvasIn vis_size 164 \$1;
#X msg 235 138 \; \$2-duckingCanvasIn vis_size 164 \$1;
#X msg 339 264 \; \$2-duckingCanvasBgIn vis_size 144 \$1;
#X msg -121 302 \; \$2-feedbackCanvasBgIn pos 11 \$1;
#X obj -121 248 expr $f1*93+134;
#X obj 235 249 expr $f1*93+134;
#X msg 235 301 \; \$2-duckingCanvasBgIn pos 216 \$1;
#X connect 0 0 2 0;
#X connect 1 0 3 0;
#X connect 2 0 9 0;
#X connect 3 0 14 0;
#X connect 4 0 25 0;
#X connect 5 0 26 0;
#X connect 6 0 17 0;
#X connect 8 0 0 0;
#X connect 9 0 21 0;
#X connect 10 0 4 0;
#X connect 10 0 19 0;
#X connect 11 0 24 0;
#X connect 12 0 20 0;
#X connect 13 0 1 0;
#X connect 14 0 22 0;
#X connect 15 0 5 0;
#X connect 15 0 6 0;
#X connect 16 0 27 0;
#X connect 17 0 23 0;
#X connect 19 0 12 0;
#X connect 25 0 11 0;
#X connect 26 0 16 0;
#X restore -153 190 pd volumes;
#N canvas 0 50 341 269 mono/stereo 0;
#X obj 42 30 r \$0-stereoOutCtl;
#X obj 42 179 pack s \$0;
#X obj 42 56 sel 0 1;
#X msg 42 82 symbol mono;
#X msg 97 108 symbol stereo;
#X msg 42 205 \; \$2-monoStereoCanvasIn label \$1;
#X connect 0 0 2 0;
#X connect 1 0 5 0;
#X connect 2 0 3 0;
#X connect 2 1 4 0;
#X connect 3 0 1 0;
#X connect 4 0 1 0;
#X restore -153 216 pd mono/stereo;
#N canvas 75 50 713 354 thresh_test 0;
#X obj 206 130 r \$0-threshtestOn;
#X obj 406 130 r \$0-threshtestOff;
#X obj 170 234 pack f \$0;
#X obj -41 135 pack f \$0;
#X msg -41 82 16;
#X msg -41 161 \; \$2-threshOverCanvasIn color \$1;
#X obj 206 156 del 75;
#X msg 206 182 10;
#X msg -4 82 10;
#X msg 170 260 \; \$2-threshOnCanvasIn color \$1 0;
#X msg 370 260 \; \$2-threshOffCanvasIn color \$1 0;
#X msg 170 182 2;
#X obj 306 42 r \$0-autooverCtl;
#X obj 306 66 t b;
#X obj 370 234 pack f \$0;
#X obj 406 156 del 75;
#X msg 406 182 10;
#X msg 370 182 2;
#X obj -41 30 r \$0-threshtestOn;
#X obj 6 56 r \$0-threshtestOff;
#X obj 428 43 r \$0-showtestCtl;
#X text 447 68 ???;
#X connect 0 0 11 0;
#X connect 0 0 6 0;
#X connect 1 0 17 0;
#X connect 1 0 15 0;
#X connect 2 0 9 0;
#X connect 3 0 5 0;
#X connect 4 0 3 0;
#X connect 6 0 7 0;
#X connect 7 0 2 0;
#X connect 8 0 3 0;
#X connect 11 0 2 0;
#X connect 12 0 13 0;
#X connect 13 0 7 0;
#X connect 13 0 8 0;
#X connect 13 0 16 0;
#X connect 14 0 10 0;
#X connect 15 0 16 0;
#X connect 16 0 14 0;
#X connect 17 0 14 0;
#X connect 18 0 4 0;
#X connect 19 0 8 0;
#X restore -153 242 pd thresh_test;
#X obj 58 79 pack f \$0;
#X msg 58 105 \; \$2-farbtest color \$1;
#N canvas 702 80 343 265 rec/over_buttons 0;
#X obj -123 152 list prepend \$0;
#N canvas 620 419 377 274 rec 0;
#X obj -147 135 outlet;
#X obj -147 57 sel 0 1;
#X msg -147 109 rec rec 13 0;
#X msg -128 83 rec rec 0 13;
#X obj -147 31 r \$0-recColor;
#X connect 1 0 2 0;
#X connect 1 1 3 0;
#X connect 2 0 0 0;
#X connect 3 0 0 0;
#X connect 4 0 1 0;
#X restore -123 30 pd rec;
#N canvas 688 216 377 274 over 0;
#X obj -107 135 outlet;
#X obj -107 57 sel 0 1;
#X msg -107 109 over over 16 0;
#X msg -88 83 over over 0 16;
#X obj -107 31 r \$0-overColor;
#X obj -57 186 pack f \$0;
#X msg -57 135 0;
#X msg -22 135 16;
#X msg -57 212 \; \$2-overBackBg color \$1 0;
#X connect 1 0 2 0;
#X connect 1 0 6 0;
#X connect 1 1 3 0;
#X connect 1 1 7 0;
#X connect 2 0 0 0;
#X connect 3 0 0 0;
#X connect 4 0 1 0;
#X connect 5 0 8 0;
#X connect 6 0 5 0;
#X connect 7 0 5 0;
#X restore -73 30 pd over;
#X obj -123 96 route rec over;
#X msg -123 177 \; \$1-\$2CanvasDark color \$3 \; \$1-\$2Bg color \$4
;
#X connect 0 0 4 0;
#X connect 1 0 3 0;
#X connect 2 0 3 0;
#X connect 3 0 0 0;
#X connect 3 1 0 0;
#X restore -153 164 pd rec/over_buttons;
#N canvas 712 153 637 419 delay 0;
#X obj 41 130 pack f \$0;
#X obj 63 92 i;
#X obj 41 220 r \$0-newDel;
#X obj 41 294 del 500;
#X obj 121 310 f \$0;
#X obj 121 220 loadbang;
#X obj 63 66 r \$0-delColor;
#X msg 121 336 \; \$1-delNowCanvas color 0 22;
#X msg 131 272 \; \$1-delNowCanvas color 0 22;
#X obj 131 246 f \$0;
#X msg 41 158 \; \$2-delNowCanvas label delay:\$1 \; \$2-delNowCanvas
color 0 13 \; \$2-newDel bang;
#N canvas 877 86 358 394 blink_while_recording 0;
#X obj 92 270 outlet;
#X obj 65 122 r \$0-recStart;
#X obj 119 148 r \$0-recStop;
#X obj 119 218 metro 50;
#X msg 119 174 stop;
#X obj 92 244 timer;
#X obj 65 148 t b b;
#X connect 1 0 6 0;
#X connect 2 0 4 0;
#X connect 3 0 5 1;
#X connect 4 0 3 0;
#X connect 5 0 0 0;
#X connect 6 0 3 0;
#X connect 6 1 5 0;
#X restore 41 30 pd blink_while_recording;
#X obj 246 80 r \$0-2shortDelColor;
#X obj 246 132 pack f \$0;
#X obj 246 106 i;
#X msg 246 158 \; \$2-delNowCanvas label delay:\$1...(too_short) \;
\$2-delNowCanvas color 0 0 \; \$2-newDel bang;
#X connect 0 0 10 0;
#X connect 1 0 0 0;
#X connect 2 0 3 0;
#X connect 3 0 4 0;
#X connect 4 0 7 0;
#X connect 5 0 4 0;
#X connect 5 0 9 0;
#X connect 6 0 1 0;
#X connect 9 0 8 0;
#X connect 11 0 0 0;
#X connect 12 0 14 0;
#X connect 13 0 15 0;
#X connect 14 0 13 0;
#X restore -153 268 pd delay;
#N canvas 266 50 494 583 record2disk 0;
#X obj 41 14 r \$0-record2diskColor;
#X obj 41 40 sel 0 1;
#X obj 138 150 metro 250;
#X obj 41 289 sel 1 0;
#X obj 80 325 f \$0;
#X obj 41 108 t b b;
#X msg 41 134 0;
#X msg 78 134 0;
#X msg 41 82 bang;
#X obj 41 263 noguitgl;
#X msg 80 353 \; \$1-record2diskCanvasIn label recording \; \$1-record2diskCanvasIn
color 0 11;
#X obj 41 403 pack f \$0;
#X msg 41 429 \; \$2-record2diskCanvasIn label recording_loop_nr\$1!!!
\; \$2-record2diskCanvasIn color 13 22;
#X obj 41 325 f;
#N canvas 692 107 328 295 loopNr 0;
#X obj 63 95 + 1;
#X obj 659 329 r \$0-copyCountA;
#X obj 63 42 inlet;
#X obj 63 121 outlet;
#X obj 63 69 readtxt loopNr.txt;
#X connect 0 0 3 0;
#X connect 2 0 4 0;
#X connect 4 0 0 0;
#X restore 113 252 pd loopNr;
#X obj 86 82 t b b;
#X connect 0 0 1 0;
#X connect 1 0 8 0;
#X connect 1 1 15 0;
#X connect 2 0 9 0;
#X connect 3 0 13 0;
#X connect 3 1 4 0;
#X connect 4 0 10 0;
#X connect 5 0 6 0;
#X connect 5 1 7 0;
#X connect 6 0 9 0;
#X connect 7 0 2 0;
#X connect 8 0 5 0;
#X connect 9 0 3 0;
#X connect 11 0 12 0;
#X connect 13 0 11 0;
#X connect 14 0 13 1;
#X connect 15 0 2 0;
#X connect 15 1 14 0;
#X restore -153 294 pd record2disk;
#N canvas 925 192 647 445 theme 0;
#X obj 204 166 pack f f \$0;
#X obj 204 124 unpack f f;
#X msg 426 107 21 0;
#X msg 465 107 1 12;
#X obj 204 98 2pack;
#X obj 113 250 s \$0-settingsColor;
#X obj 113 224 pack f f;
#X obj 465 81 r \$0-themeLightCtl;
#X obj 247 39 r \$0-themeBackCtl;
#X obj 247 82 r \$0-themeFontCtl;
#X obj 426 55 r \$0-themeDarkCtl;
#X msg 204 192 \; \$3-settingsBg color \$1 \$2 \; \$3-loadMeterCanvasIn
color \$1 \$2 \; \$3-settingsFont color \$2 \$2;
#X obj 426 133 unpack f f;
#X obj 426 185 s \$0-themeBackCtlIn;
#X obj 483 159 s \$0-themeFontCtlIn;
#X connect 0 0 11 0;
#X connect 1 0 0 0;
#X connect 1 0 6 0;
#X connect 1 1 0 1;
#X connect 1 1 6 1;
#X connect 2 0 12 0;
#X connect 3 0 12 0;
#X connect 4 0 1 0;
#X connect 6 0 5 0;
#X connect 7 0 3 0;
#X connect 8 0 4 0;
#X connect 9 0 4 1;
#X connect 10 0 2 0;
#X connect 12 0 13 0;
#X connect 12 1 14 0;
#X restore -153 320 pd theme;
#N canvas 0 50 450 300 autoover 0;
#X obj 41 30 r \$0-autooverCtl;
#X obj 41 56 pipe 10;
#X obj 41 82 sel 0 1;
#X obj 41 168 f \$0;
#X obj 80 118 f \$0;
#X msg 41 194 \; \$1-autooverCanvasIn color 0 11 \; \$1-autooverCanvas2In
color 0 22;
#X msg 80 144 \; \$1-autooverCanvasIn color 16 22 \; \$1-autooverCanvas2In
color 16 22;
#X connect 0 0 1 0;
#X connect 1 0 2 0;
#X connect 2 0 3 0;
#X connect 2 1 4 0;
#X connect 3 0 5 0;
#X connect 4 0 6 0;
#X restore -153 346 pd autoover;
#X connect 1 0 7 0;
#X connect 3 0 2 0;
#X connect 7 0 8 0;
#X restore 251 160 pd graphics;
#N canvas 325 248 869 488 midi_receive 0;
#X obj 485 52 expr $f1/127;
#X obj 335 52 expr $f1/127;
#X obj 335 109 s \$0-ducking;
#X obj 485 161 s \$0-feedback;
#X obj 38 313 s \$0-recStart;
#X obj 57 287 s \$0-recStop;
#X obj 38 261 sel 1 0;
#X obj 185 364 s \$0-overColor;
#X obj 19 157 sel 127;
#X obj 212 338 s \$0-over;
#X obj 485 109 t f b;
#X obj 512 135 s \$0-feedbackPre;
#X obj 58 235 s \$0-recState;
#X obj 485 26 r \$0-feedback_ctl;
#X obj 211 153 r \$0-over_ctl;
#X obj 335 26 r \$0-ducking_ctl;
#X obj 31 342 s \$0-recColor;
#X obj 345 265 s \$0-record2diskColor;
#X obj 335 291 sel 0 1;
#X obj 354 317 s \$0-record2diskStart;
#X obj 335 343 s \$0-record2diskStop;
#N canvas 802 176 478 332 key_feedback 0;
#X obj 233 30 r \$0-feedback+_ctl;
#X obj 43 30 r \$0-feedback-_ctl;
#X obj 68 165 r \$0-feedback;
#X obj 43 191 f;
#X obj 233 295 s \$0-feedback;
#X obj 43 56 sel 127 0;
#X msg 68 82 0;
#X obj 258 165 r \$0-feedback;
#X obj 233 191 f;
#X obj 233 56 sel 127 0;
#X msg 258 82 0;
#X obj 233 269 change;
#X obj 43 253 max 0;
#X obj 233 243 min 1;
#X obj 298 124 line;
#X msg 298 82 60;
#X obj 108 124 line;
#X msg 108 82 60;
#X obj 43 140 metro 60;
#X obj 233 140 metro 60;
#X obj 168 30 loadbang;
#X obj 43 217 expr if ($f1>0 \, $f1-0.01 \, 0);
#X obj 233 217 expr if ($f1<1 \, $f1+0.01 \, 1);
#X msg 66 108 3 200;
#X msg 257 108 3 200;
#X connect 0 0 9 0;
#X connect 1 0 5 0;
#X connect 2 0 3 1;
#X connect 3 0 21 0;
#X connect 5 0 23 0;
#X connect 5 0 18 0;
#X connect 5 1 6 0;
#X connect 5 1 17 0;
#X connect 6 0 18 0;
#X connect 7 0 8 1;
#X connect 8 0 22 0;
#X connect 9 0 24 0;
#X connect 9 0 19 0;
#X connect 9 1 10 0;
#X connect 9 1 15 0;
#X connect 10 0 19 0;
#X connect 11 0 4 0;
#X connect 12 0 11 0;
#X connect 13 0 11 0;
#X connect 14 0 19 1;
#X connect 15 0 14 0;
#X connect 16 0 18 1;
#X connect 17 0 16 0;
#X connect 18 0 3 0;
#X connect 19 0 8 0;
#X connect 20 0 17 0;
#X connect 20 0 15 0;
#X connect 21 0 12 0;
#X connect 22 0 13 0;
#X connect 23 0 16 0;
#X connect 24 0 14 0;
#X restore 651 26 pd key_feedback;
#N canvas 567 230 478 385 key_over 0;
#X obj 42 191 f;
#X obj 42 56 sel 127 0;
#X msg 67 82 0;
#X obj 232 191 f;
#X obj 232 56 sel 127 0;
#X msg 257 82 0;
#X obj 42 30 r \$0-ducking-_ctl;
#X obj 232 30 r \$0-ducking+_ctl;
#X obj 257 165 r \$0-ducking;
#X obj 67 165 r \$0-ducking;
#X obj 232 293 s \$0-ducking;
#X obj 232 267 change;
#X obj 298 124 line;
#X msg 298 82 60;
#X obj 232 140 metro 60;
#X obj 42 140 metro 60;
#X obj 42 217 expr if ($f1>0 \, $f1-0.01 \, 0);
#X obj 232 217 expr if ($f1<1 \, $f1+0.01 \, 1);
#X obj 108 124 line;
#X msg 108 82 60;
#X obj 168 30 loadbang;
#X msg 68 108 3 200;
#X msg 258 108 3 200;
#X connect 0 0 16 0;
#X connect 1 0 15 0;
#X connect 1 0 21 0;
#X connect 1 1 2 0;
#X connect 1 1 19 0;
#X connect 2 0 15 0;
#X connect 3 0 17 0;
#X connect 4 0 22 0;
#X connect 4 0 14 0;
#X connect 4 1 5 0;
#X connect 4 1 13 0;
#X connect 5 0 14 0;
#X connect 6 0 1 0;
#X connect 7 0 4 0;
#X connect 8 0 3 1;
#X connect 9 0 0 1;
#X connect 11 0 10 0;
#X connect 12 0 14 1;
#X connect 13 0 12 0;
#X connect 14 0 3 0;
#X connect 15 0 0 0;
#X connect 16 0 11 0;
#X connect 17 0 11 0;
#X connect 18 0 15 1;
#X connect 19 0 18 0;
#X connect 20 0 19 0;
#X connect 20 0 13 0;
#X connect 21 0 18 0;
#X connect 22 0 12 0;
#X restore 651 52 pd key_over;
#X obj 19 209 t f f f;
#X obj 515 288 line;
#X obj 525 314 s \$0-ducking;
#X obj 515 340 s \$0-feedback;
#X obj 185 312 t f f;
#X obj 19 365 s \$0-recStateLate;
#X obj 222 233 r \$0-automatic;
#X obj 185 286 noguitgl;
#X obj 335 239 noguitgl;
#X obj 19 183 noguitgl;
#X obj 335 213 r \$0-rec2diskCtl;
#X obj 651 114 t b;
#X obj 651 140 s \$0-rec2diskCtl;
#X obj 651 88 r \$0-hradio2recCtl;
#X obj 515 212 loadbang;
#X obj 148 205 sel 127 0;
#X msg 148 233 1;
#X msg 185 233 0;
#X msg 515 264 1 750;
#N canvas 130 72 358 292 recFirst 0;
#X obj 56 176 spigot;
#X obj 99 150 change;
#X msg 89 124 1;
#X obj 89 72 + 1;
#X obj 42 56 f 1;
#X obj 89 98 sel 4;
#X obj 42 30 inlet;
#X obj 56 150 inlet;
#X obj 56 202 outlet;
#X connect 0 0 8 0;
#X connect 1 0 0 1;
#X connect 2 0 1 0;
#X connect 3 0 4 1;
#X connect 3 0 5 0;
#X connect 4 0 3 0;
#X connect 5 0 2 0;
#X connect 6 0 4 0;
#X connect 7 0 0 0;
#X restore 148 179 pd recFirst;
#X obj 515 238 del 1000;
#X obj 655 263 s \$0-autooverCtl;
#X obj 655 184 r \$0-auto-over_ctl;
#X obj 655 237 noguitgl;
#X obj 655 211 sel 127;
#X obj 19 131 r \$0-rec_ctl;
#X obj 8 77 r recBtn;
#X obj 101 103 bng 15 250 50 0 empty empty empty 17 7 0 10 -262144
-1 -1;
#X obj 9 102 change 127;
#X obj 269 98 bng 15 250 50 0 empty empty empty 17 7 0 10 -262144 -1
-1;
#X obj 190 105 change 127;
#X obj 193 80 r overBtn;
#X obj 506 85 r feedbackValue;
#X obj 341 83 r duckingValue;
#X connect 0 0 10 0;
#X connect 1 0 2 0;
#X connect 6 0 4 0;
#X connect 6 1 5 0;
#X connect 8 0 32 0;
#X connect 8 0 42 0;
#X connect 10 0 3 0;
#X connect 10 1 11 0;
#X connect 13 0 0 0;
#X connect 14 0 42 1;
#X connect 15 0 1 0;
#X connect 18 0 20 0;
#X connect 18 1 19 0;
#X connect 23 0 16 0;
#X connect 23 0 28 0;
#X connect 23 1 6 0;
#X connect 23 2 12 0;
#X connect 24 0 26 0;
#X connect 24 0 25 0;
#X connect 27 0 7 0;
#X connect 27 1 9 0;
#X connect 29 0 30 0;
#X connect 30 0 27 0;
#X connect 31 0 17 0;
#X connect 31 0 18 0;
#X connect 32 0 23 0;
#X connect 33 0 31 0;
#X connect 34 0 35 0;
#X connect 36 0 34 0;
#X connect 37 0 43 0;
#X connect 38 0 39 0;
#X connect 38 1 40 0;
#X connect 39 0 30 0;
#X connect 40 0 30 0;
#X connect 41 0 24 0;
#X connect 42 0 38 0;
#X connect 43 0 41 0;
#X connect 45 0 47 0;
#X connect 46 0 44 0;
#X connect 47 0 46 0;
#X connect 48 0 8 0;
#X connect 49 0 50 0;
#X connect 49 0 51 0;
#X connect 51 0 8 0;
#X connect 53 0 42 1;
#X connect 54 0 52 0;
#X connect 54 0 53 0;
#X connect 55 0 10 0;
#X connect 56 0 2 0;
#X restore 251 108 pd midi_receive;
#N canvas 667 50 350 130 audio 0;
#N canvas 356 401 843 302 input_and_output 0;
#X msg 66 134 \; pd-\$2-audioInput clear \; pd-\$2-audioInput obj 0
0 adc~ \$1 \; pd-\$2-audioInput obj 0 30 outlet~ \; pd-\$2-audioInput
connect 0 0 1 0 \; pd-\$2-audioHome connect 0 0 1 0 \;;
#X msg 330 134 \; pd-\$2-audioOutput clear \; pd-\$2-audioOutput obj
0 0 inlet~ \; pd-\$2-audioOutput obj 0 30 dac~ \$1 \; pd-\$2-audioOutput
connect 0 0 1 0 \; pd-\$2-audioHome connect 2 0 3 0 \;;
#X obj 66 42 r \$0-audioInputCtl;
#X obj 330 42 r \$0-audioOutputCtl;
#N canvas 21 280 450 300 \$0-audioHome 0;
#N canvas 505 50 450 300 \$0-audioInput 0;
#X obj 0 0 adc~ 1;
#X obj 0 30 outlet~;
#X connect 0 0 1 0;
#X restore 62 50 pd \$0-audioInput;
#X obj 61 164 s~ \$0-audioIn;
#X obj 182 102 *~ 0;
#N canvas 6 241 450 300 \$0-audioOutput 0;
#X obj 0 0 inlet~;
#X obj 0 30 dac~ 1;
#X connect 0 0 1 0;
#X restore 182 164 pd \$0-audioOutput;
#N canvas 0 50 450 300 \$0-audioOutputR 0;
#X obj 0 0 inlet~;
#X obj 0 30 dac~ 2;
#X connect 0 0 1 0;
#X restore 202 138 pd \$0-audioOutputR;
#X obj 213 76 r \$0-outlevel;
#X obj 182 50 catch~ \$0-audioDone;
#X connect 0 0 1 0;
#X connect 2 0 3 0;
#X connect 2 0 4 0;
#X connect 5 0 2 1;
#X connect 6 0 2 0;
#X restore 66 230 pd \$0-audioHome;
#X obj 675 42 r \$0-stereoOutCtl;
#X msg 570 134 \; pd-\$2-audioOutputR clear \; pd-\$2-audioOutputR
obj 0 0 inlet~ \; pd-\$2-audioOutputR obj 0 30 dac~ \$1 \; pd-\$2-audioOutputR
connect 0 0 1 0 \; pd-\$2-audioHome connect 2 0 4 0 \;;
#N canvas 1123 188 450 300 pair_check 0;
#X obj 157 16 inlet;
#X obj 141 247 outlet;
#X obj 127 116 spigot;
#X obj 245 86 spigot;
#X obj 278 9 r \$0-stereoOutCtl;
#X obj 278 59 expr 1-$f1;
#N canvas 0 50 331 345 stereo_pairs 0;
#X msg 137 111 3;
#X msg 172 114 5;
#X msg 203 114 7;
#X msg 108 111 1;
#X obj 108 75 sel 1 2 3 4;
#X obj 210 240 + 1;
#X obj 108 27 inlet;
#X obj 108 51 min 4;
#X obj 131 256 outlet;
#X connect 0 0 8 0;
#X connect 1 0 8 0;
#X connect 2 0 8 0;
#X connect 3 0 8 0;
#X connect 4 0 3 0;
#X connect 4 1 0 0;
#X connect 4 2 1 0;
#X connect 4 3 2 0;
#X connect 4 4 5 0;
#X connect 5 0 8 0;
#X connect 6 0 7 0;
#X connect 7 0 4 0;
#X restore 127 143 pd stereo_pairs;
#X obj 57 32 f;
#X obj 57 58 sel 1 3 5 7;
#X obj 226 38 t b f;
#X obj 120 83 - 1;
#X obj 196 72 loadbang;
#X msg 193 103 1;
#X connect 0 0 2 0;
#X connect 0 0 3 0;
#X connect 0 0 7 1;
#X connect 2 0 6 0;
#X connect 3 0 1 0;
#X connect 4 0 5 0;
#X connect 4 0 9 0;
#X connect 5 0 3 1;
#X connect 6 0 1 0;
#X connect 7 0 8 0;
#X connect 8 4 10 0;
#X connect 9 0 7 0;
#X connect 9 1 2 1;
#X connect 10 0 2 0;
#X connect 11 0 12 0;
#X connect 12 0 2 1;
#X restore 330 66 pd pair_check;
#N canvas 815 254 677 463 outputRight 0;
#X obj 55 53 inlet;
#X obj 205 32 inlet;
#X obj 172 196 outlet;
#X obj 205 58 t f f;
#X obj 251 74 sel 0 1;
#X obj 406 227 f \$0;
#X obj 406 201 del 1;
#X msg 406 253 \; pd-\$1-audioOutputR clear;
#X obj 138 69 + 1;
#X obj 172 85 spigot;
#X obj 123 180 f;
#X obj 270 315 pack f s \$0;
#X msg 301 289 symbol /\$1;
#X obj 352 191 t b b;
#X obj 270 289 f;
#X obj 301 263 f;
#X obj 270 237 t b b;
#X msg 270 341 \; \$3-outputCanvasIn label output:\$1\$2;
#X msg 379 299 symbol;
#X obj 190 237 r \$0-outInl;
#X obj 55 79 s \$0-outInl;
#X obj 286 125 s \$0-stZero;
#X obj 406 175 r \$0-stZero;
#X connect 0 0 8 0;
#X connect 0 0 20 0;
#X connect 1 0 3 0;
#X connect 3 0 9 1;
#X connect 3 1 4 0;
#X connect 4 0 21 0;
#X connect 4 1 10 0;
#X connect 4 1 16 0;
#X connect 5 0 7 0;
#X connect 6 0 5 0;
#X connect 8 0 9 0;
#X connect 8 0 10 1;
#X connect 8 0 15 1;
#X connect 9 0 2 0;
#X connect 9 0 12 0;
#X connect 10 0 2 0;
#X connect 11 0 17 0;
#X connect 12 0 11 1;
#X connect 13 0 14 0;
#X connect 13 1 18 0;
#X connect 14 0 11 0;
#X connect 15 0 12 0;
#X connect 16 0 14 0;
#X connect 16 1 15 0;
#X connect 18 0 11 1;
#X connect 19 0 14 1;
#X connect 19 0 11 0;
#X connect 22 0 6 0;
#X connect 22 0 13 0;
#X restore 570 82 pd outputRight;
#N canvas 0 50 307 304 outlevel 0;
#X msg 52 195 \; \$2-outlevel \$1;
#X obj 52 80 sel 0 1;
#X msg 52 115 1;
#X msg 90 115 0.5;
#X obj 52 169 pack f \$0;
#X obj 52 54 inlet;
#X connect 1 0 2 0;
#X connect 1 1 3 0;
#X connect 2 0 4 0;
#X connect 3 0 4 0;
#X connect 4 0 0 0;
#X connect 5 0 1 0;
#X restore 675 82 pd outlevel;
#N canvas 0 50 310 290 wait_a_sec 0;
#X obj 125 49 inlet;
#X obj 137 215 outlet;
#X obj 125 75 t b f;
#X obj 137 163 f;
#X obj 103 113 del 500;
#X obj 137 189 pack f \$0;
#X connect 0 0 2 0;
#X connect 2 0 4 0;
#X connect 2 1 3 1;
#X connect 3 0 5 0;
#X connect 4 0 3 0;
#X connect 5 0 1 0;
#X restore 330 108 pd wait_a_sec;
#N canvas 0 50 310 290 wait_a_sec 0;
#X obj 125 49 inlet;
#X obj 137 215 outlet;
#X obj 125 75 t b f;
#X obj 137 163 f;
#X obj 103 113 del 500;
#X obj 137 189 pack f \$0;
#X connect 0 0 2 0;
#X connect 2 0 4 0;
#X connect 2 1 3 1;
#X connect 3 0 5 0;
#X connect 4 0 3 0;
#X connect 5 0 1 0;
#X restore 570 108 pd wait_a_sec;
#N canvas 0 50 310 290 wait_a_sec 0;
#X obj 125 49 inlet;
#X obj 137 215 outlet;
#X obj 125 75 t b f;
#X obj 137 163 f;
#X obj 103 113 del 500;
#X obj 137 189 pack f \$0;
#X connect 0 0 2 0;
#X connect 2 0 4 0;
#X connect 2 1 3 1;
#X connect 3 0 5 0;
#X connect 4 0 3 0;
#X connect 5 0 1 0;
#X restore 66 108 pd wait_a_sec;
#X text 67 14 Input;
#X text 331 14 Output L / mono;
#X text 571 14 Output R;
#X connect 2 0 12 0;
#X connect 3 0 7 0;
#X connect 5 0 9 0;
#X connect 5 0 8 1;
#X connect 7 0 8 0;
#X connect 7 0 10 0;
#X connect 8 0 11 0;
#X connect 10 0 1 0;
#X connect 11 0 6 0;
#X connect 12 0 0 0;
#X restore 42 26 pd input_and_output;
#X restore 396 30 pd audio;
#N canvas 697 52 450 300 tables 0;
#X obj -197 82 table \$0-liveRec;
#X obj -199 35 table \$0-livea;
#X obj -201 60 table \$0-liveb;
#X obj -321 34 table \$0-tapea;
#X obj -321 60 table \$0-tapeb;
#X obj -321 86 table \$0-tapeRec;
#X obj -87 38 table \$0-micenvelope;
#X restore 396 186 pd tables;
#N canvas 609 50 573 407 cpu-load 0;
#X obj 218 284 pack f \$0;
#X msg 31 154 \; \$2-loadMeterCanvasIn size \$1;
#X obj 31 102 * 10;
#X obj 31 128 pack f \$0;
#X obj 218 166 cputime;
#X obj 218 34 loadbang;
#X obj 218 112 metro 1000;
#X msg 218 60 1;
#X obj 218 138 t b b;
#X obj 218 218 * 0.1;
#X obj 218 192 int;
#X obj 254 60 inlet;
#X msg 31 50 0;
#X obj 31 76 noguitgl;
#X obj 286 234 pack f \$0;
#X obj 218 258 + 4;
#X msg 218 310 \; \$2-loadMeterCanvasIn vis_size \$1 12;
#X msg 286 260 \; \$2-loadMeterCanvasIn label cpu:\$1%;
#X connect 0 0 16 0;
#X connect 2 0 3 0;
#X connect 3 0 1 0;
#X connect 4 0 10 0;
#X connect 5 0 7 0;
#X connect 5 0 12 0;
#X connect 6 0 8 0;
#X connect 7 0 6 0;
#X connect 8 0 4 0;
#X connect 8 1 4 1;
#X connect 9 0 14 0;
#X connect 9 0 15 0;
#X connect 10 0 9 0;
#X connect 11 0 6 0;
#X connect 12 0 13 0;
#X connect 13 0 2 0;
#X connect 14 0 17 0;
#X connect 15 0 0 0;
#X restore 251 186 pd cpu-load;
#X obj 226 171 tgl 15 0 empty empty empty 17 7 0 10 -262144 -1 -1 0
1;
#N canvas 1085 304 418 353 over 0;
#X obj 41 220 vd~ \$0-over;
#X obj 41 194 line~;
#X obj 41 266 *~;
#X obj 51 55 delwrite~ \$0-over 10000;
#X obj 42 30 r~ \$0-audioIn;
#X obj 128 199 loadbang;
#X obj 41 292 s~ \$0-overOut;
#N canvas 675 50 425 261 audio_for_auto 0;
#X obj 91 46 inlet~;
#N canvas 658 50 541 374 threshold 0;
#X obj 65 279 outlet;
#X obj 122 279 outlet;
#X obj 46 41 inlet~;
#X obj 46 67 env~;
#X obj 354 161 r \$0-thresholdWait1;
#X obj 157 143 r \$0-thresholdWait2;
#X obj 65 245 spigot;
#X obj 98 169 t b b;
#X msg 98 202 0;
#X obj 329 187 del;
#X msg 125 202 1;
#X obj 98 143 sel 1;
#X obj 46 93 expr $f1 \; if($f1>$f2 \, 1 \, 0) \; if($f1<$f3 \, 1 \,
0);
#X obj 285 133 sel 1;
#X obj 252 263 spigot;
#X msg 285 220 0;
#X msg 312 220 1;
#X obj 285 187 t b b;
#X obj 142 169 del;
#X obj 98 41 r \$0-thresholdOn;
#X obj 151 65 r \$0-thresholdOff;
#X obj 203 186 loadbang;
#X connect 2 0 3 0;
#X connect 3 0 12 0;
#X connect 4 0 9 1;
#X connect 5 0 18 1;
#X connect 6 0 9 0;
#X connect 6 0 0 0;
#X connect 7 0 8 0;
#X connect 7 1 6 0;
#X connect 8 0 6 1;
#X connect 9 0 16 0;
#X connect 10 0 6 1;
#X connect 11 0 7 0;
#X connect 12 1 11 0;
#X connect 12 2 13 0;
#X connect 13 0 17 0;
#X connect 14 0 18 0;
#X connect 14 0 1 0;
#X connect 15 0 14 1;
#X connect 16 0 14 1;
#X connect 17 0 15 0;
#X connect 17 1 14 0;
#X connect 18 0 10 0;
#X connect 19 0 12 1;
#X connect 20 0 12 2;
#X connect 21 0 10 0;
#X restore 91 72 pd threshold;
#N canvas 0 50 450 300 show_over_test 0;
#X obj 41 185 s \$0-threshtestOn;
#X obj 91 159 s \$0-threshtestOff;
#X obj 124 67 r \$0-showtestCtl;
#X obj 91 133 spigot;
#X obj 41 133 spigot;
#X obj 41 40 inlet;
#X obj 91 40 inlet;
#X obj 193 100 s \$0-threshPreOff;
#X obj 143 126 s \$0-threshPreOn;
#X connect 2 0 3 1;
#X connect 2 0 4 1;
#X connect 3 0 1 0;
#X connect 4 0 0 0;
#X connect 5 0 4 0;
#X connect 5 0 8 0;
#X connect 6 0 3 0;
#X connect 6 0 7 0;
#X restore 168 165 pd show_over_test;
#N canvas 115 469 450 300 auto_on_off 0;
#X obj 123 126 r \$0-autooverCtl;
#X obj 40 192 spigot;
#X obj 90 192 spigot;
#X obj 40 100 inlet;
#X obj 90 100 inlet;
#X obj 40 258 s \$0-automatic;
#X msg 40 126 1;
#X msg 90 126 0;
#X obj 133 152 f;
#X obj 179 48 r \$0-recKillsOverCtl;
#X obj 146 100 sel 0 1;
#X msg 165 152 0;
#X obj 146 22 r \$0-recState;
#X obj 146 74 spigot;
#X connect 0 0 2 1;
#X connect 0 0 1 1;
#X connect 0 0 8 1;
#X connect 1 0 5 0;
#X connect 2 0 5 0;
#X connect 3 0 6 0;
#X connect 4 0 7 0;
#X connect 6 0 1 0;
#X connect 7 0 2 0;
#X connect 8 0 2 1;
#X connect 8 0 1 1;
#X connect 9 0 13 1;
#X connect 10 0 8 0;
#X connect 10 1 11 0;
#X connect 11 0 2 1;
#X connect 11 0 1 1;
#X connect 12 0 13 0;
#X connect 13 0 10 0;
#X restore 91 136 pd auto_on_off;
#N canvas 724 162 556 400 auto4rec 0;
#X obj 146 60 inlet;
#X obj 208 126 inlet;
#X obj 191 86 r \$0-overfadeInCtl;
#X obj 253 151 r \$0-overfadeOutCtl;
#X obj 146 112 pack f f;
#X obj 208 178 pack f f;
#X obj 141 246 r \$0-recStart;
#X obj 131 272 tabwrite~ \$0-micenvelope;
#X obj 131 220 *~;
#X obj 68 141 sig~ 1;
#X obj 391 111 switch~;
#X msg 146 86 1;
#X msg 208 152 0;
#X obj 391 85 r \$0-autorecCtl;
#X obj 190 60 sel 1;
#X obj 190 34 r \$0-recState;
#X obj 146 194 sinfade;
#X connect 0 0 11 0;
#X connect 1 0 12 0;
#X connect 2 0 4 1;
#X connect 3 0 5 1;
#X connect 4 0 16 0;
#X connect 5 0 16 0;
#X connect 6 0 7 0;
#X connect 8 0 7 0;
#X connect 9 0 8 0;
#X connect 11 0 4 0;
#X connect 12 0 5 0;
#X connect 13 0 10 0;
#X connect 14 0 11 0;
#X connect 15 0 14 0;
#X connect 16 0 8 1;
#X restore 67 167 pd auto4rec;
#X msg 91 108 1;
#X msg 160 108 0;
#X connect 0 0 1 0;
#X connect 1 0 2 0;
#X connect 1 0 5 0;
#X connect 1 1 2 1;
#X connect 1 1 6 0;
#X connect 5 0 3 0;
#X connect 5 0 4 0;
#X connect 6 0 3 1;
#X connect 6 0 4 1;
#X restore 41 81 pd audio_for_auto;
#N canvas 59 50 334 300 overdel_length 0;
#X obj 119 101 r \$0-offsetMs;
#X obj 92 211 -;
#X obj 92 153 unpack f f;
#X obj 92 239 outlet;
#X obj 96 65 r \$0-length;
#X obj 92 127 2pack;
#X connect 0 0 5 1;
#X connect 1 0 3 0;
#X connect 2 0 1 0;
#X connect 2 1 1 1;
#X connect 4 0 5 0;
#X connect 5 0 2 0;
#X restore 41 115 pd overdel_length;
#N canvas 843 191 321 301 over_fades 0;
#X obj 42 56 sel 1 0;
#N canvas 1119 278 343 205 out 0;
#X obj 46 35 inlet;
#X obj 46 113 outlet;
#X obj 46 87 pack f f;
#X obj 101 61 r \$0-overfadeOutCtl;
#X msg 46 61 0;
#X connect 0 0 4 0;
#X connect 2 0 1 0;
#X connect 3 0 2 1;
#X connect 4 0 2 0;
#X restore 86 97 pd out;
#X obj 42 157 outlet;
#X obj 42 30 r \$0-overPipe;
#N canvas 552 147 309 203 in 0;
#X obj 42 30 inlet;
#X obj 42 108 outlet;
#X obj 42 82 pack f f;
#X obj 97 56 r \$0-overfadeInCtl;
#X msg 42 56 1;
#X connect 0 0 4 0;
#X connect 2 0 1 0;
#X connect 3 0 2 1;
#X connect 4 0 2 0;
#X restore 42 97 pd in;
#X connect 0 0 4 0;
#X connect 0 1 1 0;
#X connect 1 0 2 0;
#X connect 3 0 0 0;
#X connect 4 0 2 0;
#X restore 118 173 pd over_fades;
#X msg 128 225 0 10;
#X obj 52 164 pipe;
#X obj 52 142 t f f;
#N canvas 0 50 450 300 pack_thresh_settings 0;
#X obj 64 158 t b;
#X obj 116 90 r \$0-thresholdWait1Ctl;
#X obj 160 142 r \$0-thresholdWait2Ctl;
#X obj 95 64 r \$0-thresholdOnCtl;
#X obj 138 116 r \$0-thresholdOffCtl;
#X obj 95 174 pack f f f f \$0;
#X msg 95 200 \; \$5-thresholdWait2 \$4 \; \$5-thresholdOff \$3 \;
\$5-thresholdWait1 \$2 \; \$5-thresholdOn \$1 \;;
#X connect 0 0 5 0;
#X connect 1 0 0 0;
#X connect 1 0 5 1;
#X connect 2 0 0 0;
#X connect 2 0 5 3;
#X connect 3 0 5 0;
#X connect 4 0 0 0;
#X connect 4 0 5 2;
#X connect 5 0 6 0;
#X restore 213 55 pd pack_thresh_settings;
#N canvas 934 197 465 409 rec_kills_autoover 0;
#X obj 42 30 r \$0-recState;
#X obj 42 82 spigot;
#X obj 42 333 s \$0-automatic;
#X msg 42 252 0;
#X obj 75 56 r \$0-recKillsOverCtl;
#X obj 42 138 sel 1 0;
#X obj 107 226 sel 1;
#X msg 107 252 1;
#X obj 107 200 f;
#X obj 264 102 r \$0-threshPreOff;
#X obj 224 76 r \$0-threshPreOn;
#X msg 264 128 0;
#X msg 224 102 1;
#X obj 122 82 r \$0-over_ctl;
#X obj 122 108 sel 0 127;
#X msg 122 134 0;
#X msg 157 134 1;
#X obj 224 184 spigot;
#X obj 264 161 r \$0-autooverCtl;
#X connect 0 0 1 0;
#X connect 1 0 5 0;
#X connect 3 0 2 0;
#X connect 4 0 1 1;
#X connect 5 0 3 0;
#X connect 5 1 8 0;
#X connect 6 0 7 0;
#X connect 7 0 2 0;
#X connect 8 0 6 0;
#X connect 9 0 11 0;
#X connect 10 0 12 0;
#X connect 11 0 17 0;
#X connect 12 0 17 0;
#X connect 13 0 14 0;
#X connect 14 0 15 0;
#X connect 14 1 16 0;
#X connect 15 0 8 1;
#X connect 16 0 8 1;
#X connect 17 0 8 1;
#X connect 18 0 17 1;
#X restore 225 81 pd rec_kills_autoover;
#X text 91 143 could be usefull...;
#X obj 118 251 sinfade;
#X connect 0 0 2 0;
#X connect 1 0 0 0;
#X connect 2 0 6 0;
#X connect 4 0 3 0;
#X connect 4 0 7 0;
#X connect 5 0 10 0;
#X connect 8 0 12 0;
#X connect 8 0 1 0;
#X connect 9 0 16 0;
#X connect 10 0 16 0;
#X connect 12 0 11 0;
#X connect 12 1 11 1;
#X connect 16 0 2 1;
#X restore 396 160 pd over;
#N canvas 121 240 553 350 records_to_disk 0;
#X obj 115 197 writesf~;
#X msg 42 181 start;
#X msg 69 135 stop;
#X obj 256 207 catch~ \$0-rec2disk;
#N canvas 65 50 328 295 loopNr 0;
#X obj 63 95 + 1;
#X obj 659 329 r \$0-copyCountA;
#X obj 63 42 inlet;
#X obj 73 121 outlet;
#N canvas 270 472 450 300 writetxt 0;
#X msg 22 142 clear;
#X obj 22 174 textfile;
#X obj -40 29 inlet;
#X msg -21 115 add2 \$1;
#X obj -40 84 t b f b;
#X msg -98 158 write loopNr.txt;
#X connect 0 0 1 0;
#X connect 2 0 4 0;
#X connect 3 0 1 0;
#X connect 4 0 5 0;
#X connect 4 1 3 0;
#X connect 4 2 0 0;
#X connect 5 0 1 0;
#X restore 63 147 pd writetxt;
#X obj 152 42 inlet;
#X obj 63 69 readtxt loopNr.txt;
#X connect 0 0 3 0;
#X connect 0 0 4 0;
#X connect 2 0 6 0;
#X connect 5 0 4 0;
#X connect 6 0 0 0;
#X restore 42 48 pd loopNr;
#X msg 115 135 open audio/loop_nr\$1.wav;
#X obj 42 20 r \$0-record2diskStart;
#X obj 69 109 r \$0-record2diskStop;
#X obj 42 76 t b f;
#N canvas 0 50 450 300 mic 0;
#X obj 94 126 outlet~;
#X obj 186 100 switch~;
#X obj 186 74 r \$0-mic2recCtl;
#X obj 94 100 r~ \$0-audioIn;
#X connect 2 0 1 0;
#X connect 3 0 0 0;
#X restore 257 181 pd mic;
#X obj 372 44 r \$0-offset;
#X obj 293 142 vd~ \$0-recordingDelay;
#X obj 256 238 delwrite~ \$0-recordingDelay 1000;
#X obj 293 117 sig~;
#X obj 364 19 r \$0-mic2recCtl;
#X obj 303 35 sel 0 1;
#X msg 293 61 0;
#X obj 331 60 f;
#X obj 331 101 spigot;
#X obj 182 32 inlet;
#X connect 1 0 0 0;
#X connect 2 0 0 0;
#X connect 3 0 12 0;
#X connect 4 0 8 0;
#X connect 5 0 0 0;
#X connect 6 0 4 0;
#X connect 7 0 2 0;
#X connect 8 0 1 0;
#X connect 8 1 5 0;
#X connect 9 0 0 0;
#X connect 10 0 17 1;
#X connect 10 0 18 0;
#X connect 11 0 0 0;
#X connect 13 0 11 0;
#X connect 14 0 15 0;
#X connect 14 0 18 1;
#X connect 15 0 16 0;
#X connect 15 1 17 0;
#X connect 16 0 13 0;
#X connect 17 0 18 0;
#X connect 18 0 13 0;
#X connect 19 0 4 1;
#X restore 331 274 pd records_to_disk;
#N canvas 600 50 533 336 save_settings 0;
#N canvas 138 378 885 391 saveSettings 0;
#X obj 43 31 saveset latencyOutput 100 \$0;
#X obj 42 56 saveset latencyInput 100 \$0;
#X obj 42 82 saveset audioInput 100 \$0;
#X obj 42 109 saveset audioOutput 100 \$0;
#X obj 42 197 saveset switch 110 \$0;
#X obj 41 223 saveset midicontrol 100 \$0;
#X obj 42 248 saveset keycontrol 100 \$0;
#X obj 245 31 saveset overfadeIn 100 \$0;
#X obj 246 57 saveset overfadeOut 100 \$0;
#X obj 246 83 saveset overOffset 110 \$0;
#X obj 246 119 saveset duckfadeIn 100 \$0;
#X obj 246 145 saveset duckfadeOut 100 \$0;
#X obj 246 171 saveset duckOffset 110 \$0;
#X obj 246 197 saveset instantDuck 100 \$0;
#X obj 245 233 saveset playLoud 100 \$0;
#X obj 246 259 saveset playLoudDuck 100 \$0;
#X obj 246 286 saveset recKillsOver 100 \$0;
#X obj 424 31 saveset autorec 100 \$0;
#X obj 424 57 saveset autoover 100 \$0;
#X obj 423 83 saveset thresholdWait2 100 \$0;
#X obj 424 109 saveset thresholdOff 110 \$0;
#X obj 424 135 saveset thresholdWait1 120 \$0;
#X obj 424 161 saveset thresholdOn 130 \$0;
#X obj 424 187 saveset showtest 140 \$0;
#X obj 623 201 saveset offset 100 \$0;
#X obj 42 135 saveset stereoOut 110 \$0;
#X text 782 254 2120;
#X text 776 280 2130;
#X obj 622 228 saveset threshLatency 120 \$0;
#X obj 623 254 saveset fadeLength 130 \$0;
#X obj 623 282 saveset cFOffset 140 \$0;
#X obj 623 308 saveset maxLength 150 \$0;
#X obj 665 134 saveset themeFont 100 \$0;
#X obj 672 89 saveset themeBack 100 \$0;
#X obj 39 288 saveset mic2rec 100 \$0;
#X obj 424 223 saveset infosize 150 \$0;
#X obj 641 342 numbers threshLatency env-latency 0 10000 \$0;
#X restore 42 30 pd saveSettings;
#N canvas 0 50 450 300 saveSettings2 0;
#X restore 42 56 pd saveSettings2;
#X obj 166 30 r \$0-maxLengthDone;
#X obj 166 56 t b;
#X msg 166 82 1;
#X obj 166 108 change;
#X obj 166 134 t b;
#X obj 166 188 f \$0;
#X msg 166 214 \; pd-saveSettings2 clear \; pd-saveSettings2 obj 0
0 savesettings \$1 \; pd-saveSettings2 loadbang;
#X obj 241 150 loadbang;
#X msg 241 176 \; pd-saveSettings2 clear;
#X obj 176 160 del 3000;
#X connect 2 0 3 0;
#X connect 3 0 4 0;
#X connect 4 0 5 0;
#X connect 5 0 6 0;
#X connect 6 0 7 0;
#X connect 6 0 11 0;
#X connect 7 0 8 0;
#X connect 9 0 10 0;
#X connect 11 0 10 0;
#X restore 251 134 pd save_settings;
#X obj 226 197 tgl 15 0 empty empty empty 17 7 0 10 -262144 -1 -1 0
1;
#N canvas 381 50 697 290 times 0;
#N canvas 432 418 344 272 send_maxLength 0;
#X obj -191 114 inlet;
#X obj -191 142 * 44100;
#X obj -191 168 s \$0-maxLengthSmpl;
#X obj -152 114 samplerate~;
#X obj -152 91 loadbang;
#X connect 0 0 1 0;
#X connect 1 0 2 0;
#X connect 3 0 1 1;
#X connect 4 0 3 0;
#X restore 52 102 pd send_maxLength;
#N canvas 837 352 324 395 send_cF 0;
#X obj -6 217 s \$0-cFMs;
#X obj 44 96 inlet;
#X obj 62 163 * 44.1;
#X obj 62 191 i;
#X obj 62 217 s \$0-cFSmpl;
#X obj 5 252 / 2;
#X obj 4 277 s \$0-cFMs/2;
#X obj 92 251 / 2;
#X obj 91 276 s \$0-cFSmpl/2;
#X obj 97 110 samplerate~;
#X obj 97 87 loadbang;
#X obj 97 131 / 1000;
#X connect 1 0 0 0;
#X connect 1 0 5 0;
#X connect 1 0 2 0;
#X connect 2 0 3 0;
#X connect 3 0 4 0;
#X connect 3 0 7 0;
#X connect 5 0 6 0;
#X connect 7 0 8 0;
#X connect 9 0 11 0;
#X connect 10 0 9 0;
#X connect 11 0 2 1;
#X restore -52 102 pd send_cF;
#N canvas 617 176 807 521 send_fadeOffset 0;
#X obj 299 92 * -1;
#X obj 346 318 f;
#X obj 361 266 r \$0-cFMs/2;
#X obj 361 292 * -1;
#X obj 35 327 * 44.1;
#X obj 161 291 expr $f2-$f1;
#X obj 35 249 max 0;
#X obj 45 301 s \$0-cFOffsetAMs;
#X obj 171 317 s \$0-cFOffsetBMs;
#X obj 35 353 s \$0-cFOffsetASmpl;
#X obj 161 343 * 44.1;
#X obj 161 369 s \$0-cFOffsetBSmpl;
#X obj 35 223 expr $f1*-1;
#X obj 93 40 inlet;
#X obj 346 344 s \$0-cFOffsetCtlIn;
#X obj 301 240 r \$0-resetCFOffsetCtl;
#X obj 299 66 r \$0-fadeLengthCtl;
#X msg 489 228 \; \$1-cFOffsetCtlIn bang;
#X obj 489 176 f \$0;
#X obj 489 150 t b;
#X obj 35 275 t f f;
#X obj 399 134 spigot;
#X msg 469 118 0;
#X msg 432 108 1;
#X obj 133 178 f;
#X obj 489 202 pipe 50;
#X obj 432 82 del 100;
#X obj 299 144 pack f \$0;
#X text 134 41 cFOffsetCtl;
#X obj 442 56 t b b;
#X obj 93 122 t b f;
#X msg 299 169 \; \$2-cFOffsetCtlIn range \$1 0;
#N canvas 0 50 450 300 omit_loadbang 0;
#X obj 107 150 spigot;
#X obj 80 124 t b f;
#X obj 140 106 change;
#X msg 140 80 1;
#X obj 80 80 inlet;
#X obj 107 176 outlet;
#X connect 0 0 5 0;
#X connect 1 0 3 0;
#X connect 1 1 0 0;
#X connect 2 0 0 1;
#X connect 3 0 2 0;
#X connect 4 0 1 0;
#X restore 289 118 pd omit_loadbang;
#X obj -45 45 t b;
#X obj 28 106 f;
#X obj 121 90 t b f;
#X obj 121 64 r \$0-fadeLengthCtl;
#X obj -45 19 r \$0-offset;
#X obj -45 71 del 100;
#X obj 113 244 samplerate~;
#X obj 113 221 loadbang;
#X obj 113 265 / 1000;
#X connect 0 0 27 0;
#X connect 0 0 32 0;
#X connect 1 0 14 0;
#X connect 2 0 3 0;
#X connect 3 0 1 1;
#X connect 4 0 9 0;
#X connect 5 0 8 0;
#X connect 5 0 10 0;
#X connect 6 0 20 0;
#X connect 10 0 11 0;
#X connect 12 0 6 0;
#X connect 13 0 29 0;
#X connect 13 0 30 0;
#X connect 13 0 34 1;
#X connect 15 0 1 0;
#X connect 16 0 0 0;
#X connect 18 0 25 0;
#X connect 19 0 18 0;
#X connect 20 0 7 0;
#X connect 20 0 4 0;
#X connect 20 1 5 0;
#X connect 21 0 19 0;
#X connect 22 0 21 1;
#X connect 23 0 21 1;
#X connect 24 0 5 1;
#X connect 25 0 17 0;
#X connect 26 0 23 0;
#X connect 27 0 31 0;
#X connect 29 0 26 0;
#X connect 29 1 22 0;
#X connect 30 0 24 0;
#X connect 30 1 12 0;
#X connect 32 0 21 0;
#X connect 33 0 38 0;
#X connect 34 0 30 0;
#X connect 35 0 34 0;
#X connect 35 1 24 1;
#X connect 36 0 35 0;
#X connect 37 0 33 0;
#X connect 38 0 34 0;
#X connect 39 0 41 0;
#X connect 40 0 39 0;
#X connect 41 0 4 1;
#X connect 41 0 10 1;
#X restore 168 102 pd send_fadeOffset;
#X obj -174 76 r \$0-offset;
#X obj -52 76 r \$0-fadeLength;
#X obj 52 76 r \$0-maxLength;
#X obj 168 76 r \$0-cFOffsetCtl;
#N canvas 880 234 336 252 calculate_startVolule 0;
#X obj 152 40 r \$0-cFMs;
#X obj 42 170 expr (100/$f2*$f1)/100;
#X obj 42 222 s \$0-startVolume;
#X obj 42 30 r \$0-cFOffsetAMs;
#X obj 42 82 unpack f f;
#X obj 42 108 pipe 1000;
#X obj 42 196 expr 1-$f1;
#X obj 42 56 2pack;
#X connect 0 0 7 1;
#X connect 1 0 6 0;
#X connect 3 0 7 0;
#X connect 4 0 5 0;
#X connect 4 1 1 1;
#X connect 5 0 1 0;
#X connect 6 0 2 0;
#X connect 7 0 4 0;
#X restore 290 75 pd calculate_startVolule;
#X text 294 92 ???;
#N canvas 626 50 321 180 offset_fadeLength_maxLength 0;
#N canvas 24 413 393 352 maxLength 0;
#X obj 113 28 r \$0-maxLengthCtl;
#X obj 113 106 f;
#X obj 113 54 t b f;
#X msg 140 184 \; \$2-maxLength \$1;
#X obj 140 158 pack f \$0;
#X msg 30 148 1000;
#X obj 30 174 change;
#X obj 113 132 t b f;
#X obj 113 80 del 0;
#X connect 0 0 2 0;
#X connect 1 0 7 0;
#X connect 2 0 8 0;
#X connect 2 1 1 1;
#X connect 4 0 3 0;
#X connect 5 0 6 0;
#X connect 6 0 8 1;
#X connect 7 0 5 0;
#X connect 7 1 4 0;
#X connect 8 0 1 0;
#X restore 11 53 pd maxLength;
#N canvas 772 120 384 350 offset_and_fadeLength 0;
#X msg 166 280 \; \$3-offset \$2 \; \$3-fadeLength \$1 \;;
#X obj 184 61 r \$0-offsetCtl;
#X obj 184 139 f;
#X obj 88 35 r \$0-fadeLengthCtl;
#X obj 88 113 f;
#X obj 166 206 2pack \$0;
#X obj 176 254 spigot;
#X msg 262 212 1;
#X obj 88 61 t b f b;
#X msg 100 182 1000;
#X obj 100 208 change;
#X obj 184 113 del 0;
#X obj 184 166 t b f;
#X obj 88 139 t b f;
#X msg 5 155 1000;
#X obj 5 181 change;
#X obj 88 87 del 0;
#X obj 262 238 change;
#X obj 184 87 t b f b;
#X connect 1 0 18 0;
#X connect 2 0 12 0;
#X connect 3 0 8 0;
#X connect 4 0 13 0;
#X connect 5 0 6 0;
#X connect 6 0 0 0;
#X connect 7 0 17 0;
#X connect 8 0 16 0;
#X connect 8 1 4 1;
#X connect 9 0 10 0;
#X connect 10 0 11 1;
#X connect 11 0 2 0;
#X connect 12 0 9 0;
#X connect 12 1 5 1;
#X connect 13 0 14 0;
#X connect 13 1 5 0;
#X connect 14 0 15 0;
#X connect 15 0 16 1;
#X connect 16 0 4 0;
#X connect 17 0 6 1;
#X connect 18 0 11 0;
#X connect 18 1 2 1;
#X connect 18 2 7 0;
#X restore 11 27 pd offset_and_fadeLength;
#X restore -174 30 pd offset_fadeLength_maxLength;
#N canvas 581 75 344 223 off+cFMs 0;
#X obj -243 115 s \$0-off+cFMs;
#X obj -243 89 +;
#X obj -243 37 r \$0-cFMs;
#X obj -218 63 r \$0-offsetMs;
#X connect 1 0 0 0;
#X connect 2 0 1 0;
#X connect 3 0 1 1;
#X restore -174 148 pd off+cFMs;
#N canvas 0 50 316 237 off+cFSmpl 0;
#X obj -113 129 s \$0-off+cFSmpl;
#X obj -113 103 +;
#X obj -113 51 r \$0-cFSmpl;
#X obj -88 77 r \$0-offsetSmpl;
#X connect 1 0 0 0;
#X connect 2 0 1 0;
#X connect 3 0 1 1;
#X restore -82 148 pd off+cFSmpl;
#N canvas 1097 110 331 232 off+cFMs/2 0;
#X obj -233 99 +;
#X obj -208 73 r \$0-offsetMs;
#X obj -233 125 s \$0-off+cFMs/2;
#X obj -233 47 r \$0-cFMs/2;
#X connect 0 0 2 0;
#X connect 1 0 0 1;
#X connect 3 0 0 0;
#X restore -174 174 pd off+cFMs/2;
#N canvas 0 50 348 251 off+cFSmpl/2 0;
#X obj -117 79 +;
#X obj -92 53 r \$0-offsetSmpl;
#X obj -117 105 s \$0-off+cFSmpl/2;
#X obj -117 27 r \$0-cFSmpl/2;
#X connect 0 0 2 0;
#X connect 1 0 0 1;
#X connect 3 0 0 0;
#X restore -82 174 pd off+cFSmpl/2;
#N canvas 0 50 364 269 off+cFOffsetAMs 0;
#X text 26 32 A;
#X obj 27 101 +;
#X obj 52 75 r \$0-offsetMs;
#X obj 27 49 r \$0-cFOffsetAMs;
#X obj 27 127 s \$0-off+cFOffsetAMs;
#X connect 1 0 4 0;
#X connect 2 0 1 1;
#X connect 3 0 1 0;
#X restore 22 148 pd off+cFOffsetAMs;
#N canvas 0 50 326 213 off+cFOffsetASmpl 0;
#X obj 36 95 +;
#X obj 61 69 r \$0-offsetSmpl;
#X obj 36 43 r \$0-cFOffsetASmpl;
#X obj 36 121 s \$0-off+cFOffsetASmpl;
#X text 33 17 A;
#X connect 0 0 3 0;
#X connect 1 0 0 1;
#X connect 2 0 0 0;
#X restore 144 148 pd off+cFOffsetASmpl;
#N canvas 37 302 321 237 off+cFOffsetBMs 0;
#X obj 41 99 +;
#X obj 66 73 r \$0-offsetMs;
#X text 40 30 B;
#X obj 41 47 r \$0-cFOffsetBMs;
#X obj 40 126 s \$0-off+cFOffsetBMs;
#X connect 0 0 4 0;
#X connect 1 0 0 1;
#X connect 3 0 0 0;
#X restore 22 174 pd off+cFOffsetBMs;
#N canvas 1152 80 331 249 off+cFOffsetBSmpl 0;
#X obj 34 98 +;
#X obj 59 72 r \$0-offsetSmpl;
#X obj 34 124 s \$0-off+cFOffsetBSmpl;
#X text 37 29 B;
#X obj 34 46 r \$0-cFOffsetBSmpl;
#X connect 0 0 2 0;
#X connect 1 0 0 1;
#X connect 4 0 0 0;
#X restore 144 174 pd off+cFOffsetBSmpl;
#N canvas 1118 50 436 188 times_over&duck 0;
#N canvas 150 394 429 199 post_only 0;
#N canvas 451 309 334 291 pack_length-offset 0;
#X obj 66 152 -;
#X obj 66 94 unpack f f;
#X obj 66 178 outlet;
#N canvas 0 50 343 300 2pack 0;
#X obj 108 49 inlet;
#X obj 153 75 inlet;
#X obj 108 164 outlet;
#X obj 76 91 t b;
#X obj 108 139 pack f f;
#X connect 0 0 4 0;
#X connect 1 0 4 1;
#X connect 1 0 3 0;
#X connect 3 0 4 0;
#X connect 4 0 2 0;
#X restore 66 68 pd 2pack;
#X obj 66 16 r \$0-length;
#X obj 111 42 r \$0-offsetMs;
#X connect 0 0 2 0;
#X connect 1 0 0 0;
#X connect 1 1 0 1;
#X connect 3 0 1 0;
#X connect 4 0 3 0;
#X connect 5 0 3 1;
#X restore 57 63 pd pack_length-offset;
#X obj 57 89 s \$0-pipePost;
#X connect 0 0 1 0;
#X restore 174 117 pd post_only;
#X text 257 117 for post-ducking...;
#N canvas 606 141 356 399 pack_length-offset-overOffset 0;
#X obj 146 165 -;
#X obj 146 107 unpack f f;
#X obj 146 286 -;
#X obj 42 270 f;
#X obj 42 222 t b f;
#N canvas 0 50 343 300 2pack 0;
#X obj 108 49 inlet;
#X obj 153 75 inlet;
#X obj 108 164 outlet;
#X obj 76 91 t b;
#X obj 108 139 pack f f;
#X connect 0 0 4 0;
#X connect 1 0 4 1;
#X connect 1 0 3 0;
#X connect 3 0 4 0;
#X connect 4 0 2 0;
#X restore 146 81 pd 2pack;
#X obj 42 30 r \$0-overOffset;
#X obj 146 29 r \$0-length;
#X obj 191 55 r \$0-offsetMs;
#X obj 146 338 s \$0-overPipePre;
#N canvas 38 50 349 251 add_thresh_latency 0;
#N canvas 0 50 343 300 2pack 0;
#X obj 108 49 inlet;
#X obj 153 75 inlet;
#X obj 108 164 outlet;
#X obj 76 91 t b;
#X obj 108 139 pack f f;
#X connect 0 0 4 0;
#X connect 1 0 4 1;
#X connect 1 0 3 0;
#X connect 3 0 4 0;
#X connect 4 0 2 0;
#X restore 41 56 pd 2pack;
#X obj 41 140 -;
#X obj 41 82 unpack f f;
#X obj 41 30 inlet;
#X obj 41 166 outlet;
#X obj 86 30 inlet;
#X connect 0 0 2 0;
#X connect 1 0 4 0;
#X connect 2 0 1 0;
#X connect 2 1 1 1;
#X connect 3 0 0 0;
#X connect 5 0 0 1;
#X restore 146 312 pd add_thresh_latency;
#X obj 269 286 inlet;
#X connect 0 0 3 1;
#X connect 0 0 2 0;
#X connect 1 0 0 0;
#X connect 1 1 0 1;
#X connect 2 0 10 0;
#X connect 3 0 2 0;
#X connect 4 0 3 0;
#X connect 4 1 2 1;
#X connect 5 0 1 0;
#X connect 6 0 4 0;
#X connect 7 0 5 0;
#X connect 8 0 5 1;
#X connect 10 0 9 0;
#X connect 11 0 10 1;
#X restore 174 55 pd pack_length-offset-overOffset;
#N canvas 973 100 353 359 pack_length-offset-duckOffset 0;
#X obj 132 151 -;
#X obj 132 93 unpack f f;
#X obj 132 272 -;
#X obj 28 256 f;
#X obj 28 208 t b f;
#N canvas 0 50 343 300 2pack 0;
#X obj 108 49 inlet;
#X obj 153 75 inlet;
#X obj 108 164 outlet;
#X obj 76 91 t b;
#X obj 108 139 pack f f;
#X connect 0 0 4 0;
#X connect 1 0 4 1;
#X connect 1 0 3 0;
#X connect 3 0 4 0;
#X connect 4 0 2 0;
#X restore 132 67 pd 2pack;
#X obj 132 15 r \$0-length;
#X obj 177 41 r \$0-offsetMs;
#X obj 28 16 r \$0-duckOffset;
#X obj 132 324 s \$0-duckPipePre;
#N canvas 38 50 349 251 add_thresh_latency 0;
#N canvas 0 50 343 300 2pack 0;
#X obj 108 49 inlet;
#X obj 153 75 inlet;
#X obj 108 164 outlet;
#X obj 76 91 t b;
#X obj 108 139 pack f f;
#X connect 0 0 4 0;
#X connect 1 0 4 1;
#X connect 1 0 3 0;
#X connect 3 0 4 0;
#X connect 4 0 2 0;
#X restore 41 56 pd 2pack;
#X obj 41 140 -;
#X obj 41 82 unpack f f;
#X obj 41 30 inlet;
#X obj 41 166 outlet;
#X obj 86 30 inlet;
#X connect 0 0 2 0;
#X connect 1 0 4 0;
#X connect 2 0 1 0;
#X connect 2 1 1 1;
#X connect 3 0 0 0;
#X connect 5 0 0 1;
#X restore 132 298 pd add_thresh_latency;
#X obj 255 272 inlet;
#X connect 0 0 3 1;
#X connect 0 0 2 0;
#X connect 1 0 0 0;
#X connect 1 1 0 1;
#X connect 2 0 10 0;
#X connect 3 0 2 0;
#X connect 4 0 3 0;
#X connect 4 1 2 1;
#X connect 5 0 1 0;
#X connect 6 0 5 0;
#X connect 7 0 5 1;
#X connect 8 0 4 0;
#X connect 10 0 9 0;
#X connect 11 0 10 1;
#X restore 174 81 pd pack_length-offset-duckOffset;
#N canvas 461 159 348 226 addThreshIfAuto 0;
#X obj 41 30 r \$0-autooverCtl;
#X obj 71 83 f;
#X obj 97 56 r \$0-threshLatency;
#X obj 41 56 sel 0 1;
#X msg 41 82 0;
#X obj 41 129 outlet;
#X connect 0 0 3 0;
#X connect 1 0 5 0;
#X connect 2 0 1 1;
#X connect 3 0 4 0;
#X connect 3 1 1 0;
#X connect 4 0 5 0;
#X restore 174 29 pd addThreshIfAuto;
#X obj 42 29 pipeengine over \$0;
#X obj 42 55 pipeengine duck \$0;
#X connect 4 0 2 0;
#X connect 4 0 3 0;
#X restore -174 220 pd times_over&duck;
#X text -57 216 calculate pipe-times...;
#N canvas 1067 54 341 244 send_offset 0;
#X obj 14 25 inlet;
#X obj 16 159 i;
#X obj 16 129 * 44.1;
#X obj 16 190 s \$0-offsetSmpl;
#X obj 100 142 s \$0-offsetMs;
#X obj 49 83 samplerate~;
#X obj 49 60 loadbang;
#X obj 49 104 / 1000;
#X connect 0 0 4 0;
#X connect 0 0 2 0;
#X connect 1 0 3 0;
#X connect 2 0 1 0;
#X connect 5 0 7 0;
#X connect 6 0 5 0;
#X connect 7 0 2 1;
#X restore -174 102 pd send_offset;
#X connect 3 0 20 0;
#X connect 4 0 1 0;
#X connect 5 0 0 0;
#X connect 6 0 2 0;
#X restore 251 82 pd times;
#N canvas 609 51 391 264 duck&overOffset 0;
#X obj 25 47 expr $f1*-1;
#X obj 25 73 max 0;
#X obj 25 21 r \$0-duckOffsetCtl;
#X obj 25 99 s \$0-duckOffset;
#X obj 157 21 r \$0-overOffsetCtl;
#X obj 157 47 expr $f1*-1;
#X obj 157 73 max 0;
#X obj 157 99 s \$0-overOffset;
#X connect 0 0 1 0;
#X connect 1 0 3 0;
#X connect 2 0 0 0;
#X connect 4 0 5 0;
#X connect 5 0 6 0;
#X connect 6 0 7 0;
#X restore 396 82 pd duck&overOffset;
#N canvas 802 498 505 492 avoid_editmode 0;
#X obj -162 13 keyname;
#X obj -123 39 sel Control_L Control_R;
#X obj -162 91 spigot;
#X msg -123 65 1;
#X obj -246 143 keyup;
#X obj -246 210 spigot;
#X msg -162 143 1;
#X msg -43 75 0;
#X obj -246 236 sel 5;
#X obj -195 210 spigot;
#X obj -195 236 sel 101;
#X obj -162 117 sel 0;
#X obj -162 256 inlet;
#X obj -195 303 spigot;
#X obj 29 49 loadbang;
#X msg -108 287 1;
#X obj -195 329 t b b;
#X obj -66 261 noguitgl;
#X obj -66 287 expr 1-$f1;
#X obj -66 313 sel 0 1;
#N canvas 0 50 357 526 esc 0;
#X obj 89 80 key;
#X obj 89 106 sel 27;
#X obj 125 339 + 1;
#X obj 122 232 del 500;
#X obj 89 132 t b b;
#X obj 122 180 change;
#X msg 122 154 1;
#X obj 122 206 t b;
#X msg 159 154 set 0;
#X msg 122 307 1;
#X obj 89 323 f 1;
#X obj 74 349 f;
#X obj 74 377 expr if($f1>2 \, 1 \, 0);
#X obj 74 403 sel 1;
#X obj 122 258 t b b;
#X obj 74 429 outlet;
#X connect 0 0 1 0;
#X connect 1 0 4 0;
#X connect 2 0 10 1;
#X connect 3 0 14 0;
#X connect 4 0 10 0;
#X connect 4 1 6 0;
#X connect 5 0 7 0;
#X connect 6 0 5 0;
#X connect 7 0 3 0;
#X connect 8 0 5 0;
#X connect 9 0 10 1;
#X connect 10 0 2 0;
#X connect 10 0 11 1;
#X connect 11 0 12 0;
#X connect 12 0 13 0;
#X connect 13 0 15 0;
#X connect 14 0 9 0;
#X connect 14 0 8 0;
#X connect 14 1 11 0;
#X restore -66 235 pd esc;
#X msg -168 355 \; ALFALOOP.pd editmode 1 \; alfaloop.pd editmode 1
;
#X msg -192 405 \; ALFALOOP.pd editmode 0 \; alfaloop.pd editmode 0
;
#X connect 0 0 2 0;
#X connect 0 1 1 0;
#X connect 1 0 3 0;
#X connect 1 1 3 0;
#X connect 1 2 7 0;
#X connect 2 0 11 0;
#X connect 3 0 2 1;
#X connect 4 0 9 0;
#X connect 4 0 5 0;
#X connect 5 0 8 0;
#X connect 6 0 5 1;
#X connect 6 0 9 1;
#X connect 7 0 2 1;
#X connect 7 0 9 1;
#X connect 8 0 13 0;
#X connect 9 0 10 0;
#X connect 10 0 13 0;
#X connect 11 0 6 0;
#X connect 12 0 13 1;
#X connect 13 0 16 0;
#X connect 14 0 15 0;
#X connect 14 0 16 0;
#X connect 14 0 3 0;
#X connect 15 0 13 1;
#X connect 17 0 18 0;
#X connect 18 0 19 0;
#X connect 18 0 13 1;
#X connect 20 0 17 0;
#X restore 251 212 pd avoid_editmode;
#X msg 331 248 0;
#X text 363 241 reset loop-count (dangerous!);
#X text 363 253 overwrites existing loops...;
#N canvas 612 50 686 426 info 0;
#X obj 42 30 infoctl latency \$0;
#X obj 487 100 r \$0-infoInUse;
#X obj 42 56 infoctl inputOutput \$0;
#X obj 42 82 infoctl recording \$0;
#X obj 42 108 infoctl loop \$0;
#X obj 42 134 infoctl fades \$0;
#X obj 42 160 infoctl volumes \$0;
#X obj 42 186 infoctl auto \$0;
#X obj 200 30 infoctl midiKeys \$0;
#X obj 200 56 infoctl alfaloop \$0;
#X obj 200 82 infoctl rec \$0;
#X obj 200 108 infoctl over \$0;
#X obj 200 134 infoctl feedback \$0;
#X obj 200 160 infoctl ducking \$0;
#X obj 200 186 infoctl themes \$0;
#X obj 358 220 pack s f;
#X obj 358 168 symbol \$1;
#X obj 403 194 lbf \$2;
#X obj 358 143 symbol;
#X msg 487 126 symbol \$1infoBig;
#X obj 358 30 r \$0-infosizeCtl;
#X obj 358 59 sel 0 1;
#X obj 454 152 symbol;
#X msg 391 116 symbol \$1info;
#X msg 358 246 \; pd-info_huelle clear \; pd-info_huelle obj 0 0 info/\$1
\$2 \;;
#X obj 487 22 loadbang;
#N canvas 724 50 450 300 writetxt 0;
#X obj 131 74 inlet;
#X obj 149 207 textfile;
#X msg 131 169 write info/lastinfo.txt;
#X msg 200 143 clear;
#X obj 131 100 t b s b;
#X msg 150 143 add2 \$1;
#X connect 0 0 4 0;
#X connect 2 0 1 0;
#X connect 3 0 1 0;
#X connect 4 0 2 0;
#X connect 4 1 5 0;
#X connect 4 2 3 0;
#X connect 5 0 1 0;
#X restore 592 116 pd writetxt;
#X obj 487 48 readtxt info/lastinfo.txt;
#X obj 487 74 unpack s;
#X connect 1 0 19 0;
#X connect 1 0 23 0;
#X connect 1 0 26 0;
#X connect 15 0 24 0;
#X connect 16 0 15 0;
#X connect 17 0 15 1;
#X connect 18 0 16 0;
#X connect 19 0 22 1;
#X connect 20 0 21 0;
#X connect 21 0 18 0;
#X connect 21 1 22 0;
#X connect 22 0 16 0;
#X connect 23 0 18 1;
#X connect 25 0 27 0;
#X connect 27 0 28 0;
#X connect 28 0 23 0;
#X connect 28 0 19 0;
#X restore 251 238 pd info;
#N canvas 538 50 742 535 latency 0;
#X obj 360 225 switch~;
#X msg 360 137 1;
#X obj 416 139 r \$0-latencySwitchOff;
#X msg 471 209 0;
#X obj 223 153 s \$0-startLatencyTest;
#X obj 446 108 s \$0-latencyKill;
#X obj 333 111 t b b;
#X obj 419 30 r \$0-latency_testCtl;
#X obj 419 56 t b b;
#X msg 446 82 0 10;
#X obj 396 95 del 11;
#X obj 416 165 t b b;
#X obj 416 261 s \$0-latencyKill;
#X obj 416 199 del 100;
#X msg 416 235 1 10;
#X obj 59 289 timer;
#X obj -126 211 timer;
#N canvas 892 296 461 319 env 0;
#X obj 94 242 outlet;
#X obj 127 35 inlet~;
#X obj 127 61 env~;
#X obj 94 216 spigot;
#X obj 127 140 t b b;
#X msg 127 173 0;
#X msg 154 173 1;
#X obj 127 114 sel 1;
#X obj 171 140 loadbang;
#X obj 243 157 r \$0-openLatency;
#X obj 127 88 expr if($f1>90 \, 1 \, 0);
#X connect 1 0 2 0;
#X connect 2 0 10 0;
#X connect 3 0 0 0;
#X connect 4 0 5 0;
#X connect 4 1 3 0;
#X connect 5 0 3 1;
#X connect 6 0 3 1;
#X connect 7 0 4 0;
#X connect 8 0 6 0;
#X connect 9 0 6 0;
#X connect 10 0 7 0;
#X restore 86 263 pd env;
#N canvas 255 87 387 303 env 0;
#X obj 24 250 outlet;
#X obj 57 35 inlet~;
#X obj 57 61 env~;
#X obj 24 216 spigot;
#X obj 57 140 t b b;
#X msg 57 173 0;
#X msg 84 173 1;
#X obj 57 114 sel 1;
#X obj 100 141 loadbang;
#X obj 162 157 r \$0-openLatency;
#X obj 57 88 expr if($f1>90 \, 1 \, 0);
#X connect 1 0 2 0;
#X connect 2 0 10 0;
#X connect 3 0 0 0;
#X connect 4 0 5 0;
#X connect 4 1 3 0;
#X connect 5 0 3 1;
#X connect 6 0 3 1;
#X connect 7 0 4 0;
#X connect 8 0 6 0;
#X connect 9 0 6 0;
#X connect 10 0 7 0;
#X restore 59 195 pd env;
#X obj -126 315 s \$0-threshLatencyCtlIn;
#X obj -126 237 * 1000;
#X obj -126 263 i;
#X obj -126 289 / 1000;
#X obj 86 238 catch~ \$0-latencyIn;
#X obj 126 198 throw~ \$0-latencyDone;
#X obj 80 79 s \$0-openLatency;
#N canvas 318 50 605 398 latency_audio 0;
#X obj 24 154 f;
#X obj 38 121 del 500;
#X obj 330 82 t b f;
#X obj 332 151 f;
#X obj 298 121 del 500;
#X obj 70 82 t b f;
#X obj 22 179 pack f \$0;
#X obj 332 179 pack f \$0;
#X obj 71 34 r \$0-latencyInputCtl;
#X obj 330 32 r \$0-latencyOutputCtl;
#X msg 22 209 \; pd-\$2-latencyInput clear \; pd-\$2-latencyInput obj
0 0 adc~ \$1 \; pd-\$2-latencyInput obj 0 30 outlet~ \; pd-\$2-latencyInput
connect 0 0 1 0 \; pd-\$2-latencyHome connect 0 0 1 0 \;;
#X msg 332 209 \; pd-\$2-latencyOutput clear \; pd-\$2-latencyOutput
obj 0 0 inlet~ \; pd-\$2-latencyOutput obj 0 30 dac~ \$1 \; pd-\$2-latencyOutput
connect 0 0 1 0 \; pd-\$2-latencyHome connect 2 0 3 0 \;;
#N canvas 568 474 450 300 \$0-latencyHome 0;
#N canvas 505 50 450 300 \$0-latencyInput 0;
#X obj 0 0 adc~ 3;
#X obj 0 30 outlet~;
#X connect 0 0 1 0;
#X restore 47 80 pd \$0-latencyInput;
#X obj 40 118 throw~ \$0-latencyIn;
#X obj 184 82 catch~ \$0-latencyDone;
#N canvas 6 241 450 300 \$0-latencyOutput 0;
#X obj 0 0 inlet~;
#X obj 0 30 dac~ 3;
#X connect 0 0 1 0;
#X restore 185 116 pd \$0-latencyOutput;
#X connect 0 0 1 0;
#X connect 2 0 3 0;
#X restore 26 326 pd \$0-latencyHome;
#X connect 0 0 6 0;
#X connect 1 0 0 0;
#X connect 2 0 4 0;
#X connect 2 1 3 1;
#X connect 3 0 7 0;
#X connect 4 0 3 0;
#X connect 5 0 1 0;
#X connect 5 1 0 1;
#X connect 6 0 10 0;
#X connect 7 0 11 0;
#X connect 8 0 5 0;
#X connect 9 0 2 0;
#X restore -117 30 pd latency_audio;
#X obj 41 30 r \$0-startLatencyTest;
#X obj 59 315 * 1000;
#X obj 59 341 i;
#X obj 59 367 / 1000;
#X obj 223 127 del 100;
#X msg -56 124 1;
#X obj -56 72 del 100;
#X obj -56 98 t b b;
#X obj 41 56 t b b b;
#X obj 59 470 s \$0-latencySwitchOff;
#X obj 59 444 del 1000;
#X obj 60 140 readsf~;
#X msg 60 108 open beep.wav;
#X obj 59 393 t b f;
#X obj 86 419 s \$0-offsetCtlIn;
#X connect 1 0 0 0;
#X connect 2 0 11 0;
#X connect 3 0 0 0;
#X connect 6 0 31 0;
#X connect 6 1 1 0;
#X connect 7 0 8 0;
#X connect 8 0 10 0;
#X connect 8 1 9 0;
#X connect 9 0 5 0;
#X connect 10 0 6 0;
#X connect 11 0 13 0;
#X connect 11 1 3 0;
#X connect 13 0 14 0;
#X connect 14 0 12 0;
#X connect 15 0 28 0;
#X connect 16 0 20 0;
#X connect 17 0 15 1;
#X connect 18 0 16 1;
#X connect 18 0 15 0;
#X connect 20 0 21 0;
#X connect 21 0 22 0;
#X connect 22 0 19 0;
#X connect 23 0 17 0;
#X connect 27 0 35 0;
#X connect 28 0 29 0;
#X connect 29 0 30 0;
#X connect 30 0 40 0;
#X connect 31 0 4 0;
#X connect 32 0 38 0;
#X connect 33 0 34 0;
#X connect 34 0 32 0;
#X connect 34 1 16 0;
#X connect 35 0 33 0;
#X connect 35 1 39 0;
#X connect 35 2 25 0;
#X connect 37 0 36 0;
#X connect 38 0 18 0;
#X connect 38 0 24 0;
#X connect 39 0 38 0;
#X connect 40 0 37 0;
#X connect 40 1 41 0;
#X restore 396 56 pd latency;
#X obj 53 56 f \$0;
#X obj 53 30 loadbang;
#X obj 53 170 pipe 100;
#X msg 62 81 \; \$1-feedback_ctl 0 \; \$1-ducking_ctl 0 \; pd dsp 1
\; \$1-rec_ctl 127;
#X msg 53 196 \; \$1-rec_ctl 127 \; pd dsp 1;
#N canvas 857 330 423 225 add_ms/s_to_canvas 0;
#X obj 21 33 r \$0-maxLengthCtl;
#X obj 21 59 pipe 100;
#X obj 21 85 pack f \$0;
#X msg 21 111 \; \$2-maxLengthCanvasIn label max-length:\$1s;
#X connect 0 0 1 0;
#X connect 1 0 2 0;
#X connect 2 0 3 0;
#X restore 396 212 pd add_ms/s_to_canvas;
#X text 53 260 Marco Baumgartner 30/11/2014;
#X text 52 247 ALFALOOP 0.1.3;
#X connect 10 0 9 0;
#X connect 14 0 17 0;
#X connect 18 0 12 0;
#X connect 23 0 26 0;
#X connect 23 0 25 0;
#X connect 24 0 23 0;
#X connect 25 0 27 0;
#X restore 920 585 pd stuff;
#X obj 0 0 cnv 15 983 575 empty \$0-settingsBg ALFALOOP_0.1.3 7 10
0 11 -166441 -262144 0;
#N canvas 0 50 450 300 cpu_load 0;
#X obj 100 100 cnv 12 105 14 empty \$0-settingsFont empty 108 10 0
11 -33289 -262144 0;
#X obj 100 101 cnv 1 16 12 \$0-loadMeterCanvas \$0-loadMeterCanvasIn
cpu:12% 111 6 0 10 -166441 -262144 0;
#X obj 100 100 cnv 4 4 14 empty \$0-settingsFont empty 108 10 0 11
-33289 -262144 0;
#X obj 100 100 cnv 3 3 14 empty \$0-settingsBg empty 20 12 0 14 -166441
-262144 0;
#X coords 0 -1 1 1 105 14 2 100 100;
#X restore 345 3 pd cpu_load;
#X obj 1 21 cnv 15 981 553 empty empty empty 7 10 0 11 -262144 -33289
0;
#X obj 43 61 infobnginv rec \$0;
#X obj 43 274 infobnginv feedback \$0;
#X obj 453 61 infobnginv over \$0;
#X obj 453 274 infobnginv ducking \$0;
#X obj 108 0 infobng alfaloop \$0;
#X obj 518 0 infobng themes \$0;
#X obj 675 336 cnv 15 308 239 empty \$0-settingsBg midi/keys 7 10 0
11 -166441 -262144 0;
#X obj 961 336 infobng midiKeys \$0;
#X obj 540 1 bangctl2 themeDark dark \$0;
#X obj 752 1 numbers2 themeBack background 0 22 \$0;
#X obj 880 376 cnv 5 102 5 empty empty empty 20 12 0 14 -262144 -66577
0;
#N canvas 280 231 450 300 infosize 0;
#X obj 160 0 r \$0-infosizeCtl;
#X obj 100 100 tgl 18 0 \$0-infosizeCtl \$0-infosizeCtlIn empty 17
7 0 10 -262144 -1 -1 0 1;
#X obj 230 153 pack s \$0;
#X msg 253 80 symbol +;
#X msg 212 115 symbol -;
#X obj 160 25 sel 0 1;
#X msg 230 182 \; \$2-infosizeCanvasIn color 0 22 \; \$2-infosizeCanvasIn
label \$1;
#X obj 100 100 cnv 15 18 18 empty \$0-infosizeCanvasIn - 6 10 0 11
-262144 -1 0;
#X connect 0 0 5 0;
#X connect 2 0 6 0;
#X connect 3 0 2 0;
#X connect 4 0 2 0;
#X connect 5 0 4 0;
#X connect 5 1 3 0;
#X coords 0 -1 1 1 18 18 2 100 100;
#X restore 964 1 pd infosize;
#X obj 72 64 engine \$0;
#N canvas 22 399 719 294 settings 0;
#X obj 0 0 cnv 15 662 239 empty \$0-settingsBg empty 20 12 0 14 -166441
-262144 0;
#X obj 1 0 cnv 15 661 238 empty empty empty 20 12 0 14 -262144 -66577
0;
#X obj 225 0 cnv 15 212 99 empty \$0-settingsBg loop(cross-fade/length)
7 10 0 11 -166441 -262144 0;
#X obj 0 80 cnv 15 212 59 empty \$0-settingsBg input/output 7 10 0
11 -166441 -262144 0;
#N canvas 687 337 390 169 output 0;
#X obj 2 0 nbx 10 18 0 8 0 0 \$0-audioOutputCtl \$0-audioOutputCtlIn
empty 0 -8 0 10 -262144 -1 -1 1 256;
#X obj 23 71 noguitgl;
#X obj 23 46 r \$0-stereoOutCtlIn;
#X obj 23 97 s \$0-stereoOutCtl;
#X obj 0 0 cnv 15 104 18 \$0-outputCanvas \$0-outputCanvasIn output:1/2
6 9 0 10 -262144 -1 0;
#X connect 1 0 3 0;
#X connect 2 0 1 0;
#X coords 0 -1 1 1 104 18 2 0 0;
#X restore 1 120 pd output;
#N canvas 0 50 450 300 output2 0;
#X obj 102 100 hradio 18 1 0 5 empty empty empty 0 -8 0 10 -262144
-1 -1 0;
#X obj 102 129 t b;
#X obj 102 155 s \$0-stereoOutCtlIn;
#X obj 100 100 cnv 15 104 18 \$0-monoStereoCanvas \$0-monoStereoCanvasIn
stereo 5 9 0 10 -262144 -1 0;
#X connect 0 0 1 0;
#X connect 1 0 2 0;
#X coords 0 -1 1 1 104 18 2 100 100;
#X restore 107 120 pd output2;
#X obj 0 0 cnv 15 212 59 empty \$0-settingsBg latency(ms) 7 10 0 11
-166441 -262144 0;
#X obj 1 40 bangctl latency_test latency-test \$0;
#X obj 450 0 cnv 15 212 59 empty \$0-settingsBg volumes 7 10 0 11 -166441
-262144 0;
#X obj 450 80 cnv 15 212 159 empty \$0-settingsBg auto(over/rec) 7
10 0 11 -166441 -262144 0;
#X obj 107 100 cnv 15 104 18 empty \$0-settingsText empty 6 10 0 11
-262144 -33289 0;
#X obj 451 200 cnv 15 104 18 empty \$0-threshOnCanvasIn ON 6 9 0 11
-233017 -262144 0;
#X obj 557 200 cnv 15 104 18 empty \$0-threshOffCanvasIn OFF 6 9 0
11 -233017 -262144 0;
#X obj 451 220 cnv 15 210 18 empty \$0-threshOverCanvasIn OVER 6 9
0 11 -233017 -262144 0;
#X obj 451 160 cnv 15 210 38 empty empty empty 20 12 0 14 -262144 -66577
0;
#X obj 451 179 cnv 15 105 19 empty \$0-settingsBg empty 20 12 0 14
-166441 -262144 0;
#X obj 0 160 cnv 15 212 79 empty \$0-settingsBg recording 7 10 0 11
-166441 -262144 0;
#X obj 8 200 hradio 38 1 0 5 \$0-hradio2recCtl empty empty 0 -8 0 10
-262144 -1 -1 0;
#X obj 226 60 cnv 15 210 38 empty \$0-delNowCanvas delay:227 6 20 0
11 -262144 -1 0;
#X obj 225 120 cnv 15 212 119 empty \$0-settingsBg fades(over/ducking)
7 10 0 11 -166441 -262144 0;
#X obj 226 160 cnv 15 210 38 empty empty empty 20 12 0 14 -262144 -66577
0;
#X obj 226 160 cnv 15 105 19 empty \$0-settingsBg empty 20 12 0 14
-166441 -262144 0;
#X obj 415 120 infobng fades \$0;
#X obj 557 40 cnv 15 104 18 empty \$0-settingsText empty 6 10 0 11
-262144 -33289 0;
#X obj 107 180 cnv 15 104 18 empty \$0-settingsText empty 6 10 0 11
-262144 -33289 0;
#X obj 190 0 infobng latency \$0;
#X obj 190 80 infobng inputOutput \$0;
#X obj 190 160 infobng recording \$0;
#X obj 415 0 infobng loop \$0;
#X obj 640 0 infobng volumes \$0;
#X obj 640 80 infobng auto \$0;
#X obj 451 100 tglctl autoover auto-over on off \$0;
#X obj 1 200 cnv 15 210 38 empty \$0-record2diskCanvasIn recording
6 20 0 11 -262144 -128992 0;
#X obj 226 20 numbers fadeLength x-fade 0 5000 \$0;
#X obj 332 40 bangctl resetCFOffset mid-point \$0;
#X obj 1 20 numbers offset latency 0 1000 \$0;
#X obj 1 100 numbers audioInput input 0 8 \$0;
#X obj 332 20 numbers cFOffset x-offset -1000 -10 \$0;
#X obj 107 20 numbers latencyOutput test-output 0 8 \$0;
#X obj 107 40 numbers latencyInput test-input 0 8 \$0;
#X obj 226 40 numbers maxLength max-length 1 20 \$0;
#X obj 451 120 numbers thresholdOn thresh-on 0 100 \$0;
#X obj 451 140 numbers thresholdOff thresh-off 0 100 \$0;
#X obj 557 120 numbers thresholdWait1 wait4off 0 10000 \$0;
#X obj 557 140 numbers thresholdWait2 wait4on 0 10000 \$0;
#X obj 226 140 numbers overfadeIn over-in 0 1000 \$0;
#X obj 332 140 numbers overOffset o-offset -1000 0 \$0;
#X obj 226 200 numbers duckfadeIn duck-in 0 1000 \$0;
#X obj 226 220 numbers duckfadeOut duck-out 0 1000 \$0;
#X obj 332 200 numbers duckOffset d-offset -1000 0 \$0;
#X obj 226 160 numbers overfadeOut over-out 0 1000 \$0;
#X obj 451 20 tglctl playLoud loud(feedb) on off \$0;
#X obj 451 180 tglctl showtest test on off \$0;
#X obj 1 180 tglctl mic2rec direct-rec on off \$0;
#X obj 557 20 tglctl playLoudDuck loud(over) on off \$0;
#X obj 451 40 tglctl recKillsOver overkill on off \$0;
#X obj 557 100 tglctl autorec auto-rec on off \$0;
#X obj 332 220 tglctl instantDuck inst on off \$0;
#X coords 0 -1 1 1 662 239 2 0 0;
#X restore 0 336 pd settings;
#N canvas 113 114 664 640 ctl_huelle 0;
#X obj 0 19 keys 2076;
#X obj 0 0 clearall Key 2076;
#X coords 0 -1 1 1 306 192 2 0 0;
#X restore 676 382 pd ctl_huelle;
#N canvas 0 50 611 453 ctl_panel 0;
#X obj 307 186 sel 0 1;
#X obj 307 285 f \$0;
#X obj 326 212 f \$0;
#X obj 307 160 r \$0-midicontrolCtl;
#X obj 101 100 hradio 25 1 0 4 empty empty empty 0 -8 0 10 -262144
-1 -1 0;
#X obj 100 170 t b;
#X obj 157 160 r \$0-midicontrolCtlIn;
#X obj 157 186 noguitgl;
#X obj 157 212 s \$0-midicontrolCtl;
#X msg 326 238 \; \$1-midiStatusCanvas color 0 22;
#X msg 309 321 \; \$1-midiStatusCanvas color 0 10;
#X obj 100 100 cnv 15 101 25 empty \$0-midiStatusCanvas midi 40 9 0
10 -262144 -1 0;
#X obj 119 116 cnv 1 2 7 empty \$0-midiIconIn empty 20 12 0 14 -233017
-262144 0;
#X obj 113 111 cnv 1 3 2 empty \$0-midiIconIn empty 20 12 0 14 -233017
-262144 0;
#X obj 123 115 cnv 1 2 2 empty \$0-midiIconIn empty 20 12 0 14 -233017
-262144 0;
#X obj 124 116 cnv 1 2 2 empty \$0-midiIconIn empty 20 12 0 14 -233017
-262144 0;
#X obj 125 117 cnv 1 2 2 empty \$0-midiIconIn empty 20 12 0 14 -233017
-262144 0;
#X obj 126 118 cnv 1 2 2 empty \$0-midiIconIn empty 20 12 0 14 -233017
-262144 0;
#X obj 127 119 cnv 1 2 2 empty \$0-midiIconIn empty 20 12 0 14 -233017
-262144 0;
#X obj 111 119 cnv 1 2 2 empty \$0-midiIconIn empty 20 12 0 14 -233017
-262144 0;
#X obj 112 118 cnv 1 2 2 empty \$0-midiIconIn empty 20 12 0 14 -233017
-262144 0;
#X obj 113 117 cnv 1 2 2 empty \$0-midiIconIn empty 20 12 0 14 -233017
-262144 0;
#X obj 114 116 cnv 1 2 2 empty \$0-midiIconIn empty 20 12 0 14 -233017
-262144 0;
#X obj 115 115 cnv 1 2 2 empty \$0-midiIconIn empty 20 12 0 14 -233017
-262144 0;
#X obj 111 112 cnv 1 3 2 empty \$0-midiIconIn empty 20 12 0 14 -233017
-262144 0;
#X obj 109 113 cnv 1 3 2 empty \$0-midiIconIn empty 20 12 0 14 -233017
-262144 0;
#X obj 124 111 cnv 1 3 2 empty \$0-midiIconIn empty 20 12 0 14 -233017
-262144 0;
#X obj 126 112 cnv 1 3 2 empty \$0-midiIconIn empty 20 12 0 14 -233017
-262144 0;
#X obj 128 113 cnv 1 3 2 empty \$0-midiIconIn empty 20 12 0 14 -233017
-262144 0;
#X connect 0 0 1 0;
#X connect 0 1 2 0;
#X connect 1 0 10 0;
#X connect 2 0 9 0;
#X connect 3 0 0 0;
#X connect 4 0 5 0;
#X connect 5 0 7 0;
#X connect 6 0 7 0;
#X connect 7 0 8 0;
#X coords 0 -1 1 1 101 25 2 100 100;
#X restore 676 356 pd ctl_panel;
#N canvas 0 50 568 412 key_active 0;
#X obj 278 160 r \$0-keycontrolCtl;
#X obj 278 186 sel 0 1;
#X obj 278 285 f \$0;
#X obj 297 212 f \$0;
#X obj 101 100 hradio 25 1 0 4 empty empty empty 0 -8 0 10 -262144
-1 -1 0;
#X obj 102 170 t b;
#X obj 134 186 noguitgl;
#X obj 134 160 r \$0-keycontrolCtlIn;
#X obj 134 212 s \$0-keycontrolCtl;
#X msg 296 238 \; \$1-keyStatusCanvas color 0 22;
#X msg 278 311 \; \$1-keyStatusCanvas color 0 10;
#X obj 100 100 cnv 15 101 25 empty \$0-keyStatusCanvas keys 32 9 0
10 -262144 -233017 0;
#X obj 106 108 cnv 1 17 17 empty \$0-keyIconIn empty 20 12 0 14 -1
-262144 0;
#X obj 107 109 cnv 10 15 15 empty empty empty 20 12 0 14 -262144 -262144
0;
#X obj 111 112 cnv 1 1 9 empty \$0-keyIconIn empty 20 12 0 14 -1 -262144
0;
#X obj 116 113 cnv 1 1 1 empty \$0-keyIconIn empty 20 12 0 14 -1 -262144
0;
#X obj 117 112 cnv 1 1 1 empty \$0-keyIconIn empty 20 12 0 14 -1 -262144
0;
#X obj 115 117 cnv 1 1 1 empty \$0-keyIconIn empty 20 12 0 14 -1 -262144
0;
#X obj 116 118 cnv 1 1 1 empty \$0-keyIconIn empty 20 12 0 14 -1 -262144
0;
#X obj 117 119 cnv 1 1 1 empty \$0-keyIconIn empty 20 12 0 14 -1 -262144
0;
#X obj 118 120 cnv 1 1 1 empty \$0-keyIconIn empty 20 12 0 14 -1 -262144
0;
#X obj 115 114 cnv 1 1 1 empty \$0-keyIconIn empty 20 12 0 14 -1 -262144
0;
#X obj 114 115 cnv 1 1 1 empty \$0-keyIconIn empty 20 12 0 14 -1 -262144
0;
#X obj 113 116 cnv 1 1 1 empty \$0-keyIconIn empty 20 12 0 14 -1 -262144
0;
#X obj 112 117 cnv 1 1 1 empty \$0-keyIconIn empty 20 12 0 14 -1 -262144
0;
#X connect 0 0 1 0;
#X connect 1 0 2 0;
#X connect 1 1 3 0;
#X connect 2 0 10 0;
#X connect 3 0 9 0;
#X connect 4 0 5 0;
#X connect 5 0 6 0;
#X connect 6 0 8 0;
#X connect 7 0 6 0;
#X coords 0 -1 1 1 101 25 2 100 100;
#X restore 778 356 pd key_active;
#N canvas 228 50 558 384 showmidi 0;
#X obj 160 26 sel 1 0;
#X obj 6 0 hradio 18 1 0 5 empty empty empty 0 -8 0 10 -262144 -1 -1
4;
#X obj 38 79 noguitgl;
#X obj 6 63 t b;
#X obj 0 0 cnv 15 101 18 \$0-switchCanvas2 \$0-switchCanvas2In keys
72 9 0 10 -262144 -1 0;
#X obj 0 0 cnv 15 18 18 \$0-switchCanvas \$0-switchCanvasIn show: 5
9 0 10 -262144 -128992 0;
#X obj 160 0 r \$0-switchCtl;
#X obj 38 53 r \$0-switchCtlIn;
#X obj 38 105 s \$0-switchCtl;
#X msg 160 78 symbol midi;
#X msg 179 52 symbol keys;
#X obj 160 104 pack s \$0;
#X msg 160 130 \; \$2-switchCanvasIn color 0 11 \; \$2-switchCanvas2In
label \$1;
#X connect 0 0 9 0;
#X connect 0 1 10 0;
#X connect 1 0 3 0;
#X connect 2 0 8 0;
#X connect 3 0 2 0;
#X connect 6 0 0 0;
#X connect 7 0 2 0;
#X connect 9 0 11 0;
#X connect 10 0 11 0;
#X connect 11 0 12 0;
#X coords 0 -1 1 1 101 18 2 0 0;
#X restore 881 356 pd showmidi;
#N canvas 66 398 472 295 info_huelle 0;
#X obj 0 0 info/autoinfo 2076;
#X coords 0 -1 1 1 442 285 2 0 0;
#X restore 528 34 pd info_huelle;
#X obj 646 1 bangctl2 themeLight light \$0;
#X obj 858 1 numbers2 themeFont font 0 22 \$0;
#X text 742 585 Marco Baumgartner 30/11/2015;
#X coords 0 -1 1 1 983 575 2 0 0;
