#N canvas 186 75 460 301 10;
#X obj 100 100 bng 19 250 50 0 \$2-\$1info empty empty 20 8 0 11 -262144
-1 -1;
#X obj 100 100 cnv 19 19 19 empty \$2-\$1infoCanvasIn (i) -1 10 0 11
-262144 -33289 0;
#X obj 313 124 del 250;
#X msg 195 82 10;
#X obj 195 56 r \$2-\$1info;
#X obj 264 163 lbf \$2;
#X obj 271 72 unpack f f;
#X obj 241 137 ts \$1;
#X obj 313 150 f;
#X obj 271 49 r \$2-settingsColor;
#X obj 328 98 max 1;
#X obj 195 219 pack f s f;
#X obj 195 108 t f b;
#X msg 195 245 \; \$3-\$2infoCanvasIn color 0 \$1;
#X connect 2 0 8 0;
#X connect 3 0 12 0;
#X connect 4 0 3 0;
#X connect 5 0 11 2;
#X connect 6 1 10 0;
#X connect 7 0 11 1;
#X connect 8 0 11 0;
#X connect 9 0 6 0;
#X connect 10 0 8 1;
#X connect 10 0 11 0;
#X connect 11 0 13 0;
#X connect 12 0 11 0;
#X connect 12 1 2 0;
#X coords 0 -1 1 1 19 19 2 100 100;
