#N canvas 680 49 361 480 10;
#X obj 43 331 spigot;
#X obj 111 331 spigot;
#X obj 144 273 expr 1-$f1;
#X obj 43 179 t f f;
#X obj 144 195 sel 1;
#N canvas 0 0 450 300 noguitgl 0;
#X obj 52 120 + 1;
#X obj 125 110 sel 1;
#X obj 52 49 inlet;
#X obj 17 145 outlet;
#X msg 125 136 0;
#X obj 52 94 f 1;
#X connect 0 0 5 1;
#X connect 1 0 4 0;
#X connect 2 0 5 0;
#X connect 4 0 5 1;
#X connect 5 0 0 0;
#X connect 5 0 3 0;
#X connect 5 0 1 0;
#X restore 144 299 pd noguitgl;
#X text 222 36 \$1 = duck/over;
#X text 222 49 \$2 = main-\$0;
#X obj 43 415 s \$2-\$1Pipe;
#X obj 144 247 r \$2-\$1PipeSwitch;
#N canvas 1146 309 331 243 pipePost 0;
#X obj 45 85 del;
#X msg 45 111 0;
#X obj 45 33 inlet;
#X obj 60 59 r \$2-\$1Offset;
#X obj 45 137 s \$2-\$1PipeSwitch;
#X msg 152 49 1;
#X obj 152 75 s \$2-\$1PipeSwitch;
#X connect 0 0 1 0;
#X connect 1 0 4 0;
#X connect 2 0 0 0;
#X connect 2 0 5 0;
#X connect 3 0 0 1;
#X connect 5 0 6 0;
#X restore 144 221 pd pipePost;
#X obj 43 39 r \$2-over;
#X obj 43 150 pipe;
#X obj 64 65 r \$2-\$1PipePre;
#X obj 132 91 r \$2-pipePost;
#X obj 111 169 pipe;
#X obj 111 39 r \$2-\$1ClearPipe;
#X obj 132 117 t f b;
#X obj 64 91 t f b;
#X msg 121 143 clear;
#X msg 53 124 clear;
#X connect 0 0 8 0;
#X connect 1 0 8 0;
#X connect 2 0 5 0;
#X connect 3 0 0 0;
#X connect 3 1 4 0;
#X connect 4 0 10 0;
#X connect 5 0 1 1;
#X connect 9 0 2 0;
#X connect 9 0 0 1;
#X connect 11 0 12 0;
#X connect 11 0 15 0;
#X connect 12 0 3 0;
#X connect 13 0 18 0;
#X connect 14 0 17 0;
#X connect 15 0 1 0;
#X connect 16 0 15 0;
#X connect 16 0 12 0;
#X connect 17 0 15 1;
#X connect 17 1 19 0;
#X connect 18 0 12 1;
#X connect 18 1 20 0;
#X connect 19 0 15 0;
#X connect 20 0 12 0;
