#N canvas 704 8 637 419 10;
#X obj 66 303 *~;
#X obj 185 56 t b f;
#X obj 256 157 del;
#X msg 256 261 0 \$1;
#X obj 386 315 *~;
#X msg 329 272 1 \$1;
#X msg 351 221 0 10;
#X obj 271 131 -;
#X obj 366 121 +;
#X obj 351 147 del;
#X obj 81 277 sinfade;
#X obj 402 288 sinfade;
#X obj 185 235 del;
#X msg 81 251 1 10;
#X obj 200 209 + 12;
#X obj 381 95 + 12;
#X text 39 27 \$1 = live/tape;
#X text 39 37 \$2 = cFOffsetBMs;
#X text 39 57 \$4 = off+cFOffsetASmpl;
#X text 39 47 \$3 = off+cFOffsetAMs;
#X text 39 67 \$5 = \$0;
#X obj 185 30 r \$5-length;
#X obj 381 69 r \$5-\$2;
#X obj 65 221 tabplay~ \$5-\$1Rec;
#X obj 256 183 tf cFMs 0 \$5;
#X obj 385 173 tabplay~ \$5-\$1Rec;
#X obj 286 105 r \$5-\$3;
#X obj 65 192 tf \$4 0 \$5;
#X obj 200 183 r \$5-\$2;
#X obj 66 330 throw~ \$5-\$1FromTable;
#X text 196 252 1000;
#X connect 0 0 29 0;
#X connect 1 0 2 0;
#X connect 1 0 9 0;
#X connect 1 0 12 0;
#X connect 1 0 27 0;
#X connect 1 1 7 0;
#X connect 1 1 8 0;
#X connect 2 0 24 0;
#X connect 2 0 25 0;
#X connect 3 0 10 0;
#X connect 4 0 29 0;
#X connect 5 0 11 0;
#X connect 6 0 11 0;
#X connect 7 0 2 1;
#X connect 8 0 9 1;
#X connect 9 0 6 0;
#X connect 10 0 0 1;
#X connect 11 0 4 1;
#X connect 12 0 13 0;
#X connect 13 0 10 0;
#X connect 14 0 12 1;
#X connect 15 0 8 1;
#X connect 21 0 1 0;
#X connect 22 0 15 0;
#X connect 23 0 0 0;
#X connect 24 0 3 0;
#X connect 24 0 5 0;
#X connect 25 0 4 0;
#X connect 26 0 7 1;
#X connect 27 0 23 0;
#X connect 28 0 14 0;
