#N canvas 1126 275 335 320 10;
#X obj 17 61 inlet;
#X obj 17 216 outlet~;
#X obj 17 190 cos~;
#X obj 17 164 line~;
#X obj 17 112 expr (1-$f1)*0.25;
#X obj 17 87 unpack f f;
#X obj 17 138 pack f f;
#X connect 0 0 5 0;
#X connect 2 0 1 0;
#X connect 3 0 2 0;
#X connect 4 0 6 0;
#X connect 5 0 4 0;
#X connect 5 1 6 1;
#X connect 6 0 3 0;
