#N canvas 0 0 450 300 10;
#X obj 135 95 inlet;
#X obj 135 171 f;
#X obj 135 202 outlet;
#X obj 184 97 r \$3-\$1;
#X obj 184 154 + \$2;
#X connect 0 0 1 0;
#X connect 1 0 2 0;
#X connect 3 0 4 0;
#X connect 4 0 1 1;
