#N canvas 557 258 729 562 10;
#X msg 52 244 stop;
#X msg 52 358 stop;
#X obj 25 218 t b b;
#X obj 25 332 t b b;
#X obj 255 228 timer;
#X msg 154 151 1;
#X obj 228 202 t b b;
#X obj 255 280 i;
#X obj 255 254 * 44.1;
#X obj 228 167 metro 40000;
#X obj 130 316 del 20000;
#X obj 154 86 t b f;
#X obj 181 289 / 2;
#X obj 154 60 / 44.1;
#X obj 453 44 t f f;
#X obj 480 70 / 2;
#N canvas 676 336 340 291 sel0 0;
#X obj 30 40 sel 0;
#X obj 57 66 outlet;
#X obj 30 15 inlet;
#X connect 0 1 1 0;
#X connect 2 0 0 0;
#X restore 330 394 pd sel0;
#N canvas 589 359 340 291 sel0 0;
#X obj 30 41 sel 0;
#X obj 57 69 outlet;
#X obj 30 15 inlet;
#X obj 80 15 inlet;
#X connect 0 1 1 0;
#X connect 2 0 0 0;
#X connect 3 0 0 0;
#X restore 405 394 pd sel0;
#N canvas 970 272 498 353 rec 0;
#X obj 52 87 t f b;
#X obj 264 87 t f b;
#X msg 222 225 stop;
#X obj 291 113 t b b;
#X msg 10 225 stop;
#X obj 79 113 t b b;
#X obj 52 51 inlet;
#X obj 264 51 inlet;
#X obj 52 205 tabplay~ \$5-\$1a;
#X obj 53 241 tabwrite~ \$5-\$1Rec;
#X obj 264 205 tabplay~ \$5-\$1b;
#X obj 264 241 tabwrite~ \$5-\$1Rec;
#X connect 0 0 8 0;
#X connect 0 1 5 0;
#X connect 1 0 10 0;
#X connect 1 1 3 0;
#X connect 2 0 11 0;
#X connect 3 0 11 0;
#X connect 3 1 2 0;
#X connect 4 0 9 0;
#X connect 5 0 9 0;
#X connect 5 1 4 0;
#X connect 6 0 0 0;
#X connect 7 0 1 0;
#X connect 8 0 9 0;
#X connect 10 0 11 0;
#X restore 330 452 pd rec;
#X obj 255 306 expr $f1 \; if($f1>=$f2&&$f1<$f3+$f2 \, $f1-$f2 \, 0)
\; if($f1<$f2 \, $f1-$f2+$f3 \, 0) \; if($f1>$f3+$f2 \, $f1-$f2-$f3
\, 0);
#X obj 453 18 r \$5-maxLengthDone;
#X obj -88 272 r~ \$5-\$2;
#X obj 25 287 tabwrite~ \$5-\$1a;
#X obj 25 401 tabwrite~ \$5-\$1b;
#X obj 367 280 r \$5-\$3;
#X obj 282 202 r \$5-\$4;
#X obj 389 153 samplerate~;
#X obj 389 130 loadbang;
#X obj 389 174 / 1000;
#X connect 0 0 22 0;
#X connect 1 0 23 0;
#X connect 2 0 22 0;
#X connect 2 1 0 0;
#X connect 3 0 23 0;
#X connect 3 1 1 0;
#X connect 4 0 8 0;
#X connect 5 0 9 0;
#X connect 6 0 2 0;
#X connect 6 0 10 0;
#X connect 6 1 4 0;
#X connect 7 0 19 0;
#X connect 8 0 7 0;
#X connect 9 0 6 0;
#X connect 10 0 3 0;
#X connect 11 0 5 0;
#X connect 11 1 9 1;
#X connect 11 1 12 0;
#X connect 12 0 10 1;
#X connect 13 0 11 0;
#X connect 14 0 13 0;
#X connect 14 1 15 0;
#X connect 15 0 19 2;
#X connect 16 0 18 0;
#X connect 17 0 18 1;
#X connect 19 1 16 0;
#X connect 19 2 17 0;
#X connect 19 3 17 1;
#X connect 20 0 14 0;
#X connect 21 0 22 0;
#X connect 21 0 23 0;
#X connect 24 0 19 1;
#X connect 25 0 4 1;
#X connect 26 0 28 0;
#X connect 27 0 26 0;
#X connect 28 0 13 1;
#X connect 28 0 8 1;
