#N canvas 803 375 668 557 10;
#X obj 122 267 dac~;
#X obj 121 205 osc~;
#X floatatom 121 175 5 0 0 0 - - -, f 5;
#X obj 121 141 mtof;
#X floatatom 121 103 5 0 0 0 - - -, f 5;
#X connect 1 0 0 0;
#X connect 1 0 0 1;
#X connect 2 0 1 0;
#X connect 3 0 2 0;
#X connect 4 0 3 0;
