#N canvas 509 162 668 557 10;
#X obj 326 454 dac~;
#X obj 325 392 osc~;
#X floatatom 325 362 5 0 0 0 - - -, f 5;
#X obj 325 328 mtof;
#X floatatom 406 260 5 0 0 0 - - -, f 5;
#X msg 178 100 60;
#X msg 204 73 61;
#X msg 228 100 62;
#X msg 254 73 63;
#X msg 278 100 64;
#X msg 318 100 65;
#X msg 347 73 66;
#X msg 368 100 67;
#X msg 397 73 68;
#X msg 418 100 69;
#X msg 447 73 70;
#X msg 468 100 71;
#X connect 1 0 0 0;
#X connect 1 0 0 1;
#X connect 2 0 1 0;
#X connect 3 0 2 0;
#X connect 4 0 3 0;
#X connect 5 0 3 0;
#X connect 6 0 3 0;
#X connect 7 0 3 0;
#X connect 8 0 3 0;
#X connect 9 0 3 0;
#X connect 10 0 3 0;
#X connect 11 0 3 0;
#X connect 12 0 3 0;
#X connect 13 0 3 0;
#X connect 14 0 3 0;
#X connect 15 0 3 0;
#X connect 16 0 3 0;
