#N canvas 803 375 668 557 10;
#X obj 114 389 dac~;
#X obj 113 327 osc~;
#X floatatom 113 297 5 0 0 0 - - -, f 5;
#X obj 113 263 mtof;
#X floatatom 113 225 5 0 0 0 - - -, f 5;
#X obj 113 166 + 0.499999;
#X floatatom 113 131 5 0 0 0 - - -, f 5;
#X obj 113 196 int;
#X obj 116 100 hsl 128 15 40 80 0 0 empty empty empty -2 -8 0 10 -262144
-1 -1 0 1;
#X connect 1 0 0 0;
#X connect 1 0 0 1;
#X connect 2 0 1 0;
#X connect 3 0 2 0;
#X connect 4 0 3 0;
#X connect 5 0 7 0;
#X connect 6 0 5 0;
#X connect 7 0 4 0;
#X connect 8 0 6 0;
