#N canvas 4 23 893 528 10;
#N canvas 4 23 984 516 kick 0;
#X obj 613 304 osc~;
#X obj 746 113 + 20;
#X obj 846 71 * 1000;
#X obj 613 146 f;
#X obj 614 259 line~;
#X obj 607 382 *~ 0.5;
#X obj 609 59 inlet;
#X obj 744 35 inlet;
#X obj 848 37 inlet;
#X obj 611 432 outlet~;
#X msg 727 213 0.5;
#X obj 618 348 *~;
#X obj 779 275 i 40;
#X obj 716 386 line~;
#X msg 732 344 1;
#X obj 776 306 t f b;
#X msg 799 352 0 \$1;
#X msg 614 221 \$1 0;
#X obj 611 93 t b b b b;
#X obj 746 69 * 100;
#X obj 846 115 + 40;
#X connect 0 0 11 0;
#X connect 1 0 3 1;
#X connect 2 0 20 0;
#X connect 3 0 17 0;
#X connect 4 0 0 0;
#X connect 5 0 9 0;
#X connect 6 0 18 0;
#X connect 7 0 19 0;
#X connect 8 0 2 0;
#X connect 10 0 0 1;
#X connect 11 0 5 0;
#X connect 12 0 15 0;
#X connect 13 0 11 1;
#X connect 14 0 13 0;
#X connect 15 0 16 0;
#X connect 15 1 14 0;
#X connect 16 0 13 0;
#X connect 17 0 4 0;
#X connect 18 0 3 0;
#X connect 18 2 10 0;
#X connect 18 3 12 0;
#X connect 19 0 1 0;
#X connect 20 0 12 1;
#X restore 274 307 pd kick;
#X obj 355 377 dac~;
#N canvas 594 72 624 395 sliderselector1 0;
#X obj 120 165 unpack f f;
#X obj 210 164 unpack f f;
#X obj 303 172 unpack f f;
#X obj 419 35 inlet;
#X obj 67 304 outlet;
#X obj 159 308 outlet;
#X obj 253 315 outlet;
#X obj 124 60 r param;
#X obj 390 175 unpack f f;
#X obj 479 179 unpack f f;
#X obj 345 316 outlet;
#X obj 439 323 outlet;
#X obj 328 121 route 0 1 2 3 4;
#X obj 172 248 spigot;
#X obj 253 264 spigot;
#X obj 358 256 spigot;
#X obj 439 272 spigot;
#X obj 66 245 spigot;
#X obj 111 210 tgl 15 0 empty empty empty 17 7 0 10 -262144 -1 -1 0
1;
#X obj 217 212 tgl 15 0 empty empty empty 17 7 0 10 -262144 -1 -1 0
1;
#X obj 301 228 tgl 15 0 empty empty empty 17 7 0 10 -262144 -1 -1 0
1;
#X obj 407 230 tgl 15 0 empty empty empty 17 7 0 10 -262144 -1 -1 0
1;
#X obj 481 239 tgl 15 0 empty empty empty 17 7 0 10 -262144 -1 -1 0
1;
#X connect 0 0 18 0;
#X connect 0 1 19 0;
#X connect 0 1 20 0;
#X connect 0 1 21 0;
#X connect 0 1 22 0;
#X connect 1 0 19 0;
#X connect 1 1 18 0;
#X connect 1 1 20 0;
#X connect 1 1 21 0;
#X connect 1 1 22 0;
#X connect 2 0 20 0;
#X connect 2 1 18 0;
#X connect 2 1 19 0;
#X connect 2 1 21 0;
#X connect 2 1 22 0;
#X connect 3 0 17 0;
#X connect 3 0 13 0;
#X connect 3 0 14 0;
#X connect 3 0 15 0;
#X connect 3 0 16 0;
#X connect 7 0 12 0;
#X connect 8 0 21 0;
#X connect 8 1 22 0;
#X connect 8 1 20 0;
#X connect 8 1 19 0;
#X connect 8 1 18 0;
#X connect 9 0 22 0;
#X connect 9 1 21 0;
#X connect 9 1 20 0;
#X connect 9 1 19 0;
#X connect 9 1 18 0;
#X connect 12 0 0 0;
#X connect 12 1 1 0;
#X connect 12 2 2 0;
#X connect 12 3 8 0;
#X connect 12 4 9 0;
#X connect 13 0 5 0;
#X connect 14 0 6 0;
#X connect 15 0 10 0;
#X connect 16 0 11 0;
#X connect 17 0 4 0;
#X connect 18 0 17 1;
#X connect 19 0 13 1;
#X connect 20 0 14 1;
#X connect 21 0 15 1;
#X connect 22 0 16 1;
#X restore 493 104 pd sliderselector1;
#N canvas 4 23 737 755 snare 0;
#X obj 554 267 noise~;
#X obj 283 327 *~;
#X obj 284 353 *~ 0.5;
#X obj 311 86 inlet;
#X obj 356 428 *~ 0.5;
#X obj 372 195 i 40;
#X obj 482 65 inlet;
#X obj 481 120 + 20;
#X obj 353 531 outlet~;
#X obj 553 320 hip~ 440;
#X obj 309 306 line~;
#X msg 325 264 1;
#X obj 369 226 t f b;
#X msg 392 272 0 \$1;
#X obj 481 99 * 1000;
#X obj 311 141 t b;
#X obj 406 57 inlet;
#X obj 405 91 * 64;
#X obj 405 112 + 64;
#X obj 407 151 mtof;
#X connect 0 0 9 0;
#X connect 1 0 2 0;
#X connect 2 0 4 0;
#X connect 3 0 15 0;
#X connect 4 0 8 0;
#X connect 5 0 12 0;
#X connect 6 0 14 0;
#X connect 7 0 5 1;
#X connect 9 0 1 0;
#X connect 10 0 1 1;
#X connect 11 0 10 0;
#X connect 12 0 13 0;
#X connect 12 1 11 0;
#X connect 13 0 10 0;
#X connect 14 0 7 0;
#X connect 15 0 5 0;
#X connect 16 0 17 0;
#X connect 17 0 18 0;
#X connect 18 0 19 0;
#X connect 19 0 9 1;
#X restore 366 307 pd snare;
#X msg 51 94 1;
#X msg 107 148 \$2 \$1;
#X obj 51 67 sel 1;
#X obj 107 128 pack f f;
#X obj 152 102 i;
#X obj 360 129 i;
#X obj 360 177 s param;
#N canvas 234 473 967 617 sliderselector1 0;
#X obj 312 85 unpack f f;
#X obj 402 84 unpack f f;
#X obj 495 92 unpack f f;
#X obj 611 -45 inlet;
#X obj 259 224 outlet;
#X obj 351 228 outlet;
#X obj 445 235 outlet;
#X obj 316 -20 r param;
#X obj 582 95 unpack f f;
#X obj 671 99 unpack f f;
#X obj 537 236 outlet;
#X obj 631 243 outlet;
#X obj 520 41 route 0 1 2 3 4;
#X obj 364 168 spigot;
#X obj 445 184 spigot;
#X obj 550 176 spigot;
#X obj 631 192 spigot;
#X obj 258 165 spigot;
#X obj 303 130 tgl 15 0 empty empty empty 17 7 0 10 -262144 -1 -1 0
1;
#X obj 409 132 tgl 15 0 empty empty empty 17 7 0 10 -262144 -1 -1 0
1;
#X obj 493 148 tgl 15 0 empty empty empty 17 7 0 10 -262144 -1 -1 0
1;
#X obj 599 150 tgl 15 0 empty empty empty 17 7 0 10 -262144 -1 -1 0
1;
#X obj 673 159 tgl 15 0 empty empty empty 17 7 0 10 -262144 -1 -1 0
1;
#X connect 0 0 18 0;
#X connect 0 1 19 0;
#X connect 0 1 20 0;
#X connect 0 1 21 0;
#X connect 0 1 22 0;
#X connect 1 0 19 0;
#X connect 1 1 18 0;
#X connect 1 1 20 0;
#X connect 1 1 21 0;
#X connect 1 1 22 0;
#X connect 2 0 20 0;
#X connect 2 1 18 0;
#X connect 2 1 19 0;
#X connect 2 1 21 0;
#X connect 2 1 22 0;
#X connect 3 0 17 0;
#X connect 3 0 13 0;
#X connect 3 0 14 0;
#X connect 3 0 15 0;
#X connect 3 0 16 0;
#X connect 7 0 12 0;
#X connect 8 0 21 0;
#X connect 8 1 22 0;
#X connect 8 1 20 0;
#X connect 8 1 19 0;
#X connect 8 1 18 0;
#X connect 9 0 22 0;
#X connect 9 1 21 0;
#X connect 9 1 20 0;
#X connect 9 1 19 0;
#X connect 9 1 18 0;
#X connect 12 0 0 0;
#X connect 12 1 1 0;
#X connect 12 2 2 0;
#X connect 12 3 8 0;
#X connect 12 4 9 0;
#X connect 13 0 5 0;
#X connect 14 0 6 0;
#X connect 15 0 10 0;
#X connect 16 0 11 0;
#X connect 17 0 4 0;
#X connect 18 0 17 1;
#X connect 19 0 13 1;
#X connect 20 0 14 1;
#X connect 21 0 15 1;
#X connect 22 0 16 1;
#X restore 636 114 pd sliderselector1;
#X obj 107 170 route 0 1 2 3 4;
#X msg 360 155 \$1 1 0;
#X obj 359 104 * 4.99;
#X obj 152 80 * 4.99;
#N canvas 0 22 984 516 tom 0;
#X obj 613 304 osc~;
#X obj 846 115 + 20;
#X obj 846 71 * 1000;
#X obj 613 146 f;
#X obj 614 259 line~;
#X obj 746 69 * 200;
#X obj 607 382 *~ 0.5;
#X obj 609 59 inlet;
#X obj 744 35 inlet;
#X obj 848 37 inlet;
#X obj 611 432 outlet~;
#X obj 618 348 *~;
#X obj 779 275 i 40;
#X obj 744 421 line~;
#X msg 755 387 1;
#X obj 776 306 t f b;
#X msg 827 387 0 \$1;
#X msg 614 238 \$1 0;
#X obj 611 93 t b b b b;
#X obj 640 194 * 0.98;
#X msg 684 253 \$1 \$2;
#X obj 681 226 pack;
#X msg 727 213 0.5;
#X obj 746 113 + 100;
#X connect 0 0 11 0;
#X connect 1 0 12 1;
#X connect 1 0 21 1;
#X connect 2 0 1 0;
#X connect 3 0 17 0;
#X connect 3 0 19 0;
#X connect 4 0 0 0;
#X connect 5 0 23 0;
#X connect 6 0 10 0;
#X connect 7 0 18 0;
#X connect 8 0 5 0;
#X connect 9 0 2 0;
#X connect 11 0 6 0;
#X connect 12 0 15 0;
#X connect 13 0 11 1;
#X connect 14 0 13 0;
#X connect 15 0 16 0;
#X connect 15 1 14 0;
#X connect 16 0 13 0;
#X connect 17 0 4 0;
#X connect 18 0 3 0;
#X connect 18 2 22 0;
#X connect 18 3 12 0;
#X connect 19 0 21 0;
#X connect 20 0 4 0;
#X connect 21 0 20 0;
#X connect 22 0 0 1;
#X connect 23 0 3 1;
#X restore 457 307 pd tom;
#X obj 485 39 hsl 128 15 0 1 0 0 empty empty empty -2 -8 0 10 -262144
-1 -1 0 1;
#X obj 153 38 hsl 128 15 0 1 0 0 empty empty empty -2 -8 0 10 -262144
-1 -1 6400 1;
#X obj 639 39 hsl 128 15 0 1 0 0 empty empty empty -2 -8 0 10 -262144
-1 -1 0 1;
#N canvas 4 23 737 591 hh 0;
#X obj 554 267 noise~;
#X obj 283 327 *~;
#X obj 284 353 *~ 0.5;
#X obj 311 86 inlet;
#X obj 356 428 *~ 0.5;
#X obj 372 195 i 40;
#X obj 482 65 inlet;
#X obj 481 120 + 20;
#X obj 353 531 outlet~;
#X obj 309 306 line~;
#X msg 325 264 1;
#X obj 369 226 t f b;
#X msg 392 272 0 \$1;
#X obj 481 99 * 1000;
#X obj 311 141 t b;
#X obj 406 57 inlet;
#X obj 407 151 mtof;
#X obj 405 112 + 100;
#X obj 553 320 hip~ 10000;
#X obj 402 84 * 28;
#X connect 0 0 18 0;
#X connect 1 0 2 0;
#X connect 2 0 4 0;
#X connect 3 0 14 0;
#X connect 4 0 8 0;
#X connect 5 0 11 0;
#X connect 6 0 13 0;
#X connect 7 0 5 1;
#X connect 9 0 1 1;
#X connect 10 0 9 0;
#X connect 11 0 12 0;
#X connect 11 1 10 0;
#X connect 12 0 9 0;
#X connect 13 0 7 0;
#X connect 14 0 5 0;
#X connect 15 0 19 0;
#X connect 16 0 18 1;
#X connect 17 0 16 0;
#X connect 18 0 1 0;
#X connect 19 0 17 0;
#X restore 636 306 pd hh;
#N canvas 4 23 984 516 tom2 0;
#X obj 613 304 osc~;
#X obj 846 115 + 20;
#X obj 846 71 * 1000;
#X obj 613 146 f;
#X obj 614 259 line~;
#X obj 746 69 * 200;
#X obj 607 382 *~ 0.5;
#X obj 609 59 inlet;
#X obj 744 35 inlet;
#X obj 848 37 inlet;
#X obj 611 432 outlet~;
#X obj 618 348 *~;
#X obj 779 275 i 40;
#X obj 744 421 line~;
#X msg 755 387 1;
#X obj 776 306 t f b;
#X msg 827 387 0 \$1;
#X msg 614 238 \$1 0;
#X obj 611 93 t b b b b;
#X obj 640 194 * 0.98;
#X msg 684 253 \$1 \$2;
#X obj 681 226 pack;
#X msg 727 213 0.5;
#X obj 746 113 + 100;
#X connect 0 0 11 0;
#X connect 1 0 12 1;
#X connect 1 0 21 1;
#X connect 2 0 1 0;
#X connect 3 0 17 0;
#X connect 3 0 19 0;
#X connect 4 0 0 0;
#X connect 5 0 23 0;
#X connect 6 0 10 0;
#X connect 7 0 18 0;
#X connect 8 0 5 0;
#X connect 9 0 2 0;
#X connect 11 0 6 0;
#X connect 12 0 15 0;
#X connect 13 0 11 1;
#X connect 14 0 13 0;
#X connect 15 0 16 0;
#X connect 15 1 14 0;
#X connect 16 0 13 0;
#X connect 17 0 4 0;
#X connect 18 0 3 0;
#X connect 18 2 22 0;
#X connect 18 3 12 0;
#X connect 19 0 21 0;
#X connect 20 0 4 0;
#X connect 21 0 20 0;
#X connect 22 0 0 1;
#X connect 23 0 3 1;
#X restore 538 307 pd tom2;
#X obj 359 79 change;
#X obj 495 80 change;
#X obj 644 89 change;
#X obj 299 39 hsl 128 15 0 1 0 0 empty empty empty -2 -8 0 10 -262144
-1 -1 0 1;
#X floatatom 181 103 5 0 0 0 - - -, f 5;
#X obj 251 308 bng 15 250 50 0 empty empty empty 17 7 0 10 -262144
-1 -1;
#X obj 343 307 bng 15 250 50 0 empty empty empty 17 7 0 10 -262144
-1 -1;
#X obj 437 308 bng 15 250 50 0 empty empty empty 17 7 0 10 -262144
-1 -1;
#X obj 519 307 bng 15 250 50 0 empty empty empty 17 7 0 10 -262144
-1 -1;
#X obj 615 307 bng 15 250 50 0 empty empty empty 17 7 0 10 -262144
-1 -1;
#X obj 152 59 r pot5;
#X obj 359 57 r pot6;
#X obj 496 59 r pot7;
#X obj 644 64 r pot8;
#X obj 51 38 r button1;
#X connect 0 0 1 0;
#X connect 0 0 1 1;
#X connect 2 0 0 1;
#X connect 2 1 3 1;
#X connect 2 2 16 1;
#X connect 2 3 21 1;
#X connect 2 4 20 1;
#X connect 3 0 1 0;
#X connect 3 0 1 1;
#X connect 4 0 7 0;
#X connect 5 0 12 0;
#X connect 6 0 4 0;
#X connect 7 0 5 0;
#X connect 8 0 7 1;
#X connect 8 0 26 0;
#X connect 9 0 13 0;
#X connect 11 0 0 2;
#X connect 11 1 3 2;
#X connect 11 2 16 2;
#X connect 11 3 21 2;
#X connect 11 4 20 2;
#X connect 12 0 0 0;
#X connect 12 1 3 0;
#X connect 12 2 16 0;
#X connect 12 3 21 0;
#X connect 12 4 20 0;
#X connect 13 0 10 0;
#X connect 14 0 9 0;
#X connect 15 0 8 0;
#X connect 16 0 1 0;
#X connect 16 0 1 1;
#X connect 17 0 2 0;
#X connect 18 0 15 0;
#X connect 19 0 11 0;
#X connect 20 0 1 0;
#X connect 20 0 1 1;
#X connect 21 0 1 0;
#X connect 21 0 1 1;
#X connect 22 0 14 0;
#X connect 23 0 2 0;
#X connect 24 0 11 0;
#X connect 25 0 22 0;
#X connect 27 0 0 0;
#X connect 28 0 3 0;
#X connect 29 0 16 0;
#X connect 30 0 21 0;
#X connect 31 0 20 0;
#X connect 32 0 15 0;
#X connect 33 0 22 0;
#X connect 34 0 23 0;
#X connect 35 0 24 0;
#X connect 36 0 6 0;
