#N canvas 308 68 902 689 10;
#X obj 162 653 dac~;
#X obj 682 483 bng 25 250 50 0 empty empty empty 17 7 0 10 -262144
-1 -1;
#X obj 684 16 hsl 128 15 0 1 0 0 empty empty Fmod -2 -8 0 10 -262144
-1 -1 4600 1;
#X obj 683 105 hsl 128 15 0 1 0 0 empty empty Indice -2 -8 0 10 -262144
-1 -1 6100 1;
#X obj 684 201 hsl 128 15 0 1 0 0 empty empty Attack -2 -8 0 10 -262144
-1 -1 8000 1;
#X obj 683 390 hsl 128 15 0 1 0 0 empty empty Delay -2 -8 0 10 -262144
-1 -1 5500 1;
#X obj 689 419 r Channel-E;
#X obj 716 483 r Channel-Push;
#X obj 301 34 notein;
#X obj 682 164 s \$0-indice;
#X obj 683 65 s \$0-fmod;
#X obj 693 36 r Channel-A;
#X obj 696 128 r Channel-B;
#X obj 692 230 r Channel-C;
#X obj 690 325 r Channel-D;
#X obj 680 298 hsl 128 15 0 1 0 0 empty empty Release -2 -8 0 10 -262144
-1 -1 2700 1;
#X obj 683 353 s \$0-Release;
#X obj 686 258 s \$0-Attack;
#X obj 682 553 s \$1-stop;
#X obj 121 608 +~;
#X obj 232 612 +~;
#X obj 404 514 *~;
#X obj 683 447 s \$0-delay;
#X obj 431 355 r \$0-delay;
#X obj 439 406 line~;
#X obj 433 385 pack 0 1000;
#X obj 714 521 sel 1;
#X obj 338 544 vd~ pippo 10;
#X obj 475 543 vd~ pippo 20;
#X obj 330 480 delwrite~ pippo 2000;
#X obj 383 430 *~ 2000;
#X obj 521 421 *~ 1980;
#X obj 423 603 *~ 0.9;
#X obj 178 126 poly 4 1;
#X obj 176 168 pack f f f;
#X obj 169 219 route 1 2 3 4;
#X obj 320 442 *~ 0.12;
#X obj 67 564 *~ 0.12;
#X obj 151 565 *~ 0.12;
#N canvas 84 394 806 579 voice 0;
#X obj 119 515 *~;
#X obj 50 253 mtof;
#X obj 269 247 mtof;
#X obj 269 222 +, f 5;
#X obj 268 120 * 36;
#X obj 268 164 t b f;
#X obj 269 196 i;
#X obj 268 142 + 12;
#X obj 112 316 *~;
#X obj 92 390 +~;
#X obj 102 466 osc~;
#X obj 107 273 osc~;
#X obj 284 274 r \$0-indice;
#X obj 268 98 r \$0-fmod;
#X obj 107 365 *~;
#X obj 450 203 pack f f;
#X obj 562 221 pack f f;
#X obj 553 173 sel 0;
#X msg 504 247 0 \$2;
#X msg 395 246 1 \$2;
#X obj 499 95 r \$0-Attack;
#X obj 586 92 r \$0-Release;
#X obj 283 304 * 5000;
#X obj 565 272 r \$1-stop;
#X obj 499 117 * 15000;
#X obj 586 114 * 15000;
#X obj 480 284 line~;
#X msg 548 313 stop;
#X obj 72 60 inlet;
#X obj 121 542 outlet~;
#X obj 63 128 unpack f f;
#X connect 0 0 29 0;
#X connect 1 0 9 0;
#X connect 2 0 11 0;
#X connect 3 0 2 0;
#X connect 4 0 7 0;
#X connect 5 0 6 0;
#X connect 5 1 3 1;
#X connect 6 0 3 0;
#X connect 7 0 5 0;
#X connect 8 0 14 0;
#X connect 9 0 10 0;
#X connect 10 0 0 0;
#X connect 11 0 8 0;
#X connect 12 0 22 0;
#X connect 13 0 4 0;
#X connect 14 0 9 1;
#X connect 15 0 19 0;
#X connect 16 0 18 0;
#X connect 17 0 16 0;
#X connect 17 1 15 0;
#X connect 18 0 26 0;
#X connect 19 0 26 0;
#X connect 20 0 24 0;
#X connect 21 0 25 0;
#X connect 22 0 8 1;
#X connect 23 0 27 0;
#X connect 24 0 15 1;
#X connect 25 0 16 1;
#X connect 26 0 0 1;
#X connect 26 0 14 1;
#X connect 27 0 26 0;
#X connect 28 0 30 0;
#X connect 30 0 1 0;
#X connect 30 0 6 0;
#X connect 30 1 17 0;
#X restore 96 333 pd voice;
#N canvas 84 394 806 579 voice 0;
#X obj 119 515 *~;
#X obj 50 253 mtof;
#X obj 269 247 mtof;
#X obj 269 222 +, f 5;
#X obj 268 120 * 36;
#X obj 268 164 t b f;
#X obj 269 196 i;
#X obj 268 142 + 12;
#X obj 112 316 *~;
#X obj 92 390 +~;
#X obj 102 466 osc~;
#X obj 107 273 osc~;
#X obj 284 274 r \$0-indice;
#X obj 268 98 r \$0-fmod;
#X obj 107 365 *~;
#X obj 450 203 pack f f;
#X obj 562 221 pack f f;
#X obj 553 173 sel 0;
#X msg 504 247 0 \$2;
#X msg 395 246 1 \$2;
#X obj 499 95 r \$0-Attack;
#X obj 586 92 r \$0-Release;
#X obj 283 304 * 5000;
#X obj 565 272 r \$1-stop;
#X obj 499 117 * 15000;
#X obj 586 114 * 15000;
#X obj 480 284 line~;
#X msg 548 313 stop;
#X obj 72 60 inlet;
#X obj 121 542 outlet~;
#X obj 63 128 unpack f f;
#X connect 0 0 29 0;
#X connect 1 0 9 0;
#X connect 2 0 11 0;
#X connect 3 0 2 0;
#X connect 4 0 7 0;
#X connect 5 0 6 0;
#X connect 5 1 3 1;
#X connect 6 0 3 0;
#X connect 7 0 5 0;
#X connect 8 0 14 0;
#X connect 9 0 10 0;
#X connect 10 0 0 0;
#X connect 11 0 8 0;
#X connect 12 0 22 0;
#X connect 13 0 4 0;
#X connect 14 0 9 1;
#X connect 15 0 19 0;
#X connect 16 0 18 0;
#X connect 17 0 16 0;
#X connect 17 1 15 0;
#X connect 18 0 26 0;
#X connect 19 0 26 0;
#X connect 20 0 24 0;
#X connect 21 0 25 0;
#X connect 22 0 8 1;
#X connect 23 0 27 0;
#X connect 24 0 15 1;
#X connect 25 0 16 1;
#X connect 26 0 0 1;
#X connect 26 0 14 1;
#X connect 27 0 26 0;
#X connect 28 0 30 0;
#X connect 30 0 1 0;
#X connect 30 0 6 0;
#X connect 30 1 17 0;
#X restore 185 331 pd voice;
#N canvas 84 394 806 579 voice 0;
#X obj 119 515 *~;
#X obj 50 253 mtof;
#X obj 269 247 mtof;
#X obj 269 222 +, f 5;
#X obj 268 120 * 36;
#X obj 268 164 t b f;
#X obj 269 196 i;
#X obj 268 142 + 12;
#X obj 112 316 *~;
#X obj 92 390 +~;
#X obj 102 466 osc~;
#X obj 107 273 osc~;
#X obj 284 274 r \$0-indice;
#X obj 268 98 r \$0-fmod;
#X obj 107 365 *~;
#X obj 450 203 pack f f;
#X obj 562 221 pack f f;
#X obj 553 173 sel 0;
#X msg 504 247 0 \$2;
#X msg 395 246 1 \$2;
#X obj 499 95 r \$0-Attack;
#X obj 586 92 r \$0-Release;
#X obj 283 304 * 5000;
#X obj 565 272 r \$1-stop;
#X obj 499 117 * 15000;
#X obj 586 114 * 15000;
#X obj 480 284 line~;
#X msg 548 313 stop;
#X obj 72 60 inlet;
#X obj 121 542 outlet~;
#X obj 63 128 unpack f f;
#X connect 0 0 29 0;
#X connect 1 0 9 0;
#X connect 2 0 11 0;
#X connect 3 0 2 0;
#X connect 4 0 7 0;
#X connect 5 0 6 0;
#X connect 5 1 3 1;
#X connect 6 0 3 0;
#X connect 7 0 5 0;
#X connect 8 0 14 0;
#X connect 9 0 10 0;
#X connect 10 0 0 0;
#X connect 11 0 8 0;
#X connect 12 0 22 0;
#X connect 13 0 4 0;
#X connect 14 0 9 1;
#X connect 15 0 19 0;
#X connect 16 0 18 0;
#X connect 17 0 16 0;
#X connect 17 1 15 0;
#X connect 18 0 26 0;
#X connect 19 0 26 0;
#X connect 20 0 24 0;
#X connect 21 0 25 0;
#X connect 22 0 8 1;
#X connect 23 0 27 0;
#X connect 24 0 15 1;
#X connect 25 0 16 1;
#X connect 26 0 0 1;
#X connect 26 0 14 1;
#X connect 27 0 26 0;
#X connect 28 0 30 0;
#X connect 30 0 1 0;
#X connect 30 0 6 0;
#X connect 30 1 17 0;
#X restore 270 331 pd voice;
#N canvas 84 199 806 579 voice 0;
#X obj 119 515 *~;
#X obj 50 253 mtof;
#X obj 269 247 mtof;
#X obj 269 222 +, f 5;
#X obj 268 120 * 36;
#X obj 268 164 t b f;
#X obj 269 196 i;
#X obj 268 142 + 12;
#X obj 112 316 *~;
#X obj 92 390 +~;
#X obj 102 466 osc~;
#X obj 107 273 osc~;
#X obj 284 274 r \$0-indice;
#X obj 268 98 r \$0-fmod;
#X obj 107 365 *~;
#X obj 450 203 pack f f;
#X obj 562 221 pack f f;
#X obj 553 173 sel 0;
#X msg 504 247 0 \$2;
#X msg 395 246 1 \$2;
#X obj 499 95 r \$0-Attack;
#X obj 586 92 r \$0-Release;
#X obj 283 304 * 5000;
#X obj 565 272 r \$1-stop;
#X obj 499 117 * 15000;
#X obj 586 114 * 15000;
#X obj 480 284 line~;
#X msg 548 313 stop;
#X obj 72 60 inlet;
#X obj 121 542 outlet~;
#X obj 63 128 unpack f f;
#X connect 0 0 29 0;
#X connect 1 0 9 0;
#X connect 2 0 11 0;
#X connect 3 0 2 0;
#X connect 4 0 7 0;
#X connect 5 0 6 0;
#X connect 5 1 3 1;
#X connect 6 0 3 0;
#X connect 7 0 5 0;
#X connect 8 0 14 0;
#X connect 9 0 10 0;
#X connect 10 0 0 0;
#X connect 11 0 8 0;
#X connect 12 0 22 0;
#X connect 13 0 4 0;
#X connect 14 0 9 1;
#X connect 15 0 19 0;
#X connect 16 0 18 0;
#X connect 17 0 16 0;
#X connect 17 1 15 0;
#X connect 18 0 26 0;
#X connect 19 0 26 0;
#X connect 20 0 24 0;
#X connect 21 0 25 0;
#X connect 22 0 8 1;
#X connect 23 0 27 0;
#X connect 24 0 15 1;
#X connect 25 0 16 1;
#X connect 26 0 0 1;
#X connect 26 0 14 1;
#X connect 27 0 26 0;
#X connect 28 0 30 0;
#X connect 30 0 1 0;
#X connect 30 0 6 0;
#X connect 30 1 17 0;
#X restore 354 330 pd voice;
#X msg 58 36 60 64;
#X msg 109 36 60 0;
#X msg 153 36 62 64;
#X msg 204 36 62 0;
#X connect 1 0 18 0;
#X connect 2 0 10 0;
#X connect 3 0 9 0;
#X connect 4 0 17 0;
#X connect 5 0 22 0;
#X connect 6 0 22 0;
#X connect 7 0 26 0;
#X connect 8 0 33 0;
#X connect 8 1 33 1;
#X connect 11 0 10 0;
#X connect 12 0 9 0;
#X connect 13 0 17 0;
#X connect 14 0 16 0;
#X connect 15 0 16 0;
#X connect 19 0 0 0;
#X connect 20 0 0 1;
#X connect 21 0 32 0;
#X connect 23 0 25 0;
#X connect 24 0 21 1;
#X connect 24 0 30 0;
#X connect 24 0 31 0;
#X connect 25 0 24 0;
#X connect 26 0 18 0;
#X connect 27 0 19 1;
#X connect 27 0 21 0;
#X connect 28 0 20 1;
#X connect 30 0 27 0;
#X connect 31 0 28 0;
#X connect 32 0 29 0;
#X connect 33 0 34 0;
#X connect 33 1 34 1;
#X connect 33 2 34 2;
#X connect 34 0 35 0;
#X connect 35 0 39 0;
#X connect 35 1 40 0;
#X connect 35 2 41 0;
#X connect 35 3 42 0;
#X connect 36 0 29 0;
#X connect 37 0 19 0;
#X connect 38 0 20 0;
#X connect 39 0 36 0;
#X connect 39 0 37 0;
#X connect 39 0 38 0;
#X connect 40 0 36 0;
#X connect 40 0 37 0;
#X connect 40 0 38 0;
#X connect 41 0 36 0;
#X connect 41 0 37 0;
#X connect 41 0 38 0;
#X connect 42 0 36 0;
#X connect 42 0 37 0;
#X connect 42 0 38 0;
#X connect 43 0 33 0;
#X connect 44 0 33 0;
#X connect 45 0 33 0;
#X connect 46 0 33 0;
