#N canvas 526 50 998 700 10;
#X obj 451 46 adc~;
#X obj 651 592 dac~;
#X obj 128 271 *~ 2;
#X obj 123 307 +~ 2;
#X obj 189 332 *~ 2;
#X obj 187 361 +~ 2;
#X obj 333 589 delwrite~ phase2 100;
#X obj 190 392 vd~ phase2;
#X obj 182 278 wrap~;
#X obj 143 141 phasor~;
#X obj 182 244 +~ 0.5;
#X obj 130 243 cos~;
#X obj 185 303 cos~;
#X obj 100 358 vd~ phase1;
#X obj 86 592 delwrite~ phase1 100;
#X obj 124 212 clip~;
#X obj 254 175 + 1;
#X obj 253 151 * -1;
#X obj 316 405 r Channel-D;
#X obj 309 242 r Channel-C;
#X obj 259 67 r Channel-B;
#X obj 116 67 r Channel-A;
#X obj 251 117 + 0;
#X obj 101 111 + 0;
#X obj 298 288 + 0;
#X obj 102 90 * 10;
#X obj 251 94 * 0.33;
#X obj 299 267 * 3;
#X obj 307 430 * 1.8;
#X obj 305 451 - 0.9;
#X obj 78 523 *~ 0.5;
#X obj 291 497 *~ 0.5;
#X obj 555 284 r~ output1;
#X obj 37 433 s~ output1;
#X obj 157 454 s~ output2;
#X obj 802 285 r~ output2;
#X obj 99 47 hsl 100 15 0 1 0 0 empty empty Speed -2 -8 0 10 -262144
-1 -1 0 1;
#X obj 249 46 hsl 100 15 0 1 0 0 empty empty Clip -2 -8 0 10 -262144
-1 -1 0 1;
#X obj 293 218 hsl 100 15 0 1 0 0 empty empty Depth -2 -8 0 10 -262144
-1 -1 0 1;
#X obj 306 379 hsl 100 15 0 1 0 0 empty empty Feedback -2 -8 0 10 -262144
-1 -1 0 1;
#X obj 508 437 *~;
#X obj 611 33 hsl 100 15 0 1 0 0 empty empty Stereo_-_Dual_Mono -2
-8 0 10 -262144 -1 -1 0 1;
#X obj 676 81 r Channel-E;
#X obj 706 197 wrap;
#X obj 800 407 *~;
#X obj 613 433 *~;
#X obj 719 427 *~;
#X obj 620 150 * 0.5;
#X obj 695 171 * -0.5;
#X floatatom 763 262 5 0 0 0 - - -, f 5;
#X floatatom 696 263 5 0 0 0 - - -, f 5;
#X obj 694 140 + 0.001;
#X obj 618 175 + 0.001;
#X connect 0 0 14 0;
#X connect 0 0 40 0;
#X connect 0 0 45 0;
#X connect 0 1 6 0;
#X connect 0 1 44 0;
#X connect 0 1 46 0;
#X connect 2 0 3 0;
#X connect 3 0 13 0;
#X connect 4 0 5 0;
#X connect 5 0 7 0;
#X connect 7 0 31 0;
#X connect 7 0 34 0;
#X connect 8 0 12 0;
#X connect 9 0 15 0;
#X connect 10 0 8 0;
#X connect 11 0 2 0;
#X connect 12 0 4 0;
#X connect 13 0 30 0;
#X connect 13 0 33 0;
#X connect 15 0 11 0;
#X connect 15 0 10 0;
#X connect 16 0 15 2;
#X connect 17 0 16 0;
#X connect 18 0 28 0;
#X connect 19 0 27 0;
#X connect 20 0 26 0;
#X connect 21 0 25 0;
#X connect 22 0 15 1;
#X connect 22 0 17 0;
#X connect 23 0 9 0;
#X connect 24 0 5 1;
#X connect 24 0 4 1;
#X connect 24 0 3 1;
#X connect 24 0 2 1;
#X connect 25 0 23 0;
#X connect 26 0 22 0;
#X connect 27 0 24 0;
#X connect 28 0 29 0;
#X connect 29 0 30 1;
#X connect 29 0 31 1;
#X connect 30 0 14 0;
#X connect 31 0 6 0;
#X connect 32 0 40 0;
#X connect 32 0 46 0;
#X connect 35 0 44 0;
#X connect 35 0 45 0;
#X connect 36 0 25 0;
#X connect 37 0 26 0;
#X connect 38 0 27 0;
#X connect 39 0 28 0;
#X connect 40 0 1 0;
#X connect 41 0 47 0;
#X connect 41 0 51 0;
#X connect 42 0 47 0;
#X connect 42 0 51 0;
#X connect 43 0 40 1;
#X connect 43 0 44 1;
#X connect 43 0 49 0;
#X connect 44 0 1 1;
#X connect 45 0 1 0;
#X connect 46 0 1 1;
#X connect 47 0 52 0;
#X connect 48 0 43 0;
#X connect 51 0 48 0;
#X connect 52 0 45 1;
#X connect 52 0 46 1;
#X connect 52 0 50 0;
