#N canvas 17 23 1263 755 10;
#X msg 123 293 60;
#X msg 158 293 62;
#X msg 196 294 64;
#X msg 233 294 65;
#X msg 270 294 67;
#X msg 313 293 69;
#X msg 357 293 70;
#X msg 401 293 72;
#X obj 71 112 bng 15 250 50 0 empty empty empty 17 7 0 10 -262144 -1
-1;
#X obj 123 67 tgl 15 0 empty empty empty 17 7 0 10 -262144 -1 -1 0
1;
#X floatatom 123 173 5 0 0 0 - - -, f 5;
#X obj 123 205 % 8;
#X floatatom 52 222 5 0 0 0 - - -, f 5;
#X obj 123 236 sel 0 1 2 3 4 5 6 7;
#X obj 123 391 mtof;
#X floatatom 74 408 5 0 0 0 - - -, f 5;
#X obj 138 732 dac~, f 6;
#X obj 235 49 r tempo;
#N canvas 175 367 651 397 sawwave 0;
#X floatatom 83 54 5 0 0 0 - - -, f 5;
#X obj 83 84 phasor~;
#X obj 83 116 *~ 2;
#X obj 83 137 -~ 1;
#X obj 83 21 r Freq;
#X obj 83 194 outlet~;
#X obj 18 67 inlet;
#X obj 83 163 *~ 1;
#X connect 0 0 1 0;
#X connect 1 0 2 0;
#X connect 2 0 3 0;
#X connect 3 0 7 0;
#X connect 4 0 0 0;
#X connect 6 0 1 0;
#X connect 7 0 5 0;
#X restore 299 447 pd sawwave;
#N canvas 139 181 528 574 squarewave 0;
#X floatatom 73 84 5 0 0 0 - - -, f 5;
#X obj 73 155 phasor~;
#X obj 140 156 phasor~;
#X obj 129 117 * -1;
#X msg 147 79 0;
#X msg 194 78 0.5;
#X obj 181 48 bng 15 250 50 0 empty empty empty 17 7 0 10 -262144 -1
-1;
#X obj 108 214 +~;
#X obj 108 250 -~ 1;
#X obj 108 280 *~ 1.98;
#X obj 73 51 r Freq;
#X obj 205 32 r load;
#X obj 108 360 outlet~;
#X obj 26 109 inlet;
#X obj 109 314 *~ 1;
#X connect 0 0 1 0;
#X connect 0 0 3 0;
#X connect 1 0 7 0;
#X connect 2 0 7 1;
#X connect 3 0 2 0;
#X connect 4 0 1 1;
#X connect 5 0 2 1;
#X connect 6 0 4 0;
#X connect 6 0 5 0;
#X connect 7 0 8 0;
#X connect 8 0 9 0;
#X connect 9 0 14 0;
#X connect 10 0 0 0;
#X connect 11 0 6 0;
#X connect 13 0 1 0;
#X connect 13 0 2 0;
#X connect 14 0 12 0;
#X restore 123 447 pd squarewave;
#N canvas 338 302 450 300 sinewave 0;
#X obj 83 79 osc~;
#X floatatom 83 48 5 0 0 0 - - -, f 5;
#X obj 83 14 r Freq;
#X obj 82 156 outlet~;
#X obj 21 62 inlet~;
#X obj 83 113 *~ 1;
#X obj 17 97;
#X connect 0 0 5 0;
#X connect 1 0 0 0;
#X connect 2 0 1 0;
#X connect 4 0 0 0;
#X connect 5 0 3 0;
#X connect 6 0 5 1;
#X coords 0 300 1 299 10 5 0;
#X restore 218 447 pd sinewave;
#X obj 124 482 send~ square;
#X obj 218 483 send~ sine;
#X obj 300 483 send~ saw;
#X obj 137 667 receive~;
#X msg 137 609 set square;
#X msg 227 609 set sine;
#X msg 310 609 set saw;
#X obj 137 559 sel 0 1 2;
#X obj 137 539 hradio 15 1 0 3 empty empty empty 0 -8 0 10 -262144
-1 -1 0;
#X obj 123 95 metro 500, f 11;
#X obj 137 694 *~;
#X obj 64 18 r startstop;
#N canvas 599 252 680 532 tcpcom 0;
#X text 77 65 Receive messages from Python and route them to the proper
receive objects;
#X obj 79 196 s p1;
#X obj 116 196 s p2;
#X obj 153 196 s p3;
#X obj 191 196 s p4;
#X obj 81 135 route 0 1 2 3 4 5 6 7 8, f 28;
#X obj 271 199 s p5;
#X obj 309 199 s p6;
#X obj 347 198 s p7;
#X obj 384 198 s p8;
#X obj 433 198 s buttons;
#X floatatom 402 125 5 0 0 0 - - -, f 5;
#X obj 80 102 netreceive 3000 1;
#X connect 5 0 1 0;
#X connect 5 1 2 0;
#X connect 5 2 3 0;
#X connect 5 3 4 0;
#X connect 5 4 6 0;
#X connect 5 5 7 0;
#X connect 5 6 8 0;
#X connect 5 7 9 0;
#X connect 5 8 10 0;
#X connect 12 0 5 0;
#X connect 12 0 11 0;
#X restore 781 17 pd tcpcom;
#X obj 781 74 vsl 15 128 2000 100 0 0 tempo empty empty 0 -9 0 10 -262144
-1 -1 10200 1;
#X obj 781 49 r pot1;
#X obj 835 74 vsl 15 128 1 500 0 0 decay empty empty 0 -9 0 10 -262144
-1 -1 10600 1;
#X obj 835 49 r pot2;
#X obj 887 74 vsl 15 128 1 500 0 0 empty empty empty 0 -9 0 10 -262144
-1 -1 5300 1;
#X obj 941 74 vsl 15 128 0 1 0 0 empty empty empty 0 -9 0 10 -262144
-1 -1 0 1;
#X obj 887 49 r pot3;
#X obj 941 49 r pot4;
#X obj 783 273 vsl 15 128 0 127 0 0 empty empty empty 0 -9 0 10 -262144
-1 -1 0 1;
#X obj 837 273 vsl 15 128 0 127 0 0 empty empty empty 0 -9 0 10 -262144
-1 -1 0 1;
#X obj 889 273 vsl 15 128 0 127 0 0 empty empty empty 0 -9 0 10 -262144
-1 -1 0 1;
#X obj 943 273 vsl 15 128 0 1 0 0 empty empty empty 0 -9 0 10 -262144
-1 -1 0 1;
#X obj 783 248 r pot5;
#X obj 837 248 r pot6;
#X obj 889 248 r pot7;
#X obj 943 248 r pot8;
#X obj 780 547 bng 15 250 50 0 empty empty empty 17 7 0 10 -262144
-1 -1;
#X obj 889 436 r button2;
#X obj 889 524 r button4;
#X obj 889 459 bng 15 250 50 0 empty empty empty 17 7 0 10 -262144
-1 -1;
#X obj 889 548 bng 15 250 50 0 empty empty empty 17 7 0 10 -262144
-1 -1;
#N canvas 487 174 1078 750 routing 0;
#X obj 139 72 hsl 80 15 0 1023 0 0 empty empty empty -2 -8 0 10 -228856
-1 -1 0 1;
#X obj 136 150 nbx 5 14 -1e+37 1e+37 0 0 empty empty empty 0 -8 0 10
-228856 -1 -1 0 256;
#X obj 136 96 nbx 5 14 -1e+37 1e+37 0 0 empty empty empty 0 -8 0 10
-228856 -1 -1 0 256;
#X obj 136 121 mapper, f 12;
#X text 132 49 input pot 1;
#X text 230 49 pot range;
#X text 232 111 new range;
#X obj 137 210 hsl 80 15 0 1023 0 0 empty empty empty -2 -8 0 10 -228856
-1 -1 0 1;
#X obj 134 288 nbx 5 14 -1e+37 1e+37 0 0 empty empty empty 0 -8 0 10
-228856 -1 -1 0 256;
#X obj 134 234 nbx 5 14 -1e+37 1e+37 0 0 empty empty empty 0 -8 0 10
-228856 -1 -1 0 256;
#X obj 134 259 mapper, f 12;
#X text 130 187 input pot 2;
#X obj 45 71 r p1;
#X obj 48 210 r p2;
#X obj 45 100 unpack;
#X obj 48 239 unpack;
#X text 276 71 low, f 5;
#X text 277 94 high, f 5;
#X text 278 132 low, f 5;
#X text 279 155 high, f 5;
#X msg 233 69 0;
#X text 233 190 pot range;
#X text 235 252 new range;
#X text 279 212 low, f 5;
#X text 280 235 high, f 5;
#X text 281 273 low, f 5;
#X text 282 296 high, f 5;
#X msg 236 210 0;
#X msg 237 233 1024;
#X obj 140 362 hsl 80 15 0 1023 0 0 empty empty empty -2 -8 0 10 -228856
-1 -1 0 1;
#X obj 137 440 nbx 5 14 -1e+37 1e+37 0 0 empty empty empty 0 -8 0 10
-228856 -1 -1 0 256;
#X obj 137 386 nbx 5 14 -1e+37 1e+37 0 0 empty empty empty 0 -8 0 10
-228856 -1 -1 0 256;
#X obj 137 411 mapper, f 12;
#X obj 51 391 unpack;
#X text 236 342 pot range;
#X text 238 404 new range;
#X text 282 364 low, f 5;
#X text 283 387 high, f 5;
#X text 284 425 low, f 5;
#X text 285 448 high, f 5;
#X msg 239 362 0;
#X msg 240 385 1024;
#X text 133 339 input pot 3;
#X obj 51 362 r p3;
#X obj 140 500 hsl 80 15 0 1023 0 0 empty empty empty -2 -8 0 10 -228856
-1 -1 0 1;
#X obj 137 578 nbx 5 14 -1e+37 1e+37 0 0 empty empty empty 0 -8 0 10
-228856 -1 -1 0 256;
#X obj 137 524 nbx 5 14 -1e+37 1e+37 0 0 empty empty empty 0 -8 0 10
-228856 -1 -1 0 256;
#X obj 137 549 mapper, f 12;
#X obj 51 529 unpack;
#X text 236 480 pot range;
#X text 238 542 new range;
#X text 282 502 low, f 5;
#X text 283 525 high, f 5;
#X text 284 563 low, f 5;
#X text 285 586 high, f 5;
#X msg 239 500 0;
#X text 133 477 input pot 4;
#X obj 51 500 r p4;
#X obj 350 61 loadbang;
#X obj 344 216 loadbang;
#X obj 339 363 loadbang;
#X obj 339 504 loadbang;
#X obj 46 165 s pot1;
#X obj 53 304 s pot2;
#X obj 53 455 s pot3;
#X obj 53 593 s pot4;
#X obj 567 66 hsl 80 15 0 1023 0 0 empty empty empty -2 -8 0 10 -228856
-1 -1 0 1;
#X obj 564 144 nbx 5 14 -1e+37 1e+37 0 0 empty empty empty 0 -8 0 10
-228856 -1 -1 0 256;
#X obj 564 90 nbx 5 14 -1e+37 1e+37 0 0 empty empty empty 0 -8 0 10
-228856 -1 -1 0 256;
#X obj 564 115 mapper, f 12;
#X text 658 43 pot range;
#X text 660 105 new range;
#X obj 565 204 hsl 80 15 0 1023 0 0 empty empty empty -2 -8 0 10 -228856
-1 -1 0 1;
#X obj 562 282 nbx 5 14 -1e+37 1e+37 0 0 empty empty empty 0 -8 0 10
-228856 -1 -1 0 256;
#X obj 562 228 nbx 5 14 -1e+37 1e+37 0 0 empty empty empty 0 -8 0 10
-228856 -1 -1 0 256;
#X obj 562 253 mapper, f 12;
#X obj 473 94 unpack;
#X obj 476 233 unpack;
#X text 704 65 low, f 5;
#X text 705 88 high, f 5;
#X text 706 126 low, f 5;
#X text 707 149 high, f 5;
#X msg 661 63 0;
#X msg 662 86 1024;
#X text 661 184 pot range;
#X text 663 246 new range;
#X text 707 206 low, f 5;
#X text 708 229 high, f 5;
#X text 709 267 low, f 5;
#X text 710 290 high, f 5;
#X msg 664 204 0;
#X msg 665 227 1024;
#X obj 568 356 hsl 80 15 0 1023 0 0 empty empty empty -2 -8 0 10 -228856
-1 -1 0 1;
#X obj 565 434 nbx 5 14 -1e+37 1e+37 0 0 empty empty empty 0 -8 0 10
-228856 -1 -1 0 256;
#X obj 565 380 nbx 5 14 -1e+37 1e+37 0 0 empty empty empty 0 -8 0 10
-228856 -1 -1 0 256;
#X obj 565 405 mapper, f 12;
#X obj 479 385 unpack;
#X text 664 336 pot range;
#X text 666 398 new range;
#X text 710 358 low, f 5;
#X text 711 381 high, f 5;
#X text 712 419 low, f 5;
#X text 713 442 high, f 5;
#X msg 667 356 0;
#X msg 668 379 1024;
#X obj 568 494 hsl 80 15 0 1023 0 0 empty empty empty -2 -8 0 10 -228856
-1 -1 0 1;
#X obj 565 572 nbx 5 14 -1e+37 1e+37 0 0 empty empty empty 0 -8 0 10
-228856 -1 -1 0 256;
#X obj 565 518 nbx 5 14 -1e+37 1e+37 0 0 empty empty empty 0 -8 0 10
-228856 -1 -1 0 256;
#X obj 565 543 mapper, f 12;
#X obj 479 523 unpack;
#X text 664 474 pot range;
#X text 666 536 new range;
#X text 710 496 low, f 5;
#X text 711 519 high, f 5;
#X text 712 557 low, f 5;
#X text 713 580 high, f 5;
#X msg 667 494 0;
#X msg 667 417 0;
#X obj 778 56 loadbang;
#X obj 772 210 loadbang;
#X obj 767 357 loadbang;
#X obj 767 498 loadbang;
#X text 560 43 input pot 5;
#X obj 474 159 s pot5;
#X text 558 181 input pot 6;
#X obj 481 298 s pot6;
#X text 561 333 input pot 7;
#X obj 481 449 s pot7;
#X text 561 471 input pot 8;
#X obj 481 587 s pot8;
#X obj 473 65 r p5;
#X obj 476 204 r p6;
#X obj 479 356 r p7;
#X obj 479 494 r p8;
#X msg 239 561 0;
#X msg 664 265 0;
#X msg 665 290 127;
#X msg 668 442 127;
#X msg 667 555 0;
#X obj 576 627 r buttons;
#X obj 576 655 unpack;
#X obj 579 683 route 1 2 3 4;
#X obj 476 711 s button1;
#X obj 547 711 s button2;
#X obj 619 711 s button3;
#X obj 690 711 s button4;
#X msg 240 586 1;
#X msg 668 580 1;
#X msg 240 523 1022;
#X msg 668 517 1022;
#X msg 234 92 1024;
#X msg 233 130 100;
#X msg 235 159 2000;
#X msg 661 124 1;
#X msg 662 149 500;
#X msg 237 296 500;
#X msg 240 448 500;
#X msg 236 271 10;
#X msg 239 423 10;
#X connect 0 0 2 0;
#X connect 1 0 62 0;
#X connect 2 0 3 0;
#X connect 3 0 1 0;
#X connect 7 0 9 0;
#X connect 8 0 63 0;
#X connect 9 0 10 0;
#X connect 10 0 8 0;
#X connect 12 0 14 0;
#X connect 13 0 15 0;
#X connect 14 0 0 0;
#X connect 15 0 7 0;
#X connect 20 0 3 1;
#X connect 27 0 10 1;
#X connect 28 0 10 2;
#X connect 29 0 31 0;
#X connect 30 0 64 0;
#X connect 31 0 32 0;
#X connect 32 0 30 0;
#X connect 33 0 29 0;
#X connect 40 0 32 1;
#X connect 41 0 32 2;
#X connect 43 0 33 0;
#X connect 44 0 46 0;
#X connect 45 0 65 0;
#X connect 46 0 47 0;
#X connect 47 0 45 0;
#X connect 48 0 44 0;
#X connect 55 0 47 1;
#X connect 57 0 48 0;
#X connect 58 0 20 0;
#X connect 58 0 150 0;
#X connect 58 0 151 0;
#X connect 58 0 152 0;
#X connect 59 0 27 0;
#X connect 59 0 28 0;
#X connect 59 0 157 0;
#X connect 59 0 155 0;
#X connect 60 0 40 0;
#X connect 60 0 41 0;
#X connect 60 0 158 0;
#X connect 60 0 156 0;
#X connect 61 0 55 0;
#X connect 61 0 148 0;
#X connect 61 0 134 0;
#X connect 61 0 146 0;
#X connect 66 0 68 0;
#X connect 67 0 123 0;
#X connect 68 0 69 0;
#X connect 69 0 67 0;
#X connect 72 0 74 0;
#X connect 73 0 125 0;
#X connect 74 0 75 0;
#X connect 75 0 73 0;
#X connect 76 0 66 0;
#X connect 77 0 72 0;
#X connect 82 0 69 1;
#X connect 83 0 69 2;
#X connect 90 0 75 1;
#X connect 91 0 75 2;
#X connect 92 0 94 0;
#X connect 93 0 127 0;
#X connect 94 0 95 0;
#X connect 95 0 93 0;
#X connect 96 0 92 0;
#X connect 103 0 95 1;
#X connect 104 0 95 2;
#X connect 105 0 107 0;
#X connect 106 0 129 0;
#X connect 107 0 108 0;
#X connect 108 0 106 0;
#X connect 109 0 105 0;
#X connect 116 0 108 1;
#X connect 117 0 95 3;
#X connect 118 0 82 0;
#X connect 118 0 83 0;
#X connect 118 0 153 0;
#X connect 118 0 154 0;
#X connect 119 0 90 0;
#X connect 119 0 91 0;
#X connect 119 0 135 0;
#X connect 119 0 136 0;
#X connect 120 0 103 0;
#X connect 120 0 104 0;
#X connect 120 0 117 0;
#X connect 120 0 137 0;
#X connect 121 0 116 0;
#X connect 121 0 149 0;
#X connect 121 0 138 0;
#X connect 121 0 147 0;
#X connect 130 0 76 0;
#X connect 131 0 77 0;
#X connect 132 0 96 0;
#X connect 133 0 109 0;
#X connect 134 0 47 3;
#X connect 135 0 75 3;
#X connect 136 0 75 4;
#X connect 137 0 95 4;
#X connect 138 0 108 3;
#X connect 139 0 140 0;
#X connect 140 0 141 0;
#X connect 141 0 142 0;
#X connect 141 1 143 0;
#X connect 141 2 144 0;
#X connect 141 3 145 0;
#X connect 146 0 47 4;
#X connect 147 0 108 4;
#X connect 148 0 47 2;
#X connect 149 0 108 2;
#X connect 150 0 3 2;
#X connect 151 0 3 3;
#X connect 152 0 3 4;
#X connect 153 0 69 3;
#X connect 154 0 69 4;
#X connect 155 0 10 4;
#X connect 156 0 32 4;
#X connect 157 0 10 3;
#X connect 158 0 32 3;
#X restore 857 18 pd routing;
#X msg 65 50 bang;
#X obj 123 358 makenote 64 250;
#X obj 123 148 counter;
#X obj 889 571 s startstop;
#X obj 889 482 s backward;
#X msg 224 110 0;
#X msg 275 109 1;
#X obj 322 69 r forward;
#X obj 397 70 r backward;
#X obj 12 436 r wave;
#X obj 12 472 i;
#X obj 46 472 + 1;
#X obj 12 499 % 3;
#X floatatom 12 525 5 0 0 0 - - -, f 5;
#X obj 22 592 loadbang;
#N canvas 4 23 1253 755 simple 0;
#X obj 358 40 inlet;
#X obj 359 437 outlet~;
#X msg 358 90 bang;
#X obj 116 135 hsl 128 15 1 500 0 0 empty empty Attack -2 -8 0 10 -262144
-1 -1 900 1;
#X obj 553 203 delay;
#X obj 358 198 pack;
#X msg 400 150 1 \$1;
#X obj 471 263 pack;
#X obj 115 175 hsl 128 15 1 500 0 0 empty decay Decay -2 -8 0 10 -262144
-1 -1 10600 1;
#X msg 471 190 0 \$1;
#X obj 585 150 float;
#X obj 358 320 line~;
#X obj 113 58 loadbang;
#X connect 0 0 2 0;
#X connect 2 0 4 0;
#X connect 2 0 5 0;
#X connect 3 0 6 0;
#X connect 3 0 10 0;
#X connect 4 0 7 0;
#X connect 5 0 11 0;
#X connect 6 0 5 0;
#X connect 7 0 11 0;
#X connect 8 0 9 0;
#X connect 9 0 7 0;
#X connect 10 0 4 1;
#X connect 11 0 1 0;
#X connect 12 0 3 0;
#X coords 0 -1 1 1 160 100 1 100 100;
#X restore 558 303 pd simple envelope;
#X obj 783 437 r button1;
#X obj 783 460 bng 15 250 50 0 empty empty empty 17 7 0 10 -262144
-1 -1;
#X obj 783 492 s forward;
#X obj 780 523 r button3;
#X obj 780 567 s wave;
#X connect 0 0 57 0;
#X connect 1 0 57 0;
#X connect 2 0 57 0;
#X connect 3 0 57 0;
#X connect 4 0 57 0;
#X connect 5 0 57 0;
#X connect 6 0 57 0;
#X connect 7 0 57 0;
#X connect 9 0 30 0;
#X connect 10 0 11 0;
#X connect 11 0 12 0;
#X connect 11 0 13 0;
#X connect 13 0 0 0;
#X connect 13 1 4 0;
#X connect 13 2 1 0;
#X connect 13 3 2 0;
#X connect 13 4 7 0;
#X connect 13 5 5 0;
#X connect 13 6 6 0;
#X connect 13 7 3 0;
#X connect 13 8 4 0;
#X connect 14 0 15 0;
#X connect 14 0 19 0;
#X connect 14 0 20 0;
#X connect 14 0 18 0;
#X connect 17 0 30 1;
#X connect 18 0 23 0;
#X connect 19 0 21 0;
#X connect 20 0 22 0;
#X connect 24 0 31 0;
#X connect 25 0 24 0;
#X connect 26 0 24 0;
#X connect 27 0 24 0;
#X connect 28 0 25 0;
#X connect 28 1 26 0;
#X connect 28 2 27 0;
#X connect 29 0 28 0;
#X connect 30 0 8 0;
#X connect 30 0 58 0;
#X connect 30 0 71 0;
#X connect 31 0 16 0;
#X connect 31 0 16 1;
#X connect 32 0 56 0;
#X connect 35 0 34 0;
#X connect 37 0 36 0;
#X connect 40 0 38 0;
#X connect 41 0 39 0;
#X connect 46 0 42 0;
#X connect 47 0 43 0;
#X connect 48 0 44 0;
#X connect 49 0 45 0;
#X connect 50 0 76 0;
#X connect 51 0 53 0;
#X connect 52 0 54 0;
#X connect 53 0 60 0;
#X connect 54 0 59 0;
#X connect 56 0 9 0;
#X connect 57 0 14 0;
#X connect 58 0 10 0;
#X connect 61 0 58 1;
#X connect 62 0 58 1;
#X connect 63 0 61 0;
#X connect 64 0 62 0;
#X connect 65 0 66 0;
#X connect 66 0 67 0;
#X connect 66 0 68 0;
#X connect 67 0 66 1;
#X connect 68 0 69 0;
#X connect 69 0 29 0;
#X connect 70 0 26 0;
#X connect 71 0 31 1;
#X connect 72 0 73 0;
#X connect 73 0 74 0;
#X connect 75 0 50 0;
