#N canvas 803 111 450 620 10;
#N canvas 0 22 450 278 (subpatch) 0;
#X array channelL 490473 float 2;
#X coords 0 1 490473 -1 200 140 1;
#X restore 239 19 graph;
#N canvas 0 22 450 278 (subpatch) 0;
#X array channelR 490473 float 2;
#X coords 0 1 490473 -1 200 140 1 0 0;
#X restore 239 174 graph;
#X obj 19 583 dac~ 1 2;
#X obj 18 551 *~;
#X obj 62 553 *~;
#X obj 111 538 vsl 40 60 0 1 0 0 empty empty empty 0 -9 0 10 -262144
-1 -1 1900 1;
#X obj 12 26 bng 15 250 50 0 empty empty empty 17 7 0 10 -262144 -1
-1;
#X obj 12 47 openpanel;
#X msg 12 70 read -resize \$1 channelL channelR;
#X msg 353 569 \; pd dsp \$1;
#X obj 353 545 tgl 15 0 empty empty empty 17 7 0 10 -262144 -1 -1 0
1;
#X obj 12 96 soundfiler;
#X floatatom 31 119 12 0 0 0 - - -, f 12;
#X obj 13 176 expr 44100 / $f1;
#X obj 32 146 s sampleSize;
#X floatatom 26 207 10 0 0 0 - - -, f 10;
#X obj 14 344 phasor~;
#X obj 15 427 *~;
#X obj 60 413 r sampleSize;
#X obj 17 500 tabread4~ channelL;
#X obj 37 471 tabread4~ channelR;
#X obj 257 396 tgl 15 0 empty empty empty 17 7 0 10 -262144 -1 -1 1
1;
#X obj 257 419 metro 50;
#X obj 257 443 snapshot~;
#X floatatom 257 467 10 0 0 0 - - -, f 10;
#X obj 258 493 /;
#X obj 337 473 r sampleSize;
#X floatatom 272 523 10 0 0 0 - - -, f 10;
#X obj 242 317 hsl 195 15 0 1 0 0 empty empty empty -2 -8 0 10 -262144
-1 -1 9263 1;
#X obj 95 256 hsl 128 15 -1 1 0 0 empty empty empty -2 -8 0 10 -262144
-1 -1 6921 1;
#X floatatom 92 277 5 0 0 0 - - -, f 5;
#X msg 92 233 0.0899132;
#X msg 90 305 0;
#X msg 125 305 0.5;
#X msg 28 278 0;
#X text 25 248 pauses audio;
#X connect 3 0 2 0;
#X connect 4 0 2 1;
#X connect 5 0 3 1;
#X connect 5 0 4 1;
#X connect 6 0 7 0;
#X connect 7 0 8 0;
#X connect 8 0 11 0;
#X connect 10 0 9 0;
#X connect 11 0 12 0;
#X connect 11 0 13 0;
#X connect 12 0 14 0;
#X connect 13 0 15 0;
#X connect 13 0 16 0;
#X connect 16 0 17 0;
#X connect 17 0 19 0;
#X connect 17 0 20 0;
#X connect 17 0 23 0;
#X connect 18 0 17 1;
#X connect 19 0 3 0;
#X connect 20 0 4 0;
#X connect 21 0 22 0;
#X connect 22 0 23 0;
#X connect 23 0 24 0;
#X connect 24 0 25 0;
#X connect 25 0 27 0;
#X connect 25 0 28 0;
#X connect 26 0 25 1;
#X connect 29 0 30 0;
#X connect 30 0 16 0;
#X connect 31 0 29 0;
#X connect 32 0 16 1;
#X connect 33 0 16 1;
#X connect 34 0 16 0;
