#N canvas 485 30 751 591 10;
#X obj 525 129 table pitches;
#X obj 481 315 tabwrite pitches;
#X floatatom 452 268 5 0 0 0 - - -, f 5;
#X msg 576 267 0;
#X msg 611 266 2;
#X msg 646 266 4;
#X msg 680 265 6;
#X obj 126 123 metro 250;
#X obj 126 152 f;
#X obj 167 151 + 1;
#X floatatom 152 208 5 0 0 0 - - -, f 5;
#X obj 127 306 + 1;
#X obj 126 360 int;
#X obj 126 389 mtof;
#X obj 126 436 phasor~;
#X obj 126 475 dac~;
#X obj 126 273 tabread pitches;
#X floatatom 184 302 5 0 0 0 - - -, f 5;
#X floatatom 161 412 5 0 0 0 - - -, f 5;
#X floatatom 70 386 5 0 0 0 - - -, f 5;
#X obj 126 181 mod 16;
#X obj 126 329 * 50;
#X msg 273 114 \; pd dsp \$1;
#X obj 126 98 tgl 15 0 empty empty empty 17 7 0 10 -262144 -1 -1 0
1;
#X obj 127 237 hradio 15 1 0 16 empty empty empty 0 -8 0 10 -262144
-1 -1 6;
#X msg 175 65 125;
#X msg 208 65 250;
#X msg 239 65 500;
#X connect 2 0 1 0;
#X connect 3 0 1 1;
#X connect 4 0 1 1;
#X connect 5 0 1 1;
#X connect 6 0 1 1;
#X connect 7 0 8 0;
#X connect 8 0 9 0;
#X connect 8 0 20 0;
#X connect 9 0 8 1;
#X connect 11 0 21 0;
#X connect 12 0 13 0;
#X connect 12 0 19 0;
#X connect 13 0 14 0;
#X connect 13 0 18 0;
#X connect 14 0 15 0;
#X connect 14 0 15 1;
#X connect 16 0 11 0;
#X connect 16 0 17 0;
#X connect 20 0 10 0;
#X connect 20 0 24 0;
#X connect 21 0 12 0;
#X connect 23 0 7 0;
#X connect 23 0 22 0;
#X connect 24 0 16 0;
#X connect 25 0 7 1;
#X connect 26 0 7 1;
#X connect 27 0 7 1;
