#N canvas 394 124 734 518 10;
#X obj 165 71 tgl 15 0 empty empty empty 17 7 0 10 -262144 -1 -1 1
1;
#X msg 232 49 setup_wiringPi;
#X obj 137 303 vsl 15 128 0 1023 0 0 empty empty empty 0 -9 0 10 -262144
-1 -1 25 1;
#X obj 163 303 vsl 15 128 0 1023 0 0 empty empty empty 0 -9 0 10 -262144
-1 -1 25 1;
#X obj 189 303 vsl 15 128 0 1023 0 0 empty empty empty 0 -9 0 10 -262144
-1 -1 25 1;
#X obj 215 303 vsl 15 128 0 1023 0 0 empty empty empty 0 -9 0 10 -262144
-1 -1 25 1;
#X obj 240 303 vsl 15 128 0 1023 0 0 empty empty empty 0 -9 0 10 -262144
-1 -1 25 1;
#X obj 266 303 vsl 15 128 0 1023 0 0 empty empty empty 0 -9 0 10 -262144
-1 -1 25 1;
#X obj 292 303 vsl 15 128 0 1023 0 0 empty empty empty 0 -9 0 10 -262144
-1 -1 11074 1;
#X obj 318 303 vsl 15 128 0 1023 0 0 empty empty empty 0 -9 0 10 -262144
-1 -1 25 1;
#X obj 162 139 metro 5;
#X obj 359 304 vsl 15 128 0 1023 0 0 empty empty empty 0 -9 0 10 -262144
-1 -1 12 1;
#X obj 385 304 vsl 15 128 0 1023 0 0 empty empty empty 0 -9 0 10 -262144
-1 -1 12 1;
#X obj 411 304 vsl 15 128 0 1023 0 0 empty empty empty 0 -9 0 10 -262144
-1 -1 12 1;
#X obj 437 304 vsl 15 128 0 1023 0 0 empty empty empty 0 -9 0 10 -262144
-1 -1 12 1;
#X obj 462 304 vsl 15 128 0 1023 0 0 empty empty empty 0 -9 0 10 -262144
-1 -1 12 1;
#X obj 488 304 vsl 15 128 0 1023 0 0 empty empty empty 0 -9 0 10 -262144
-1 -1 12 1;
#X obj 514 304 vsl 15 128 0 1023 0 0 empty empty empty 0 -9 0 10 -262144
-1 -1 12 1;
#X obj 540 304 vsl 15 128 0 1023 0 0 empty empty empty 0 -9 0 10 -262144
-1 -1 12 1;
#X text 17 5 Oh Eye Analog Inputs for Raspberry Pi;
#X obj 152 220 ohEye;
#X obj 153 248 unpack f f f f f f f f f f f f f f f f;
#X text 14 50 2 Send setup_wiringPi message;
#X text 14 71 3 Turn on metronome;
#X text 15 29 1 Make sure you're running as root (sudo puredata);
#X text 349 51 (safe to do this with a loadbang too);
#X text 25 484 industries.as220.org;
#X text 26 470 moderndevice.com;
#X text 25 497 support@moderndevice.com;
#X text 26 458 fluxly.com/oheye;
#X connect 0 0 10 0;
#X connect 1 0 20 0;
#X connect 10 0 20 0;
#X connect 20 0 21 0;
#X connect 21 0 2 0;
#X connect 21 1 3 0;
#X connect 21 2 4 0;
#X connect 21 3 5 0;
#X connect 21 4 6 0;
#X connect 21 5 7 0;
#X connect 21 6 8 0;
#X connect 21 7 9 0;
#X connect 21 8 11 0;
#X connect 21 9 12 0;
#X connect 21 10 13 0;
#X connect 21 11 14 0;
#X connect 21 12 15 0;
#X connect 21 13 16 0;
#X connect 21 14 17 0;
#X connect 21 15 18 0;
