#N canvas 348 165 1451 923 10;
#N canvas 46 91 450 278 (subpatch) 0;
#X array pitches 12 float 2;
#X coords 0 90 12 40 240 200 1 0 0;
#X restore 91 422 graph;
#X obj 558 590 +~;
#X obj 553 463 osc~ 220;
#X obj 556 652 dac~;
#X obj 690 139 loadbang;
#X msg 555 183 1;
#X obj 733 507 line~;
#X obj 731 587 *~ 0.3;
#X obj 556 615 *~ 0.2;
#X msg 831 517 0.3;
#X obj 555 241 metro 300;
#X msg 641 405 440;
#X msg 700 434 220;
#X obj 724 634 delwrite~ del 1000;
#X obj 733 434 * 600;
#X obj 819 181 hsl 240 15 0 1 0 0 empty pot5 Arp_Speed -2 -8 0 10 -204800
-1 -1 4800 1;
#X obj 818 228 hsl 240 15 0 1 0 0 empty pot6 Pitch_Spread -2 -8 0 10
-261682 -1 -1 0 1;
#X obj 819 266 hsl 240 15 0 1 0 0 empty pot7 Delay_Time -2 -8 0 10
-204786 -1 -1 0 1;
#X obj 818 340 hsl 240 15 0 1 0 0 empty pot8 Regeneration -2 -8 0 10
-262130 -1 -1 0 1;
#X obj 733 551 vd~ del;
#X obj 733 457 + 20;
#X obj 555 432 * 150;
#X obj 606 218 * 1000;
#X msg 733 483 \$1 20;
#X obj 559 551 *~;
#X obj 994 67 tgl 15 0 empty empty empty 17 7 0 10 -262144 -1 -1 1
1;
#X msg 995 88 \; pd dsp \$1;
#X obj 998 24 r btn1;
#X obj 729 689 hsl 128 30 0 1 0 0 empty pot1 Volume -2 -8 0 10 -232576
-1 -1 9300 1;
#X floatatom 816 300 5 0 0 0 - - -;
#X obj 506 369 tabread pitches;
#X obj 507 392 mtof;
#X obj 582 406 + 1;
#X floatatom 483 464 8 0 0 0 - - -;
#X floatatom 469 393 5 0 0 0 - - -;
#X obj 548 283 i;
#X obj 593 283 + 1;
#X obj 548 307 % 12;
#X obj 91 632 hradio 20 1 0 12 empty empty empty 0 -8 0 10 -262144
-1 -1 3;
#X obj 476 322 s beat;
#X obj 39 607 r beat;
#X msg 160 72 tempo \$1;
#X msg 223 72 resolution \$1;
#X floatatom 160 53 5 0 0 2 tempo tempo -;
#X floatatom 223 54 5 0 0 2 resolution resolution -;
#X obj 186 121 abl_link~ 1 0 4 140;
#X obj 85 53 tgl 15 0 empty empty connected 0 -8 0 10 -262144 -1 -1
0 1;
#X msg 85 73 connect \$1;
#X obj 186 150 t b f;
#X text 85 12 Ableton Link data;
#X obj 242 184 s linktempo;
#X floatatom 624 251 5 0 0 0 - - -;
#X obj 497 92 r linktempo;
#X msg 92 321 \; pitches 0 72 81 74 79 76 81 74 79 81 76 72 67 \;;
#X msg 92 281 \; pitches 0 60 72 62 69 60 64 62 67 72 69 72 60 \;;
#X obj 817 95 sik/routing;
#X connect 1 0 8 0;
#X connect 2 0 24 0;
#X connect 4 0 5 0;
#X connect 4 0 9 0;
#X connect 4 0 11 0;
#X connect 4 0 12 0;
#X connect 5 0 10 0;
#X connect 5 0 22 0;
#X connect 6 0 19 0;
#X connect 7 0 13 0;
#X connect 8 0 3 0;
#X connect 8 0 3 1;
#X connect 9 0 7 1;
#X connect 10 0 35 0;
#X connect 11 0 21 1;
#X connect 12 0 23 0;
#X connect 14 0 20 0;
#X connect 15 0 22 0;
#X connect 16 0 32 0;
#X connect 17 0 14 0;
#X connect 17 0 29 0;
#X connect 18 0 7 1;
#X connect 19 0 1 1;
#X connect 19 0 7 0;
#X connect 20 0 23 0;
#X connect 21 0 2 0;
#X connect 21 0 33 0;
#X connect 22 0 10 1;
#X connect 22 0 51 0;
#X connect 23 0 6 0;
#X connect 24 0 1 0;
#X connect 24 0 13 0;
#X connect 25 0 26 0;
#X connect 27 0 25 0;
#X connect 28 0 8 1;
#X connect 30 0 31 0;
#X connect 30 0 34 0;
#X connect 31 0 21 0;
#X connect 32 0 21 1;
#X connect 35 0 36 0;
#X connect 35 0 37 0;
#X connect 36 0 35 1;
#X connect 37 0 30 0;
#X connect 37 0 39 0;
#X connect 40 0 38 0;
#X connect 41 0 45 0;
#X connect 42 0 45 0;
#X connect 43 0 41 0;
#X connect 44 0 42 0;
#X connect 45 0 48 0;
#X connect 46 0 47 0;
#X connect 47 0 45 0;
#X connect 48 0 50 0;
#X connect 52 0 5 0;
#X coords 0 923 1 922 200 200 0;
