#N canvas 273 23 843 182 10;
#X obj 405 49 tgl 15 0 empty empty empty 17 7 0 10 -135137 -1 -1 1
1;
#X text 429 48 <- Starts the patch;
#N canvas 180 23 833 855 random_ambient 0;
#X obj 247 820 dac~;
#X obj 272 27 tgl 15 0 empty empty empty 17 7 0 10 -135137 -1 -1 1
1;
#X obj 272 78 bng 15 250 50 0 empty empty empty 17 7 0 10 -262144 -1
-1;
#X obj 641 423 vline~;
#X obj 268 485 cos~;
#X obj 268 682 *~;
#X msg 502 398 43.4335;
#X obj 291 138 i;
#X obj 323 138 + 1;
#X obj 268 342 bng 15 250 50 0 empty play0 empty 17 7 0 10 -262144
-1 -1;
#X obj 310 342 bng 15 250 50 0 empty play1 empty 17 7 0 10 -262144
-1 -1;
#X obj 355 342 bng 15 250 50 0 empty play2 empty 17 7 0 10 -262144
-1 -1;
#X obj 399 342 bng 15 250 50 0 empty play3 empty 17 7 0 10 -262144
-1 -1;
#X obj 447 342 bng 15 250 50 0 empty play4 empty 17 7 0 10 -262144
-1 -1;
#X obj 502 342 bng 15 250 50 0 empty play5 empty 17 7 0 10 -262144
-1 -1;
#X obj 268 441 phasor~;
#X text 296 26 <- Starts the patch;
#X obj 641 355 bng 15 250 50 0 empty empty empty 17 7 0 10 -262144
-1 -1;
#X obj 268 648 bob~;
#X obj 272 112 t b b b;
#X obj 641 447 pow~ 3;
#X msg 447 398 122.941;
#X msg 355 398 147.974;
#X msg 224 520 clear;
#X obj 291 190 sel 0 1 2 3 4 5 6 7 8 9 10 11 12 13 14 15;
#X obj 291 165 mod 16;
#X obj 288 742 lop~ 1500;
#X obj 151 583 delread~ del1;
#X obj 332 571 loadbang;
#X obj 641 376 pack 0 0;
#X msg 641 398 1 4 \, 0 \$2 3;
#X obj 288 764 delwrite~ del1 800;
#X msg 310 398 103.174;
#X obj 275 374 r a-0;
#X obj 320 374 r a-1;
#X obj 366 375 r a-2;
#X obj 410 375 r a-3;
#X obj 456 376 r a-4;
#X obj 510 376 r a-5;
#X obj 268 464 pow~ 0.7;
#X obj 151 536 loadbang;
#X obj 272 52 metro 333;
#X obj 288 721 hip~ 70;
#X obj 626 59 tgl 15 0 empty empty empty 17 7 0 10 -262144 -1 -1 0
1;
#X msg 151 560 520;
#X obj 686 179 loadbang;
#X obj 278 570 *~ 900;
#X text 714 204 decay;
#X text 361 593 res;
#X msg 332 593 0.2;
#X obj 82 724 rev2~ 88 97 3000 98;
#X obj 292 311 sel 0 1 2 3 4 5;
#X msg 91 247 8;
#X msg 124 247 6;
#X obj 91 222 r b-0;
#X obj 124 222 r b-1;
#X msg 158 247 2;
#X msg 193 247 4;
#X obj 158 222 r b-2;
#X obj 193 222 r b-3;
#X msg 228 247 5;
#X msg 263 247 0;
#X msg 298 247 10;
#X msg 333 247 0;
#X obj 228 222 r b-4;
#X obj 263 222 r b-5;
#X obj 298 222 r b-6;
#X obj 333 222 r b-7;
#X obj 92 79 tgl 15 0 empty empty empty 17 7 0 10 -262144 -1 -1 0 1
;
#X text 115 78 <- allow timing changes;
#X text 647 57 <- allow pitch changes;
#X msg 369 247 9;
#X msg 404 247 4;
#X msg 439 247 2;
#X msg 478 247 1;
#X msg 517 247 0;
#X msg 556 247 2;
#X msg 595 247 3;
#X msg 634 247 0;
#X obj 369 222 r b-8;
#X obj 404 222 r b-9;
#X obj 439 222 r b-10;
#X obj 478 222 r b-11;
#X obj 517 222 r b-12;
#X obj 556 222 r b-13;
#X obj 595 222 r b-14;
#X obj 634 222 r b-15;
#X obj 292 284 moses 6;
#X obj 151 605 *~ 0.65;
#X obj 272 5 inlet;
#X obj 92 49 inlet;
#X obj 626 30 inlet;
#X msg 686 205 950;
#X obj 82 747 rev2~ 80 97 3000 98;
#N canvas 58 286 397 504 timing 0;
#X obj 272 78 bng 15 250 50 0 empty empty empty 17 7 0 10 -262144 -1
-1;
#X obj 170 186 snapshot~;
#X floatatom 170 232 5 0 0 0 - - -;
#X floatatom 170 336 5 0 0 0 - - -;
#X obj 149 360 pack;
#X floatatom 101 235 5 0 0 0 - - -;
#X obj 101 146 spigot;
#X obj 170 156 phasor~ 4.371;
#X obj 101 211 moses 16;
#X obj 170 210 + 0;
#X obj 170 303 int;
#X msg 149 384 \; b-\$1 set \$2;
#X text 204 260 emptiness;
#X obj 170 257 * 13;
#X obj 101 187 random 40;
#X obj 134 89 inlet;
#X obj 272 49 inlet;
#X connect 0 0 6 0;
#X connect 0 0 1 0;
#X connect 1 0 9 0;
#X connect 2 0 13 0;
#X connect 3 0 4 1;
#X connect 4 0 11 0;
#X connect 5 0 4 0;
#X connect 6 0 14 0;
#X connect 7 0 1 0;
#X connect 8 0 5 0;
#X connect 9 0 2 0;
#X connect 10 0 3 0;
#X connect 13 0 10 0;
#X connect 14 0 8 0;
#X connect 15 0 6 1;
#X connect 16 0 0 0;
#X restore 92 155 pd timing;
#N canvas 593 302 264 460 pitches 0;
#X obj 46 97 bng 15 250 50 0 empty empty empty 17 7 0 10 -262144 -1
-1;
#X obj 115 194 snapshot~;
#X floatatom 115 240 5 0 0 0 - - -;
#X msg 115 267 1.5;
#X obj 115 291 pow;
#X floatatom 115 344 5 0 0 0 - - -;
#X obj 115 218 + 2;
#X obj 149 267 * 5;
#X obj 115 317 + 35;
#X obj 94 368 pack;
#X msg 94 392 \; a-\$1 set \$2;
#X floatatom 46 243 5 0 0 0 - - -;
#X obj 46 154 spigot;
#X obj 46 219 moses 5;
#X obj 46 195 random 55;
#X obj 115 164 phasor~ 5.0472;
#X obj 79 102 inlet;
#X obj 46 41 inlet;
#X connect 0 0 1 0;
#X connect 0 0 12 0;
#X connect 1 0 6 0;
#X connect 2 0 3 0;
#X connect 2 0 7 0;
#X connect 3 0 4 0;
#X connect 4 0 8 0;
#X connect 5 0 9 1;
#X connect 6 0 2 0;
#X connect 7 0 4 1;
#X connect 8 0 5 0;
#X connect 9 0 10 0;
#X connect 11 0 9 0;
#X connect 12 0 14 0;
#X connect 13 0 11 0;
#X connect 14 0 13 0;
#X connect 15 0 1 0;
#X connect 16 0 12 1;
#X connect 17 0 0 0;
#X restore 569 150 pd pitches;
#X msg 268 398 170;
#X msg 400 398 219;
#X connect 1 0 41 0;
#X connect 2 0 19 0;
#X connect 2 0 94 1;
#X connect 2 0 95 0;
#X connect 3 0 20 0;
#X connect 4 0 18 0;
#X connect 5 0 42 0;
#X connect 5 0 0 0;
#X connect 5 0 0 1;
#X connect 6 0 15 0;
#X connect 7 0 8 0;
#X connect 7 0 25 0;
#X connect 8 0 7 1;
#X connect 9 0 96 0;
#X connect 9 0 17 0;
#X connect 10 0 32 0;
#X connect 10 0 17 0;
#X connect 11 0 22 0;
#X connect 11 0 17 0;
#X connect 12 0 97 0;
#X connect 12 0 17 0;
#X connect 13 0 21 0;
#X connect 13 0 17 0;
#X connect 14 0 6 0;
#X connect 14 0 17 0;
#X connect 15 0 39 0;
#X connect 17 0 29 0;
#X connect 18 0 5 0;
#X connect 19 1 7 0;
#X connect 19 2 92 0;
#X connect 20 0 5 1;
#X connect 20 0 46 0;
#X connect 21 0 15 0;
#X connect 22 0 15 0;
#X connect 23 0 18 0;
#X connect 24 0 52 0;
#X connect 24 1 53 0;
#X connect 24 2 56 0;
#X connect 24 3 57 0;
#X connect 24 4 60 0;
#X connect 24 5 61 0;
#X connect 24 6 62 0;
#X connect 24 7 63 0;
#X connect 24 8 71 0;
#X connect 24 9 72 0;
#X connect 24 10 73 0;
#X connect 24 11 74 0;
#X connect 24 12 75 0;
#X connect 24 13 76 0;
#X connect 24 14 77 0;
#X connect 24 15 78 0;
#X connect 25 0 24 0;
#X connect 26 0 31 0;
#X connect 27 0 88 0;
#X connect 28 0 49 0;
#X connect 29 0 30 0;
#X connect 30 0 3 0;
#X connect 32 0 15 0;
#X connect 33 0 96 0;
#X connect 34 0 32 0;
#X connect 35 0 22 0;
#X connect 36 0 97 0;
#X connect 37 0 21 0;
#X connect 38 0 6 0;
#X connect 39 0 4 0;
#X connect 40 0 44 0;
#X connect 41 0 2 0;
#X connect 42 0 26 0;
#X connect 43 0 95 1;
#X connect 44 0 27 0;
#X connect 45 0 92 0;
#X connect 46 0 18 1;
#X connect 49 0 18 2;
#X connect 50 0 0 0;
#X connect 50 0 93 0;
#X connect 50 1 0 1;
#X connect 51 0 9 0;
#X connect 51 1 10 0;
#X connect 51 2 11 0;
#X connect 51 3 12 0;
#X connect 51 4 13 0;
#X connect 51 5 14 0;
#X connect 52 0 87 0;
#X connect 53 0 87 0;
#X connect 54 0 52 0;
#X connect 55 0 53 0;
#X connect 56 0 87 0;
#X connect 57 0 87 0;
#X connect 58 0 56 0;
#X connect 59 0 57 0;
#X connect 60 0 87 0;
#X connect 61 0 87 0;
#X connect 62 0 87 0;
#X connect 63 0 87 0;
#X connect 64 0 60 0;
#X connect 65 0 61 0;
#X connect 66 0 62 0;
#X connect 67 0 63 0;
#X connect 68 0 94 0;
#X connect 71 0 87 0;
#X connect 72 0 87 0;
#X connect 73 0 87 0;
#X connect 74 0 87 0;
#X connect 75 0 87 0;
#X connect 76 0 87 0;
#X connect 77 0 87 0;
#X connect 78 0 87 0;
#X connect 79 0 71 0;
#X connect 80 0 72 0;
#X connect 81 0 73 0;
#X connect 82 0 74 0;
#X connect 83 0 75 0;
#X connect 84 0 76 0;
#X connect 85 0 77 0;
#X connect 86 0 78 0;
#X connect 87 0 51 0;
#X connect 88 0 0 0;
#X connect 88 0 0 1;
#X connect 88 0 18 0;
#X connect 88 0 50 0;
#X connect 89 0 1 0;
#X connect 90 0 68 0;
#X connect 91 0 43 0;
#X connect 92 0 29 1;
#X connect 93 0 0 0;
#X connect 93 1 0 1;
#X connect 96 0 15 0;
#X connect 97 0 15 0;
#X restore 356 126 pd random_ambient;
#X obj 229 74 tgl 15 0 empty empty empty 17 7 0 10 -262144 -1 -1 0
1;
#X text 252 73 <- allow timing changes;
#X obj 521 79 tgl 15 0 empty empty empty 17 7 0 10 -262144 -1 -1 0
1;
#X text 542 77 <- allow pitch changes;
#X connect 0 0 2 1;
#X connect 3 0 2 0;
#X connect 5 0 2 2;
