#N canvas 470 89 593 593 10;
#X obj 218 9 bng 15 250 50 0 empty empty empty 17 7 0 10 -262144 -1
-1;
#X obj 227 161 t b b;
#X obj 268 240 line~;
#X obj 122 285 *~;
#X obj 35 341 osc~;
#X obj 184 510 *~ 0.2;
#X obj 230 541 dac~;
#X obj 171 446 *~;
#X text 19 519 bird call no.1;
#X floatatom 313 453 0 0 120 0 - - -;
#X floatatom 341 453 0 0 100 0 - - -;
#X floatatom 370 454 4 0 4000 0 - - -;
#X floatatom 400 453 0 0 120 0 - - -;
#X obj 283 479 rev2~ 100 90 3000 20;
#X obj 269 510 *~ 0.2;
#X obj 116 155 +;
#X obj 198 45 t b b;
#X floatatom 36 276 5 0 0 0 - - -;
#X obj 161 340 osc~;
#X obj 96 341 osc~;
#X obj 161 364 *~ 0.2;
#X obj 96 362 *~ 0.3;
#X obj 35 362 *~ 0.5;
#X obj 344 379 loadbang;
#X obj 272 71 delay 55;
#X obj 141 126 random 200;
#X obj 162 317 *~ 1.2;
#X obj 97 319 *~ 1.1;
#X msg 309 419 98;
#X msg 340 419 39;
#X msg 371 419 1086;
#X msg 407 419 14;
#X obj 174 472 *~ 0.75;
#X msg 294 185 1 100;
#X obj 316 99 delay 125;
#X obj 449 80 t b b;
#X obj 490 159 line~;
#X msg 516 104 1 100;
#X msg 448 129 0 100;
#X obj 449 105 delay 300;
#X obj 227 186 delay 40;
#X msg 226 210 0.5 1000;
#X obj 115 176 + 3892;
#X obj 83 99 random 566;
#X obj 351 130 delay 120;
#X text 237 8 << call!;
#X obj 140 225 print;
#X obj 124 260 line~;
#X msg 115 197 \$1 5;
#X connect 0 0 16 0;
#X connect 0 0 35 0;
#X connect 1 0 40 0;
#X connect 1 1 33 0;
#X connect 2 0 3 1;
#X connect 3 0 4 0;
#X connect 3 0 26 0;
#X connect 3 0 27 0;
#X connect 4 0 22 0;
#X connect 5 0 6 0;
#X connect 7 0 13 0;
#X connect 7 0 32 0;
#X connect 9 0 13 1;
#X connect 10 0 13 2;
#X connect 11 0 13 3;
#X connect 12 0 13 4;
#X connect 13 0 5 0;
#X connect 13 1 14 0;
#X connect 14 0 6 1;
#X connect 15 0 42 0;
#X connect 16 0 24 0;
#X connect 16 1 1 0;
#X connect 16 1 25 0;
#X connect 18 0 20 0;
#X connect 19 0 21 0;
#X connect 20 0 7 0;
#X connect 21 0 7 0;
#X connect 22 0 7 0;
#X connect 23 0 28 0;
#X connect 23 0 31 0;
#X connect 23 0 30 0;
#X connect 23 0 29 0;
#X connect 24 0 1 0;
#X connect 24 0 34 0;
#X connect 24 0 43 0;
#X connect 25 0 15 1;
#X connect 26 0 18 0;
#X connect 27 0 19 0;
#X connect 28 0 9 0;
#X connect 29 0 10 0;
#X connect 30 0 11 0;
#X connect 31 0 12 0;
#X connect 32 0 5 0;
#X connect 32 0 14 0;
#X connect 33 0 2 0;
#X connect 34 0 1 0;
#X connect 34 0 43 0;
#X connect 34 0 44 0;
#X connect 35 0 39 0;
#X connect 35 1 37 0;
#X connect 36 0 7 1;
#X connect 37 0 36 0;
#X connect 38 0 36 0;
#X connect 39 0 38 0;
#X connect 40 0 41 0;
#X connect 41 0 2 0;
#X connect 42 0 17 0;
#X connect 42 0 48 0;
#X connect 43 0 15 0;
#X connect 44 0 1 0;
#X connect 44 0 43 0;
#X connect 47 0 3 0;
#X connect 48 0 46 0;
#X connect 48 0 47 0;
