#N canvas 495 28 779 585 10;
#X obj 137 156 symbol2list :;
#X msg 129 50 symbol OO:EE:BD:DB:16:E1, f 25;
#X obj 133 208 list2int;
#X symbolatom 78 294 10 0 0 0 - - -, f 10;
#X symbolatom 211 294 10 0 0 0 - - -, f 10;
#X symbolatom 346 294 10 0 0 0 - - -, f 10;
#X symbolatom 279 294 10 0 0 0 - - -, f 10;
#X symbolatom 144 294 10 0 0 0 - - -, f 10;
#X obj 119 240 unpack s s s s s s;
#X symbolatom 431 292 10 0 0 0 - - -, f 10;
#X text 369 48 id = 'OO:EE:BD:DB:16:E1' id2 = 'DB:BD:E1:OO:EE:16' id3
= f4:5c:89:c4:ff:6f;
#X msg 151 77 symbol f4:5c:89:c4:ff:6f;
#X msg 165 99 symbol DB:BD:E1:OO:EE:16;
#X connect 0 0 2 0;
#X connect 1 0 0 0;
#X connect 2 0 8 0;
#X connect 8 0 3 0;
#X connect 8 1 7 0;
#X connect 8 2 4 0;
#X connect 8 3 6 0;
#X connect 8 4 5 0;
#X connect 8 5 9 0;
#X connect 11 0 0 0;
#X connect 12 0 0 0;
