#N canvas -8 -8 1919 1033 10;
#X msg 796 386 60 63 67 74;
#X msg 881 386 60 65 68 74;
#X msg 966 386 60 63 68 74;
#X obj 796 440 mtof;
#X obj 796 521 phasor~;
#X obj 597 976 dac~;
#X obj 878 440 mtof;
#X obj 960 440 mtof;
#X obj 1042 440 mtof;
#X obj 812 629 *~ 500;
#X obj 812 602 osc~ 0.02;
#X obj 878 521 phasor~;
#X obj 894 629 *~ 500;
#X obj 960 521 phasor~;
#X obj 976 629 *~ 500;
#X obj 1042 521 phasor~;
#X obj 1058 629 *~ 500;
#X obj 976 602 osc~ 0.03;
#X obj 894 602 osc~ 0.05;
#X obj 1058 602 osc~ 0.07;
#X obj 753 43 tgl 15 0 empty empty empty 17 7 0 10 -135137 -1 -1 0
1;
#X obj 796 147 i;
#X obj 828 147 + 1;
#X obj 753 95 bng 15 250 50 0 empty empty empty 17 7 0 10 -262144 -1
-1;
#X obj 796 174 % 4;
#X obj 796 334 bng 15 250 50 0 empty empty empty 17 7 0 10 -262144
-1 -1;
#X obj 881 334 bng 15 250 50 0 empty empty empty 17 7 0 10 -262144
-1 -1;
#X obj 966 334 bng 15 250 50 0 empty empty empty 17 7 0 10 -262144
-1 -1;
#X obj 1051 334 bng 15 250 50 0 empty empty empty 17 7 0 10 -262144
-1 -1;
#X obj 796 494 line~;
#X obj 878 494 line~;
#X obj 960 494 line~;
#X obj 1042 494 line~;
#X obj 812 656 +~ 520;
#X obj 894 656 +~ 520;
#X obj 976 656 +~ 520;
#X obj 1058 656 +~ 520;
#X obj 796 467 pack 0 200;
#X obj 878 467 pack 0 200;
#X obj 960 467 pack 0 200;
#X obj 1042 467 pack 0 200;
#X obj 796 683 vcf~ 5;
#X obj 878 683 vcf~ 5;
#X obj 960 683 vcf~ 5;
#X obj 1042 683 vcf~ 5;
#X obj 878 953 lop~ 1500;
#X obj 796 201 sel;
#X obj 796 228 bng 15 250 50 0 empty empty empty 17 7 0 10 -262144
-1 -1;
#X obj 796 253 i;
#X obj 828 253 + 1;
#X obj 796 280 % 4;
#X obj 753 68 metro 600;
#X obj 692 575 osc~;
#X obj 692 656 *~;
#X obj 707 629 vline~;
#X obj 692 548 vline~;
#X msg 692 521 400 \, 40 30;
#X obj 748 656 *~ -1;
#X obj 748 683 +~ 1;
#X obj 814 923 *~;
#X msg 707 602 1 3 \, 0 100 3;
#X obj 796 307 sel 0 1 2;
#X obj 878 710 delread~ del1 600;
#X obj 878 980 delwrite~ del1 600;
#X obj 934 924 delwrite~ del3 300;
#X obj 1056 924 delwrite~ del2 300;
#X obj 713 710 delread~ del2 300;
#X obj 597 710 delread~ del3 300;
#X obj 440 629 noise~;
#X obj 425 575 vline~;
#X msg 425 386 1 \, 0 300;
#X obj 425 602 pow~ 4;
#X obj 425 656 *~;
#X obj 425 253 bng 15 250 50 0 empty empty empty 17 7 0 10 -262144
-1 -1;
#X obj 473 710 vcf~ 10;
#X obj 492 629 osc~ 0.11;
#X obj 492 656 *~ 1000;
#X obj 492 683 +~ 1500;
#X obj 560 629 osc~ 0.11;
#X obj 560 656 *~ 1000;
#X obj 560 683 +~ 1500;
#X msg 611 601 0.5;
#X obj 541 710 vcf~ 10;
#X obj 584 574 t b b;
#X obj 425 332 bng 15 250 50 0 empty empty empty 17 7 0 10 -262144
-1 -1;
#X obj 492 332 bng 15 250 50 0 empty empty empty 17 7 0 10 -262144
-1 -1;
#X msg 492 386 1 \, 0 3000;
#X obj 425 278 random 4;
#X obj 425 305 sel 0 1 2;
#X obj 565 332 bng 15 250 50 0 empty empty empty 17 7 0 10 -262144
-1 -1;
#X msg 565 386 1 300 \, 0 0 300;
#X obj 668 332 bng 15 250 50 0 empty empty empty 17 7 0 10 -262144
-1 -1;
#X msg 668 386 1 3000 \, 0 0 3000;
#X obj 425 226 sel;
#X obj 846 923 *~;
#X obj 425 199 random 5;
#X obj 584 547 loadbang;
#X obj 1219 441 vline~;
#X obj 1135 332 phasor~ 65;
#X obj 1209 332 phasor~ 65.6;
#X obj 1135 549 vcf~ 10;
#X obj 1204 576 *~;
#X obj 1219 468 pow~ 2;
#X msg 1219 413 1 10 \, 0 8000 10;
#X obj 1269 468 random 800;
#X obj 1254 495 *~;
#X obj 1254 522 +~ 130;
#X obj 796 359 t b b b;
#X obj 1204 603 hip~ 100;
#X obj 1204 630 rev2~ 96 95 2000 20;
#X obj 878 924 *~ 0.92;
#X obj 1358 759 vline~;
#X obj 1358 786 pow~ 4;
#X obj 1343 628 cos~;
#X obj 1343 813 *~;
#X obj 1316 363 bng 15 250 50 0 empty empty empty 17 7 0 10 -262144
-1 -1;
#X obj 1226 202 del 150;
#X obj 1226 148 del 150;
#X obj 1282 202 spigot;
#X obj 1315 175 ==;
#X obj 1313 228 bng 15 250 50 0 empty empty empty 17 7 0 10 -262144
-1 -1;
#X obj 1299 256 spigot;
#X obj 1332 229 ==;
#X obj 1330 282 bng 15 250 50 0 empty empty empty 17 7 0 10 -262144
-1 -1;
#X obj 1316 310 spigot;
#X obj 1349 283 ==;
#X obj 1316 338 bng 15 250 50 0 empty empty empty 17 7 0 10 -262144
-1 -1;
#X obj 1226 175 t b b b b;
#X obj 1226 229 t b b;
#X obj 1226 256 del 150;
#X msg 1343 520 60;
#X msg 1380 520 65;
#X msg 1418 520 63;
#X msg 1456 520 67;
#X msg 1493 520 72;
#X msg 1531 520 70;
#X obj 1343 468 sel 0 1 2 3 4;
#X obj 1343 414 i;
#X obj 1375 414 + 1;
#X obj 1343 495 bng 15 250 50 0 empty empty empty 17 7 0 10 -262144
-1 -1;
#X obj 1380 495 bng 15 250 50 0 empty empty empty 17 7 0 10 -262144
-1 -1;
#X obj 1418 495 bng 15 250 50 0 empty empty empty 17 7 0 10 -262144
-1 -1;
#X obj 1456 495 bng 15 250 50 0 empty empty empty 17 7 0 10 -262144
-1 -1;
#X obj 1493 495 bng 15 250 50 0 empty empty empty 17 7 0 10 -262144
-1 -1;
#X obj 1531 495 bng 15 250 50 0 empty empty empty 17 7 0 10 -262144
-1 -1;
#X obj 1343 547 mtof;
#X obj 1343 441 % 6;
#X obj 1315 148 random 2;
#X obj 1316 388 t b b;
#X obj 1343 601 pow~;
#X obj 1343 574 phasor~;
#X obj 1568 547 *~ 0.2;
#X obj 1568 574 +~ 0.4;
#X obj 1332 202 random 5;
#X obj 1349 256 random 5;
#X obj 1343 897 *~ 0.3;
#X obj 1343 843 *~;
#X obj 1568 520 osc~ 0.082;
#X obj 597 949 *~;
#X obj 629 949 *~;
#X obj 425 683 *~ 0.1;
#X obj 692 683 *~ 0.25;
#X obj 1408 786 *~ 0.022;
#X obj 1135 359 *~ 0.6;
#X obj 1209 359 *~ 0.6;
#X obj 1135 386 -~ 0.3;
#X obj 1209 386 -~ 0.3;
#X obj 796 548 *~ 0.12;
#X obj 878 548 *~ 0.12;
#X obj 960 548 *~ 0.12;
#X obj 1042 548 *~ 0.12;
#X obj 796 575 -~ 0.06;
#X obj 878 575 -~ 0.06;
#X obj 960 575 -~ 0.06;
#X obj 1042 575 -~ 0.06;
#X text 777 42 <- Starts the patch;
#X obj 1343 870 hip~ 100;
#X msg 1051 386 58 65 67 74;
#X obj 1445 653 sel;
#X obj 1445 626 random 9;
#X msg 1358 705 1 300 \, 0 3 300;
#X obj 1460 680 bng 15 250 50 0 empty empty empty 17 7 0 10 -262144
-1 -1;
#X obj 1505 624 snapshot~;
#X obj 1505 597 osc~ 0.03;
#X obj 1460 705 pack 0 0;
#X obj 1358 680 bng 15 250 50 0 empty empty empty 17 7 0 10 -262144
-1 -1;
#X msg 1460 732 1 3 \, 0 \$2 3;
#X obj 753 120 t b b b b b b b;
#X obj 1505 652 * 450;
#X obj 1505 678 + 530;
#X obj 1408 813 +~ 0.09;
#X obj 796 413 unpack f f f f;
#X msg 543 601 0;
#X connect 0 0 191 0;
#X connect 1 0 191 0;
#X connect 2 0 191 0;
#X connect 3 0 37 0;
#X connect 4 0 167 0;
#X connect 6 0 38 0;
#X connect 7 0 39 0;
#X connect 8 0 40 0;
#X connect 9 0 33 0;
#X connect 10 0 9 0;
#X connect 11 0 168 0;
#X connect 12 0 34 0;
#X connect 13 0 169 0;
#X connect 14 0 35 0;
#X connect 15 0 170 0;
#X connect 16 0 36 0;
#X connect 17 0 14 0;
#X connect 18 0 12 0;
#X connect 19 0 16 0;
#X connect 20 0 51 0;
#X connect 20 0 158 1;
#X connect 20 0 159 1;
#X connect 21 0 22 0;
#X connect 21 0 24 0;
#X connect 22 0 21 1;
#X connect 23 0 187 0;
#X connect 24 0 46 0;
#X connect 25 0 107 0;
#X connect 26 0 1 0;
#X connect 27 0 2 0;
#X connect 28 0 177 0;
#X connect 29 0 4 0;
#X connect 30 0 11 0;
#X connect 31 0 13 0;
#X connect 32 0 15 0;
#X connect 33 0 41 1;
#X connect 34 0 42 1;
#X connect 35 0 43 1;
#X connect 36 0 44 1;
#X connect 37 0 29 0;
#X connect 38 0 30 0;
#X connect 39 0 31 0;
#X connect 40 0 32 0;
#X connect 41 1 59 1;
#X connect 41 1 94 1;
#X connect 41 1 65 0;
#X connect 41 1 45 0;
#X connect 42 1 59 1;
#X connect 42 1 94 1;
#X connect 42 1 65 0;
#X connect 42 1 45 0;
#X connect 43 1 59 1;
#X connect 43 1 94 1;
#X connect 43 1 65 0;
#X connect 43 1 45 0;
#X connect 44 1 59 1;
#X connect 44 1 94 1;
#X connect 44 1 65 0;
#X connect 44 1 45 0;
#X connect 45 0 63 0;
#X connect 46 0 47 0;
#X connect 47 0 48 0;
#X connect 48 0 49 0;
#X connect 48 0 50 0;
#X connect 49 0 48 1;
#X connect 50 0 61 0;
#X connect 51 0 23 0;
#X connect 52 0 53 0;
#X connect 53 0 161 0;
#X connect 54 0 53 1;
#X connect 54 0 57 0;
#X connect 55 0 52 0;
#X connect 56 0 55 0;
#X connect 57 0 58 0;
#X connect 58 0 59 0;
#X connect 58 0 94 0;
#X connect 59 0 158 0;
#X connect 60 0 54 0;
#X connect 61 0 25 0;
#X connect 61 1 26 0;
#X connect 61 2 27 0;
#X connect 61 3 28 0;
#X connect 62 0 64 0;
#X connect 62 0 110 0;
#X connect 62 0 159 0;
#X connect 66 0 158 0;
#X connect 67 0 158 0;
#X connect 68 0 72 1;
#X connect 69 0 71 0;
#X connect 70 0 69 0;
#X connect 71 0 72 0;
#X connect 72 0 160 0;
#X connect 73 0 87 0;
#X connect 74 0 64 0;
#X connect 74 0 65 0;
#X connect 74 0 59 1;
#X connect 75 0 76 0;
#X connect 76 0 77 0;
#X connect 77 0 74 1;
#X connect 78 0 79 0;
#X connect 79 0 80 0;
#X connect 80 0 82 1;
#X connect 81 0 78 1;
#X connect 82 0 63 0;
#X connect 82 0 94 1;
#X connect 83 0 192 0;
#X connect 83 1 81 0;
#X connect 84 0 70 0;
#X connect 85 0 86 0;
#X connect 86 0 69 0;
#X connect 87 0 88 0;
#X connect 88 0 84 0;
#X connect 88 1 85 0;
#X connect 88 2 89 0;
#X connect 88 3 91 0;
#X connect 89 0 90 0;
#X connect 90 0 69 0;
#X connect 91 0 92 0;
#X connect 92 0 69 0;
#X connect 93 0 73 0;
#X connect 94 0 159 0;
#X connect 95 0 93 0;
#X connect 96 0 83 0;
#X connect 97 0 102 0;
#X connect 98 0 163 0;
#X connect 99 0 164 0;
#X connect 100 1 101 0;
#X connect 101 0 59 1;
#X connect 101 0 94 1;
#X connect 101 0 108 0;
#X connect 102 0 101 1;
#X connect 102 0 105 0;
#X connect 103 0 97 0;
#X connect 104 0 105 1;
#X connect 105 0 106 0;
#X connect 106 0 100 1;
#X connect 107 0 0 0;
#X connect 107 1 104 0;
#X connect 107 2 103 0;
#X connect 108 0 109 0;
#X connect 109 0 158 0;
#X connect 109 1 159 0;
#X connect 110 0 45 0;
#X connect 111 0 112 0;
#X connect 112 0 114 1;
#X connect 113 0 114 0;
#X connect 114 0 156 0;
#X connect 115 0 148 0;
#X connect 116 0 128 0;
#X connect 117 0 127 0;
#X connect 118 0 120 0;
#X connect 119 0 118 1;
#X connect 120 0 115 0;
#X connect 121 0 123 0;
#X connect 122 0 121 1;
#X connect 123 0 115 0;
#X connect 124 0 126 0;
#X connect 125 0 124 1;
#X connect 126 0 115 0;
#X connect 127 0 116 0;
#X connect 127 1 118 0;
#X connect 127 2 153 0;
#X connect 127 3 154 0;
#X connect 128 0 129 0;
#X connect 128 1 121 0;
#X connect 129 0 124 0;
#X connect 130 0 145 0;
#X connect 131 0 145 0;
#X connect 132 0 145 0;
#X connect 133 0 145 0;
#X connect 134 0 145 0;
#X connect 135 0 145 0;
#X connect 136 0 139 0;
#X connect 136 1 140 0;
#X connect 136 2 141 0;
#X connect 136 3 142 0;
#X connect 136 4 143 0;
#X connect 136 5 144 0;
#X connect 137 0 138 0;
#X connect 137 0 146 0;
#X connect 138 0 137 1;
#X connect 139 0 130 0;
#X connect 140 0 131 0;
#X connect 141 0 132 0;
#X connect 142 0 133 0;
#X connect 143 0 134 0;
#X connect 144 0 135 0;
#X connect 145 0 150 0;
#X connect 146 0 136 0;
#X connect 147 0 119 0;
#X connect 148 0 179 0;
#X connect 148 1 137 0;
#X connect 149 0 113 0;
#X connect 150 0 149 0;
#X connect 151 0 152 0;
#X connect 152 0 149 1;
#X connect 153 0 122 0;
#X connect 154 0 125 0;
#X connect 155 0 65 0;
#X connect 155 0 45 0;
#X connect 156 0 176 0;
#X connect 157 0 151 0;
#X connect 157 0 162 0;
#X connect 158 0 5 0;
#X connect 159 0 5 1;
#X connect 160 0 82 0;
#X connect 160 0 74 0;
#X connect 161 0 158 0;
#X connect 161 0 159 0;
#X connect 162 0 190 0;
#X connect 163 0 165 0;
#X connect 164 0 166 0;
#X connect 165 0 100 0;
#X connect 166 0 100 0;
#X connect 167 0 171 0;
#X connect 168 0 172 0;
#X connect 169 0 173 0;
#X connect 170 0 174 0;
#X connect 171 0 41 0;
#X connect 172 0 42 0;
#X connect 173 0 43 0;
#X connect 174 0 44 0;
#X connect 176 0 155 0;
#X connect 176 0 109 0;
#X connect 176 0 59 1;
#X connect 176 0 94 1;
#X connect 177 0 191 0;
#X connect 178 0 185 0;
#X connect 178 1 181 0;
#X connect 179 0 178 0;
#X connect 180 0 111 0;
#X connect 181 0 184 0;
#X connect 182 0 188 0;
#X connect 183 0 182 0;
#X connect 184 0 186 0;
#X connect 185 0 180 0;
#X connect 186 0 111 0;
#X connect 187 0 95 0;
#X connect 187 1 56 0;
#X connect 187 2 60 0;
#X connect 187 3 21 0;
#X connect 187 4 117 0;
#X connect 187 5 147 0;
#X connect 187 6 182 0;
#X connect 188 0 189 0;
#X connect 189 0 184 1;
#X connect 190 0 156 1;
#X connect 191 0 3 0;
#X connect 191 1 6 0;
#X connect 191 2 7 0;
#X connect 191 3 8 0;
#X connect 192 0 75 1;
