#N canvas 127 27 1099 707 10;
#X obj 216 283 dac~;
#X obj 216 209 osc~ 440;
#X floatatom 216 152 5 0 0 0 - - -, f 5;
#X floatatom 174 209 5 0 0 0 - - -, f 5;
#X obj 49 251 tabread sticky, f 16;
#X floatatom 49 231 5 0 0 0 - - -, f 5;
#X obj 53 151 f;
#X obj 86 151 + 1;
#X obj 21 89 bng 20 250 50 0 empty empty empty 17 7 0 10 -262144 -1
-1;
#X floatatom 52 192 5 0 0 0 - - -, f 5;
#X obj 52 210 % 16;
#X msg 53 95 stop;
#X floatatom 53 171 5 0 0 0 - - -, f 5;
#X obj 53 124 metro 100;
#X obj 216 124 + 48;
#X obj 216 179 mtof;
#X floatatom 48 270 5 0 0 0 - - -, f 5;
#X msg 104 95 100;
#X msg 138 95 200;
#X obj 310 27 table sticky 16, f 18;
#X obj 240 95 hsl 128 15 30 80 0 0 empty empty empty -2 -8 0 10 -262144
-1 -1 4950 1;
#X msg 55 23 \; sticky 8 0 0 0 5 0 0 0 8 0 0 0 5 0 5 8;
#X msg 172 95 300;
#X obj 328 179 lfo ~;
#X obj 216 251 *~;
#X obj 282 181 vsl 20 40 0 1 0 0 empty empty Volume 0 -9 0 10 -261682
-1 -1 3950 1;
#X obj 216 232 *~;
#X connect 1 0 26 0;
#X connect 2 0 15 0;
#X connect 4 0 16 0;
#X connect 5 0 4 0;
#X connect 6 0 7 0;
#X connect 6 0 12 0;
#X connect 7 0 6 1;
#X connect 8 0 13 0;
#X connect 8 0 21 0;
#X connect 9 0 10 0;
#X connect 10 0 5 0;
#X connect 11 0 13 0;
#X connect 12 0 9 0;
#X connect 13 0 6 0;
#X connect 14 0 2 0;
#X connect 15 0 1 0;
#X connect 15 0 3 0;
#X connect 16 0 14 0;
#X connect 17 0 13 1;
#X connect 18 0 13 1;
#X connect 20 0 14 1;
#X connect 22 0 13 1;
#X connect 23 0 24 1;
#X connect 24 0 0 0;
#X connect 24 0 0 1;
#X connect 25 0 26 1;
#X connect 26 0 24 0;
