#N canvas 0 23 1130 737 10;
#X obj 110 136 hsl 100 15 0.05 200 0 0 empty empty Rate -2 -8 0 10
-262144 -1 -1 0 1;
#X obj 111 172 hsl 100 15 0 1 0 0 empty empty Depth -2 -8 0 10 -262144
-1 -1 0 1;
#X obj 110 216 osc~, f 5;
#X obj 110 280 *~ 0.5;
#X obj 110 247 +~ 1;
#X obj 110 319 *~, f 13;
#X obj 110 352 +~;
#X obj 110 386 outlet~ signal;
#X obj 203 308 swap 1;
#X obj 203 336 1;
#X floatatom 70 216 5 0 0 0 - - -, f 5;
#X floatatom 279 166 5 0 0 0 - - -, f 5;
#X floatatom 218 136 5 0 0 0 - - -, f 5;
#X floatatom 218 172 5 0 0 0 - - -, f 5;
#X obj 279 190 * 100;
#X obj 270 111 expr 1 / $f1;
#X obj 110 79 inlet rate;
#X obj 185 79 inlet depth;
#X text 251 135 sec.;
#X text 252 172 %;
#X connect 0 0 2 0;
#X connect 0 0 10 0;
#X connect 0 0 11 0;
#X connect 0 0 15 0;
#X connect 1 0 5 1;
#X connect 1 0 8 0;
#X connect 1 0 14 0;
#X connect 2 0 4 0;
#X connect 3 0 5 0;
#X connect 4 0 3 0;
#X connect 5 0 6 0;
#X connect 6 0 7 0;
#X connect 8 0 9 0;
#X connect 8 1 9 1;
#X connect 9 0 6 1;
#X connect 14 0 13 0;
#X connect 15 0 12 0;
#X connect 16 0 0 0;
#X connect 17 0 1 0;
#X coords 0 -1 1 1 180 100 1 100 100;
