#N canvas 651 117 1166 827 10;
#X obj 439 539 dac~;
#X obj 39 58 adc~;
#X obj 38 308 send~ audio;
#X obj 232 205 receive~;
#X obj 432 204 receive~;
#X obj 633 206 receive~;
#X obj 232 182 r delayswitch;
#X obj 432 181 r chorusswitch;
#X obj 633 183 r tremoloswitch;
#X obj 237 523 receive~;
#X obj 43 336 send~ none;
#X obj 237 499 r bypassswitch;
#X obj 38 146 *~;
#X text 31 23 input section;
#X obj 73 147 line~;
#X obj 76 215 vu 20 80 empty empty -1 -8 1 8 -66577 -1 0 0;
#X obj 75 191 - 100;
#X obj 75 169 env~;
#X obj 74 125 \$1 50;
#X obj 74 59 vsl 30 60 0 1 0 0 empty empty empty 0 -9 0 10 -191407
-1 -1 0 1;
#X obj 673 59 sik/routing;
#X obj 231 259 sik/simpledelay;
#X obj 432 259 sik/chorus;
#X obj 632 259 sik/tremolo;
#X connect 1 0 12 0;
#X connect 1 1 12 0;
#X connect 3 0 21 0;
#X connect 3 0 21 1;
#X connect 4 0 22 0;
#X connect 4 0 22 1;
#X connect 5 0 23 0;
#X connect 5 0 23 1;
#X connect 6 0 3 0;
#X connect 7 0 4 0;
#X connect 8 0 5 0;
#X connect 9 0 0 0;
#X connect 9 0 0 1;
#X connect 11 0 9 0;
#X connect 12 0 2 0;
#X connect 12 0 17 0;
#X connect 14 0 12 1;
#X connect 16 0 15 0;
#X connect 17 0 16 0;
#X connect 18 0 14 0;
#X connect 19 0 18 0;
#X connect 21 0 0 0;
#X connect 21 1 0 1;
#X connect 22 0 0 0;
#X connect 22 1 0 1;
#X connect 23 0 0 0;
#X connect 23 1 0 1;
