#N canvas 618 121 609 460 10;
#X obj 74 31 vradio 15 1 0 4 empty empty empty 0 -8 0 10 -262144 -1
-1 0;
#N canvas 92 289 450 300 bpm 1;
#X obj 55 105 t b f;
#X msg 37 128 60000;
#X obj 67 151 /;
#X obj 67 204 outlet;
#X floatatom 100 74 5 0 0 0 - - -, f 5;
#X floatatom 120 201 5 0 0 0 - - -, f 5;
#X obj 162 42 inlet;
#X obj 67 173 /;
#X floatatom 113 168 5 0 0 0 - - -, f 5;
#X obj 113 147 + 1;
#X obj 52 50 r tempo;
#X obj 55 82 f \$1;
#X obj 107 50 bng 15 250 50 0 empty empty empty 17 7 0 10 -262144 -1
-1;
#X connect 0 0 1 0;
#X connect 0 1 2 1;
#X connect 1 0 2 0;
#X connect 2 0 7 0;
#X connect 6 0 9 0;
#X connect 6 0 12 0;
#X connect 7 0 3 0;
#X connect 7 0 5 0;
#X connect 9 0 7 1;
#X connect 9 0 8 0;
#X connect 10 0 11 0;
#X connect 10 0 4 0;
#X connect 11 0 0 0;
#X connect 12 0 4 0;
#X connect 12 0 1 0;
#X restore 75 106 pd bpm;
#X floatatom 118 136 5 0 0 0 - - -, f 5;
#X obj 75 136 s bpm;
#X obj 387 31 tgl 15 0 empty empty empty 17 7 0 10 -262144 -1 -1 1
1;
#X obj 387 58 metro;
#X obj 419 29 r bpm;
#X obj 387 85 counter;
#X obj 387 111 % 8;
#X obj 387 137 hradio 15 1 0 8 empty empty empty 0 -8 0 10 -262144
-1 -1 3;
#X obj 388 162 expr melody[$f1+$f2];
#X floatatom 531 137 5 0 0 0 - - -, f 5;
#X floatatom 388 187 5 0 0 0 - - -, f 5;
#X obj 388 213 + 52;
#X obj 386 244 makenote 64 250;
#X obj 489 191 r bpm;
#X obj 489 214 * 0.75;
#X obj 24 30 vsl 30 128 20 200 0 0 tempo empty Tempo 0 -9 0 10 -262130
-1 -1 10100 1;
#X floatatom 24 172 5 0 0 0 - - -, f 5;
#N canvas 4 23 976 611 (subpatch) 0;
#X array melody 8 float 2;
#X coords 0 15 8 0 250 100 1 0 0;
#X restore 18 235 graph;
#X msg 18 400 \; melody 0 1 3 14 5 8 4 8 5;
#X msg 18 363 \; melody 0 1 7 8 2 4 3 5 6;
#X text 98 35 4th 8th 8th triplet 16th;
#X obj 399 346 osc~;
#X obj 400 398 dac~;
#X obj 395 307 mtof;
#X connect 0 0 1 0;
#X connect 1 0 2 0;
#X connect 1 0 3 0;
#X connect 4 0 5 0;
#X connect 5 0 7 0;
#X connect 6 0 5 1;
#X connect 7 0 8 0;
#X connect 8 0 9 0;
#X connect 9 0 10 0;
#X connect 10 0 12 0;
#X connect 11 0 10 1;
#X connect 12 0 13 0;
#X connect 13 0 14 0;
#X connect 14 0 25 0;
#X connect 14 1 23 1;
#X connect 15 0 16 0;
#X connect 16 0 14 2;
#X connect 17 0 18 0;
#X connect 23 0 24 0;
#X connect 23 0 24 1;
#X connect 25 0 23 0;
#X coords 0 460 1 459 85 60 0;
