#N canvas 508 107 1215 1073 10;
#X obj 80 277 vradio 15 1 0 4 empty empty empty 0 -8 0 10 -262144 -1
-1 0;
#N canvas 56 163 450 300 bpm 0;
#X obj 55 105 t b f;
#X msg 37 128 60000;
#X obj 67 151 /;
#X obj 67 204 outlet;
#X floatatom 100 74 5 0 0 0 - - -;
#X floatatom 120 201 5 0 0 0 - - -;
#X obj 162 42 inlet;
#X obj 67 173 /;
#X floatatom 113 168 5 0 0 0 - - -;
#X obj 113 147 + 1;
#X obj 52 50 r tempo;
#X obj 55 82 f \$1;
#X obj 107 50 bng 15 250 50 0 empty empty empty 17 7 0 10 -262144 -1
-1;
#X connect 0 0 1 0;
#X connect 0 1 2 1;
#X connect 1 0 2 0;
#X connect 2 0 7 0;
#X connect 6 0 9 0;
#X connect 6 0 12 0;
#X connect 7 0 3 0;
#X connect 7 0 5 0;
#X connect 9 0 7 1;
#X connect 9 0 8 0;
#X connect 10 0 11 0;
#X connect 10 0 4 0;
#X connect 11 0 0 0;
#X connect 12 0 4 0;
#X connect 12 0 1 0;
#X restore 81 352 pd bpm;
#X floatatom 124 382 5 0 0 0 - - -;
#X obj 81 382 s bpm;
#X obj 379 249 tgl 30 0 empty empty Start 36 7 0 10 -261234 -1 -1 0
1;
#X obj 393 319 metro;
#X obj 440 283 r bpm;
#X obj 392 374 % 8;
#X obj 392 400 hradio 15 1 0 8 empty empty empty 0 -8 0 10 -262144
-1 -1 3;
#X obj 393 425 expr melody[$f1+$f2];
#X floatatom 536 400 5 0 0 0 - - -;
#X floatatom 393 450 5 0 0 0 - - -;
#X obj 393 508 makenote 64 250;
#X obj 28 271 vsl 30 128 20 200 0 1 tempo empty Tempo 0 -12 0 10 -262130
-1 -1 5800 1;
#X floatatom 30 413 5 0 0 0 - - -;
#N canvas 4 23 976 611 (subpatch) 0;
#X array melody 8 float 2;
#X coords 0 15 8 0 250 100 1 0 0;
#X restore 24 476 graph;
#X msg 24 625 \; melody 0 1 3 14 5 8 4 8 5;
#X msg 24 588 \; melody 0 1 7 8 2 4 3 5 6;
#X obj 393 582 osc~;
#X obj 405 661 dac~;
#X obj 392 547 mtof;
#X floatatom 348 548 5 0 0 0 - - -;
#X msg 515 277 \; pd dsp \$1;
#X text 104 281 4th 8th 8th triplet 16th;
#X obj 393 476 + 54;
#X msg 23 662 \; melody 0 15 14 15 10 13 11 8 8;
#X obj 393 347 i;
#X obj 426 347 + 1;
#X connect 0 0 1 0;
#X connect 1 0 2 0;
#X connect 1 0 3 0;
#X connect 4 0 5 0;
#X connect 4 0 0 0;
#X connect 4 0 22 0;
#X connect 5 0 26 0;
#X connect 6 0 5 1;
#X connect 7 0 8 0;
#X connect 8 0 9 0;
#X connect 9 0 11 0;
#X connect 10 0 9 1;
#X connect 11 0 24 0;
#X connect 12 0 20 0;
#X connect 12 0 21 0;
#X connect 13 0 14 0;
#X connect 18 0 19 0;
#X connect 18 0 19 1;
#X connect 20 0 18 0;
#X connect 24 0 12 0;
#X connect 26 0 27 0;
#X connect 26 0 7 0;
#X connect 27 0 26 1;
#X coords 0 1073 1 1072 85 60 0;
