#N canvas 101 184 1068 810 10;
#X obj 439 539 dac~;
#X obj 39 58 adc~;
#X obj 38 308 send~ audio;
#X obj 232 205 receive~;
#X obj 432 204 receive~;
#X obj 633 206 receive~;
#N canvas 292 216 1314 815 effects 0;
#X obj 100 101 cnv 15 150 100 empty empty Switcher 20 12 0 14 -233017
-66577 0;
#X floatatom 275 190 5 0 0 0 - - -;
#X obj 122 130 vradio 15 1 0 4 empty empty empty 0 -8 0 10 -262144
-1 -1 0;
#X text 144 130 Bypass;
#X text 144 145 Delay;
#X text 143 161 Chorus;
#X text 144 177 Tremolo;
#X floatatom 381 117 5 0 0 0 - - -;
#X obj 275 148 loadbang;
#X msg 194 470 set audio;
#X msg 267 470 set none;
#X msg 348 471 set audio;
#X msg 420 471 set none;
#X msg 504 471 set audio;
#X msg 580 471 set none;
#X obj 194 598 send delayswitch;
#X obj 348 598 send chorusswitch;
#X obj 504 599 send tremoloswitch;
#X obj 275 237 sel 0 1 2 3;
#X msg 47 470 set audio;
#X msg 119 470 set none;
#X obj 47 598 send bypassswitch;
#X obj 378 38 bng 15 250 50 0 empty empty empty 17 7 0 10 -262144 -1
-1;
#X obj 497 38 bng 15 250 50 0 empty empty empty 17 7 0 10 -262144 -1
-1;
#X obj 378 10 r button1;
#X obj 425 88 int;
#X msg 496 57 -1;
#X obj 470 87 + 1;
#X msg 422 53 1;
#X obj 468 110 mod 4;
#X obj 497 10 r button2;
#X connect 1 0 18 0;
#X connect 2 0 1 0;
#X connect 7 0 2 0;
#X connect 8 0 1 0;
#X connect 9 0 15 0;
#X connect 10 0 16 0;
#X connect 10 0 21 0;
#X connect 11 0 16 0;
#X connect 12 0 17 0;
#X connect 12 0 15 0;
#X connect 13 0 17 0;
#X connect 14 0 16 0;
#X connect 14 0 21 0;
#X connect 18 0 19 0;
#X connect 18 0 20 0;
#X connect 18 1 9 0;
#X connect 18 1 10 0;
#X connect 18 2 11 0;
#X connect 18 2 12 0;
#X connect 18 3 13 0;
#X connect 18 3 14 0;
#X connect 19 0 21 0;
#X connect 20 0 15 0;
#X connect 20 0 17 0;
#X connect 20 0 16 0;
#X connect 22 0 25 0;
#X connect 22 0 28 0;
#X connect 23 0 26 0;
#X connect 23 0 25 0;
#X connect 24 0 22 0;
#X connect 25 0 27 0;
#X connect 25 0 7 0;
#X connect 26 0 27 1;
#X connect 27 0 29 0;
#X connect 28 0 27 1;
#X connect 29 0 25 1;
#X connect 30 0 23 0;
#X coords 0 -1 1 1 150 100 1 100 100;
#X restore 228 49 pd effects switch;
#X obj 232 182 r delayswitch;
#X obj 432 181 r chorusswitch;
#X obj 633 183 r tremoloswitch;
#X obj 237 523 receive~;
#X obj 43 336 send~ none;
#X obj 237 499 r bypassswitch;
#X obj 38 146 *~;
#X text 31 23 input section;
#X obj 73 147 line~;
#X obj 76 215 vu 20 80 empty empty -1 -8 1 8 -66577 -1 0 0;
#X obj 75 191 - 100;
#X obj 75 169 env~;
#X obj 74 125 \$1 50;
#X obj 74 59 vsl 30 60 0 1 0 0 empty empty empty 0 -9 0 10 -191407
-1 -1 0 1;
#X obj 231 259 sik/simpledelay;
#X obj 434 259 sik/chorus;
#X obj 636 259 sik/tremolo;
#X obj 734 37 sik/routing;
#X connect 1 0 13 0;
#X connect 1 1 13 0;
#X connect 3 0 21 0;
#X connect 3 0 21 1;
#X connect 4 0 22 0;
#X connect 4 0 22 1;
#X connect 5 0 23 0;
#X connect 5 0 23 1;
#X connect 7 0 3 0;
#X connect 8 0 4 0;
#X connect 9 0 5 0;
#X connect 10 0 0 0;
#X connect 10 0 0 1;
#X connect 12 0 10 0;
#X connect 13 0 2 0;
#X connect 13 0 18 0;
#X connect 15 0 13 1;
#X connect 17 0 16 0;
#X connect 18 0 17 0;
#X connect 19 0 15 0;
#X connect 20 0 19 0;
#X connect 21 0 0 0;
#X connect 21 1 0 1;
#X connect 22 0 0 0;
#X connect 22 1 0 1;
#X connect 23 0 0 0;
#X connect 23 1 0 1;
