#N canvas 512 95 1541 1121 10;
#X obj 439 539 dac~;
#X obj 39 58 adc~;
#X obj 38 308 send~ audio;
#X obj 232 205 receive~;
#X obj 432 204 receive~;
#X obj 633 206 receive~;
#N canvas 292 216 1314 815 effects 0;
#X floatatom 260 187 5 0 0 0 - - -;
#X obj 107 127 vradio 15 1 0 4 empty empty empty 0 -8 0 10 -262144
-1 -1 1;
#X text 129 127 Bypass;
#X text 129 142 Delay;
#X text 128 158 Chorus;
#X text 129 174 Tremolo;
#X floatatom 416 113 5 0 0 0 - - -;
#X obj 260 145 loadbang;
#X obj 363 7 r effectforward;
#X obj 482 7 r effectbackwards;
#X msg 179 467 set audio;
#X msg 252 467 set none;
#X msg 333 468 set audio;
#X msg 405 468 set none;
#X msg 489 468 set audio;
#X msg 565 468 set none;
#X obj 179 595 send delayswitch;
#X obj 333 595 send chorusswitch;
#X obj 489 596 send tremoloswitch;
#X obj 260 234 sel 0 1 2 3;
#X msg 32 467 set audio;
#X msg 104 467 set none;
#X obj 32 595 send bypassswitch;
#X obj 363 35 bng 15 250 50 0 empty empty empty 17 7 0 10 -262144 -1
-1;
#X obj 481 35 bng 15 250 50 0 empty empty empty 17 7 0 10 -262144 -1
-1;
#X obj 416 90 counter 0 3;
#X msg 364 55 0;
#X msg 481 54 1;
#X connect 0 0 19 0;
#X connect 1 0 0 0;
#X connect 6 0 1 0;
#X connect 7 0 0 0;
#X connect 8 0 23 0;
#X connect 9 0 24 0;
#X connect 10 0 16 0;
#X connect 11 0 17 0;
#X connect 11 0 22 0;
#X connect 12 0 17 0;
#X connect 13 0 18 0;
#X connect 13 0 16 0;
#X connect 14 0 18 0;
#X connect 15 0 17 0;
#X connect 15 0 22 0;
#X connect 19 0 20 0;
#X connect 19 0 21 0;
#X connect 19 1 10 0;
#X connect 19 1 11 0;
#X connect 19 2 12 0;
#X connect 19 2 13 0;
#X connect 19 3 14 0;
#X connect 19 3 15 0;
#X connect 20 0 22 0;
#X connect 21 0 16 0;
#X connect 21 0 18 0;
#X connect 21 0 17 0;
#X connect 23 0 26 0;
#X connect 23 0 25 0;
#X connect 24 0 25 0;
#X connect 24 0 27 0;
#X connect 25 0 6 0;
#X connect 26 0 25 1;
#X connect 27 0 25 1;
#X coords 0 -1 1 1 150 100 1 100 100;
#X restore 228 49 pd effects switch;
#X obj 232 182 r delayswitch;
#X obj 432 181 r chorusswitch;
#X obj 633 183 r tremoloswitch;
#X obj 237 523 receive~;
#X obj 43 336 send~ none;
#N canvas 301 118 1125 913 tcpcom 0;
#X text 77 65 Receive messages from Python and route them to the proper
receive objects;
#X obj 79 196 s p1;
#X obj 116 196 s p2;
#X obj 153 196 s p3;
#X obj 191 196 s p4;
#X obj 281 239 s p5;
#X obj 319 239 s p6;
#X obj 357 238 s p7;
#X obj 394 238 s p8;
#X obj 494 256 s buttons;
#X floatatom 402 125 5 0 0 0 - - -;
#X obj 80 102 netreceive 3000 1;
#X obj 81 135 route 0 1 2 3 4 5 6 7 8 9 10 11 12 13 14 15 16;
#X floatatom 297 171 5 0 0 0 - - -;
#X connect 11 0 10 0;
#X connect 11 0 12 0;
#X connect 12 0 1 0;
#X connect 12 1 2 0;
#X connect 12 2 3 0;
#X connect 12 3 4 0;
#X connect 12 4 5 0;
#X connect 12 5 6 0;
#X connect 12 6 7 0;
#X connect 12 7 8 0;
#X connect 12 8 13 0;
#X connect 12 16 9 0;
#X restore 656 37 pd tcpcom;
#N canvas 180 314 1078 750 routing_buttons 0;
#X obj 135 42 r buttons;
#X obj 135 70 unpack;
#X obj 138 98 route 1 2 3 4;
#X obj 35 126 s button1;
#X obj 106 126 s button2;
#X obj 178 126 s button3;
#X obj 249 126 s button4;
#X obj 367 37 r button1;
#X obj 367 60 bng 15 250 50 0 empty empty empty 17 7 0 10 -262144 -1
-1;
#X obj 493 38 r button2;
#X obj 367 124 r button3;
#X obj 493 126 r button4;
#X obj 493 61 bng 15 250 50 0 empty empty empty 17 7 0 10 -262144 -1
-1;
#X obj 367 148 bng 15 250 50 0 empty empty empty 17 7 0 10 -262144
-1 -1;
#X obj 493 150 bng 15 250 50 0 empty empty empty 17 7 0 10 -262144
-1 -1;
#X obj 367 171 s recBtn;
#X obj 367 84 s effectforward;
#X obj 493 83 s effectbackwards;
#X obj 493 173 s bypass;
#X connect 0 0 1 0;
#X connect 1 0 2 0;
#X connect 2 0 3 0;
#X connect 2 1 4 0;
#X connect 2 2 5 0;
#X connect 2 3 6 0;
#X connect 7 0 8 0;
#X connect 8 0 16 0;
#X connect 9 0 12 0;
#X connect 10 0 13 0;
#X connect 11 0 14 0;
#X connect 12 0 17 0;
#X connect 13 0 15 0;
#X connect 14 0 18 0;
#X restore 733 37 pd routing_buttons;
#X obj 237 499 r bypassswitch;
#X obj 38 146 *~;
#X text 31 23 input section;
#X obj 73 147 line~;
#X obj 76 215 vu 20 80 empty empty -1 -8 1 8 -66577 -1 0 0;
#X obj 75 191 - 100;
#X obj 75 169 env~;
#X obj 74 125 \$1 50;
#X obj 74 59 vsl 30 60 0 1 0 0 empty empty empty 0 -9 0 10 -191407
-1 -1 0 1;
#X obj 231 259 sik/simpledelay;
#X obj 434 259 sik/chorus;
#X obj 636 259 sik/tremolo;
#X connect 1 0 15 0;
#X connect 1 1 15 0;
#X connect 3 0 23 0;
#X connect 3 0 23 1;
#X connect 4 0 24 0;
#X connect 4 0 24 1;
#X connect 5 0 25 0;
#X connect 5 0 25 1;
#X connect 7 0 3 0;
#X connect 8 0 4 0;
#X connect 9 0 5 0;
#X connect 10 0 0 0;
#X connect 10 0 0 1;
#X connect 14 0 10 0;
#X connect 15 0 2 0;
#X connect 15 0 20 0;
#X connect 17 0 15 1;
#X connect 19 0 18 0;
#X connect 20 0 19 0;
#X connect 21 0 17 0;
#X connect 22 0 21 0;
#X connect 23 0 0 0;
#X connect 23 1 0 1;
#X connect 24 0 0 0;
#X connect 24 1 0 1;
#X connect 25 0 0 0;
#X connect 25 1 0 1;
