#N canvas 526 109 1271 865 10;
#X obj 275 576 dac~;
#X obj 41 152 send~ audio;
#X obj 68 242 receive~;
#X obj 268 241 receive~;
#X obj 544 241 receive~;
#N canvas 319 383 681 632 effects 0;
#X floatatom 260 187 5 0 0 0 - - -, f 5;
#X obj 107 127 vradio 15 1 0 4 empty empty empty 0 -8 0 10 -262144
-1 -1 1;
#X text 129 127 Bypass;
#X text 129 142 Delay;
#X text 128 158 Chorus;
#X text 129 174 Tremolo;
#X floatatom 363 113 5 0 0 0 - - -, f 5;
#X msg 363 31 bang;
#X msg 482 31 bang;
#X obj 260 145 loadbang;
#X obj 363 7 r effectforward;
#X obj 363 87 counter 0 3;
#X msg 400 48 0;
#X msg 520 48 1;
#X obj 482 7 r effectbackwards;
#X msg 179 467 set audio;
#X msg 252 467 set none;
#X msg 333 468 set audio;
#X msg 405 468 set none;
#X msg 489 468 set audio;
#X msg 565 468 set none;
#X obj 179 595 send delayswitch;
#X obj 333 595 send chorusswitch;
#X obj 489 596 send tremoloswitch;
#X obj 260 234 sel 0 1 2 3;
#X msg 32 467 set audio;
#X msg 104 467 set none;
#X obj 32 595 send bypassswitch;
#X connect 0 0 24 0;
#X connect 1 0 0 0;
#X connect 6 0 1 0;
#X connect 7 0 12 0;
#X connect 7 0 11 0;
#X connect 8 0 13 0;
#X connect 8 0 11 0;
#X connect 9 0 0 0;
#X connect 10 0 7 0;
#X connect 11 0 6 0;
#X connect 12 0 11 1;
#X connect 13 0 11 1;
#X connect 14 0 8 0;
#X connect 15 0 21 0;
#X connect 16 0 22 0;
#X connect 16 0 27 0;
#X connect 17 0 22 0;
#X connect 18 0 23 0;
#X connect 18 0 21 0;
#X connect 19 0 23 0;
#X connect 20 0 22 0;
#X connect 20 0 27 0;
#X connect 24 0 25 0;
#X connect 24 0 26 0;
#X connect 24 1 15 0;
#X connect 24 1 16 0;
#X connect 24 2 17 0;
#X connect 24 2 18 0;
#X connect 24 3 19 0;
#X connect 24 3 20 0;
#X connect 25 0 27 0;
#X connect 26 0 21 0;
#X connect 26 0 23 0;
#X connect 26 0 22 0;
#X coords 0 -1 1 1 150 100 1 100 100;
#X restore 374 17 pd effects switch;
#X obj 68 219 r delayswitch;
#X obj 268 218 r chorusswitch;
#X obj 544 218 r tremoloswitch;
#X obj 73 560 receive~;
#X obj 41 174 send~ none;
#N canvas 595 276 680 532 tcpcom 0;
#X text 77 65 Receive messages from Python and route them to the proper
receive objects;
#X obj 79 196 s p1;
#X obj 116 196 s p2;
#X obj 153 196 s p3;
#X obj 191 196 s p4;
#X obj 81 135 route 0 1 2 3 4 5 6 7 8, f 28;
#X obj 271 199 s p5;
#X obj 309 199 s p6;
#X obj 347 198 s p7;
#X obj 384 198 s p8;
#X obj 433 198 s buttons;
#X floatatom 402 125 5 0 0 0 - - -, f 5;
#X obj 80 102 netreceive 3000 1;
#X connect 5 0 1 0;
#X connect 5 1 2 0;
#X connect 5 2 3 0;
#X connect 5 3 4 0;
#X connect 5 4 6 0;
#X connect 5 5 7 0;
#X connect 5 6 8 0;
#X connect 5 7 9 0;
#X connect 5 8 10 0;
#X connect 12 0 5 0;
#X connect 12 0 11 0;
#X restore 854 31 pd tcpcom;
#N canvas 180 314 1078 750 routing_buttons 0;
#X obj 135 42 r buttons;
#X obj 135 70 unpack;
#X obj 138 98 route 1 2 3 4;
#X obj 35 126 s button1;
#X obj 106 126 s button2;
#X obj 178 126 s button3;
#X obj 249 126 s button4;
#X obj 367 37 r button1;
#X obj 367 60 bng 15 250 50 0 empty empty empty 17 7 0 10 -262144 -1
-1;
#X obj 493 38 r button2;
#X obj 367 124 r button3;
#X obj 493 126 r button4;
#X obj 493 61 bng 15 250 50 0 empty empty empty 17 7 0 10 -262144 -1
-1;
#X obj 367 148 bng 15 250 50 0 empty empty empty 17 7 0 10 -262144
-1 -1;
#X obj 493 150 bng 15 250 50 0 empty empty empty 17 7 0 10 -262144
-1 -1;
#X obj 367 171 s recBtn;
#X obj 367 84 s effectforward;
#X obj 493 83 s effectbackwards;
#X obj 493 173 s bypass;
#X connect 0 0 1 0;
#X connect 1 0 2 0;
#X connect 2 0 3 0;
#X connect 2 1 4 0;
#X connect 2 2 5 0;
#X connect 2 3 6 0;
#X connect 7 0 8 0;
#X connect 8 0 16 0;
#X connect 9 0 12 0;
#X connect 10 0 13 0;
#X connect 11 0 14 0;
#X connect 12 0 17 0;
#X connect 13 0 15 0;
#X connect 14 0 18 0;
#X restore 931 31 pd routing_buttons;
#X obj 269 296 chorus;
#X obj 73 536 r bypassswitch;
#X obj 60 297 simpledelay;
#X obj 902 100 vsl 15 128 0 3 0 0 empty empty empty 0 -9 0 10 -262144
-1 -1 0 1;
#X obj 902 75 r pot1;
#X obj 956 100 vsl 15 128 0 100 0 0 empty empty empty 0 -9 0 10 -262144
-1 -1 12100 1;
#X obj 956 75 r pot2;
#X obj 1008 100 vsl 15 128 0 100 0 0 empty empty empty 0 -9 0 10 -262144
-1 -1 4163 1;
#X obj 1062 100 vsl 15 128 0 1 0 0 empty empty empty 0 -9 0 10 -262144
-1 -1 5100 1;
#X obj 1008 75 r pot3;
#X obj 1062 75 r pot4;
#X obj 904 299 vsl 15 128 0 127 0 0 empty empty empty 0 -9 0 10 -262144
-1 -1 0 1;
#X obj 958 299 vsl 15 128 0 127 0 0 empty empty empty 0 -9 0 10 -262144
-1 -1 0 1;
#X obj 1010 299 vsl 15 128 0 127 0 0 empty empty empty 0 -9 0 10 -262144
-1 -1 0 1;
#X obj 1064 299 vsl 15 128 0 1 0 0 empty empty empty 0 -9 0 10 -262144
-1 -1 0 1;
#X obj 904 274 r pot5;
#X obj 958 274 r pot6;
#X obj 1010 274 r pot7;
#X obj 1064 274 r pot8;
#X obj 904 486 bng 15 250 50 0 empty empty empty 17 7 0 10 -262144
-1 -1;
#X obj 1010 485 bng 15 250 50 0 empty empty empty 17 7 0 10 -262144
-1 -1;
#X obj 1010 508 s overBtn;
#X obj 904 574 bng 15 250 50 0 empty empty empty 17 7 0 10 -262144
-1 -1;
#X obj 1010 574 bng 15 250 50 0 empty empty empty 17 7 0 10 -262144
-1 -1;
#X obj 1010 597 s audoRecBtn;
#X obj 904 597 s recBtn;
#X obj 904 509 s autoOver;
#X obj 904 463 r buttonL;
#X obj 1010 462 r buttonR;
#X obj 904 550 r buttonUp;
#X obj 1010 550 r buttonDown;
#X obj 877 245 s tempo;
#X floatatom 845 104 5 0 0 0 - - -, f 5;
#X floatatom 847 215 5 0 0 0 - - -, f 5;
#X msg 82 40 start;
#X obj 29 3 bng 15 250 50 0 empty empty empty 17 7 0 10 -262144 -1
-1;
#X obj 47 78 readsf~;
#X obj 8 95 bng 15 250 50 0 empty empty empty 17 7 0 10 -262144 -1
-1;
#X msg 67 13 open audio/funky_loop_01.wav \, 1;
#X msg 143 40 stop;
#N canvas 677 166 450 545 tremolo 0;
#X obj 14 259 inlet~ left;
#X obj 104 259 inlet~ right;
#X obj 34 452 outlet~ left;
#X obj 128 452 outlet~ right;
#X obj 62 394 *~;
#X obj 278 139 osc~;
#X obj 278 160 *~;
#X obj 278 181 clip~ -1 1;
#X obj 278 242 *~;
#X obj 278 263 +~;
#X obj 105 132 hsl 128 15 1 1000 0 0 empty empty Rate -2 -8 0 10 -262144
-1 -1 0 1;
#X obj 105 168 hsl 128 15 1 20 0 0 empty empty Shape -2 -8 0 10 -262144
-1 -1 0 1;
#X obj 106 202 hsl 128 15 0 0.5 0 0 empty empty Depth -2 -8 0 10 -262144
-1 -1 0 1;
#X floatatom 335 235 5 0 0 0 - - -, f 5;
#X obj 315 262 expr 1-$f1;
#X floatatom 315 283 5 0 0 0 - - -, f 5;
#X obj 34 47 loadbang;
#X connect 0 0 4 0;
#X connect 1 0 4 0;
#X connect 4 0 2 0;
#X connect 4 0 3 0;
#X connect 5 0 6 0;
#X connect 6 0 7 0;
#X connect 7 0 8 0;
#X connect 8 0 9 0;
#X connect 9 0 4 1;
#X connect 10 0 5 0;
#X connect 11 0 6 1;
#X connect 12 0 8 1;
#X connect 12 0 13 0;
#X connect 12 0 14 0;
#X connect 14 0 15 0;
#X connect 14 0 9 1;
#X connect 16 0 10 0;
#X connect 16 0 11 0;
#X connect 16 0 12 0;
#X coords 0 -1 1 1 145 130 1 100 100;
#X restore 507 312 pd tremolo;
#X connect 2 0 15 0;
#X connect 2 0 15 1;
#X connect 3 0 13 0;
#X connect 3 0 13 1;
#X connect 4 0 53 0;
#X connect 4 0 53 1;
#X connect 6 0 2 0;
#X connect 7 0 3 0;
#X connect 8 0 4 0;
#X connect 9 0 0 0;
#X connect 9 0 0 1;
#X connect 13 0 0 0;
#X connect 13 1 0 1;
#X connect 14 0 9 0;
#X connect 15 0 0 0;
#X connect 15 1 0 1;
#X connect 16 0 44 0;
#X connect 16 0 46 0;
#X connect 17 0 16 0;
#X connect 17 0 45 0;
#X connect 19 0 18 0;
#X connect 22 0 20 0;
#X connect 23 0 21 0;
#X connect 28 0 24 0;
#X connect 29 0 25 0;
#X connect 30 0 26 0;
#X connect 31 0 27 0;
#X connect 32 0 39 0;
#X connect 33 0 34 0;
#X connect 35 0 38 0;
#X connect 36 0 37 0;
#X connect 40 0 32 0;
#X connect 41 0 33 0;
#X connect 42 0 35 0;
#X connect 43 0 36 0;
#X connect 47 0 49 0;
#X connect 48 0 51 0;
#X connect 48 0 47 0;
#X connect 49 0 1 0;
#X connect 49 1 50 0;
#X connect 50 0 51 0;
#X connect 51 0 49 0;
#X connect 52 0 49 0;
#X connect 53 0 0 0;
#X connect 53 1 0 1;
