#N canvas 885 142 983 484 10;
#X obj 83 179 osc~;
#X obj 83 86 r Channel-A;
#X obj 83 115 * 2000;
#X obj 83 143 + 20;
#X obj 83 209 *~ 0.3;
#X obj 191 179 osc~;
#X obj 191 115 * 2000;
#X obj 191 143 + 20;
#X obj 191 209 *~ 0.3;
#X obj 191 86 r Channel-B;
#X obj 313 179 osc~;
#X obj 313 115 * 2000;
#X obj 313 143 + 20;
#X obj 313 209 *~ 0.3;
#X obj 313 86 r Channel-C;
#X obj 191 283 *~;
#X obj 316 267 r Channel-D;
#X obj 480 91 hsl 128 15 0 1 0 0 Channel-A empty empty -2 -8 0 10 -262144
-1 -1 3900 1;
#X floatatom 31 117 5 0 0 0 - - -, f 5;
#X text 456 91 A;
#X obj 479 121 hsl 128 15 0 1 0 0 Channel-B empty empty -2 -8 0 10
-262144 -1 -1 2900 1;
#X text 456 121 B;
#X obj 479 150 hsl 128 15 0 1 0 0 Channel-C empty empty -2 -8 0 10
-262144 -1 -1 1800 1;
#X text 456 150 C;
#X obj 479 180 hsl 128 15 0 1 0 0 Channel-D empty empty -2 -8 0 10
-262144 -1 -1 11300 1;
#X text 457 180 D;
#X obj 191 325 dac~;
#X floatatom 38 181 5 0 0 0 - - -, f 5;
#X floatatom 148 181 5 0 0 0 - - -, f 5;
#X floatatom 270 182 5 0 0 0 - - -, f 5;
#X connect 0 0 4 0;
#X connect 1 0 2 0;
#X connect 1 0 18 0;
#X connect 2 0 3 0;
#X connect 3 0 0 0;
#X connect 3 0 27 0;
#X connect 4 0 15 0;
#X connect 5 0 8 0;
#X connect 6 0 7 0;
#X connect 7 0 5 0;
#X connect 7 0 28 0;
#X connect 8 0 15 0;
#X connect 9 0 6 0;
#X connect 10 0 13 0;
#X connect 11 0 12 0;
#X connect 12 0 10 0;
#X connect 12 0 29 0;
#X connect 13 0 15 0;
#X connect 14 0 11 0;
#X connect 15 0 26 0;
#X connect 15 0 26 1;
#X connect 16 0 15 1;
