#N canvas 66 308 1271 865 10;
#X obj 41 152 send~ audio;
#X obj 41 174 send~ none;
#N canvas 595 276 680 532 tcpcom 0;
#X text 77 65 Receive messages from Python and route them to the proper
receive objects;
#X obj 79 196 s p1;
#X obj 116 196 s p2;
#X obj 153 196 s p3;
#X obj 191 196 s p4;
#X obj 81 135 route 0 1 2 3 4 5 6 7 8, f 28;
#X obj 271 199 s p5;
#X obj 309 199 s p6;
#X obj 347 198 s p7;
#X obj 384 198 s p8;
#X obj 433 198 s buttons;
#X floatatom 402 125 5 0 0 0 - - -, f 5;
#X obj 80 102 netreceive 3000 1;
#X connect 5 0 1 0;
#X connect 5 1 2 0;
#X connect 5 2 3 0;
#X connect 5 3 4 0;
#X connect 5 4 6 0;
#X connect 5 5 7 0;
#X connect 5 6 8 0;
#X connect 5 7 9 0;
#X connect 5 8 10 0;
#X connect 12 0 5 0;
#X connect 12 0 11 0;
#X restore 854 31 pd tcpcom;
#N canvas 179 320 1078 750 routing_buttons 0;
#X obj 135 42 r buttons;
#X obj 135 70 unpack;
#X obj 138 98 route 1 2 3 4;
#X obj 35 126 s button1;
#X obj 106 126 s button2;
#X obj 178 126 s button3;
#X obj 249 126 s button4;
#X obj 367 37 r button1;
#X obj 367 60 bng 15 250 50 0 empty empty empty 17 7 0 10 -262144 -1
-1;
#X obj 493 38 r button2;
#X obj 367 124 r button3;
#X obj 493 126 r button4;
#X obj 493 61 bng 15 250 50 0 empty empty empty 17 7 0 10 -262144 -1
-1;
#X obj 367 148 bng 15 250 50 0 empty empty empty 17 7 0 10 -262144
-1 -1;
#X obj 493 150 bng 15 250 50 0 empty empty empty 17 7 0 10 -262144
-1 -1;
#X obj 367 171 s recBtn;
#X obj 367 84 s effectforward;
#X obj 493 83 s effectbackwards;
#X obj 493 173 s bypass;
#X connect 0 0 1 0;
#X connect 1 0 2 0;
#X connect 2 0 3 0;
#X connect 2 1 4 0;
#X connect 2 2 5 0;
#X connect 2 3 6 0;
#X connect 7 0 8 0;
#X connect 8 0 16 0;
#X connect 9 0 12 0;
#X connect 10 0 13 0;
#X connect 11 0 14 0;
#X connect 12 0 17 0;
#X connect 13 0 15 0;
#X connect 14 0 18 0;
#X restore 931 31 pd routing_buttons;
#X obj 902 100 vsl 15 128 0 100 0 0 empty empty empty 0 -9 0 10 -262144
-1 -1 0 1;
#X obj 902 75 r pot1;
#X obj 956 100 vsl 15 128 0 100 0 0 empty empty empty 0 -9 0 10 -262144
-1 -1 11465 1;
#X obj 956 75 r pot2;
#X obj 1008 100 vsl 15 128 0 100 0 0 empty empty empty 0 -9 0 10 -262144
-1 -1 4621 1;
#X obj 1062 100 vsl 15 128 0 1 0 0 empty empty empty 0 -9 0 10 -262144
-1 -1 0 1;
#X obj 1008 75 r pot3;
#X obj 1062 75 r pot4;
#X obj 904 299 vsl 15 128 0 127 0 0 empty empty empty 0 -9 0 10 -262144
-1 -1 0 1;
#X obj 958 299 vsl 15 128 0 127 0 0 empty empty empty 0 -9 0 10 -262144
-1 -1 0 1;
#X obj 1010 299 vsl 15 128 0 127 0 0 empty empty empty 0 -9 0 10 -262144
-1 -1 0 1;
#X obj 1064 299 vsl 15 128 0 1 0 0 empty empty empty 0 -9 0 10 -262144
-1 -1 0 1;
#X obj 904 274 r pot5;
#X obj 958 274 r pot6;
#X obj 1010 274 r pot7;
#X obj 1064 274 r pot8;
#X obj 904 486 bng 15 250 50 0 empty empty empty 17 7 0 10 -262144
-1 -1;
#X obj 1010 485 bng 15 250 50 0 empty empty empty 17 7 0 10 -262144
-1 -1;
#X obj 1010 508 s overBtn;
#X obj 904 574 bng 15 250 50 0 empty empty empty 17 7 0 10 -262144
-1 -1;
#X obj 1010 574 bng 15 250 50 0 empty empty empty 17 7 0 10 -262144
-1 -1;
#X obj 1010 597 s audoRecBtn;
#X obj 904 597 s recBtn;
#X obj 904 509 s autoOver;
#X obj 904 463 r buttonL;
#X obj 1010 462 r buttonR;
#X obj 904 550 r buttonUp;
#X obj 1010 550 r buttonDown;
#X floatatom 847 215 5 0 0 0 - - -, f 5;
#X msg 82 40 start;
#X obj 29 3 bng 15 250 50 0 empty empty empty 17 7 0 10 -262144 -1
-1;
#X obj 47 78 readsf~;
#X obj 8 95 bng 15 250 50 0 empty empty empty 17 7 0 10 -262144 -1
-1;
#X msg 67 13 open audio/funky_loop_01.wav \, 1;
#X msg 143 40 stop;
#N canvas 122 181 975 885 routing 1;
#X obj 139 72 hsl 80 15 0 360 0 0 empty empty empty -2 -8 0 10 -228856
-1 -1 0 1;
#X obj 136 150 nbx 5 14 -1e+37 1e+37 0 0 empty empty empty 0 -8 0 10
-228856 -1 -1 0 256;
#X obj 136 96 nbx 5 14 -1e+37 1e+37 0 0 empty empty empty 0 -8 0 10
-228856 -1 -1 0 256;
#X obj 136 121 mapper, f 12;
#X text 132 49 input pot 1;
#X text 230 49 pot range;
#X text 232 111 new range;
#X obj 137 240 hsl 80 15 0 360 0 0 empty empty empty -2 -8 0 10 -228856
-1 -1 7132 1;
#X obj 134 318 nbx 5 14 -1e+37 1e+37 0 0 empty empty empty 0 -8 0 10
-228856 -1 -1 90.2778 256;
#X obj 134 264 nbx 5 14 -1e+37 1e+37 0 0 empty empty empty 0 -8 0 10
-228856 -1 -1 325 256;
#X obj 134 289 mapper, f 12;
#X text 130 217 input pot 2;
#X obj 45 71 r p1;
#X obj 48 240 r p2;
#X obj 45 100 unpack;
#X obj 48 269 unpack;
#X text 276 71 low, f 5;
#X text 277 94 high, f 5;
#X text 278 132 low, f 5;
#X text 279 155 high, f 5;
#X msg 233 69 0;
#X text 233 220 pot range;
#X text 235 282 new range;
#X text 279 242 low, f 5;
#X text 280 265 high, f 5;
#X text 281 303 low, f 5;
#X text 282 326 high, f 5;
#X msg 236 240 0;
#X obj 140 412 hsl 80 15 0 360 0 0 empty empty empty -2 -8 0 10 -228856
-1 -1 2875 1;
#X obj 137 490 nbx 5 14 -1e+37 1e+37 0 0 empty empty empty 0 -8 0 10
-228856 -1 -1 36.3889 256;
#X obj 137 436 nbx 5 14 -1e+37 1e+37 0 0 empty empty empty 0 -8 0 10
-228856 -1 -1 131 256;
#X obj 137 461 mapper, f 12;
#X obj 51 441 unpack;
#X text 236 392 pot range;
#X text 238 454 new range;
#X text 282 414 low, f 5;
#X text 283 437 high, f 5;
#X text 284 475 low, f 5;
#X text 285 498 high, f 5;
#X msg 239 412 0;
#X text 133 389 input pot 3;
#X obj 51 412 r p3;
#X obj 140 580 hsl 80 15 0 1023 0 0 empty empty empty -2 -8 0 10 -228856
-1 -1 0 1;
#X obj 137 658 nbx 5 14 -1e+37 1e+37 0 0 empty empty empty 0 -8 0 10
-228856 -1 -1 0 256;
#X obj 137 604 nbx 5 14 -1e+37 1e+37 0 0 empty empty empty 0 -8 0 10
-228856 -1 -1 0 256;
#X obj 137 629 mapper, f 12;
#X obj 51 609 unpack;
#X text 236 560 pot range;
#X text 238 622 new range;
#X text 282 582 low, f 5;
#X text 283 605 high, f 5;
#X text 284 643 low, f 5;
#X text 285 666 high, f 5;
#X msg 239 580 0;
#X text 133 557 input pot 4;
#X obj 51 580 r p4;
#X msg 233 130 0;
#X msg 239 473 0;
#X obj 350 61 loadbang;
#X obj 344 246 loadbang;
#X obj 339 413 loadbang;
#X obj 339 584 loadbang;
#X obj 46 165 s pot1;
#X obj 53 334 s pot2;
#X obj 53 505 s pot3;
#X obj 53 673 s pot4;
#X obj 567 66 hsl 80 15 0 1023 0 0 empty empty empty -2 -8 0 10 -228856
-1 -1 0 1;
#X obj 564 144 nbx 5 14 -1e+37 1e+37 0 0 empty empty empty 0 -8 0 10
-228856 -1 -1 0 256;
#X obj 564 90 nbx 5 14 -1e+37 1e+37 0 0 empty empty empty 0 -8 0 10
-228856 -1 -1 0 256;
#X obj 564 115 mapper, f 12;
#X text 658 43 pot range;
#X text 660 105 new range;
#X obj 565 239 hsl 80 15 0 1023 0 0 empty empty empty -2 -8 0 10 -228856
-1 -1 0 1;
#X obj 562 317 nbx 5 14 -1e+37 1e+37 0 0 empty empty empty 0 -8 0 10
-228856 -1 -1 0 256;
#X obj 562 263 nbx 5 14 -1e+37 1e+37 0 0 empty empty empty 0 -8 0 10
-228856 -1 -1 0 256;
#X obj 562 288 mapper, f 12;
#X obj 473 94 unpack;
#X obj 476 268 unpack;
#X text 704 65 low, f 5;
#X text 705 88 high, f 5;
#X text 706 126 low, f 5;
#X text 707 149 high, f 5;
#X msg 661 63 0;
#X msg 662 86 1024;
#X text 661 219 pot range;
#X text 663 281 new range;
#X text 707 241 low, f 5;
#X text 708 264 high, f 5;
#X text 709 302 low, f 5;
#X text 710 325 high, f 5;
#X msg 664 239 0;
#X msg 665 262 1024;
#X obj 568 412 hsl 80 15 0 1023 0 0 empty empty empty -2 -8 0 10 -228856
-1 -1 0 1;
#X obj 565 490 nbx 5 14 -1e+37 1e+37 0 0 empty empty empty 0 -8 0 10
-228856 -1 -1 0 256;
#X obj 565 436 nbx 5 14 -1e+37 1e+37 0 0 empty empty empty 0 -8 0 10
-228856 -1 -1 0 256;
#X obj 565 461 mapper, f 12;
#X obj 479 441 unpack;
#X text 664 392 pot range;
#X text 666 454 new range;
#X text 710 414 low, f 5;
#X text 711 437 high, f 5;
#X text 712 475 low, f 5;
#X text 713 498 high, f 5;
#X msg 667 412 0;
#X msg 668 435 1024;
#X obj 568 580 hsl 80 15 0 1023 0 0 empty empty empty -2 -8 0 10 -228856
-1 -1 0 1;
#X obj 565 658 nbx 5 14 -1e+37 1e+37 0 0 empty empty empty 0 -8 0 10
-228856 -1 -1 0 256;
#X obj 565 604 nbx 5 14 -1e+37 1e+37 0 0 empty empty empty 0 -8 0 10
-228856 -1 -1 0 256;
#X obj 565 629 mapper, f 12;
#X obj 479 609 unpack;
#X text 664 560 pot range;
#X text 666 622 new range;
#X text 710 582 low, f 5;
#X text 711 605 high, f 5;
#X text 712 643 low, f 5;
#X text 713 666 high, f 5;
#X msg 667 580 0;
#X msg 661 124 0;
#X msg 667 473 0;
#X obj 778 56 loadbang;
#X obj 772 245 loadbang;
#X obj 767 413 loadbang;
#X obj 767 584 loadbang;
#X text 560 43 input pot 5;
#X obj 474 159 s pot5;
#X text 558 216 input pot 6;
#X obj 481 333 s pot6;
#X text 561 389 input pot 7;
#X obj 481 505 s pot7;
#X text 561 557 input pot 8;
#X obj 481 673 s pot8;
#X obj 473 65 r p5;
#X obj 476 239 r p6;
#X obj 479 412 r p7;
#X obj 479 580 r p8;
#X msg 239 641 0;
#X msg 662 149 127;
#X msg 664 300 0;
#X msg 665 325 127;
#X msg 668 498 127;
#X msg 667 641 0;
#X msg 236 301 0;
#X msg 240 666 1;
#X msg 668 666 1;
#X msg 240 603 1022;
#X msg 668 603 1022;
#X msg 234 92 360;
#X msg 235 159 100;
#X msg 237 263 360;
#X msg 237 326 100;
#X msg 240 435 360;
#X msg 240 498 100;
#N canvas 0 50 450 250 (subpatch) 0;
#X coords 0 1 100 -1 420 160 1 0 0;
#X restore 15 209 graph;
#N canvas 0 50 450 250 (subpatch) 0;
#X coords 0 1 100 -1 420 160 1 0 0;
#X restore 15 380 graph;
#N canvas 0 50 450 250 (subpatch) 0;
#X coords 0 1 100 -1 420 160 1 0 0;
#X restore 15 553 graph;
#N canvas 0 50 450 250 (subpatch) 0;
#X coords 0 1 100 -1 420 160 1 0 0;
#X restore 15 39 graph;
#N canvas 0 50 450 250 (subpatch) 0;
#X coords 0 1 100 -1 420 160 1 0 0;
#X restore 465 209 graph;
#N canvas 0 50 450 250 (subpatch) 0;
#X coords 0 1 100 -1 420 160 1 0 0;
#X restore 465 380 graph;
#N canvas 0 50 450 250 (subpatch) 0;
#X coords 0 1 100 -1 420 160 1 0 0;
#X restore 465 553 graph;
#N canvas 0 50 450 250 (subpatch) 0;
#X coords 0 1 100 -1 420 160 1 0 0;
#X restore 465 39 graph;
#X floatatom 46 131 5 0 0 0 - - -, f 5;
#X connect 0 0 2 0;
#X connect 1 0 62 0;
#X connect 2 0 3 0;
#X connect 3 0 1 0;
#X connect 7 0 9 0;
#X connect 8 0 63 0;
#X connect 9 0 10 0;
#X connect 10 0 8 0;
#X connect 12 0 14 0;
#X connect 13 0 15 0;
#X connect 14 0 0 0;
#X connect 14 0 160 0;
#X connect 15 0 7 0;
#X connect 20 0 3 1;
#X connect 27 0 10 1;
#X connect 28 0 30 0;
#X connect 29 0 64 0;
#X connect 30 0 31 0;
#X connect 31 0 29 0;
#X connect 32 0 28 0;
#X connect 39 0 31 1;
#X connect 41 0 32 0;
#X connect 42 0 44 0;
#X connect 43 0 65 0;
#X connect 44 0 45 0;
#X connect 45 0 43 0;
#X connect 46 0 42 0;
#X connect 53 0 45 1;
#X connect 55 0 46 0;
#X connect 56 0 3 3;
#X connect 57 0 31 3;
#X connect 58 0 20 0;
#X connect 58 0 146 0;
#X connect 58 0 56 0;
#X connect 58 0 147 0;
#X connect 59 0 27 0;
#X connect 59 0 148 0;
#X connect 59 0 141 0;
#X connect 59 0 149 0;
#X connect 60 0 39 0;
#X connect 60 0 150 0;
#X connect 60 0 57 0;
#X connect 60 0 151 0;
#X connect 61 0 53 0;
#X connect 61 0 144 0;
#X connect 61 0 135 0;
#X connect 61 0 142 0;
#X connect 66 0 68 0;
#X connect 67 0 124 0;
#X connect 68 0 69 0;
#X connect 69 0 67 0;
#X connect 72 0 74 0;
#X connect 73 0 126 0;
#X connect 74 0 75 0;
#X connect 75 0 73 0;
#X connect 76 0 66 0;
#X connect 77 0 72 0;
#X connect 82 0 69 1;
#X connect 83 0 69 2;
#X connect 90 0 75 1;
#X connect 91 0 75 2;
#X connect 92 0 94 0;
#X connect 93 0 128 0;
#X connect 94 0 95 0;
#X connect 95 0 93 0;
#X connect 96 0 92 0;
#X connect 103 0 95 1;
#X connect 104 0 95 2;
#X connect 105 0 107 0;
#X connect 106 0 130 0;
#X connect 107 0 108 0;
#X connect 108 0 106 0;
#X connect 109 0 105 0;
#X connect 116 0 108 1;
#X connect 117 0 69 3;
#X connect 118 0 95 3;
#X connect 119 0 82 0;
#X connect 119 0 83 0;
#X connect 119 0 117 0;
#X connect 119 0 136 0;
#X connect 120 0 90 0;
#X connect 120 0 91 0;
#X connect 120 0 137 0;
#X connect 120 0 138 0;
#X connect 121 0 103 0;
#X connect 121 0 104 0;
#X connect 121 0 118 0;
#X connect 121 0 139 0;
#X connect 122 0 116 0;
#X connect 122 0 145 0;
#X connect 122 0 140 0;
#X connect 122 0 143 0;
#X connect 131 0 76 0;
#X connect 132 0 77 0;
#X connect 133 0 96 0;
#X connect 134 0 109 0;
#X connect 135 0 45 3;
#X connect 136 0 69 4;
#X connect 137 0 75 3;
#X connect 138 0 75 4;
#X connect 139 0 95 4;
#X connect 140 0 108 3;
#X connect 141 0 10 3;
#X connect 142 0 45 4;
#X connect 143 0 108 4;
#X connect 144 0 45 2;
#X connect 145 0 108 2;
#X connect 146 0 3 2;
#X connect 147 0 3 4;
#X connect 148 0 10 2;
#X connect 149 0 10 4;
#X connect 150 0 31 2;
#X connect 151 0 31 4;
#X restore 1078 31 pd routing;
#X obj 183 335 osc~;
#X obj 183 242 r Channel-A;
#X obj 183 299 + 20;
#X obj 183 365 *~ 0.3;
#X obj 291 335 osc~;
#X obj 291 299 + 20;
#X obj 291 365 *~ 0.3;
#X obj 291 242 r Channel-B;
#X obj 413 335 osc~;
#X obj 413 299 + 20;
#X obj 413 365 *~ 0.3;
#X obj 413 242 r Channel-C;
#X obj 291 439 *~;
#X obj 416 423 r Channel-D;
#X obj 580 247 hsl 128 15 0 100 0 0 Channel-A empty empty -2 -8 0 10
-262144 -1 -1 0 1;
#X floatatom 131 273 5 0 0 0 - - -, f 5;
#X text 556 247 A;
#X obj 579 297 hsl 128 15 0 100 0 0 Channel-B empty empty -2 -8 0 10
-262144 -1 -1 11465 1;
#X text 556 297 B;
#X obj 579 346 hsl 128 15 0 1 0 0 Channel-C empty empty -2 -8 0 10
-262144 -1 -1 12700 1;
#X text 556 346 C;
#X obj 579 396 hsl 128 15 0 1 0 0 Channel-D empty empty -2 -8 0 10
-262144 -1 -1 10200 1;
#X text 557 396 D;
#X obj 291 481 dac~;
#X floatatom 138 337 5 0 0 0 - - -, f 5;
#X floatatom 248 337 5 0 0 0 - - -, f 5;
#X floatatom 370 338 5 0 0 0 - - -, f 5;
#X obj 577 223 r pot1;
#X obj 183 271 * 200;
#X obj 576 275 r pot2;
#X obj 291 271 * 200;
#X obj 577 323 r pot3;
#X obj 414 271 2;
#X connect 4 0 32 0;
#X connect 5 0 4 0;
#X connect 7 0 6 0;
#X connect 10 0 8 0;
#X connect 11 0 9 0;
#X connect 16 0 12 0;
#X connect 17 0 13 0;
#X connect 18 0 14 0;
#X connect 19 0 15 0;
#X connect 20 0 27 0;
#X connect 21 0 22 0;
#X connect 23 0 26 0;
#X connect 24 0 25 0;
#X connect 28 0 20 0;
#X connect 29 0 21 0;
#X connect 30 0 23 0;
#X connect 31 0 24 0;
#X connect 33 0 35 0;
#X connect 34 0 37 0;
#X connect 34 0 33 0;
#X connect 35 0 0 0;
#X connect 35 1 36 0;
#X connect 36 0 37 0;
#X connect 37 0 35 0;
#X connect 38 0 35 0;
#X connect 40 0 43 0;
#X connect 41 0 55 0;
#X connect 41 0 68 0;
#X connect 42 0 40 0;
#X connect 42 0 64 0;
#X connect 43 0 52 0;
#X connect 44 0 46 0;
#X connect 45 0 44 0;
#X connect 45 0 65 0;
#X connect 46 0 52 0;
#X connect 47 0 70 0;
#X connect 48 0 50 0;
#X connect 49 0 48 0;
#X connect 49 0 66 0;
#X connect 50 0 52 0;
#X connect 51 0 72 0;
#X connect 52 0 63 0;
#X connect 52 0 63 1;
#X connect 53 0 52 1;
#X connect 67 0 54 0;
#X connect 68 0 42 0;
#X connect 69 0 57 0;
#X connect 70 0 45 0;
#X connect 71 0 59 0;
#X connect 72 0 49 0;
