#N canvas 4 23 1276 755 10;
#X obj 324 75 adc~;
#X obj 324 98 +~;
#X obj 41 285 dac~;
#X obj 133 16 hsl 200 25 0.5 30 1 1 empty empty vibrato-speed 20 12
0 14 -228856 -260097 -1 16491 0;
#X obj 64 187 hsl 200 25 0 1 0 0 empty empty output-level 20 12 0 14
-228856 -260097 -1 0 1;
#X floatatom 61 218 5 0 0 0 - - -, f 5;
#X obj 41 239 *~ 0;
#X text 355 72 input from soundcard;
#X obj 324 121 delwrite~ \$0-delay 2000;
#X obj 42 116 vd~ \$0-delay 2000;
#X obj 41 -62 hsl 450 25 0 40 0 1 empty empty vibrato-depth 20 12 0
14 -228856 -260097 -1 32403 0;
#X floatatom 140 53 5 0 0 0 - - -, f 5;
#X obj 42 93 *~;
#X msg 324 215 \; pd dsp 1;
#X obj 324 192 loadbang;
#X msg 404 230 \; pd dsp 0;
#X floatatom 38 -8 5 0 0 0 - - -, f 5;
#X obj 38 -31 pow 2;
#X text 231 -39 |;
#X text 197 -39 |;
#X text 360 -39 |;
#X text 376 -39 |;
#N canvas 704 185 202 319 trapezoid 0;
#X obj 25 124 phasor~ 1;
#X obj 25 199 abs~;
#X obj 25 176 *~ 2;
#X obj 25 251 clip~ 0 0.5;
#X obj 25 152 -~ 0.5;
#X obj 25 19 inlet~;
#X obj 25 282 outlet~;
#X obj 25 225 -~ 0.25;
#X text 74 43 resync;
#X msg 76 98 0.625;
#X msg 76 68 0.125;
#X text 116 67 higher note;
#X text 116 98 lower note;
#X connect 0 0 4 0;
#X connect 1 0 7 0;
#X connect 2 0 1 0;
#X connect 3 0 6 0;
#X connect 4 0 2 0;
#X connect 5 0 0 0;
#X connect 7 0 3 0;
#X connect 9 0 0 1;
#X connect 10 0 0 1;
#X restore 130 93 pd trapezoid;
#N canvas 607 254 240 245 depth 0;
#X obj 28 163 line~;
#X msg 28 137 \$1 100;
#X floatatom 54 111 5 0 0 0 - - -, f 5;
#X obj 28 94 /;
#X obj 36 66 t b f;
#X obj 28 29 inlet;
#X obj 69 29 inlet;
#X obj 28 195 outlet~;
#X connect 0 0 7 0;
#X connect 1 0 0 0;
#X connect 3 0 2 0;
#X connect 3 0 1 0;
#X connect 4 0 3 0;
#X connect 4 1 3 1;
#X connect 5 0 3 0;
#X connect 6 0 4 0;
#X restore 42 41 pd depth;
#X obj 41 262 hip~ 40;
#X text 35 335 Step-vibrato: step-wise modulation of variable speed
delay. The modulator is a trapezoid \, therefore you get three different
tones in a sequence of four notes:;
#X text 35 381 original - lower tone - original - higher tone;
#X text 35 401 Around vibrato depth value ~ 500 \, the lower tone has
playback speed zero. With vibrato depth above 500 \, the speed of the
lower tone is negative so the sound is played backwards.;
#X text 35 460 A few sweet spots appear on the vibrato depth scale
\, where undertone and overtone harmonize with the original.;
#X text 36 533 Haig Armen Feb 2018;
#N canvas 600 246 680 532 tcpcom 0;
#X text 77 65 Receive messages from Python and route them to the proper
receive objects;
#X obj 79 196 s p1;
#X obj 116 196 s p2;
#X obj 153 196 s p3;
#X obj 191 196 s p4;
#X obj 81 135 route 0 1 2 3 4 5 6 7 8, f 28;
#X obj 247 197 s p5;
#X obj 282 197 s p6;
#X obj 317 197 s p7;
#X obj 353 197 s p8;
#X obj 433 198 s buttons;
#X obj 80 102 netreceive 3000 1;
#X connect 5 0 1 0;
#X connect 5 1 2 0;
#X connect 5 2 3 0;
#X connect 5 3 4 0;
#X connect 5 4 6 0;
#X connect 5 5 7 0;
#X connect 5 6 8 0;
#X connect 5 7 9 0;
#X connect 5 8 10 0;
#X connect 11 0 5 0;
#X restore 578 -53 pd tcpcom;
#N canvas 50 185 1078 750 routing 0;
#X obj 139 72 hsl 80 15 0 1023 0 0 empty empty empty -2 -8 0 10 -228856
-1 -1 0 1;
#X obj 136 150 nbx 5 14 -1e+37 1e+37 0 0 empty empty empty 0 -8 0 10
-228856 -1 -1 0 256;
#X obj 136 96 nbx 5 14 -1e+37 1e+37 0 0 empty empty empty 0 -8 0 10
-228856 -1 -1 0 256;
#X obj 136 121 mapper, f 12;
#X text 132 49 input pot 1;
#X text 230 49 pot range;
#X text 232 111 new range;
#X obj 137 210 hsl 80 15 0 1023 0 0 empty empty empty -2 -8 0 10 -228856
-1 -1 0 1;
#X obj 134 288 nbx 5 14 -1e+37 1e+37 0 0 empty empty empty 0 -8 0 10
-228856 -1 -1 0 256;
#X obj 134 234 nbx 5 14 -1e+37 1e+37 0 0 empty empty empty 0 -8 0 10
-228856 -1 -1 0 256;
#X obj 134 259 mapper, f 12;
#X text 130 187 input pot 2;
#X obj 45 71 r p1;
#X obj 48 210 r p2;
#X obj 45 100 unpack;
#X obj 48 239 unpack;
#X text 276 71 low, f 5;
#X text 277 94 high, f 5;
#X text 278 132 low, f 5;
#X text 279 155 high, f 5;
#X msg 233 69 0;
#X msg 234 92 1024;
#X text 233 190 pot range;
#X text 235 252 new range;
#X text 279 212 low, f 5;
#X text 280 235 high, f 5;
#X text 281 273 low, f 5;
#X text 282 296 high, f 5;
#X msg 236 210 0;
#X msg 237 233 1024;
#X obj 140 362 hsl 80 15 0 1023 0 0 empty empty empty -2 -8 0 10 -228856
-1 -1 0 1;
#X obj 137 440 nbx 5 14 -1e+37 1e+37 0 0 empty empty empty 0 -8 0 10
-228856 -1 -1 0 256;
#X obj 137 386 nbx 5 14 -1e+37 1e+37 0 0 empty empty empty 0 -8 0 10
-228856 -1 -1 0 256;
#X obj 137 411 mapper, f 12;
#X obj 51 391 unpack;
#X text 236 342 pot range;
#X text 238 404 new range;
#X text 282 364 low, f 5;
#X text 283 387 high, f 5;
#X text 284 425 low, f 5;
#X text 285 448 high, f 5;
#X msg 239 362 0;
#X msg 240 385 1024;
#X text 133 339 input pot 3;
#X obj 51 362 r p3;
#X obj 140 500 hsl 80 15 0 1023 0 0 empty empty empty -2 -8 0 10 -228856
-1 -1 0 1;
#X obj 137 578 nbx 5 14 -1e+37 1e+37 0 0 empty empty empty 0 -8 0 10
-228856 -1 -1 0 256;
#X obj 137 524 nbx 5 14 -1e+37 1e+37 0 0 empty empty empty 0 -8 0 10
-228856 -1 -1 0 256;
#X obj 137 549 mapper, f 12;
#X obj 51 529 unpack;
#X text 236 480 pot range;
#X text 238 542 new range;
#X text 282 502 low, f 5;
#X text 283 525 high, f 5;
#X text 284 563 low, f 5;
#X text 285 586 high, f 5;
#X msg 239 500 0;
#X msg 240 523 1024;
#X text 133 477 input pot 4;
#X obj 51 500 r p4;
#X msg 233 130 0;
#X msg 234 155 40;
#X msg 236 271 0.5;
#X msg 237 296 30;
#X msg 239 423 0;
#X msg 240 448 1;
#X obj 350 62 loadbang;
#X obj 344 216 loadbang;
#X obj 339 363 loadbang;
#X obj 339 504 loadbang;
#X obj 46 165 s pot1;
#X obj 53 304 s pot2;
#X obj 53 455 s pot3;
#X obj 53 593 s pot4;
#X obj 567 66 hsl 80 15 0 1023 0 0 empty empty empty -2 -8 0 10 -228856
-1 -1 0 1;
#X obj 564 144 nbx 5 14 -1e+37 1e+37 0 0 empty empty empty 0 -8 0 10
-228856 -1 -1 0 256;
#X obj 564 90 nbx 5 14 -1e+37 1e+37 0 0 empty empty empty 0 -8 0 10
-228856 -1 -1 0 256;
#X obj 564 115 mapper, f 12;
#X text 658 43 pot range;
#X text 660 105 new range;
#X obj 565 204 hsl 80 15 0 1023 0 0 empty empty empty -2 -8 0 10 -228856
-1 -1 0 1;
#X obj 562 282 nbx 5 14 -1e+37 1e+37 0 0 empty empty empty 0 -8 0 10
-228856 -1 -1 0 256;
#X obj 562 228 nbx 5 14 -1e+37 1e+37 0 0 empty empty empty 0 -8 0 10
-228856 -1 -1 0 256;
#X obj 562 253 mapper, f 12;
#X obj 473 94 unpack;
#X obj 476 233 unpack;
#X text 704 65 low, f 5;
#X text 705 88 high, f 5;
#X text 706 126 low, f 5;
#X text 707 149 high, f 5;
#X msg 661 63 0;
#X msg 662 86 1024;
#X text 661 184 pot range;
#X text 663 246 new range;
#X text 707 206 low, f 5;
#X text 708 229 high, f 5;
#X text 709 267 low, f 5;
#X text 710 290 high, f 5;
#X msg 664 204 0;
#X msg 665 227 1024;
#X obj 568 356 hsl 80 15 0 1023 0 0 empty empty empty -2 -8 0 10 -228856
-1 -1 0 1;
#X obj 565 434 nbx 5 14 -1e+37 1e+37 0 0 empty empty empty 0 -8 0 10
-228856 -1 -1 0 256;
#X obj 565 380 nbx 5 14 -1e+37 1e+37 0 0 empty empty empty 0 -8 0 10
-228856 -1 -1 0 256;
#X obj 565 405 mapper, f 12;
#X obj 479 385 unpack;
#X text 664 336 pot range;
#X text 666 398 new range;
#X text 710 358 low, f 5;
#X text 711 381 high, f 5;
#X text 712 419 low, f 5;
#X text 713 442 high, f 5;
#X msg 667 356 0;
#X msg 668 379 1024;
#X obj 568 494 hsl 80 15 0 1023 0 0 empty empty empty -2 -8 0 10 -228856
-1 -1 0 1;
#X obj 565 572 nbx 5 14 -1e+37 1e+37 0 0 empty empty empty 0 -8 0 10
-228856 -1 -1 0 256;
#X obj 565 518 nbx 5 14 -1e+37 1e+37 0 0 empty empty empty 0 -8 0 10
-228856 -1 -1 0 256;
#X obj 565 543 mapper, f 12;
#X obj 479 523 unpack;
#X text 664 474 pot range;
#X text 666 536 new range;
#X text 710 496 low, f 5;
#X text 711 519 high, f 5;
#X text 712 557 low, f 5;
#X text 713 580 high, f 5;
#X msg 667 494 0;
#X msg 668 517 1024;
#X msg 661 124 0;
#X msg 667 417 0;
#X obj 778 56 loadbang;
#X obj 772 210 loadbang;
#X obj 767 357 loadbang;
#X obj 767 498 loadbang;
#X text 560 43 input pot 5;
#X obj 474 159 s pot5;
#X text 558 181 input pot 6;
#X obj 481 298 s pot6;
#X text 561 333 input pot 7;
#X obj 481 449 s pot7;
#X text 561 471 input pot 8;
#X obj 481 587 s pot8;
#X obj 473 65 r p5;
#X obj 476 204 r p6;
#X obj 479 356 r p7;
#X obj 479 494 r p8;
#X msg 239 561 0;
#X msg 240 586 127;
#X msg 662 149 127;
#X msg 664 265 0;
#X msg 665 290 127;
#X msg 668 442 127;
#X msg 667 555 0;
#X msg 668 580 127;
#X obj 480 637 r buttons;
#X obj 480 665 unpack;
#X obj 532 664 route 1 2 3 4;
#X obj 532 711 s button1;
#X obj 603 711 s button2;
#X obj 675 711 s button3;
#X obj 747 710 s button4;
#X connect 0 0 2 0;
#X connect 1 0 70 0;
#X connect 2 0 3 0;
#X connect 3 0 1 0;
#X connect 7 0 9 0;
#X connect 8 0 71 0;
#X connect 9 0 10 0;
#X connect 10 0 8 0;
#X connect 12 0 14 0;
#X connect 13 0 15 0;
#X connect 14 0 0 0;
#X connect 15 0 7 0;
#X connect 20 0 3 1;
#X connect 21 0 3 2;
#X connect 28 0 10 1;
#X connect 29 0 10 2;
#X connect 30 0 32 0;
#X connect 31 0 72 0;
#X connect 32 0 33 0;
#X connect 33 0 31 0;
#X connect 34 0 30 0;
#X connect 41 0 33 1;
#X connect 42 0 33 2;
#X connect 44 0 34 0;
#X connect 45 0 47 0;
#X connect 46 0 73 0;
#X connect 47 0 48 0;
#X connect 48 0 46 0;
#X connect 49 0 45 0;
#X connect 56 0 48 1;
#X connect 57 0 48 2;
#X connect 59 0 49 0;
#X connect 60 0 3 3;
#X connect 61 0 3 4;
#X connect 62 0 10 3;
#X connect 63 0 10 4;
#X connect 64 0 33 3;
#X connect 65 0 33 4;
#X connect 66 0 20 0;
#X connect 66 0 21 0;
#X connect 66 0 60 0;
#X connect 66 0 61 0;
#X connect 67 0 28 0;
#X connect 67 0 29 0;
#X connect 67 0 62 0;
#X connect 67 0 63 0;
#X connect 68 0 41 0;
#X connect 68 0 42 0;
#X connect 68 0 64 0;
#X connect 68 0 65 0;
#X connect 69 0 56 0;
#X connect 69 0 57 0;
#X connect 69 0 144 0;
#X connect 69 0 145 0;
#X connect 74 0 76 0;
#X connect 75 0 133 0;
#X connect 76 0 77 0;
#X connect 77 0 75 0;
#X connect 80 0 82 0;
#X connect 81 0 135 0;
#X connect 82 0 83 0;
#X connect 83 0 81 0;
#X connect 84 0 74 0;
#X connect 85 0 80 0;
#X connect 90 0 77 1;
#X connect 91 0 77 2;
#X connect 98 0 83 1;
#X connect 99 0 83 2;
#X connect 100 0 102 0;
#X connect 101 0 137 0;
#X connect 102 0 103 0;
#X connect 103 0 101 0;
#X connect 104 0 100 0;
#X connect 111 0 103 1;
#X connect 112 0 103 2;
#X connect 113 0 115 0;
#X connect 114 0 139 0;
#X connect 115 0 116 0;
#X connect 116 0 114 0;
#X connect 117 0 113 0;
#X connect 124 0 116 1;
#X connect 125 0 116 2;
#X connect 126 0 77 3;
#X connect 127 0 103 3;
#X connect 128 0 90 0;
#X connect 128 0 91 0;
#X connect 128 0 126 0;
#X connect 128 0 146 0;
#X connect 129 0 98 0;
#X connect 129 0 99 0;
#X connect 129 0 147 0;
#X connect 129 0 148 0;
#X connect 130 0 111 0;
#X connect 130 0 112 0;
#X connect 130 0 127 0;
#X connect 130 0 149 0;
#X connect 131 0 124 0;
#X connect 131 0 125 0;
#X connect 131 0 150 0;
#X connect 131 0 151 0;
#X connect 140 0 84 0;
#X connect 141 0 85 0;
#X connect 142 0 104 0;
#X connect 143 0 117 0;
#X connect 144 0 48 3;
#X connect 145 0 48 4;
#X connect 146 0 77 4;
#X connect 147 0 83 3;
#X connect 148 0 83 4;
#X connect 149 0 103 4;
#X connect 150 0 116 3;
#X connect 151 0 116 4;
#X connect 152 0 153 0;
#X connect 153 1 154 0;
#X connect 154 0 155 0;
#X connect 154 1 156 0;
#X connect 154 2 157 0;
#X connect 154 3 158 0;
#X restore 654 -52 pd routing;
#X obj 38 -85 r pot1;
#X obj 130 -9 r pot2;
#X obj 61 164 r pot3;
#X obj 578 4 vsl 15 128 0 127 0 0 empty empty empty 0 -9 0 10 -262144
-1 -1 0 1;
#X obj 578 -21 r pot1;
#X obj 632 4 vsl 15 128 0 127 0 0 empty empty empty 0 -9 0 10 -262144
-1 -1 0 1;
#X obj 632 -21 r pot2;
#X obj 684 4 vsl 15 128 0 127 0 0 empty empty empty 0 -9 0 10 -262144
-1 -1 0 1;
#X obj 738 4 vsl 15 128 0 127 0 0 empty empty empty 0 -9 0 10 -262144
-1 -1 0 1;
#X obj 684 -21 r pot3;
#X obj 738 -21 r pot4;
#X obj 791 4 vsl 15 128 0 127 0 0 empty empty empty 0 -9 0 10 -262144
-1 -1 0 1;
#X obj 845 4 vsl 15 128 0 127 0 0 empty empty empty 0 -9 0 10 -262144
-1 -1 0 1;
#X obj 897 4 vsl 15 128 0 127 0 0 empty empty empty 0 -9 0 10 -262144
-1 -1 0 1;
#X obj 951 4 vsl 15 128 0 127 0 0 empty empty empty 0 -9 0 10 -262144
-1 -1 0 1;
#X obj 791 -21 r pot5;
#X obj 845 -21 r pot6;
#X obj 897 -21 r pot7;
#X obj 951 -21 r pot8;
#X obj 582 164 r button1;
#X obj 582 187 bang;
#X obj 582 213 bng 15 250 50 0 empty empty empty 17 7 0 10 -262144
-1 -1;
#X obj 663 187 bang;
#X obj 663 210 bng 15 250 50 0 empty empty empty 17 7 0 10 -262144
-1 -1;
#X obj 740 186 bang;
#X obj 740 210 bng 15 250 50 0 empty empty empty 17 7 0 10 -262144
-1 -1;
#X obj 824 187 bang;
#X obj 824 212 bng 15 250 50 0 empty empty empty 17 7 0 10 -262144
-1 -1;
#X obj 663 164 r button2;
#X obj 740 163 r button3;
#X obj 824 163 r button4;
#X connect 0 0 1 0;
#X connect 0 1 1 1;
#X connect 1 0 8 0;
#X connect 3 0 11 0;
#X connect 3 0 22 0;
#X connect 3 0 23 1;
#X connect 4 0 5 0;
#X connect 4 0 6 1;
#X connect 6 0 24 0;
#X connect 9 0 6 0;
#X connect 10 0 17 0;
#X connect 12 0 9 0;
#X connect 14 0 13 0;
#X connect 17 0 16 0;
#X connect 17 0 23 0;
#X connect 22 0 12 1;
#X connect 23 0 12 0;
#X connect 24 0 2 0;
#X connect 24 0 2 1;
#X connect 32 0 10 0;
#X connect 33 0 3 0;
#X connect 34 0 4 0;
#X connect 36 0 35 0;
#X connect 38 0 37 0;
#X connect 41 0 39 0;
#X connect 42 0 40 0;
#X connect 47 0 43 0;
#X connect 48 0 44 0;
#X connect 49 0 45 0;
#X connect 50 0 46 0;
#X connect 51 0 52 0;
#X connect 52 0 53 0;
#X connect 54 0 55 0;
#X connect 56 0 57 0;
#X connect 58 0 59 0;
#X connect 60 0 54 0;
#X connect 61 0 56 0;
#X connect 62 0 58 0;
#X coords 0 755 1 754 50 60 0;
