#N canvas 421 121 1417 987 10;
#X obj 69 130 metro 500;
#X msg 150 67 250;
#X msg 150 92 500;
#X msg 150 116 1500;
#X obj 41 131 bng 15 250 50 0 empty empty empty 17 7 0 10 -262144 -1
-1;
#X obj 69 94 tgl 15 0 empty empty empty 17 7 0 10 -262144 -1 -1 1 1
;
#X obj 69 158 i;
#X obj 114 158 + 1;
#X floatatom 96 209 5 0 0 0 - - -;
#X obj 201 85 list fromsymbol;
#N canvas 137 27 450 278 (subpatch) 0;
#X array pitches 12 float 2;
#X coords 0 90 12 40 250 200 1 0 0;
#X restore 200 246 graph;
#X obj 69 229 tabread pitches;
#X obj 68 261 mtof;
#X floatatom 96 283 5 0 0 0 - - -;
#X obj 68 334 dac~;
#X obj 201 203 array set pitches;
#X obj 68 303 osc~;
#X obj 201 109 unpack 0 0 0 0 0 0 0 0 0 0 0 0 0 0 0 0 0 0;
#X obj 201 134 pack 0 0 0 0 0 0 0 0 0 0 0 0;
#X obj 442 150 print fu2;
#X text 383 131 filtering out the colon;
#X text 352 27 taking a UID number from a phone converting ascii into
numbered list putting numbers into a table;
#X msg 213 157 \; pitches resize 12 \; pitches bounds 0 90 12 40 \;
;
#X obj 69 182 % 12;
#N canvas 620 203 922 636 tcpcom 0;
#X obj 38 226 s p1;
#X obj 69 226 s p2;
#X obj 99 226 s p3;
#X obj 130 226 s p4;
#X obj 39 164 route 0 1 2 3 4 5 6 7 8, f 28;
#X obj 161 226 s p5;
#X obj 191 226 s p6;
#X obj 222 226 s p7;
#X obj 252 226 s p8;
#X obj 266 196 s buttons;
#X floatatom 262 160 5 0 0 0 - - -;
#X obj 39 131 netreceive 3000 1;
#X text 35 69 Receive messages from Python and route them to the proper
receive objects;
#X connect 4 0 0 0;
#X connect 4 1 1 0;
#X connect 4 2 2 0;
#X connect 4 3 3 0;
#X connect 4 4 5 0;
#X connect 4 5 6 0;
#X connect 4 6 7 0;
#X connect 4 7 8 0;
#X connect 4 8 9 0;
#X connect 11 0 4 0;
#X connect 11 0 10 0;
#X restore 353 61 pd tcpcom;
#X obj 201 26 r p1;
#X obj 203 57 unpack s;
#X connect 0 0 4 0;
#X connect 0 0 6 0;
#X connect 1 0 0 1;
#X connect 2 0 0 1;
#X connect 3 0 0 1;
#X connect 5 0 0 0;
#X connect 6 0 7 0;
#X connect 6 0 23 0;
#X connect 7 0 6 1;
#X connect 9 0 17 0;
#X connect 11 0 12 0;
#X connect 12 0 13 0;
#X connect 12 0 16 0;
#X connect 16 0 14 0;
#X connect 16 0 14 1;
#X connect 17 0 18 0;
#X connect 17 1 18 1;
#X connect 17 3 18 2;
#X connect 17 4 18 3;
#X connect 17 6 18 4;
#X connect 17 7 18 5;
#X connect 17 9 18 6;
#X connect 17 10 18 7;
#X connect 17 12 18 8;
#X connect 17 13 18 9;
#X connect 17 15 18 10;
#X connect 17 16 18 11;
#X connect 18 0 19 0;
#X connect 18 0 15 0;
#X connect 18 0 22 0;
#X connect 23 0 8 0;
#X connect 23 0 11 0;
#X connect 25 0 26 0;
#X connect 26 0 9 0;
#X coords 0 987 1 986 200 200 0;
