#N canvas 200 23 866 625 10;
#X obj 103 79 metro 500;
#X msg 184 16 250;
#X msg 184 41 500;
#X msg 184 65 1500;
#X obj 75 80 bng 15 250 50 0 empty empty empty 17 7 0 10 -262144 -1
-1;
#X obj 103 50 tgl 15 0 empty empty empty 17 7 0 10 -262144 -1 -1 0
1;
#X obj 103 107 i;
#X obj 148 107 + 1;
#X floatatom 130 158 5 0 0 0 - - -;
#X obj 235 34 list fromsymbol;
#X msg 235 12 symbol OO:EE:BD:DB:16:E1;
#N canvas 137 27 450 278 (subpatch) 0;
#X array pitches 12 float 2;
#X coords 0 90 12 40 250 200 1 0 0;
#X restore 234 195 graph;
#X obj 103 178 tabread pitches;
#X obj 102 210 mtof;
#X floatatom 130 232 5 0 0 0 - - -;
#X obj 102 283 dac~;
#X obj 235 152 array set pitches;
#X obj 102 252 osc~;
#X obj 235 58 unpack 0 0 0 0 0 0 0 0 0 0 0 0 0 0 0 0 0 0;
#X obj 235 83 pack 0 0 0 0 0 0 0 0 0 0 0 0;
#X obj 476 99 print fu2;
#X text 417 80 filtering out the colon;
#X text 544 15 taking a UID number from a phone converting ascii into
numbered list putting numbers into a table;
#X msg 247 106 \; pitches resize 12 \; pitches bounds 0 90 12 40 \;
;
#X obj 103 131 % 12;
#X connect 0 0 4 0;
#X connect 0 0 6 0;
#X connect 1 0 0 1;
#X connect 2 0 0 1;
#X connect 3 0 0 1;
#X connect 5 0 0 0;
#X connect 6 0 7 0;
#X connect 6 0 24 0;
#X connect 7 0 6 1;
#X connect 9 0 18 0;
#X connect 10 0 9 0;
#X connect 12 0 13 0;
#X connect 13 0 14 0;
#X connect 13 0 17 0;
#X connect 17 0 15 0;
#X connect 17 0 15 1;
#X connect 18 0 19 0;
#X connect 18 1 19 1;
#X connect 18 3 19 2;
#X connect 18 4 19 3;
#X connect 18 6 19 4;
#X connect 18 7 19 5;
#X connect 18 9 19 6;
#X connect 18 10 19 7;
#X connect 18 12 19 8;
#X connect 18 13 19 9;
#X connect 18 15 19 10;
#X connect 18 16 19 11;
#X connect 19 0 20 0;
#X connect 19 0 16 0;
#X connect 19 0 23 0;
#X connect 24 0 8 0;
#X connect 24 0 12 0;
#X coords 0 625 1 624 200 200 0;
