#N canvas 681 129 450 300 10;
#X floatatom 96 39 5 0 0 0 - - -;
#X text 43 173 celsius;
#X text 33 39 Farenheit;
#X obj 97 69 - 32;
#X obj 95 103 * 5;
#X obj 95 133 / 9;
#X floatatom 96 173 5 0 0 0 - - -;
#X connect 0 0 3 0;
#X connect 3 0 4 0;
#X connect 4 0 5 0;
#X connect 5 0 6 0;
