#N canvas 755 150 1072 885 10;
#X obj 583 302 routeOSC /pot1 /pot2 /pot3 /pot4 /pot5 /pot6 /pot7;
#X obj 643 268 routeOSC /but1 /but2 /but3 /but4;
#X obj 578 352 print pot1;
#X obj 690 354 print pot2;
#X obj 586 74 netreceive 3000;
#X obj 586 138 s p1;
#X obj 627 138 s p2;
#X obj 669 137 s p3;
#X obj 715 137 s p4;
#X text 583 37 Receive messages from Python and route them to the proper
receive objects;
#X obj 586 107 route 0 1 2 3 4 5 6 7;
#X obj 37 97 print parsed;
#X obj 106 34 netreceive -u -b 9002;
#X obj 106 68 oscparse;
#X obj 188 107 list trim;
#X obj 181 138 route address1 address2;
#X obj 168 193 print address1;
#X obj 284 193 print address2;
#X connect 0 0 2 0;
#X connect 4 0 10 0;
#X connect 10 4 5 0;
#X connect 10 5 6 0;
#X connect 10 6 7 0;
#X connect 10 7 8 0;
#X connect 12 0 13 0;
#X connect 12 0 11 0;
#X connect 13 0 14 0;
#X connect 14 0 15 0;
#X connect 15 0 16 0;
#X connect 15 1 17 0;
