#N canvas 293 379 450 300 10;
#X obj 321 52 loadbang;
#X obj 233 142 symbol \$1;
#X obj 365 144 f \$3;
#X obj 298 142 symbol \$2;
#X obj 228 180 pack s s f;
#X msg 228 219 \; \$3-\$1CanvasIn label \$2;
#X obj 324 84 t b b b;
#X obj 106 100 hradio 18 1 0 5 empty \$3-\$1CtlIn empty 0 -8 0 10 -262144
-1 -1 0;
#X obj 75 130 t b;
#X obj 75 152 s \$3-\$1Ctl;
#X obj 582 140 symbol \$1;
#X obj 677 185 del 250;
#X obj 542 197 pack f s f;
#X obj 547 96 t f b b b;
#X msg 662 220 22;
#X msg 547 74 10;
#X obj 550 50 r \$3-\$1Ctl;
#X obj 607 167 f \$3;
#X msg 542 241 \; \$3-\$2CanvasIn color 0 \$1;
#X obj 100 100 cnv 15 104 18 \$3-\$1Canvas \$3-\$1CanvasIn dark 6 9
0 10 -262144 -1 0;
#X connect 0 0 6 0;
#X connect 1 0 4 0;
#X connect 2 0 4 2;
#X connect 3 0 4 1;
#X connect 4 0 5 0;
#X connect 6 0 1 0;
#X connect 6 1 3 0;
#X connect 6 2 2 0;
#X connect 7 0 8 0;
#X connect 8 0 9 0;
#X connect 10 0 12 1;
#X connect 11 0 14 0;
#X connect 12 0 18 0;
#X connect 13 0 12 0;
#X connect 13 1 10 0;
#X connect 13 2 17 0;
#X connect 13 3 11 0;
#X connect 14 0 12 0;
#X connect 15 0 13 0;
#X connect 16 0 15 0;
#X connect 17 0 12 2;
#X coords 0 -1 1 1 104 18 2 100 100;
