#N canvas 424 294 961 470 10;
#X obj 581 201 sel 1 0;
#X obj 503 45 loadbang;
#X obj 600 253 pack f s;
#X obj 581 354 pack f s;
#X obj 313 35 t b;
#X obj 309 87 noguitgl;
#X obj 309 139 spigot;
#X msg 435 71 0;
#X obj 465 103 expr 1-$f1;
#X obj 309 113 t b f;
#X obj 703 165 pack f s;
#X obj 703 113 t b;
#X msg 703 191 \; \$1-rewriteAll\$2CanvasIn label clear;
#X obj 166 227 pack f s;
#X msg 166 253 \; \$1-rewriteAll\$2CanvasIn label yes;
#X obj 351 35 t b;
#X obj 581 175 r \$2-clearAll\$1Ctl;
#X obj 600 227 f \$2;
#X obj 645 227 ts \$1;
#X obj 435 45 r \$2-\$1No;
#X obj 465 129 s \$2-clearAll\$1Ctl;
#X obj 309 165 s \$2-rewriteAll\$1Ctl;
#X obj 581 328 f \$2;
#X obj 626 328 ts \$1;
#X obj 351 61 s \$2-\$1No;
#X obj 211 201 ts \$1;
#X obj 166 201 f \$2;
#X obj 703 139 f \$2;
#X obj 748 139 ts \$1;
#X obj 474 340 ts \$1;
#X obj 407 366 pack f f s;
#X obj 445 314 lbf \$2;
#X obj 407 314 line;
#X obj 703 87 pipe 300;
#X obj 0 0 cnv 15 306 18 empty empty empty 20 12 0 14 -262144 -66577
0;
#X msg 600 279 \; \$1-all\$2CanvasIn color 0 22 \; \$1-no\$2CanvasIn
color 0 0;
#X msg 581 380 \; \$1-all\$2CanvasIn color 0 22 \; \$1-no\$2CanvasIn
color 0 22;
#X msg 407 392 \; \$2-all\$3CanvasIn pos \$1 0;
#X obj 435 191 t b b;
#X obj 462 243 change;
#X obj 166 176 sel 0 1;
#X obj 253 0 bng 18 250 50 0 empty empty empty 17 7 0 10 -262144 -1
-1;
#X obj 241 0 cnv 18 18 18 empty \$2-all\$1CanvasIn clear_all? 6 9 0
10 -262144 -1 0;
#X obj 288 0 bng 18 250 50 0 empty empty empty 17 7 0 10 -262144 -1
-1;
#X obj 247 0 cnv 18 50 18 empty \$2-rewriteAll\$1CanvasIn clear 0 9
0 10 -262144 -1 0;
#X obj 288 0 cnv 18 18 18 empty \$2-no\$1CanvasIn no 0 9 0 10 -262144
-262144 0;
#X msg 433 286 241 250;
#X msg 407 261 158 250;
#X msg 462 217 241;
#X connect 0 0 22 0;
#X connect 0 1 17 0;
#X connect 1 0 7 0;
#X connect 2 0 35 0;
#X connect 3 0 36 0;
#X connect 4 0 5 0;
#X connect 5 0 9 0;
#X connect 5 0 8 0;
#X connect 5 0 40 0;
#X connect 6 0 21 0;
#X connect 7 0 5 1;
#X connect 7 0 9 0;
#X connect 7 0 0 0;
#X connect 7 0 20 0;
#X connect 7 0 33 0;
#X connect 7 0 38 0;
#X connect 8 0 20 0;
#X connect 9 0 6 0;
#X connect 9 1 6 1;
#X connect 10 0 12 0;
#X connect 11 0 27 0;
#X connect 13 0 14 0;
#X connect 15 0 24 0;
#X connect 16 0 0 0;
#X connect 17 0 2 0;
#X connect 18 0 2 1;
#X connect 19 0 7 0;
#X connect 22 0 3 0;
#X connect 23 0 3 1;
#X connect 25 0 13 1;
#X connect 26 0 13 0;
#X connect 27 0 10 0;
#X connect 28 0 10 1;
#X connect 29 0 30 2;
#X connect 30 0 37 0;
#X connect 31 0 30 1;
#X connect 32 0 30 0;
#X connect 33 0 11 0;
#X connect 38 0 46 0;
#X connect 38 1 48 0;
#X connect 39 0 32 0;
#X connect 40 0 26 0;
#X connect 40 0 47 0;
#X connect 40 1 46 0;
#X connect 40 1 33 0;
#X connect 41 0 4 0;
#X connect 43 0 15 0;
#X connect 46 0 32 0;
#X connect 47 0 32 0;
#X connect 48 0 39 0;
#X coords 0 -1 1 1 306 18 2 0 0;
