#N canvas 475 68 655 381 10;
#X obj 100 100 bng 19 250 50 0 \$2-\$1info empty empty 20 8 0 11 -262144
-1 -1;
#X obj 100 100 cnv 19 19 19 empty \$2-\$1infoCanvasIn (i) -1 10 0 11
-99865 -262144 0;
#X obj 313 124 del 250;
#X msg 195 82 10;
#X obj 195 56 r \$2-\$1info;
#X obj 264 163 lbf \$2;
#X obj 271 93 unpack f f;
#X msg 195 245 \; \$4-\$3infoCanvasIn color \$1 \$2;
#X obj 195 219 pack f f s f;
#X obj 241 137 ts \$1;
#X obj 313 150 f;
#X obj 313 177 t b f;
#X obj 195 108 t b f b;
#X obj 271 70 r \$2-settingsColor;
#X connect 2 0 10 0;
#X connect 3 0 12 0;
#X connect 4 0 3 0;
#X connect 5 0 8 3;
#X connect 6 0 8 0;
#X connect 6 1 8 1;
#X connect 6 1 10 1;
#X connect 8 0 7 0;
#X connect 9 0 8 2;
#X connect 10 0 11 0;
#X connect 11 0 8 0;
#X connect 11 1 8 1;
#X connect 12 0 8 0;
#X connect 12 1 8 1;
#X connect 12 2 2 0;
#X connect 13 0 6 0;
#X coords 0 -1 1 1 19 19 2 100 100;
