#N canvas 671 0 912 784 10;
#X obj 211 216 ctlin;
#X obj 382 254 sel;
#X obj 349 329 spigot;
#X msg 411 284 0;
#X msg 382 284 1;
#X obj 194 14 ctlin;
#X obj 211 126 spigot;
#X obj 211 313 spigot;
#X msg 273 268 0;
#X msg 244 268 1;
#X obj 244 238 sel;
#X obj 363 117 spigot;
#X obj 369 211 ctlin;
#X obj 618 423 sel 0;
#X obj 637 502 f;
#X obj 729 465 f;
#X obj 618 449 t b b b;
#X obj 363 359 spigot;
#N canvas 67 223 458 442 generate_txt 0;
#X obj 99 300 s \$0-ctlRead;
#X obj 210 300 s \$0-chRead;
#X obj 106 155 t b b;
#X obj 106 126 r \$2-rewriteAllMidiCtl;
#X obj 147 87 r \$2-\$1midiclearCtl;
#X obj 105 270 unpack f f;
#N canvas 0 0 450 300 writetxt 0;
#X msg 9 142 clear;
#X obj -40 220 textfile;
#X obj -40 29 inlet;
#X obj -96 168 symbol \$1;
#X obj -40 84 t b b b;
#X msg -31 116 add2 -1 -1;
#X msg -98 195 write midi/\$1.txt;
#X connect 0 0 1 0;
#X connect 2 0 4 0;
#X connect 3 0 6 0;
#X connect 4 0 3 0;
#X connect 4 1 5 0;
#X connect 4 2 0 0;
#X connect 5 0 1 0;
#X connect 6 0 1 0;
#X restore 135 185 pd writetxt;
#X obj 105 244 readtxt midi/\$1.txt;
#X connect 2 0 7 0;
#X connect 2 1 6 0;
#X connect 3 0 2 0;
#X connect 4 0 2 0;
#X connect 5 0 0 0;
#X connect 5 1 1 0;
#X connect 7 0 5 0;
#X restore 779 33 pd generate_txt;
#X obj 553 653 sel 1;
#X obj 39 198 sel -1;
#X obj 560 122 sel -1;
#X msg -4 224 symbol;
#X msg 560 148 symbol;
#N canvas 416 202 862 554 color 0;
#X obj 74 65 inlet;
#X obj 74 92 t b;
#X obj 73 118 del 250;
#X obj 89 173 ts \$1;
#X obj 198 202 lbf \$2;
#X msg 138 161 22;
#X obj 63 229 pack f s f;
#X msg 531 323 \; \$3-\$2MidiNameCanvasIn color 0 \$1;
#X obj 540 125 noguitgl;
#X obj 540 151 sel 0 1;
#X msg 559 177 22;
#X obj 464 237 pack f s f;
#X obj 492 201 symbol \$1;
#X obj 554 221 f \$2;
#X obj 479 135 loadbang;
#X obj 521 41 sel 0 1;
#X msg 506 83 stop;
#X obj 540 99 metro 250;
#X msg 486 109 0;
#X msg 318 308 \; \$3-\$2-ctlCanvas color 0 \$1 \; \$3-\$2-chCanvas
color 0 \$1 \; \$3-\$2-valueCanvas color 0 \$1 \;;
#X msg 63 255 \; \$3-\$2-ctlCanvas color 0 \$1 \; \$3-\$2-valueCanvas
color 0 \$1 \; \$3-\$2-chCanvas color 0 \$1 \; \$3-\$2-midictlBg color
\$1 0;
#X obj 531 297 pack f s f;
#X obj 467 57 t b b b;
#X msg 435 99 22;
#X obj 521 17 r \$0-changeCtl;
#X msg 530 177 11;
#X msg 52 157 11;
#X connect 0 0 1 0;
#X connect 1 0 2 0;
#X connect 1 0 5 0;
#X connect 2 0 26 0;
#X connect 3 0 6 1;
#X connect 4 0 6 2;
#X connect 5 0 6 0;
#X connect 6 0 20 0;
#X connect 8 0 9 0;
#X connect 9 0 25 0;
#X connect 9 1 10 0;
#X connect 10 0 11 0;
#X connect 11 0 19 0;
#X connect 11 0 21 0;
#X connect 12 0 11 1;
#X connect 12 0 21 1;
#X connect 13 0 11 2;
#X connect 13 0 21 2;
#X connect 14 0 12 0;
#X connect 14 0 13 0;
#X connect 15 0 22 0;
#X connect 15 1 17 0;
#X connect 16 0 17 0;
#X connect 17 0 8 0;
#X connect 18 0 8 0;
#X connect 21 0 7 0;
#X connect 22 0 23 0;
#X connect 22 1 18 0;
#X connect 22 2 16 0;
#X connect 23 0 21 0;
#X connect 24 0 15 0;
#X connect 25 0 11 0;
#X connect 26 0 6 0;
#X restore 742 274 pd color;
#X obj 741 252 r \$1-MUActivColor;
#X obj 209 571 s \$1-MUActivColor;
#X obj 210 545 t b;
#X obj 553 627 r midiSee;
#X obj 22 164 r \$0-ctlRead;
#X obj 300 188 r \$0-chRead;
#X obj 265 116 s \$0-changeCtl;
#X obj 513 95 r \$0-chRead;
#X obj 396 90 r \$0-changeCtl;
#X obj 395 148 s \$0-ch;
#X obj 251 180 r \$0-ch;
#X obj 618 396 r \$0-changeCtl;
#X obj 652 476 r \$0-ctl;
#X obj 129 149 s \$0-ctl;
#X obj 744 438 r \$0-ch;
#X obj 445 239 r \$0-ctlRead;
#X obj 409 217 r \$0-ctl;
#X obj 244 74 r \$2-\$1-midiCheck;
#X obj 363 391 s \$2-\$1_ctl;
#X obj 17 356 ts \$1;
#X obj 88 252 ts \$1;
#X obj 277 392 ts \$1;
#X obj 607 148 ts \$1;
#X obj 734 118 ts \$1;
#X obj 634 3 loadbang;
#X obj 634 24 pipe 100;
#X msg 22 319 \; \$3-\$2-ctlCanvas label ctl:\$1;
#X obj 22 298 pack f s f;
#X obj 88 275 lbf \$2;
#X obj -10 380 pack s s f;
#X obj 55 357 lbf \$2;
#X msg -10 401 \; \$3-\$2-ctlCanvas label ctl:\$1;
#X obj 560 200 pack s s f;
#X msg 559 225 \; \$3-\$2-chCanvas label ch:\$1;
#X obj 618 170 lbf \$2;
#X msg 709 176 \; \$3-\$2-chCanvas label ch:\$1;
#X obj 710 150 pack f s f;
#X obj 782 117 lbf \$2;
#X obj 205 437 pack f s f;
#X obj 280 412 lbf \$2;
#X msg 205 457 \; \$3-\$2-valueCanvas label :\$1;
#X obj 616 735 s \$0-ctlRead;
#X obj 675 716 s \$0-chRead;
#N canvas 0 0 450 300 reverse 0;
#X obj 222 111 inlet;
#X obj 111 98 inlet;
#X obj 219 171 expr 1-$f1;
#X obj 103 204 spigot;
#X obj 182 217 spigot;
#X obj 104 234 expr 127-$f1;
#X obj 117 268 outlet;
#X connect 0 0 2 0;
#X connect 0 0 3 1;
#X connect 1 0 3 0;
#X connect 1 0 4 0;
#X connect 2 0 4 1;
#X connect 3 0 5 0;
#X connect 4 0 6 0;
#X connect 5 0 6 0;
#X restore 443 490 pd reverse;
#X obj 500 353 r \$2-\$1midireverseCtl;
#X msg 525 427 0;
#X obj 525 402 loadbang;
#X obj 618 693 unpack f f;
#X obj 634 47 s \$2-\$1-midiLatebang;
#X obj 647 610 r \$2-\$1-midiLatebang;
#X obj 423 308 r \$2-midiInUse;
#N canvas 0 0 450 300 receives_if_hidden 1;
#X obj 85 70 r \$2-\$1-ctlCanvas;
#X obj 91 98 r \$2-\$1-valueCanvas;
#X obj 98 119 r \$2-\$1-chCanvas;
#X obj 99 176 r \$2-\$1-changeCtlIn;
#X obj 101 143 r \$2-\$1-midictlBg;
#X restore 726 314 pd receives_if_hidden;
#N canvas 0 0 450 300 writetxt 0;
#X msg 22 170 clear;
#X obj -40 220 textfile;
#X obj -40 29 inlet;
#X obj -96 168 symbol \$1;
#X msg -98 195 write midi/\$1.txt;
#X obj 58 29 inlet;
#X obj -33 113 pack f f;
#X obj -40 84 t b f b;
#X msg -38 144 add2 \$1 \$2;
#X connect 0 0 1 0;
#X connect 2 0 7 0;
#X connect 3 0 4 0;
#X connect 4 0 1 0;
#X connect 5 0 6 1;
#X connect 6 0 8 0;
#X connect 7 0 3 0;
#X connect 7 1 6 0;
#X connect 7 2 0 0;
#X connect 8 0 1 0;
#X restore 665 534 pd writetxt;
#X obj 618 669 readtxt midi/\$1.txt;
#X connect 0 0 68 0;
#X connect 0 2 10 0;
#X connect 1 0 4 0;
#X connect 1 1 3 0;
#X connect 2 0 17 0;
#X connect 3 0 2 1;
#X connect 4 0 2 1;
#X connect 5 1 6 0;
#X connect 5 2 11 0;
#X connect 6 0 38 0;
#X connect 6 0 52 0;
#X connect 7 0 2 0;
#X connect 8 0 7 1;
#X connect 9 0 7 1;
#X connect 10 0 9 0;
#X connect 10 1 8 0;
#X connect 11 0 34 0;
#X connect 11 0 61 0;
#X connect 12 1 1 0;
#X connect 13 0 16 0;
#X connect 14 0 77 0;
#X connect 15 0 77 1;
#X connect 16 0 78 0;
#X connect 16 1 14 0;
#X connect 16 2 15 0;
#X connect 17 0 27 0;
#X connect 17 0 43 0;
#X connect 17 0 63 0;
#X connect 19 0 78 0;
#X connect 20 0 22 0;
#X connect 20 1 52 0;
#X connect 21 0 23 0;
#X connect 21 1 61 0;
#X connect 22 0 54 0;
#X connect 23 0 57 0;
#X connect 25 0 24 0;
#X connect 27 0 26 0;
#X connect 28 0 19 0;
#X connect 29 0 20 0;
#X connect 30 0 10 1;
#X connect 32 0 21 0;
#X connect 33 0 11 1;
#X connect 35 0 10 1;
#X connect 36 0 13 0;
#X connect 37 0 14 1;
#X connect 39 0 15 1;
#X connect 40 0 1 1;
#X connect 41 0 1 1;
#X connect 42 0 31 0;
#X connect 42 0 6 1;
#X connect 44 0 54 1;
#X connect 45 0 52 1;
#X connect 46 0 63 1;
#X connect 47 0 57 1;
#X connect 48 0 61 1;
#X connect 49 0 50 0;
#X connect 50 0 73 0;
#X connect 52 0 51 0;
#X connect 53 0 52 2;
#X connect 54 0 56 0;
#X connect 55 0 54 2;
#X connect 57 0 58 0;
#X connect 59 0 57 2;
#X connect 61 0 60 0;
#X connect 62 0 61 2;
#X connect 63 0 65 0;
#X connect 64 0 63 2;
#X connect 68 0 7 0;
#X connect 69 0 68 1;
#X connect 70 0 68 1;
#X connect 71 0 70 0;
#X connect 72 0 66 0;
#X connect 72 1 67 0;
#X connect 74 0 78 0;
#X connect 75 0 17 1;
#X connect 78 0 72 0;
#X coords 0 0 1 1 160 17 0;
