#N canvas 120 76 577 363 10;
#X obj 216 133 ctlin;
#X msg 229 211 0;
#X obj 229 237 spigot;
#X obj 229 159 t b;
#X obj 229 185 del 100;
#X obj 357 263 s \$2-\$1-midiCheck;
#X obj 229 263 s \$2-\$1-changeCtlIn;
#N canvas 0 0 450 300 saveset_reverse 0;
#X obj 270 167 del 1000;
#X obj 270 192 f;
#X obj 270 141 t b f;
#N canvas 479 63 450 300 writetxt 0;
#X msg 9 142 clear;
#X obj -40 220 textfile;
#X obj -40 29 inlet;
#X obj -96 168 symbol \$1;
#X obj -40 84 t b f b;
#X msg -31 116 add2 \$1;
#X msg -98 195 write settings/\$1midireverse.txt;
#X connect 0 0 1 0;
#X connect 2 0 4 0;
#X connect 3 0 6 0;
#X connect 4 0 3 0;
#X connect 4 1 5 0;
#X connect 4 2 0 0;
#X connect 5 0 1 0;
#X connect 6 0 1 0;
#X restore 270 218 pd writetxt;
#X obj 32 174 unpack f;
#X obj 32 96 loadbang;
#X obj 32 201 s \$2-\$1midireverseCtlIn;
#X obj 270 117 r \$2-\$1midireverseCtl;
#X obj 32 148 readtxt settings/\$1midireverse.txt;
#X obj 32 122 del 100;
#X connect 0 0 1 0;
#X connect 1 0 3 0;
#X connect 2 0 0 0;
#X connect 2 1 1 1;
#X connect 4 0 6 0;
#X connect 5 0 9 0;
#X connect 7 0 2 0;
#X connect 8 0 4 0;
#X connect 9 0 8 0;
#X restore 101 195 pd saveset_reverse;
#X obj 101 143 t b;
#X obj 101 169 s \$2-\$1-changeCtlIn;
#X obj 100 101 hradio 18 1 0 4 empty empty empty 0 -8 0 10 -262144
-1 -1 0;
#X obj 169 100 cnv 15 204 20 empty \$2-\$1-midictlBg empty 20 12 0
14 -128992 -262144 0;
#X obj 170 101 cnv 15 202 18 empty empty empty 20 12 0 14 -262144 -66577
0;
#N canvas 517 259 656 399 midireverse 0;
#X obj 100 100 tgl 18 0 \$2-\$1midireverseCtl \$2-\$1midireverseCtlIn
empty 17 7 0 10 -262144 -1 -1 0 1;
#X obj 100 100 cnv 18 18 18 empty \$2-\$1midireverseCanvasIn > 4 9
0 13 -262144 -1 0;
#X obj 247 31 sel 0 1;
#X obj 249 2 r \$2-\$1midireverseCtl;
#X msg 190 103 symbol >;
#X msg 199 139 symbol <;
#X obj 227 180 pack s s f;
#X obj 317 122 f \$2;
#X msg 229 218 \; \$3-\$2midireverseCanvasIn label \$1;
#X obj 255 122 symbol \$1;
#X obj 286 71 t b b;
#X obj 242 70 t b b;
#X connect 2 0 11 0;
#X connect 2 1 10 0;
#X connect 3 0 2 0;
#X connect 4 0 6 0;
#X connect 5 0 6 0;
#X connect 6 0 8 0;
#X connect 7 0 6 2;
#X connect 9 0 6 1;
#X connect 10 0 5 0;
#X connect 10 1 7 0;
#X connect 10 1 9 0;
#X connect 11 0 4 0;
#X connect 11 1 7 0;
#X connect 11 1 9 0;
#X coords 0 -1 1 1 18 18 2 100 100;
#X restore 299 101 pd midireverse;
#N canvas 0 0 579 467 midiclear 0;
#X obj 397 232 loadbang;
#X obj 397 310 symbol \$1;
#X obj 100 100 bng 18 250 50 0 \$2-\$1midiclearCtl \$2-\$1midiclearCtlIn
empty 17 7 0 10 -262144 -1 -1;
#X obj 424 284 f \$2;
#X obj 397 258 t b b;
#X obj 65 128 r \$2-\$1midiclearCtl;
#X obj 93 223 symbol \$1;
#X obj 122 249 f \$2;
#X obj 161 196 del 250;
#X msg 65 301 \; \$3-\$2midiclearCanvasIn color 0 \$1;
#X obj 65 275 pack f s f;
#X obj 65 180 t f b b b;
#X msg 161 223 22;
#X msg 65 154 10;
#X obj 310 128 r \$2-clearAllMidiCtl;
#X obj 310 154 sel 0 1;
#X obj 329 232 metro 250;
#X msg 337 208 stop;
#X msg 319 381 \; \$3-\$2midiclearCanvasIn color 0 \$1;
#X obj 319 355 pack f s f;
#X obj 329 258 noguitgl;
#X obj 329 284 sel 0 1;
#X msg 319 310 10;
#X msg 348 310 22;
#X obj 310 180 t b b;
#X msg 292 242 1;
#X obj 118 100 bng 18 250 50 0 \$2-\$1midiclearCtl \$2-\$1midiclearCtlIn
empty 17 7 0 10 -262144 -1 -1;
#X obj 100 100 cnv 18 36 18 \$2-\$1midiclearCanvas \$2-\$1midiclearCanvasIn
clear 2 9 0 10 -262144 -1 0;
#X connect 0 0 4 0;
#X connect 1 0 19 1;
#X connect 3 0 19 2;
#X connect 4 0 1 0;
#X connect 4 1 3 0;
#X connect 5 0 13 0;
#X connect 6 0 10 1;
#X connect 7 0 10 2;
#X connect 8 0 12 0;
#X connect 10 0 9 0;
#X connect 11 0 10 0;
#X connect 11 1 6 0;
#X connect 11 2 7 0;
#X connect 11 3 8 0;
#X connect 12 0 10 0;
#X connect 13 0 11 0;
#X connect 14 0 15 0;
#X connect 15 0 24 0;
#X connect 15 1 16 0;
#X connect 16 0 20 0;
#X connect 17 0 16 0;
#X connect 19 0 18 0;
#X connect 20 0 21 0;
#X connect 21 0 22 0;
#X connect 21 1 23 0;
#X connect 22 0 19 0;
#X connect 23 0 19 0;
#X connect 24 0 25 0;
#X connect 24 1 17 0;
#X connect 25 0 20 0;
#X coords 0 -1 1 1 36 18 2 100 100;
#X restore 336 101 pd midiclear;
#X obj 263 101 cnv 18 18 18 empty \$2-\$1-valueCanvas :0 2 9 0 10 -262144
-128992 0;
#X obj 172 101 cnv 18 18 18 empty \$2-\$1-ctlCanvas ctl:3 2 9 0 10
-262144 -128992 0;
#X obj 221 101 cnv 18 18 18 empty \$2-\$1-chCanvas ch:4 2 9 0 10 -262144
-128992 0;
#X obj 357 221 noguitgl;
#X obj 357 195 r \$2-\$1-changeCtlIn;
#X obj 100 100 cnv 20 68 20 empty \$2-\$1MidiNameCanvasIn \$1 2 10
0 10 -262144 -1 0;
#X connect 0 1 3 0;
#X connect 1 0 2 0;
#X connect 2 0 6 0;
#X connect 3 0 4 0;
#X connect 4 0 1 0;
#X connect 8 0 9 0;
#X connect 10 0 8 0;
#X connect 18 0 5 0;
#X connect 18 0 2 1;
#X connect 19 0 18 0;
#X coords 0 -1 1 1 273 20 2 100 100;
