#N canvas 0 0 653 300 10;
#X obj 280 150 del 1000;
#X obj 280 176 f;
#X obj 280 124 t b f;
#N canvas 479 63 450 300 writetxt 0;
#X msg 9 142 clear;
#X obj -40 220 textfile;
#X obj -40 29 inlet;
#X obj -96 168 symbol \$1;
#X obj -40 84 t b f b;
#X msg -31 116 add2 \$1;
#X msg -98 195 write settings/\$1.txt;
#X connect 0 0 1 0;
#X connect 2 0 4 0;
#X connect 3 0 6 0;
#X connect 4 0 3 0;
#X connect 4 1 5 0;
#X connect 4 2 0 0;
#X connect 5 0 1 0;
#X connect 6 0 1 0;
#X restore 280 202 pd writetxt;
#X obj 95 126 readtxt settings/\$1.txt;
#X obj 95 152 unpack f;
#X obj 83 72 t b f;
#X obj 95 100 del;
#X obj 95 178 s \$3-\$1CtlIn;
#X obj 280 99 r \$3-\$1Ctl;
#X obj 83 46 lbf \$2;
#X connect 0 0 1 0;
#X connect 1 0 3 0;
#X connect 2 0 0 0;
#X connect 2 1 1 1;
#X connect 4 0 5 0;
#X connect 5 0 8 0;
#X connect 6 0 7 0;
#X connect 6 1 7 1;
#X connect 7 0 4 0;
#X connect 9 0 2 0;
#X connect 10 0 6 0;
