#N canvas 0 0 341 290 10;
#X obj 46 88 t b f;
#X obj 46 142 del;
#X obj 46 168 outlet;
#X obj 46 62 r \$3-\$1;
#X obj 73 114 + \$2;
#X obj 130 62 inlet;
#X connect 0 0 1 0;
#X connect 0 1 4 0;
#X connect 1 0 2 0;
#X connect 3 0 0 0;
#X connect 4 0 1 1;
#X connect 5 0 4 1;
