#N canvas 319 119 1184 776 12;
#X obj 357 527 dac~;
#X obj 182 189 receive~;
#N canvas 39 129 1280 751 effects 0;
#X obj 100 101 cnv 15 150 100 empty empty Switcher 20 12 0 14 -233017
-66577 0;
#X floatatom 275 190 5 0 0 0 - - -;
#X obj 122 130 vradio 15 1 0 4 empty empty empty 0 -8 0 10 -262144
-1 -1 1;
#X text 144 130 Bypass;
#X text 144 145 Delay;
#X text 143 161 Chorus;
#X text 144 177 Tremolo;
#X floatatom 381 117 5 0 0 0 - - -;
#X obj 275 148 loadbang;
#X msg 194 470 set audio;
#X msg 267 470 set none;
#X msg 348 471 set audio;
#X msg 420 471 set none;
#X msg 504 471 set audio;
#X msg 580 471 set none;
#X obj 194 598 send delayswitch;
#X obj 348 598 send chorusswitch;
#X obj 504 599 send tremoloswitch;
#X obj 275 237 sel 0 1 2 3;
#X msg 47 470 set audio;
#X msg 119 470 set none;
#X obj 47 598 send bypassswitch;
#X obj 378 38 bng 15 250 50 0 empty empty empty 17 7 0 10 -262144 -1
-1;
#X obj 497 38 bng 15 250 50 0 empty empty empty 17 7 0 10 -262144 -1
-1;
#X obj 378 10 r button1;
#X obj 425 88 int;
#X msg 496 57 -1;
#X obj 470 87 + 1;
#X msg 422 53 1;
#X obj 468 110 mod 4;
#X obj 497 10 r button2;
#X connect 1 0 18 0;
#X connect 2 0 1 0;
#X connect 7 0 2 0;
#X connect 8 0 1 0;
#X connect 9 0 15 0;
#X connect 10 0 16 0;
#X connect 10 0 21 0;
#X connect 11 0 16 0;
#X connect 12 0 17 0;
#X connect 12 0 15 0;
#X connect 13 0 17 0;
#X connect 14 0 16 0;
#X connect 14 0 21 0;
#X connect 18 0 19 0;
#X connect 18 0 20 0;
#X connect 18 1 9 0;
#X connect 18 1 10 0;
#X connect 18 2 11 0;
#X connect 18 2 12 0;
#X connect 18 3 13 0;
#X connect 18 3 14 0;
#X connect 19 0 21 0;
#X connect 20 0 15 0;
#X connect 20 0 17 0;
#X connect 20 0 16 0;
#X connect 22 0 25 0;
#X connect 22 0 28 0;
#X connect 23 0 26 0;
#X connect 23 0 25 0;
#X connect 24 0 22 0;
#X connect 25 0 27 0;
#X connect 25 0 7 0;
#X connect 26 0 27 1;
#X connect 27 0 29 0;
#X connect 28 0 27 1;
#X connect 29 0 25 1;
#X connect 30 0 23 0;
#X coords 0 -1 1 1 150 100 1 100 100;
#X restore 178 37 pd effects switch;
#X obj 182 166 r delayswitch;
#X obj 187 510 receive~;
#X obj 187 487 r bypassswitch;
#X obj 177 249 sik/simpledelay;
#X obj 814 37 cnv 15 300 500 empty empty routing 20 12 0 14 -204800
-66577 0;
#X obj 863 315 r button1;
#X obj 863 338 bng 15 250 50 0 empty empty empty 17 7 0 10 -262144
-1 -1;
#X obj 969 315 r button2;
#X obj 863 402 r button3;
#X obj 969 402 r button4;
#X obj 969 338 bng 15 250 50 0 empty empty empty 17 7 0 10 -262144
-1 -1;
#X obj 863 425 bng 15 250 50 0 empty empty empty 17 7 0 10 -262144
-1 -1;
#X obj 969 425 bng 15 250 50 0 empty empty empty 17 7 0 10 -262144
-1 -1;
#X obj 863 447 s sampleUp;
#X obj 969 447 s sampleDown;
#X obj 863 60 sik/routing;
#X obj 928 145 r pot2;
#X obj 928 168 * 1000;
#X obj 983 145 r pot3;
#X obj 983 168 * 1;
#X obj 969 360 s nowwhere;
#X obj 34 37 cnv 15 120 400 empty empty Input 20 12 0 14 -261234 -66577
0;
#X obj 49 78 adc~;
#X obj 48 328 send~ audio;
#X obj 48 166 *~;
#X obj 84 173 line~;
#X obj 85 244 vu 30 80 empty empty -1 -8 1 8 -66577 -1 0 0;
#X obj 84 219 - 100;
#X obj 84 196 env~;
#X obj 84 150 \$1 50;
#X obj 84 80 vsl 30 60 0 1 0 0 empty empty empty 0 -9 0 10 -262144
-1 -1 0 1;
#X obj 864 191 s time;
#X obj 864 145 r pot1;
#X obj 928 191 s;
#X obj 864 168 * 1000;
#X obj 1051 191 s mix;
#X obj 1051 168 * 1;
#X obj 1051 145 r pot4;
#X obj 863 360 s onoffswitch;
#X msg 667 82 \; pd dsp \$1;
#X obj 667 60 tgl 15 0 empty empty empty 17 7 0 10 -262144 -1 -1 1
1;
#X obj 667 37 r onoffswitch;
#X obj 983 191 s;
#X obj 417 80 metro 450;
#X obj 418 30 tgl 15 0 empty empty empty 17 7 0 10 -262144 -1 -1 0
1;
#N canvas 60 130 778 800 sampler1 0;
#X obj 300 30 cnv 15 300 300 empty empty empty 20 12 0 14 -233017 -66577
0;
#N canvas 149 242 450 278 (subpatch) 0;
#X array sample1 17373 float 2;
#X coords 0 1 17373 -1 200 140 1 0 0;
#X restore 312 47 graph;
#X obj 31 549 *~;
#X obj 471 257 vsl 40 60 0 1 0 0 empty sample1volume Volume 0 -9 0
10 -262144 -1 -1 4900 1;
#X obj 25 94 soundfiler;
#X floatatom 44 117 12 0 0 0 - - -;
#X obj 26 174 expr 44100 / $f1;
#X floatatom 39 205 10 0 0 0 - - -;
#X obj 27 342 phasor~;
#X obj 28 425 *~;
#X obj 270 394 tgl 15 0 empty empty empty 17 7 0 10 -262144 -1 -1 1
1;
#X obj 270 417 metro 50;
#X obj 270 441 snapshot~;
#X floatatom 270 465 10 0 0 0 - - -;
#X obj 271 491 /;
#X floatatom 285 521 10 0 0 0 - - -;
#X obj 315 192 hsl 195 15 0 1 0 0 empty empty empty -2 -8 0 10 -262144
-1 -1 16119 1;
#X obj 315 213 hsl 195 15 -1 1 0 0 empty samplerSpeed empty -2 -8 0
10 -262144 -1 -1 19400 1;
#X floatatom 105 275 5 0 0 0 - - -;
#X msg 103 333 0;
#X msg 138 333 0.5;
#X msg 41 276 0;
#X text 38 246 pauses audio;
#X obj 30 498 tabread4~ sample1;
#X obj 31 614 outlet~;
#X obj 312 265 bng 50 250 50 0 empty sampler1Start Start 0 -7 0 10
-262144 -1 -1;
#X obj 382 265 bng 50 250 50 0 empty sampler1Stop Stop 0 -7 0 10 -262144
-1 -1;
#X obj 45 144 s sample1Size;
#X obj 73 411 r sample1Size;
#X obj 350 471 r sample1Size;
#X floatatom 178 186 5 0 0 0 - - -;
#X obj 177 165 r sampler1Speed;
#X obj 26 31 inlet;
#X msg 25 68 read -resize audio/absurdistan-kick.wav sample1;
#X msg 105 231 2.53842;
#X connect 2 0 24 0;
#X connect 3 0 2 1;
#X connect 4 0 5 0;
#X connect 4 0 6 0;
#X connect 5 0 27 0;
#X connect 6 0 7 0;
#X connect 6 0 8 0;
#X connect 8 0 9 0;
#X connect 9 0 12 0;
#X connect 9 0 23 0;
#X connect 10 0 11 0;
#X connect 11 0 12 0;
#X connect 12 0 13 0;
#X connect 13 0 14 0;
#X connect 14 0 15 0;
#X connect 14 0 16 0;
#X connect 17 0 18 0;
#X connect 18 0 8 0;
#X connect 19 0 8 1;
#X connect 20 0 8 1;
#X connect 21 0 8 0;
#X connect 23 0 2 0;
#X connect 25 0 19 0;
#X connect 25 0 34 0;
#X connect 26 0 21 0;
#X connect 28 0 9 1;
#X connect 29 0 14 1;
#X connect 31 0 30 0;
#X connect 32 0 33 0;
#X connect 33 0 4 0;
#X connect 34 0 17 0;
#X coords 0 -1 1 1 240 300 1 300 30;
#X restore 496 146 pd sampler1;
#X obj 526 38 loadbang;
#X obj 418 112 s sampler1Start;
#X connect 1 0 6 0;
#X connect 1 0 6 1;
#X connect 3 0 1 0;
#X connect 4 0 0 0;
#X connect 4 0 0 1;
#X connect 5 0 4 0;
#X connect 6 0 0 0;
#X connect 6 1 0 1;
#X connect 8 0 9 0;
#X connect 9 0 41 0;
#X connect 10 0 13 0;
#X connect 11 0 14 0;
#X connect 12 0 15 0;
#X connect 13 0 23 0;
#X connect 14 0 16 0;
#X connect 15 0 17 0;
#X connect 19 0 20 0;
#X connect 20 0 36 0;
#X connect 21 0 22 0;
#X connect 22 0 45 0;
#X connect 25 0 27 0;
#X connect 25 1 27 0;
#X connect 27 0 26 0;
#X connect 27 0 31 0;
#X connect 28 0 27 1;
#X connect 30 0 29 0;
#X connect 31 0 30 0;
#X connect 32 0 28 0;
#X connect 33 0 32 0;
#X connect 35 0 37 0;
#X connect 37 0 34 0;
#X connect 39 0 38 0;
#X connect 40 0 39 0;
#X connect 43 0 42 0;
#X connect 44 0 43 0;
#X connect 46 0 50 0;
#X connect 47 0 46 0;
#X connect 48 0 0 0;
#X connect 49 0 48 0;
